<?xml version="1.0" encoding="utf-8"?>
<!-- Generator: Adobe Illustrator 15.1.0, SVG Export Plug-In . SVG Version: 6.00 Build 0)  -->
<!DOCTYPE svg PUBLIC "-//W3C//DTD SVG 1.1//EN" "http://www.w3.org/Graphics/SVG/1.1/DTD/svg11.dtd">
<svg version="1.1" id="Layer_1" xmlns="http://www.w3.org/2000/svg" xmlns:xlink="http://www.w3.org/1999/xlink" x="0px" y="0px"
	 width="232.059px" height="148.482px" viewBox="0.484 2.363 232.059 148.482" enable-background="new 0.484 2.363 232.059 148.482"
	 xml:space="preserve">
<g enable-background="new    ">
	<path fill="#2E3C40" d="M32.428,40.152c0.208,0,0.386-0.073,0.534-0.222c0.146-0.148,0.226-0.326,0.233-0.534v-6.684
		c-0.017-0.208-0.075-0.36-0.181-0.456c-0.19-0.176-0.388-0.266-0.588-0.266h-0.156v-0.119h4.598c0.392,0,0.716-0.029,0.972-0.091
		c0.256-0.06,0.412-0.102,0.468-0.126v2.102l-0.12-0.013v-0.133c0-0.496-0.184-0.848-0.552-1.056
		c-0.176-0.104-0.384-0.16-0.624-0.168h-2.016v3.492h1.584c0.296-0.008,0.54-0.11,0.73-0.308c0.192-0.194,0.288-0.438,0.288-0.726
		V34.74h0.12v2.772H37.6v-0.097c0-0.296-0.094-0.54-0.282-0.731c-0.188-0.191-0.426-0.292-0.714-0.3h-1.606v3.372h1.57
		c0.584,0,1.074-0.168,1.472-0.504c0.396-0.337,0.688-0.812,0.882-1.43h0.12l-0.553,2.448h-6.217v-0.12L32.428,40.152L32.428,40.152
		z"/>
	<path fill="#2E3C40" d="M55.096,31.992c-0.28,0-0.492,0.119-0.636,0.359c-0.064,0.104-0.102,0.225-0.108,0.36v6.19
		c0,0.536,0.036,0.988,0.108,1.356l0.036,0.18h-0.108l-6.06-5.771v4.764c0,0.2,0.07,0.37,0.216,0.51
		c0.144,0.142,0.314,0.21,0.516,0.21h0.229v0.12h-3.638v-0.12h0.218c0.208,0,0.384-0.068,0.526-0.21
		c0.146-0.14,0.216-0.312,0.216-0.521v-6.229c0-0.527-0.034-0.968-0.106-1.319l-0.024-0.181h0.108l6.06,5.772v-4.74
		c-0.008-0.208-0.084-0.382-0.228-0.521c-0.146-0.141-0.316-0.21-0.518-0.21h-0.216v-0.12h3.638v0.12H55.096z"/>
	<path fill="#2E3C40" d="M66.964,40.435c-1.544-0.004-2.757-0.395-3.637-1.17c-0.881-0.776-1.319-1.84-1.319-3.192
		c0-1.352,0.436-2.418,1.308-3.197s2.068-1.17,3.588-1.17c1.16,0,2.156,0.217,2.988,0.647l0.024,2.063h-0.098
		c-0.407-1.473-1.34-2.208-2.796-2.208c-0.943,0-1.689,0.343-2.237,1.025c-0.549,0.686-0.821,1.618-0.821,2.803
		s0.262,2.124,0.786,2.819c0.522,0.696,1.232,1.057,2.13,1.08c0.928,0,1.636-0.231,2.124-0.696c0.495-0.479,0.84-1.304,1.031-2.472
		h0.097l0.12,2.063C69.604,39.904,68.508,40.438,66.964,40.435z"/>
	<path fill="#2E3C40" d="M85.647,31.992h-0.168c-0.238,0-0.468,0.067-0.684,0.203c-0.216,0.138-0.388,0.301-0.517,0.492
		l-2.363,3.769v2.939c0,0.208,0.076,0.386,0.228,0.534c0.152,0.147,0.332,0.222,0.54,0.222h0.146l0.012,0.12h-3.648v-0.12h0.156
		c0.208,0,0.386-0.071,0.534-0.216c0.147-0.145,0.226-0.319,0.234-0.527v-2.965l-2.292-3.768c-0.12-0.192-0.29-0.354-0.512-0.486
		c-0.22-0.132-0.444-0.197-0.678-0.197h-0.168v-0.12h3.972v0.12h-0.154c-0.178,0-0.312,0.079-0.408,0.239
		c-0.048,0.088-0.072,0.174-0.072,0.258s0.021,0.166,0.061,0.246l1.717,3.12l1.788-3.12c0.04-0.08,0.06-0.162,0.06-0.246
		s-0.028-0.166-0.084-0.245c-0.096-0.168-0.232-0.252-0.408-0.252h-0.144v-0.12h2.854L85.647,31.992L85.647,31.992z"/>
	<path fill="#2E3C40" d="M96.292,40.435c-1.544-0.004-2.757-0.395-3.638-1.17c-0.88-0.776-1.318-1.84-1.318-3.192
		c0-1.352,0.436-2.418,1.308-3.197s2.068-1.17,3.588-1.17c1.16,0,2.156,0.217,2.988,0.647l0.024,2.063h-0.098
		c-0.408-1.473-1.34-2.208-2.796-2.208c-0.943,0-1.689,0.343-2.238,1.025c-0.548,0.686-0.82,1.618-0.82,2.803
		s0.262,2.124,0.786,2.819c0.522,0.696,1.232,1.057,2.13,1.08c0.928,0,1.636-0.231,2.124-0.696c0.495-0.479,0.84-1.304,1.03-2.472
		h0.098l0.12,2.063C98.932,39.904,97.836,40.438,96.292,40.435z"/>
	<path fill="#2E3C40" d="M106.78,40.152c0.208,0,0.387-0.073,0.533-0.222c0.148-0.148,0.228-0.326,0.234-0.534v-6.647
		c-0.008-0.208-0.086-0.387-0.234-0.533c-0.146-0.148-0.325-0.223-0.533-0.223h-0.155v-0.12h3.646l-0.012,0.12h-0.144
		c-0.208,0-0.39,0.073-0.54,0.223c-0.152,0.146-0.229,0.325-0.229,0.533v7.009h1.572c0.584,0,1.074-0.168,1.47-0.504
		c0.396-0.337,0.69-0.812,0.882-1.43h0.12l-0.552,2.448h-6.216v-0.12H106.78z"/>
	<path fill="#2E3C40" d="M121.281,32.881c0.853-0.784,2-1.177,3.444-1.177s2.592,0.393,3.444,1.177
		c0.852,0.784,1.276,1.848,1.276,3.19c0,1.344-0.426,2.408-1.276,3.192c-0.854,0.784-2,1.176-3.444,1.176s-2.593-0.392-3.444-1.176
		c-0.851-0.784-1.276-1.849-1.276-3.192C120.004,34.729,120.43,33.665,121.281,32.881z M122.709,38.898
		c0.492,0.692,1.162,1.038,2.011,1.038c0.848,0,1.52-0.346,2.016-1.038c0.496-0.69,0.744-1.634,0.744-2.826
		c0-1.19-0.248-2.134-0.744-2.825s-1.168-1.038-2.016-1.038c-0.849,0-1.519,0.347-2.011,1.038s-0.737,1.635-0.737,2.825
		C121.972,37.265,122.217,38.207,122.709,38.898z"/>
	<path fill="#2E3C40" d="M143.235,34.272c0,0.368-0.07,0.716-0.216,1.044c-0.271,0.632-0.775,1.064-1.512,1.296
		c-0.217,0.072-0.416,0.108-0.602,0.108c-0.566,0-1.074-0.148-1.523-0.444v-0.12c0.601,0.018,1.084-0.18,1.453-0.588
		c0.318-0.352,0.479-0.812,0.479-1.38c0-0.576-0.138-1.021-0.414-1.338c-0.275-0.316-0.648-0.475-1.122-0.475h-0.804v7.021
		c0,0.208,0.075,0.386,0.229,0.534c0.151,0.147,0.332,0.222,0.541,0.222h0.154v0.12h-3.646v-0.12h0.154
		c0.208,0,0.387-0.073,0.534-0.222c0.148-0.148,0.228-0.326,0.234-0.534v-6.708c0-0.2-0.076-0.366-0.229-0.498
		c-0.152-0.132-0.332-0.197-0.54-0.197h-0.154v-0.12h4.008c0.976,0,1.711,0.209,2.207,0.624
		C142.979,32.937,143.235,33.528,143.235,34.272z"/>
	<path fill="#2E3C40" d="M152.932,40.152c0.16,0,0.298-0.056,0.414-0.168c0.116-0.111,0.178-0.248,0.187-0.407v-3.12h-1.921
		l-1.8,2.965c-0.062,0.119-0.096,0.222-0.096,0.306s0.022,0.158,0.072,0.222c0.096,0.138,0.23,0.204,0.406,0.204h0.014h0.12v0.12
		h-2.678v-0.12h0.098c0.376,0,0.728-0.239,1.056-0.72l4.62-6.924c0.048-0.08,0.072-0.15,0.072-0.21c0-0.062-0.014-0.11-0.036-0.15
		c-0.058-0.104-0.156-0.155-0.3-0.155h-0.05v-0.12h4.021c0.248,0,0.52-0.023,0.814-0.071c0.296-0.048,0.5-0.097,0.612-0.146v2.028
		h-0.12v-0.12c0-0.352-0.102-0.634-0.306-0.846s-0.482-0.322-0.834-0.33h-1.968v3.552h1.536c0.286-0.008,0.524-0.107,0.714-0.3
		c0.188-0.192,0.28-0.433,0.28-0.72v-0.108h0.12v2.771h-0.12v-0.107c0-0.392-0.159-0.685-0.479-0.876
		c-0.146-0.088-0.309-0.136-0.492-0.145h-1.56v3.301h1.596c0.72,0,1.3-0.284,1.74-0.854c0.208-0.271,0.372-0.596,0.492-0.972h0.118
		l-0.54,2.34h-5.928l0.014-0.12H152.932z M153.531,35.952v-2.651l-1.606,2.651H153.531z"/>
	<path fill="#2E3C40" d="M173.751,33c0.824,0.753,1.235,1.775,1.235,3.071c0,1.297-0.411,2.32-1.235,3.072s-1.943,1.128-3.359,1.128
		h-4.355v-0.12h0.155c0.208,0,0.387-0.073,0.534-0.222s0.227-0.326,0.233-0.534v-6.72c0-0.192-0.078-0.354-0.233-0.486
		c-0.156-0.132-0.334-0.197-0.534-0.197h-0.155v-0.12h4.355C171.808,31.872,172.927,32.249,173.751,33z M170.235,39.757
		c0.576,0,1.074-0.148,1.494-0.444s0.741-0.722,0.966-1.277c0.225-0.557,0.336-1.162,0.336-1.817c0-0.656-0.065-1.214-0.197-1.675
		c-0.132-0.459-0.317-0.851-0.559-1.17c-0.496-0.663-1.176-0.996-2.04-0.996h-1.477v7.381L170.235,39.757L170.235,39.757z"/>
	<path fill="#2E3C40" d="M181.888,40.152c0.208,0,0.386-0.073,0.534-0.222c0.146-0.148,0.226-0.326,0.232-0.534v-6.66
		c-0.008-0.208-0.086-0.384-0.232-0.527c-0.148-0.145-0.326-0.216-0.534-0.216h-0.156v-0.12h3.648l-0.013,0.12h-0.145
		c-0.208,0-0.389,0.071-0.54,0.216c-0.152,0.145-0.229,0.319-0.229,0.527v6.66c0,0.208,0.075,0.386,0.229,0.534
		c0.151,0.147,0.332,0.222,0.54,0.222h0.145l0.013,0.12h-3.648v-0.12H181.888z"/>
	<path fill="#2E3C40" d="M200.644,40.152h0.107v0.12h-3.828v-0.12h0.107c0.177,0,0.307-0.054,0.391-0.162
		c0.084-0.106,0.126-0.21,0.126-0.306s-0.021-0.191-0.061-0.288l-0.588-1.476h-2.809l-0.624,1.476
		c-0.04,0.104-0.061,0.202-0.061,0.294s0.045,0.192,0.133,0.3c0.088,0.108,0.22,0.162,0.396,0.162h0.096v0.12h-2.567v-0.12h0.107
		c0.185,0,0.368-0.056,0.553-0.168c0.184-0.111,0.336-0.279,0.456-0.504l2.771-6.275c0.375-0.792,0.575-1.315,0.601-1.571h0.107
		l3.563,7.823c0.12,0.231,0.271,0.405,0.456,0.521C200.263,40.095,200.451,40.152,200.644,40.152z M194.295,37.416h2.399
		l-1.164-2.951L194.295,37.416z"/>
</g>
<g enable-background="new    ">
	<path fill="#2E3C40" d="M31.621,75.651c0,3.27-1.097,5.889-3.286,7.857c-2.191,1.97-5.098,2.955-8.718,2.955
		c-1.185,0-2.862-0.054-5.035-0.159c-2.067-0.106-3.641-0.159-4.717-0.159c-1.078,0-2.527,0.053-4.347,0.159
		c-1.891,0.105-3.428,0.159-4.61,0.159c-0.283,0-0.425-0.248-0.425-0.742c0-0.441,0.142-0.68,0.425-0.716
		c2.137-0.247,3.59-0.646,4.358-1.193c0.77-0.548,1.153-1.645,1.153-3.288V55.568c0-1.236-0.155-2.107-0.464-2.611
		c-0.31-0.504-0.854-0.902-1.629-1.193c-0.778-0.292-1.917-0.526-3.418-0.703c-0.283,0-0.425-0.243-0.425-0.729
		c0-0.486,0.142-0.729,0.425-0.729c1.183,0,2.632,0.054,4.346,0.159c1.642,0.106,3.001,0.159,4.078,0.159
		c1.076,0,2.487-0.053,4.234-0.159c1.854-0.105,3.37-0.159,4.553-0.159c3.3,0,5.964,0.787,7.993,2.359
		c2.03,1.572,3.045,3.646,3.045,6.228c0,1.803-0.751,3.484-2.254,5.048c-1.502,1.564-3.355,2.594-5.564,3.087
		c3.127,0.619,5.622,1.76,7.486,3.42C30.688,71.402,31.621,73.372,31.621,75.651z M23.299,58.174c0-2.336-0.574-4.053-1.722-5.15
		c-1.149-1.097-2.934-1.646-5.354-1.646h-1.06c-2.227,0-3.339,0.956-3.339,2.867v11.549h3.815c2.686,0,4.633-0.599,5.843-1.793
		S23.299,60.864,23.299,58.174z M25.791,75.664c0-2.548-0.726-4.548-2.173-5.998c-1.449-1.451-3.454-2.178-6.017-2.178h-5.776v13.06
		c0,1.608,0.459,2.711,1.378,3.304c0.918,0.594,2.49,0.891,4.717,0.891c2.313,0,4.205-0.837,5.671-2.509
		S25.791,78.371,25.791,75.664z"/>
	<path fill="#2E3C40" d="M53.111,65.423c0,0.706-0.216,1.308-0.648,1.802c-0.434,0.495-0.958,0.742-1.577,0.742
		c-0.778,0-1.546-0.256-2.306-0.77c-0.602-0.405-1.122-0.608-1.563-0.608c-1.148,0-2.332,0.671-3.551,2.014v11.925
		c0,1.537,0.265,2.61,0.795,3.221c0.53,0.608,1.66,1.028,3.392,1.259c0.283,0.036,0.425,0.273,0.425,0.716
		c0,0.494-0.143,0.742-0.425,0.742c-0.725,0-1.749-0.054-3.073-0.159c-1.462-0.105-2.624-0.159-3.485-0.159
		c-0.878,0-1.943,0.054-3.193,0.159c-1.131,0.105-2.058,0.159-2.781,0.159c-0.283,0-0.425-0.248-0.425-0.742
		c0-0.441,0.142-0.68,0.425-0.716c1.536-0.193,2.521-0.556,2.954-1.085s0.649-1.657,0.649-3.387v-9.791
		c0-1.411-0.182-2.338-0.543-2.778c-0.362-0.44-1.17-0.731-2.425-0.873c-0.283,0-0.424-0.233-0.424-0.702
		c0-0.433,0.141-0.648,0.424-0.648c1.749-0.441,3.189-0.933,4.325-1.472c1.134-0.538,1.877-1.002,2.229-1.391
		c0.21-0.212,0.421-0.318,0.632-0.318c0.492,0,0.738,0.143,0.738,0.424l-0.212,3.34c1.414-1.308,2.628-2.227,3.644-2.757
		c1.017-0.529,2.027-0.795,3.034-0.795c0.812,0,1.51,0.266,2.093,0.795C52.82,64.099,53.111,64.716,53.111,65.423z"/>
	<path fill="#2E3C40" d="M67.209,85.722c0,0.494-0.143,0.742-0.424,0.742c-0.726,0-1.652-0.054-2.782-0.159
		c-1.269-0.106-2.333-0.159-3.193-0.159c-0.878,0-1.934,0.053-3.167,0.159c-1.113,0.105-2.032,0.159-2.756,0.159
		c-0.283,0-0.424-0.248-0.424-0.742c0-0.441,0.141-0.68,0.424-0.716c1.501-0.193,2.469-0.556,2.902-1.085
		c0.433-0.529,0.648-1.657,0.648-3.387v-9.791c0-1.411-0.182-2.338-0.543-2.778s-1.152-0.731-2.372-0.873
		c-0.283,0-0.424-0.233-0.424-0.702c0-0.433,0.141-0.649,0.423-0.649c1.85-0.477,3.364-0.983,4.543-1.522
		c1.181-0.539,1.92-0.984,2.221-1.338c0.176-0.212,0.369-0.318,0.581-0.318c0.492,0,0.739,0.143,0.739,0.424
		c-0.283,3.958-0.424,7.032-0.424,9.223v8.32c0,1.731,0.216,2.862,0.649,3.394c0.433,0.529,1.418,0.892,2.955,1.086
		C67.067,85.042,67.209,85.28,67.209,85.722z M63.499,53.683c0,0.742-0.271,1.388-0.81,1.936s-1.188,0.821-1.947,0.821
		c-0.761,0-1.409-0.273-1.948-0.821s-0.809-1.192-0.809-1.936c0-0.776,0.266-1.431,0.795-1.961c0.53-0.529,1.185-0.795,1.962-0.795
		c0.76,0,1.408,0.266,1.947,0.795C63.229,52.252,63.499,52.906,63.499,53.683z"/>
	<path fill="#2E3C40" d="M86.236,65.369c0,0.953-0.229,1.432-0.688,1.432l-7.897-0.212v12.72c0,3.321,1.184,4.981,3.552,4.981
		c1.466,0,2.8-0.345,4.001-1.033c0.141,0,0.269,0.093,0.384,0.278s0.172,0.385,0.172,0.597c0,0.44-0.657,1.038-1.971,1.788
		c-1.313,0.751-2.79,1.127-4.431,1.127c-2.01,0-3.613-0.614-4.812-1.842c-1.199-1.229-1.798-2.85-1.798-4.863v-0.238l0.105-12.879
		c0-0.494-0.212-0.742-0.636-0.742h-2.014c-0.39,0-0.583-0.226-0.583-0.677c0-0.347,0.157-0.605,0.476-0.78
		c2.448-1.454,4.579-3.503,6.393-6.146c0.194-0.284,0.44-0.426,0.74-0.426c0.493,0,0.74,0.142,0.74,0.424l-0.212,5.062h7.791
		C86.006,63.938,86.236,64.415,86.236,65.369z"/>
	<path fill="#2E3C40" d="M106.405,87.047c-0.983,0-1.84-0.243-2.568-0.729c-0.729-0.484-1.226-1.144-1.489-1.974
		c-1.891,1.943-4.364,2.915-7.42,2.915c-1.59,0-2.888-0.49-3.896-1.471c-1.007-0.98-1.51-2.204-1.51-3.671
		c0-3.621,4.293-6.555,12.879-8.799l0.159-4.134v-0.133c0-1.271-0.312-2.283-0.939-3.034s-1.462-1.126-2.505-1.126
		c-1.042,0-1.926,0.252-2.649,0.755c-0.726,0.504-1.096,1.137-1.113,1.896c-0.018,1.13-0.313,2.014-0.888,2.648
		c-0.574,0.636-1.338,0.954-2.292,0.954c-0.565,0-1.025-0.168-1.378-0.504c-0.354-0.335-0.53-0.785-0.53-1.351
		c0-1.36,1.236-2.787,3.71-4.28c2.473-1.492,4.771-2.239,6.89-2.239c1.908,0,3.454,0.565,4.639,1.696
		c1.183,1.131,1.774,2.649,1.774,4.558v0.318l-0.396,11.978v0.187c0,1.854,0.6,2.782,1.802,2.782c0.583,0,1.263-0.354,2.041-1.061
		l0.187-0.053c0.141,0,0.273,0.093,0.396,0.278c0.123,0.185,0.187,0.384,0.187,0.596c0,0.513-0.535,1.14-1.604,1.882
		C108.817,86.676,107.657,87.047,106.405,87.047z M102.347,75.095c-5.141,1.17-7.711,3.101-7.711,5.793
		c0,2.517,0.968,3.773,2.905,3.773c0.933,0,1.853-0.234,2.759-0.703c0.907-0.471,1.519-1.05,1.835-1.741L102.347,75.095z"/>
	<path fill="#2E3C40" d="M139.871,85.722c0,0.494-0.143,0.742-0.425,0.742c-0.706,0-1.571-0.054-2.597-0.159
		c-1.129-0.106-2.125-0.159-2.988-0.159c-0.881,0-1.893,0.053-3.036,0.159c-1.039,0.105-1.911,0.159-2.615,0.159
		c-0.281,0-0.423-0.248-0.423-0.742c0-0.441,0.142-0.68,0.425-0.716c1.219-0.142,2.018-0.485,2.396-1.033s0.57-1.696,0.57-3.445
		v-8.851c0-1.979-0.389-3.428-1.166-4.347c-0.777-0.918-1.979-1.378-3.604-1.378c-1.024,0-1.931,0.194-2.717,0.583
		s-1.63,1.077-2.53,2.066v11.925c0,1.749,0.189,2.897,0.569,3.445s1.18,0.893,2.398,1.033c0.282,0.036,0.424,0.273,0.424,0.716
		c0,0.494-0.142,0.742-0.424,0.742c-0.726,0-1.608-0.054-2.65-0.159c-1.147-0.106-2.154-0.159-3.021-0.159
		c-0.85,0-1.838,0.053-2.97,0.159c-1.042,0.105-1.925,0.159-2.649,0.159c-0.283,0-0.424-0.248-0.424-0.742
		c0-0.441,0.141-0.68,0.424-0.716c1.519-0.193,2.5-0.561,2.942-1.099c0.44-0.537,0.661-1.662,0.661-3.373v-9.791
		c0-1.411-0.182-2.338-0.543-2.778s-1.171-0.731-2.425-0.873c-0.283,0-0.424-0.233-0.424-0.702c0-0.433,0.141-0.649,0.424-0.649
		c1.749-0.44,3.206-0.939,4.372-1.496c1.166-0.558,1.899-1.012,2.2-1.364c0.176-0.212,0.371-0.318,0.583-0.318
		c0.494,0,0.741,0.143,0.741,0.424l-0.212,3.339c2.539-2.366,4.901-3.551,7.09-3.551c2.397,0,4.271,0.689,5.621,2.067
		c1.349,1.378,2.022,3.231,2.022,5.563v10.123c0,1.731,0.216,2.862,0.649,3.394c0.433,0.528,1.398,0.892,2.9,1.086
		C139.729,85.042,139.871,85.28,139.871,85.722z"/>
	<path fill="#2E3C40" d="M168.914,85.722c0,0.494-0.143,0.742-0.425,0.742c-0.706,0-1.571-0.054-2.597-0.159
		c-1.129-0.106-2.125-0.159-2.988-0.159c-0.881,0-1.893,0.053-3.036,0.159c-1.039,0.105-1.911,0.159-2.615,0.159
		c-0.281,0-0.423-0.248-0.423-0.742c0-0.441,0.142-0.68,0.425-0.716c1.219-0.142,2.018-0.485,2.396-1.033s0.57-1.696,0.57-3.445
		v-8.851c0-1.979-0.389-3.428-1.166-4.347c-0.777-0.918-1.979-1.378-3.604-1.378c-1.024,0-1.931,0.194-2.717,0.583
		c-0.785,0.389-1.63,1.077-2.53,2.066v11.925c0,1.749,0.189,2.897,0.569,3.445s1.18,0.893,2.398,1.033
		c0.282,0.036,0.424,0.273,0.424,0.716c0,0.494-0.142,0.742-0.424,0.742c-0.726,0-1.608-0.054-2.65-0.159
		c-1.147-0.106-2.154-0.159-3.021-0.159c-0.85,0-1.838,0.053-2.969,0.159c-1.042,0.105-1.927,0.159-2.649,0.159
		c-0.283,0-0.424-0.248-0.424-0.742c0-0.441,0.141-0.68,0.424-0.716c1.519-0.193,2.499-0.561,2.941-1.099
		c0.44-0.537,0.661-1.662,0.661-3.373v-9.791c0-1.411-0.182-2.338-0.543-2.778s-1.171-0.731-2.425-0.873
		c-0.283,0-0.424-0.233-0.424-0.702c0-0.433,0.141-0.649,0.424-0.649c1.749-0.44,3.206-0.939,4.372-1.496
		c1.166-0.558,1.899-1.012,2.2-1.364c0.176-0.212,0.371-0.318,0.583-0.318c0.494,0,0.741,0.143,0.741,0.424l-0.212,3.339
		c2.539-2.366,4.901-3.551,7.09-3.551c2.397,0,4.271,0.689,5.621,2.067c1.349,1.378,2.022,3.231,2.022,5.563v10.123
		c0,1.731,0.216,2.862,0.649,3.394c0.433,0.528,1.398,0.892,2.9,1.086C168.772,85.042,168.914,85.28,168.914,85.722z"/>
	<path fill="#2E3C40" d="M183.33,85.722c0,0.494-0.143,0.742-0.425,0.742c-0.725,0-1.651-0.054-2.781-0.159
		c-1.269-0.106-2.332-0.159-3.193-0.159c-0.879,0-1.934,0.053-3.167,0.159c-1.112,0.105-2.031,0.159-2.756,0.159
		c-0.282,0-0.424-0.248-0.424-0.742c0-0.441,0.142-0.68,0.424-0.716c1.502-0.193,2.469-0.556,2.902-1.085
		c0.433-0.529,0.647-1.657,0.647-3.387v-9.791c0-1.411-0.181-2.338-0.543-2.778s-1.152-0.731-2.372-0.873
		c-0.282,0-0.424-0.233-0.424-0.702c0-0.433,0.141-0.649,0.423-0.649c1.851-0.477,3.363-0.983,4.544-1.522s1.919-0.984,2.219-1.338
		c0.177-0.212,0.37-0.318,0.582-0.318c0.492,0,0.739,0.143,0.739,0.424c-0.283,3.958-0.424,7.032-0.424,9.223v8.32
		c0,1.731,0.216,2.862,0.649,3.394c0.433,0.529,1.417,0.892,2.953,1.086C183.188,85.042,183.33,85.28,183.33,85.722z M179.62,53.683
		c0,0.742-0.271,1.388-0.809,1.936c-0.539,0.548-1.188,0.821-1.948,0.821c-0.76,0-1.408-0.273-1.946-0.821
		c-0.539-0.548-0.81-1.192-0.81-1.936c0-0.776,0.266-1.431,0.795-1.961c0.53-0.529,1.185-0.795,1.961-0.795
		c0.761,0,1.409,0.266,1.948,0.795C179.351,52.252,179.62,52.906,179.62,53.683z"/>
	<path fill="#2E3C40" d="M206.386,66.96c0,1.448-0.725,2.173-2.174,2.173c-0.618,0-1.126-0.133-1.523-0.397
		c-0.396-0.266-0.8-0.839-1.206-1.723c-0.477-1.042-0.983-1.727-1.522-2.054s-1.241-0.49-2.106-0.49
		c-2.138,0-3.768,0.888-4.89,2.663c-1.122,1.774-1.684,4.368-1.684,7.777c0,2.845,0.706,5.137,2.12,6.877
		c1.413,1.739,3.305,2.609,5.671,2.609c2.687,0,4.813-0.839,6.388-2.518l0.132-0.053c0.159,0,0.312,0.102,0.464,0.305
		s0.226,0.429,0.226,0.676c0,0.354-0.517,0.963-1.55,1.828c-1.034,0.866-2.165,1.52-3.393,1.961
		c-1.229,0.441-2.53,0.663-3.908,0.663c-3.163,0-5.87-1.162-8.123-3.485c-2.252-2.321-3.378-5.26-3.378-8.811
		c0-3.517,1.179-6.427,3.537-8.732c2.358-2.305,5.154-3.458,8.388-3.458c2.385,0,4.403,0.411,6.056,1.232
		C205.56,64.826,206.386,65.812,206.386,66.96z"/>
	<path fill="#2E3C40" d="M227.455,87.047c-0.983,0-1.841-0.243-2.569-0.729c-0.729-0.484-1.225-1.144-1.488-1.974
		c-1.891,1.943-4.362,2.915-7.42,2.915c-1.59,0-2.889-0.49-3.896-1.471c-1.007-0.981-1.512-2.204-1.512-3.671
		c0-3.621,4.293-6.555,12.88-8.799l0.158-4.134v-0.133c0-1.271-0.312-2.283-0.939-3.034s-1.462-1.126-2.504-1.126
		c-1.043,0-1.927,0.252-2.65,0.755c-0.725,0.504-1.096,1.137-1.113,1.896c-0.018,1.13-0.312,2.014-0.888,2.648
		c-0.575,0.636-1.338,0.954-2.292,0.954c-0.565,0-1.024-0.168-1.378-0.504c-0.354-0.335-0.53-0.785-0.53-1.351
		c0-1.36,1.236-2.787,3.71-4.28c2.475-1.492,4.771-2.239,6.892-2.239c1.906,0,3.453,0.565,4.637,1.696s1.775,2.649,1.775,4.558
		v0.318l-0.397,11.978v0.187c0,1.854,0.601,2.782,1.803,2.782c0.583,0,1.264-0.354,2.04-1.061l0.187-0.053
		c0.142,0,0.272,0.093,0.396,0.278c0.123,0.186,0.187,0.384,0.187,0.596c0,0.513-0.534,1.14-1.604,1.882
		C229.868,86.676,228.707,87.047,227.455,87.047z M223.397,75.095c-5.141,1.17-7.711,3.101-7.711,5.793
		c0,2.517,0.968,3.773,2.904,3.773c0.933,0,1.853-0.234,2.759-0.703c0.907-0.471,1.52-1.05,1.836-1.741L223.397,75.095z"/>
</g>
<g opacity="0.15">
	<path fill="#2E3C40" d="M89.685,24.33c1.813,1.522,6.187,2.974,6.187,2.974s-0.479-2.939-2.493-4.653
		c-2.019-1.714-9.475-7.996-9.697-8.97c-0.223-0.979-4.979-0.027-2.892,2.048C80.789,15.729,87.871,22.807,89.685,24.33"/>
	<path fill="#2E3C40" d="M96.714,22.361c0,0-3.33-6.399-3.057-10.732c0,0-0.606-2.148-1.573-0.746c0,0-0.776,1.204-1.618-0.738
		c-0.842-1.941-3.02-0.449-2.708,0.076C87.758,10.22,94.12,21.056,96.714,22.361"/>
	<path fill="#2E3C40" d="M102.554,23.671c0,0,0.753-1.224-2.392-8.108c-3.146-6.885-3.98-8.533-3.903-9.318
		c0,0-1.962,0.146-1.911,1.969C94.348,8.212,97.829,20.064,102.554,23.671"/>
	<path fill="#2E3C40" d="M105.399,19.842c0,0-0.02-7.665-1.518-11.899s-1.754-3.247-2.238-0.969l-0.513,1.047l-2.852,0.08
		C98.278,8.102,103.007,11.833,105.399,19.842"/>
	<path fill="#2E3C40" d="M108.282,14.065c0,0,2.705,8.681,3.315,9.351c0,0,1.346-1.042,0.751-8.197c0,0-2.349-9.008-2.669-10.406
		c0,0-1.384-4.224-2.471-0.944C107.21,3.868,108.586,10.812,108.282,14.065"/>
	<path fill="#2E3C40" d="M116.403,17.672c0,0,0.831-0.144,1.45-2.609c0.62-2.464,0.258-8.257,0.619-9.446
		c0,0,2.883-5.888-1.626-1.824c0,0-0.269,0.854-0.858,0.843c0,0-4.392-2.11-3.441,0.097C112.546,4.732,116.525,6.16,116.403,17.672"
		/>
	<path fill="#2E3C40" d="M123.705,16.779c0,0,2.444-10.99,3.024-11.396c0,0,1.063-4.065-2.125-2.006c0,0-3.351,10.203-3.41,11.592
		c0,0-0.289,3.66,0.156,5.517C121.352,20.486,121.943,24.01,123.705,16.779"/>
	<path fill="#2E3C40" d="M126.871,17.377c0,0-0.984,7.013,1.937-1.038c0,0,2.906-5.198,4.456-5.929c0,0,4.704-4.212-0.068-2.479
		c0,0-1.248,1.141-1.651,0.658c0,0-0.556-5.591-2.714-1.989c0,0,0.658,2.442,0.127,4.521
		C128.955,11.12,127.408,15.492,126.871,17.377"/>
	<path fill="#2E3C40" d="M134.673,18.535c0,0,2.044-4.286,3.431-7.573c0,0,3.278-5.742-0.781-3.147c0,0-6.372,9.496-7.344,15.082
		C129.98,22.896,129.688,26.545,134.673,18.535"/>
	<path fill="#2E3C40" d="M135.74,22.242c0,0-2.646,3.196,3.129-1.38c0,0,12.731-15.986,3.754-10.029c0,0-1.448,0.337-2.31-0.229
		c-0.862-0.565-0.231-0.369-0.856,0.817C139.457,11.423,141.214,17.378,135.74,22.242"/>
	<path fill="#2E3C40" d="M137.645,26.124c-2.47,2.75,3.319-0.881,3.614-0.89c0.296-0.009,10.069-5.694,11.378-8.094
		c1.311-2.398-0.124-4.424-2.363-3.622C148.029,14.321,137.645,26.124,137.645,26.124"/>
	<path fill="#2E3C40" d="M190.081,27.409c1.417-2.246,7.127-10.188,7.54-11.229c0,0,0.475-1.63-0.103-3.598
		c0,0-3.238-1.745-3.188,2.588c0,0-3.111,5.302-6.593,7.973c0,0-7.934,5.291-9.262,8.193c0,0-3.955,6.94-6.41,11.785
		c0,0-5.799,4.792-8.073-4.914c0,0-0.159-3.079-0.062-4.772c0,0-1.965-3.981-3.239,0.681c0,0-1.457,3.639-0.131,8.522
		c0,0,0.164,3.228,3.012,6.892c0,0,2.791,4.4,2.582,10.136c0,0-1.978,6.006-5.814,1.415c0,0-2.188-1.336-2.304-5.446
		c0,0-0.04-1.468-1-1.292c0,0-1.548,0.336-1.162,3.485c0,0-0.604,2.219,2.51,10.065c0,0,1.643,10.062-1.945,12.518
		c0,0-1.916,2.105-3.287,2.543c-1.375,0.428-3.364-1.277-3.391-1.57c-0.025-0.295-0.187-2.344,1.063-3.655
		c0,0-0.227-2.785-1.571,0.24c0,0-5.041,10.573-6.255,11.295c-1.217,0.719-2.84,2.771-6.284,1.547c0,0-3.56-1.759-0.994-5.506
		c0,0,0.715-2.81-1.938-0.339c0,0-3.188,6.017-3.446,9.209c0,0-0.965,2.57-1.78,3.476c0,0-0.948,1.353-3.329,1.074
		c0,0-5.746-3.953,1.793-9.992c0,0,1.639-1.562-0.719-1.008c0,0-2.773-0.214-3.533-2.644c-0.76-2.425,1.879-3.381,2.666-3.602
		c0.783-0.217,3.266,0.104,3.266,0.104s1.375-0.235,0.474-0.701c-0.902-0.463-2.245-2.481,1.281-3.657c0,0,4.22-1.099,6.254,0.898
		c0,0,3.552-0.101,1.046-1.398c0,0-5.576-1.408-0.707-4.092c0,0,3.221-1.364,5.537,0.136c0,0,4.824-0.724,1.342-1.507
		c0,0-3.975-0.669-2.483-3.945c0,0,2.808-2.232,5.888-1.536c0,0,3.657-0.104,0.348-1.771c0,0-5.379-1.417-1.01-4.186
		c0,0,2.229-1.529,4.516-1.105c0,0,3.426-1.271-0.748-2.034c0,0-1.863,0.445-3.352,0.387c0,0-6.119-3.254,2.903-5.662
		c0,0,2.599-2.62-2.11-1.313c0,0-1.083,1.008-2.782,1.204c0,0-4.295,0.195-1.161-4.373c0,0,2.676-2.354,3.412-2.449
		c0,0,1.172-3.189-1.826-1.708c0,0-1.8,1.811-2.82,2.501c0,0-1.793,2.108-3.354-0.638c0,0-2.734-2.347,2.184-4.104
		c0,0,1.86-2.328-1.227-1.435c0,0-3.844,3.047-4.75-0.159c0,0,0.749-4.942,6.686-7.384c0,0,3.77-0.402,5.519-1.625
		c0,0,1.911-3.14-2.201-1.776c0,0,0.385,0.503-1.538,0.706c0,0-4.218,0.268-5.674,1.264c0,0-5.267,2.499-6.05,3.621
		c0,0-1.806,1.594-0.849-1.15c0,0,0.869-3.403,1.129-4.661c0,0,0.238-1.988-1.334-0.037c0,0-4.314,4.751-4.606,4.908
		c-0.293,0.153-1.598,1.146-1.037-2.617c0,0,0.252-4.142,0.344-4.439c0.09-0.295,0.379-2.265-1.482-0.055
		c-1.865,2.204-4.783,5.521-4.783,5.521s-3.426-6.268-3.449-8.278l-2.53,9.12c0,0-2.853-3.406-4.667-5.671
		c-1.819-2.269-1.588-0.291-1.503,0.008c0.083,0.299,0.211,4.45,0.211,4.45c0.454,3.781-0.837,2.749-1.132,2.583
		c-0.289-0.165-4.501-5.051-4.501-5.051c-1.532-2.005-1.35-0.008-1.35-0.008c0.223,1.265,0.994,4.695,0.994,4.695
		c0.888,2.773-0.89,1.125-0.89,1.125c-0.76-1.148-6.005-3.814-6.005-3.814c-1.441-1.042-5.696-1.442-5.696-1.442
		c-1.934-0.263-1.532-0.755-1.532-0.755c-4.114-1.493-2.279,1.707-2.279,1.707c1.729,1.278,5.527,1.799,5.527,1.799
		c5.923,2.632,6.528,7.6,6.528,7.6c-1.013,3.178-4.805,0.009-4.805,0.009c-3.092-0.993-1.282,1.396-1.282,1.396
		c4.917,1.91,2.076,4.167,2.076,4.167c-1.658,2.699-3.406,0.534-3.406,0.534c-1.009-0.722-2.772-2.592-2.772-2.592
		c-2.986-1.576-1.903,1.652-1.903,1.652c0.745,0.118,3.377,2.557,3.377,2.557c3.028,4.666-1.307,4.336-1.307,4.336
		c-1.715-0.25-2.776-1.294-2.776-1.294c-4.716-1.455-2.176,1.247-2.176,1.247c9.048,2.693,2.76,5.756,2.76,5.756
		c-1.503,0.008-3.373-0.496-3.373-0.496c-4.242,0.631-0.821,2.012-0.821,2.012c2.326-0.353,4.531,1.248,4.531,1.248
		c4.331,2.907-1.146,4.15-1.146,4.15c-3.397,1.564,0.295,1.785,0.295,1.785c3.137-0.598,5.901,1.723,5.901,1.723
		c1.404,3.319-2.63,3.868-2.63,3.868c-3.545,0.668,1.309,1.546,1.309,1.546c2.387-1.426,5.603,0.041,5.603,0.041
		c4.837,2.839-0.843,4.07-0.843,4.07c-2.571,1.221,1.016,1.434,1.016,1.434c2.116-1.934,6.35-0.699,6.35-0.699
		c3.525,1.287,2.108,3.268,1.181,3.693c-0.925,0.438,0.458,0.721,0.458,0.721s2.517-0.244,3.303-0.002
		c0.788,0.242,3.427,1.281,2.584,3.686c-0.844,2.4-3.653,2.531-3.653,2.531c-2.365-0.633-0.76,0.984-0.76,0.984
		c7.437,6.277,1.509,10.045,1.509,10.045c-2.416,0.203-3.335-1.178-3.335-1.178c-0.793-0.933-1.694-3.533-1.694-3.533
		c-0.159-3.197-3.196-9.313-3.196-9.313c-2.604-2.558-1.97,0.272-1.97,0.272c2.476,3.826-1.179,5.473-1.179,5.473
		c-3.519,1.117-5.095-0.986-6.302-1.745c-1.203-0.761-5.972-11.483-5.972-11.483c-1.271-3.071-1.583-0.297-1.583-0.297
		c1.22,1.351,0.997,3.396,0.959,3.688c-0.031,0.293-2.096,1.938-3.471,1.461c-1.372-0.474-3.246-2.642-3.246-2.642
		c-3.551-2.565-1.577-12.583-1.577-12.583c3.384-7.746,2.844-9.981,2.844-9.981c0.485-3.137-1.067-3.521-1.067-3.521
		c-0.964-0.206-1.051,1.263-1.051,1.263c-0.244,4.103-2.496,5.368-2.496,5.368c-4.019,4.467-5.834-1.597-5.834-1.597
		c-0.037-5.743,2.925-10.053,2.925-10.053c2.987-3.576,3.257-6.799,3.257-6.799c1.486-4.842,0.126-8.525,0.126-8.525
		c-1.146-4.705-3.253-0.783-3.253-0.783c0.047,1.698-0.212,4.771-0.212,4.771c-2.597,9.631-8.31,4.657-8.31,4.657
		c-2.333-4.922-6.119-11.988-6.119-11.988c-1.247-2.945-9.104-8.489-9.104-8.489c-3.438-2.779-6.42-8.18-6.42-8.18
		c0.184-4.331-3.144-2.688-3.144-2.688c-0.64,1.947-0.212,3.592-0.212,3.592c0.389,1.052,5.911,9.18,7.274,11.469
		c1.367,2.289,7.118,12.857,7.118,12.857c3.624,9.782-3.857,11.912-3.857,11.912c-7.834-2.084-7.445-7.358-7.445-7.358
		c-2.475-2.573-2.948,1.592-2.948,1.592c-0.567,5.776,14.868,15.083,14.868,15.083c10.099,9.426,1.057,15.069,1.057,15.069
		c-7.306,2.952-11.325,4.847-12.563,8.083c-1.243,3.237,2.369,1.762,2.369,1.762c0.301-1.233,3.223-3.633,3.223-3.633
		c0.652-0.92,16.662-1.222,17.917,6.729c1.253,7.941-7.502,8.75-7.502,8.75c-4.192-1.43-3.842,1.465-3.842,1.465
		c2.964,3.188,9.472,1.076,9.472,1.076c8.808-8.014,13.908-1.602,13.908-1.602c2.974,6.795-8.738,8.088-8.738,8.088
		c-3.417-0.646-2.94,1.445-2.94,1.445c5.21,3.252,9.493,1.961,18.501-3.101c9.008-5.055,8.54,4.113,8.54,4.113
		c-3.333,5.545-5.919,4.873-5.919,4.873c-2.535-0.297-4.032-0.39-4.032-0.39c-0.889,2.31,2.194,3.521,2.194,3.521
		c3.397,0.938,10.525-2.76,10.525-2.76c3.629-3.023,6.589-2.256,6.589-2.256c3.844-1.539,4.557,1.592,4.557,1.592
		c0.944,1.823-2.848,2.479-3.36,3.526c-0.514,1.047,0.676,1.317,0.676,1.317c5.009-3.386,7.52,2.216,7.52,2.216
		c0.922,4.762-7.484,5.73-7.484,5.73c-1.197,0.965-0.113,1.908-0.113,1.908c11.387-1.092,5.155,8.254,5.155,8.254
		c-1.406,0.943-5.332,1.303-5.332,1.303c-1.317,1.98,0.625,2.102,0.625,2.102c1.271-1.104,3.338-0.541,3.338-0.541
		c1.336,0.228,4.306,3.347,2.183,6.162c-2.118,2.816-4.862,3.536-4.862,3.536c-1.024,1.039-1.341,1.817-1.333,2.397l28.206-0.797
		c-0.062-0.549-0.395-1.267-1.241-2.188c0,0-2.689-0.807-4.7-3.686c-2.009-2.884,1.021-5.902,2.351-6.093
		c0,0,2.062-0.494,3.281,0.646c0,0,1.925-0.055,0.68-2.078c0,0-3.867-0.478-5.229-1.465c0,0-5.87-9.531,5.347-8.086
		c0,0,1.104-0.912-0.054-1.906c0,0-8.276-1.233-7.225-5.965c0,0,2.653-5.512,7.5-1.978c0,0,1.186-0.229,0.709-1.295
		c-0.476-1.062-4.2-1.839-3.215-3.63c0,0,0.801-3.105,4.556-1.452c0,0,2.946-0.668,6.444,2.465c0,0,6.929,3.916,10.315,3.089
		c0,0,3.082-1.115,2.273-3.443c0,0-1.479,0.041-3.993,0.258c0,0-2.58,0.591-5.705-5.055c0,0-0.185-9.172,8.565-3.838
		s12.941,6.758,18.191,3.672c0,0,0.535-2.07-2.86-1.533c0,0-11.536-1.657-8.392-8.356c0,0,5.233-6.244,13.701,2.037
		c0,0,6.362,2.313,9.39-0.779c0,0,0.438-2.877-3.75-1.584c0,0-8.63-1.078-7.147-8.979c1.481-7.899,17.297-7.098,17.914-6.163
		c0,0,2.815,2.491,3.068,3.735c0,0,3.529,1.588,2.397-1.687c-1.129-3.274-5.041-5.291-12.174-8.472c0,0-8.768-5.92,1.504-15.024
		c0,0,15.541-8.812,15.156-14.604c0,0-0.344-4.176-2.863-1.681c0,0,0.224,5.283-7.584,7.117c0,0-7.334-2.365-3.455-12.021
		C182.654,40.031,188.66,29.654,190.081,27.409 M105.475,106.352c0,0-6.505-1.996-8.652,0.263c-2.149,2.257-4.589-0.478-1.981-2.177
		c0,0,2.917-1.262-0.071-2.506c-2.984-1.244-5.432-4.271-14.817-2.236c0,0-2.508-0.227,1.404-2.695c0,0,2.025-1.235-1.103-2.328
		c0,0-6.284-3.067-6.742-3.646c0,0-6.312,1.211-7.478,1.688c0,0-2.655,0.074,0.513-2.672c0,0,2.752-1.851,3.635-1.873
		c0,0-0.92-1.303-2.28-2.443c-1.361-1.143-0.551-3.82-11.855-7.041c0,0-1.379-1.73,2.298-2.132c0,0,1.157-0.919,2.373,0.373
		c0,0,1.777,0.246,0.528-2.226c0,0-5.341-11.507-6.04-15.323c0,0-5.132-4.135-6.917-4.528c0,0-1.835-2.307,2.183-1.093
		c0,0,6.828,4.183,3.484-2.018c0,0-2.162-8.644-1.011-9.711c0,0-0.486-6.771,2.652-0.074c3.142,6.696,6.151,29.631,12.204,35.066
		c0,0,5.875,11.641,23.33,17.345l14.777,8.435C105.908,102.799,111.926,106.465,105.475,106.352 M126.166,69.295
		c0,0,1.188-4.876,3.505-1.253c0,0,1.78,5.814-0.863,3.534C128.808,71.576,124.268,75.371,126.166,69.295 M103.558,55.795
		c2.985,3.161,1.747,2.337,0.062,2.148c-1.686-0.186-3.104,7.38-2.536-1.341C101.083,56.604,100.573,52.634,103.558,55.795
		 M104.939,51.351c0,0-0.076-4.797,2.666-1.82c2.741,2.976,2.146,2.802,0.761,3.378C106.977,53.485,104.746,56.984,104.939,51.351
		 M112.025,54.524c2.461,3.62,1.857,3.071,0.09,3.182c0,0-2.287,6.324-2.763-1.927C109.352,55.779,109.561,50.903,112.025,54.524
		 M113.354,70.274c0,0,2.759,3.611-0.96,2.536c0,0-1.361-1.118-1.91,0.287c-0.551,1.405-2.071,2.111-1.375-1.985
		C109.109,71.112,109.537,60.495,113.354,70.274 M113.763,62.737c0,0,0.82-6.365,3.762-1.581c2.938,4.786-1.065,4.016-1.065,4.016
		S114.755,70.677,113.763,62.737 M118.604,68.06c0,0,0.719-3.266,2.617-0.074c1.896,3.194,2.16,4.662,0.121,4.276
		c-2.041-0.385-2.586,1.252-2.582,1.4C118.765,73.81,115.082,79.225,118.604,68.06 M122.256,58.661
		c-2.146,0.061-2.908,6.724-3.879-2.693c0,0,1.502-4.427,3.8-0.107C122.177,55.86,124.4,58.6,122.256,58.661 M123.33,62.975
		c0,0-0.31-5.664,3.366-0.898c0,0,1.152,4.099-1.168,2.984C125.529,65.062,122.811,70.731,123.33,62.975 M132.046,73.852
		c-0.395,1.66-4.821,2.671-3.95,1.613c0.868-1.057,0.771-1.815,0.771-1.815S132.443,72.196,132.046,73.852 M130.023,62.787
		c0,0,0.748-4.662,3.008-2.069c2.263,2.593,1.753,5.509,0.697,4.752C132.675,64.712,132.349,69.871,130.023,62.787 M137.099,70.322
		c-0.719,0.188-5.073,2.817-3.437-1.948c0,0,3.01-2.3,3.356-0.834C137.371,69.005,137.818,70.134,137.099,70.322 M135.082,58.997
		c0,0,2.171-6.171,2.843-0.373s-0.008,3.049-0.008,3.049S135.129,63.679,135.082,58.997 M139.921,65.294
		c-4.238,1.498-0.062-2.124-0.062-2.124C141.339,63.268,144.158,63.797,139.921,65.294 M141.971,53.037c0,0,1.76-0.886,1.861-0.792
		c0.1,0.091-0.728,2.188-1.822,2.177C140.908,54.411,141.971,53.037,141.971,53.037 M143.863,58.573
		c-1.309,0.708-1.81,1.797-1.81,1.797l-2.121-1.153C143.609,56.398,145.171,57.866,143.863,58.573 M140.111,47.596l0.406,1.401
		C139.656,48.921,140.111,47.596,140.111,47.596 M139.704,51.063c1.32,2.839,0.04,3.021-1.189,2.884
		c-1.229-0.136-1.355-1.359-1.353-2.812C137.162,51.135,138.385,48.224,139.704,51.063 M136.133,42.064
		c1.466,0.971,0.562,1.237,0.031,1.1C135.632,43.022,136.133,42.064,136.133,42.064 M136.46,47.698
		c-1.268,2.557-2.381-2.596-2.381-2.596C135.041,44.641,137.729,45.14,136.46,47.698 M132.941,35.803
		c1.897,1.003,0.761,2.567-0.5,2.393C131.179,38.018,132.941,35.803,132.941,35.803 M133.165,43.773
		c-1.49,2.973-2.01-2.776-2.01-2.776C132.078,40.875,134.656,40.802,133.165,43.773 M134.211,49.786c0,0,0.779,2.803-0.851,2.755
		c-1.623-0.05-1.601,3.297-1.914-1.244C131.447,51.296,129.869,46.092,134.211,49.786 M129.294,36.983
		c1.039-0.166,2.261,1.938-0.27,2.205C126.502,39.457,129.294,36.983,129.294,36.983 M128.045,44.575
		c0.521-1.547,3.162-0.432,1.549,3.03C127.98,51.067,128.045,44.575,128.045,44.575 M129.801,54.906
		c1.809,3.489,0.76,3.963,0.092,3.243c-0.669-0.718-3.197,4.813-2.347-2.145C127.546,56.004,127.99,51.417,129.801,54.906
		 M126.417,43.893c-2.908,3.583-1.984-3.951-1.984-3.951C125.293,39.708,129.328,40.312,126.417,43.893 M126.195,36.064
		c-1.172,2.485-2.112-1.104-2.112-1.104S127.367,33.579,126.195,36.064 M126.589,50.001c2.123,3.61-0.636,1.223-1.388,3.509
		c-0.748,2.286-3.154-0.646-2.205-2.458C122.996,51.052,124.47,46.386,126.589,50.001 M120.232,37.526
		c1.284-1.012,3.725,0.576,1.641,2.488C119.785,41.929,120.232,37.526,120.232,37.526 M120.438,44.79
		c0.564-1.241,1.045-0.271,2.399,0.631c1.354,0.901,0.354,2.146-2.292,3.19C117.904,49.652,120.438,44.79,120.438,44.79
		 M118.684,35.089c0.738,0.803-0.972,1.419-1.931,1.171c-0.961-0.245-1.397-2.194-1.397-2.194
		C116.16,33.896,117.943,34.288,118.684,35.089 M117.965,41.37c3.213,2.861-2.851,3.032-3.032,0.085
		C114.933,41.455,114.753,38.51,117.965,41.37 M117.191,49.36c3.65,3.882,1.85,2.753,0.08,2.804
		c-1.771,0.05-2.292,4.933-3.528-0.936C113.742,51.228,113.54,45.479,117.191,49.36 M112.407,47.205
		c-1.337-0.326-1.471,4.807-3.056-1.402c0,0-1.16-2.639,1.83-0.751C114.17,46.936,113.746,47.533,112.407,47.205 M113.059,37.819
		c-0.894,3.862-1.438,2.402-2.418,0.992C109.663,37.398,113.059,37.819,113.059,37.819 M109.067,35.721
		c1.864,0.388-2.252,1.76-2.252,1.76C104.545,35.704,107.203,35.331,109.067,35.721 M105.397,41.725c0,0,1.398,0.108,2.904,0.805
		c1.503,0.693-0.979,2.242-3.345,0.979C102.59,42.247,105.397,41.725,105.397,41.725 M103.281,45.973
		c3.106,2.217,0.709,2.279,0.067,2.375c-0.643,0.094-1.587,3.276-1.842-0.508C101.506,47.839,100.174,43.756,103.281,45.973
		 M100.328,38.224c0,0,1.1-1.287,1.593-0.045c0.49,1.245-0.165,2.642-1.082,2.273C99.92,40.086,99.65,38.744,100.328,38.224
		 M96.808,43.189c1.462-1.251,3.561,1.255,1.672,2.647C96.598,47.228,96.808,43.189,96.808,43.189 M93.137,48.635
		c0,0,1.097-1.29,1.59-0.045c0.493,1.242-0.164,2.639-1.081,2.272C92.729,50.494,92.457,49.151,93.137,48.635 M87.33,58.161
		c-0.498-2.138,1.583-1.233,1.583-1.233C89.777,61.382,87.828,60.298,87.33,58.161 M89.253,63.048
		c-0.498-2.137,1.582-1.232,1.582-1.232C91.699,66.273,89.751,65.186,89.253,63.048 M90.804,54.797
		c1.459-1.252,3.557,1.258,1.672,2.649C90.591,58.839,90.804,54.797,90.804,54.797 M95.498,70.162c0,0-2.811-0.188-2.71-1.879
		s1.611-0.39,1.611-0.39C95.826,68.168,95.498,70.162,95.498,70.162 M95.846,61.26c-0.99,1.863-1.958,2.937-2.389-1.263
		c0,0,1.056-4.363,2.302-1.83C97.001,60.701,96.834,59.393,95.846,61.26 M98.748,51.526c2.631,2.266,0.752,2.579,0.083,2.911
		s-1.707,3.458-2.396-1.686C96.436,52.751,96.116,49.259,98.748,51.526 M98.188,74.516c-1.446-1.016,0.924-1.772,0.924-1.772
		s-0.021-0.739,0.991-0.028C101.114,73.424,99.634,75.531,98.188,74.516 M100.215,65.515c-0.724-0.162-1.524,5.613-3.302-1.271
		c0,0,0.984-5.551,3.217-1.715C102.359,66.37,100.933,65.674,100.215,65.515 M103.995,71.257c0,0-2.09,6.423-2.479-2.124
		c0,0,0.086-6.201,2.416-0.068C103.933,69.064,106.745,72.634,103.995,71.257 M104.941,62.102c0,0,0.543-4,2.844-0.967
		c2.299,3.033,2.155,3.185,0.898,3.072C107.425,64.098,107.069,71.926,104.941,62.102 M118.877,98.596
		c-3.315,2.75-1.271,7.266-1.271,7.266c2.419,2.146,1.294,4.098,1.294,4.098c-2.447,2.135-1.848,7.726-0.973,9.025
		c0.876,1.307,1.355,4.537,1.355,4.537c-2.731,3.312-1.987,8.023-0.938,10.209c1.047,2.184-0.713,4.443-0.713,4.443
		c-2.206,5.522,0.795,7.209,0.237,8.406c-0.558,1.194-5.012,0.141-5.012,0.141l0.316-61.834l2.36-0.068
		c3.673-0.543,2.71,1.848,2.71,1.848c-1.758,0.488-0.979,7.107-0.979,7.107C118.962,96.379,118.877,98.596,118.877,98.596
		 M118.09,81.205c-3.455,3.051-3.472,1.133-3.472,1.133s-0.37-1.318-5.896-3.67c-5.525-2.354,0.524-2.672,0.524-2.672
		s0.875-0.024,2.479,1.258c1.607,1.283,4.86,2.963,6.28,1.004s4.729-2.644,4.729-2.644c5.262,0.591,1.349,3.516,1.349,3.516
		S121.545,78.158,118.09,81.205 M184.361,55.875c-1.601,0.78-8.707,5.113-8.81,6.739c-0.104,1.625-3.839,10.291-4.94,13.124
		c-1.1,2.838,3.302,1.946,3.302,1.946c7.534,0.354-3.14,3.804-3.14,3.804c-3.377,0.538-6.207,4.897-6.207,4.897
		c-3.631,2.021-1.401,2.549-0.955,2.684c0.445,0.137,2.562,1.846,2.562,1.846c0.705,4.109-4.387,1.453-4.387,1.453
		c-3.298-1.824-6.747,1.37-6.747,1.37c-7.729,3.171-2.83,4.358-2.83,4.358c2.879,2.572-1.71,2.113-1.71,2.113
		c-6.547-2.638-11.79,1.365-11.79,1.365c-4.979,2.206-0.321,3.403-0.321,3.403c1.887,4.226-2.604,1.803-2.604,1.803
		c-2.87-2.319-6.941-0.268-6.941-0.268c-13.777,3.012,3.055-6.812,3.055-6.812c6.562-2.691,21.949-11.688,21.949-11.688
		c6.701-2.99,10.504-9.443,13.596-14.991c3.088-5.546,7.979-25.605,7.979-25.605c4.138-10.296,4.13-0.116,3.217,4.188
		c-0.909,4.306-1.509,4.027,2.438,2.736C185.021,53.051,185.967,55.091,184.361,55.875"/>
</g>
</svg>
