<?xml version="1.0" encoding="utf-8"?>
<!-- Generator: Adobe Illustrator 15.1.0, SVG Export Plug-In . SVG Version: 6.00 Build 0)  -->
<!DOCTYPE svg PUBLIC "-//W3C//DTD SVG 1.1//EN" "http://www.w3.org/Graphics/SVG/1.1/DTD/svg11.dtd">
<svg version="1.1" id="Layer_1" xmlns="http://www.w3.org/2000/svg" xmlns:xlink="http://www.w3.org/1999/xlink" x="0px" y="0px"
	 width="222.986px" height="158.338px" viewBox="15.373 5.017 222.986 158.338"
	 enable-background="new 15.373 5.017 222.986 158.338" xml:space="preserve">
<g id="_x23_ffffffff">
	<path id="path5" fill="#2E3C40" d="M19.586,64.725c17.732,0,35.478,0.046,53.212-0.037c-1.453,8.213-2.903,16.424-4.371,24.638
		c-3.771,0.021-7.539-0.037-11.306,0.027c-0.148,12.727-0.135,25.458-0.13,38.189c-9.091-0.08-18.193,0.152-27.283-0.149
		c0.004-12.644,0.004-25.288,0-37.931c-4.776-0.041-9.556,0.047-14.335-0.056C16.738,81.173,18.198,72.956,19.586,64.725z"/>
	<path id="path7" fill="#2E3C40" d="M123.31,64.614c8.474,0.005,16.945-0.005,25.412,0.005c-0.266,20.818-0.065,41.646-0.111,62.462
		c-8.431,0.006-16.855-0.057-25.281,0.027C123.292,106.28,123.325,85.446,123.31,64.614z"/>
	<path id="path9" fill="#2E3C40" d="M153.967,64.614c8.361,0,16.717-0.005,25.074,0.005c-0.006,10.079-0.006,20.158,0,30.242
		c4.348-2.713,8.316-6.854,9-12.132c7.816,0,15.631,0,23.446,0c-1.948,9.332-9.409,17.052-18.489,19.745
		c7.238,6.861,14.668,13.545,22.076,20.232c3.668-1.225,7.738-1.77,11.518-0.695c3.467,0.938,6.272,4.054,6.574,7.677
		c0.408,4.103-1.088,8.166-3.138,11.663c-3.528-3.112-7.186-6.079-10.69-9.215c-4.455,3.806-9.058,7.422-13.52,11.221
		c2.253,3.95,4.422,7.939,6.652,11.9c-3.874,1.449-8.263,2.066-12.236,0.628c-2.935-0.988-5.123-3.769-5.514-6.829
		c-0.622-3.905,0.851-7.732,2.573-11.162c-6.172-9.947-12.269-19.938-18.397-29.912c0.031,6.359,0.022,12.723,0.012,19.082
		c-8.31,0.042-16.619-0.006-24.931,0.021C153.952,106.26,153.971,85.438,153.967,64.614z"/>
	<path id="path11" fill="#2E3C40" d="M78.911,82.464c4.501-1.227,9.191-1.562,13.841-1.474c5.239-0.102,10.665,0.335,15.485,2.562
		c4.674,2.076,8.286,6.461,9.28,11.494c0.576,2.966,0.715,6.002,0.669,9.021c-0.004,7.666,0.01,15.329-0.004,22.994
		c-8.351,0.062-16.703-0.034-25.05,0.05c-0.01-1.101-0.004-2.198,0-3.297c-4.468,2.797-9.903,4.328-15.166,3.335
		c-3.104-0.697-6.131-2.393-7.858-5.139c-2.644-3.99-2.592-9.577,0.074-13.549c1.774-2.652,4.654-4.362,7.65-5.311
		c4.988-1.541,10.372-1.259,15.384,0.028c-0.618-2.724-3.275-4.13-5.607-5.185c-1.64-0.572-3.293-1.563-5.086-1.214
		c-4.129,0.538-8.375,1.186-12.09,3.169c0.893-5.082,1.594-10.201,2.514-15.272C74.726,83.458,76.871,83.041,78.911,82.464
		 M84.4,115.207c1.417,3.308,6.062,3.707,8.733,1.72c-0.023-2.104-0.01-4.204,0.005-6.304c-1.9-0.631-3.98-1.074-5.941-0.451
		C84.991,110.606,83.439,113.065,84.4,115.207z"/>
	<path id="path13" fill="#2E3C40" d="M220.533,138.933c5.936,2.1,11.87,4.18,17.826,6.222c-1.941,6.091-4.144,12.103-6.066,18.2
		c-5.996-2.018-11.955-4.152-17.924-6.239C216.412,151.056,218.421,144.977,220.533,138.933 M224.83,147.501
		c-1.634,0.725-2.756,2.596-2.361,4.384c0.324,2.202,2.816,3.911,4.966,3.112c2.082-0.619,3.456-3.158,2.532-5.192
		C229.298,147.777,226.792,146.61,224.83,147.501z"/>
</g>
<g id="_x23_ebcb1eff">
	<path id="path25" fill="#2E3C40" d="M58.348,8.346c6.025-2.484,12.593-3.516,19.09-3.302c6.674-0.213,13.358,0.966,19.532,3.52
		c-1.97,7.218-4.348,14.34-6.532,21.503c-4.021-1.389-8.337-1.78-12.568-1.654c-3,0.26-6.424,1.208-8.045,3.981
		c-0.989,1.474-0.382,3.497,0.836,4.641c1.686,1.583,4.018,2.247,6.266,2.513c4.673,0.394,9.416-0.289,13.804-1.919
		c1.998,7.761,3.935,15.547,5.838,23.331c-7.334,2.41-15.071,3.608-22.787,3.334c-8.36-0.237-16.911-2.513-23.604-7.682
		c-5.462-4.093-9.37-10.289-10.451-17.047c-1.133-6.549,0.139-13.531,3.735-19.146C46.925,14.899,52.365,10.804,58.348,8.346z"/>
	<path id="path27" fill="#2E3C40" d="M186.412,17.994c4.221-2.489,9.979-2.611,14.082,0.2c5.891,3.938,6.291,13.879,0.508,18.091
		c-5.375,3.903-13.373,2.954-17.939-1.789c-2.727,2.411-3.46,6.206-3.535,9.68c-0.018,6.192,0,12.384-0.008,18.575
		c-8.481,0.009-16.964,0.004-25.439,0.004c0.187-14.241,0.062-28.487,0.093-42.729c8.412-1.333,16.89-2.322,25.324-3.516
		c0.026,3.293,0.063,6.586-0.027,9.879C181.042,23.093,183.169,19.851,186.412,17.994z"/>
	<path id="path29" fill="#2E3C40" d="M104.327,19.511c7.286-2.662,15.165-3.159,22.857-2.711c5.787,0.354,12.018,1.664,16.271,5.904
		c3.285,3.145,4.797,7.674,4.965,12.141c0.356,9.3,0.12,18.607,0.177,27.912c-8.478,0-16.95,0.005-25.421,0
		c-0.005-1.119,0.009-2.238,0.033-3.354c-4.273,2.605-9.382,4.246-14.422,3.544c-3.776-0.474-7.432-2.549-9.406-5.856
		c-2.267-4.023-2.127-9.387,0.622-13.15c1.57-2.183,3.878-3.738,6.377-4.676c5.397-2.016,11.348-1.765,16.875-0.41
		c-0.743-2.795-3.507-4.203-5.95-5.253c-1.616-0.58-3.265-1.403-5.036-1.096c-4.143,0.521-8.375,1.203-12.142,3.098
		c0.854-5.012,1.602-10.046,2.476-15.054C103.036,20.018,103.732,19.814,104.327,19.511 M115.828,46.384
		c-0.81,0.599-1.732,1.374-1.771,2.465c-0.395,2.114,1.255,4.218,3.288,4.665c1.979,0.571,4.158,0.172,5.843-0.995
		c-0.06-2.113,0.079-4.231-0.097-6.335C120.738,45.575,118.053,45.078,115.828,46.384z"/>
</g>
</svg>
