<?xml version="1.0" encoding="utf-8"?>
<!-- Generator: Adobe Illustrator 15.1.0, SVG Export Plug-In . SVG Version: 6.00 Build 0)  -->
<!DOCTYPE svg PUBLIC "-//W3C//DTD SVG 1.1//EN" "http://www.w3.org/Graphics/SVG/1.1/DTD/svg11.dtd">
<svg version="1.1" id="Layer_1" xmlns="http://www.w3.org/2000/svg" xmlns:xlink="http://www.w3.org/1999/xlink" x="0px" y="0px"
	 width="92.314px" height="61.683px" viewBox="259.317 365.161 92.314 61.683"
	 enable-background="new 259.317 365.161 92.314 61.683" xml:space="preserve">
<g>
	<path fill="#2E3C40" d="M274.801,394.84c-9.344,0-15.484-6.396-15.484-14.799c0-8.076,6.398-14.88,15.4-14.88
		c5.203,0,8.401,1.395,11.476,3.896l-3.328,3.812c-2.303-1.887-4.565-3.074-8.36-3.074c-5.502,0-9.686,4.593-9.686,10.166
		c0,5.942,4.056,10.29,10.154,10.29c2.814,0,5.374-0.859,7.209-2.173v-5.371h-7.638v-4.388h12.713v12.053
		C284.315,392.79,280.091,394.84,274.801,394.84"/>
	<polyline fill="#2E3C40" points="310.68,365.652 315.843,365.652 315.843,394.347 311.447,394.347 294.982,373.935 
		294.982,394.347 289.82,394.347 289.82,365.652 294.682,365.652 310.68,385.495 310.68,365.652 	"/>
	<rect x="319.556" y="365.652" fill="#2E3C40" width="5.247" height="28.694"/>
	<path fill="#2E3C40" d="M339.689,385.126h-5.933v9.222h-5.246v-28.694h11.771c6.955,0,11.35,3.771,11.35,9.635
		C351.634,381.762,346.26,385.126,339.689,385.126 M339.859,370.243h-6.103v10.329h6.103c3.967,0,6.442-2.089,6.442-5.165
		C346.303,372.006,343.784,370.243,339.859,370.243z"/>
	<path fill="#2E3C40" d="M332.085,397.727c-5.387,0-10.085,2.938-12.601,7.296c-0.001,0-0.003-0.004-0.007-0.004
		c-0.171,0.328-0.505,0.562-0.899,0.562c-0.388,0-0.713-0.224-0.889-0.542c-0.005,0.002-0.005,0.002-0.006,0.004
		c-2.513-4.364-7.222-7.312-12.611-7.312c-5.353,0-10.029,2.907-12.558,7.225c-0.001,0.005-0.004,0.009-0.008,0.012
		c-0.009,0.016-0.02,0.029-0.027,0.049v-0.003c-0.173,0.336-0.509,0.57-0.909,0.57c-0.377,0-0.69-0.213-0.87-0.514
		c-0.004,0.001-0.005,0.007-0.008,0.007c-2.509-4.385-7.228-7.348-12.631-7.348c-8.024,0-14.557,6.528-14.557,14.56
		c0,8.026,6.53,14.556,14.557,14.556c5.403,0,10.122-2.963,12.631-7.348c0.003,0.005,0.004,0.008,0.008,0.008
		c0.18-0.303,0.493-0.515,0.87-0.515c0.4,0,0.736,0.235,0.909,0.57v-0.001c0.01,0.018,0.02,0.032,0.027,0.049
		c0.004,0.003,0.007,0.009,0.008,0.012c2.526,4.314,7.205,7.225,12.558,7.225c5.393,0,10.102-2.947,12.611-7.312
		c0.001,0,0.001,0,0.006,0.002c0.176-0.317,0.501-0.544,0.889-0.544c0.396,0,0.729,0.232,0.899,0.562
		c0.004-0.003,0.006-0.003,0.007-0.003c2.516,4.354,7.214,7.294,12.601,7.294c8.027,0,14.557-6.526,14.557-14.555
		C346.641,404.256,340.113,397.727,332.085,397.727 M278.062,423.94c-6.425,0-11.654-5.229-11.654-11.655
		c0-6.43,5.229-11.657,11.654-11.657c6.429,0,11.658,5.229,11.658,11.657C289.72,418.711,284.49,423.94,278.062,423.94z
		 M305.073,423.94c-6.428,0-11.655-5.229-11.655-11.655c0-6.43,5.229-11.657,11.655-11.657c6.43,0,11.655,5.229,11.655,11.657
		C316.729,418.711,311.501,423.94,305.073,423.94z M332.085,423.94c-6.428,0-11.656-5.229-11.656-11.655
		c0-6.43,5.229-11.657,11.656-11.657s11.656,5.229,11.656,11.657C343.741,418.711,338.512,423.94,332.085,423.94z"/>
</g>
</svg>
