<?xml version="1.0" encoding="utf-8"?>
<!-- Generator: Adobe Illustrator 15.1.0, SVG Export Plug-In . SVG Version: 6.00 Build 0)  -->
<!DOCTYPE svg PUBLIC "-//W3C//DTD SVG 1.1//EN" "http://www.w3.org/Graphics/SVG/1.1/DTD/svg11.dtd">
<svg version="1.1" id="Layer_1" xmlns="http://www.w3.org/2000/svg" xmlns:xlink="http://www.w3.org/1999/xlink" x="0px" y="0px"
	 width="608.768px" height="172.394px" viewBox="0 309.803 608.768 172.394" enable-background="new 0 309.803 608.768 172.394"
	 xml:space="preserve">
<g transform="translate(40 40)">
	<g>
		<circle fill="#2E3C40" fill-opacity="0" cx="46.197" cy="356" r="86.197"/>
		<path fill="#2E3C40" d="M41.887,353.414l-0.431,4.955l3.663,1.939l3.664-0.646l1.724-2.801l-1.939-4.095l-3.017-1.078
			L41.887,353.414z M71.41,372.809l-3.663,1.293l-1.293,5.603l3.447,3.663l14.438-1.724l-2.37-11.637l-2.586-3.018l-4.741-0.431
			l-3.448,3.447L71.41,372.809z M37.578,269.803l-4.096,3.232l-0.646,0.646l7.11,4.094l-1.076,1.725l-7.542-2.586l1.293,7.11
			l5.603,4.525l6.249-1.078l4.311-4.525l0.646-6.249l-4.741-5.172L37.578,269.803z"/>
		<path fill="#2E3C40" d="M20.554,300.618L36.5,297.17l5.817,1.724l-1.508,4.956l1.939,0.646l4.956-11.638l-3.018-0.861l-1.724,4.31
			l-5.818-1.509l-10.559-12.283L20.554,300.618z M76.366,318.504l3.447-9.913l-1.724-0.862l-0.216-1.724l1.293-2.155l1.938,0.862
			l0.862,1.293l-1.078,1.938l2.371,8.835l6.249-6.25l-0.431-1.292l-0.216-1.293l1.078-0.861l2.37,0.646l0.216,1.939l-0.861,1.293
			l-1.293,0.431l-1.508,7.973l8.188-1.724l0.431-1.508l0.862-1.078h1.077l1.078,0.646l0.646,1.294l-0.646,1.077l-1.293,0.646
			l-1.508-0.215l-6.896,7.973L76.366,318.504z M17.752,349.535l-10.343-3.232l-0.646,1.724l-1.509,0.216l-1.939-1.077l0.432-2.155
			l1.293-0.862l2.154,1.078l8.62-2.586l-6.68-6.25l-0.862,0.646l-1.293,0.215L5.9,336.175l0.432-2.371l2.371-0.646l1.292,1.294
			v1.077l8.403,1.509l-2.154-8.404H14.95l-1.078-1.078l-0.432-1.077l0.646-1.293l1.293-0.431l1.293,0.431l0.862,1.508l-0.432,1.509
			l7.975,6.465L17.752,349.535z M72.272,285.965l4.095,9.697l2.154,1.076l1.293-0.215l0.862,4.095l1.939-0.862l3.447-5.818
			l4.741-1.938l1.293-2.802l-3.448-8.619l-3.231-1.078l-10.99,4.31L72.272,285.965z M4.392,281.224l1.939,5.172l7.11-2.371
			l7.111,8.62l-1.724-11.206l7.973-2.801l-2.801-6.034L4.392,281.224z M130.024,336.605l0.646,7.975l-7.111-5.173l-0.215,4.741
			l-6.896-6.896l-0.646,4.524l-10.774-9.913l9.267,1.725l0.215-4.311l7.327,5.388l0.861-3.448L130.024,336.605z M56.541,329.925
			v-2.586l1.508-1.725l3.448,0.432l0.646,3.448l-1.077,1.724h-3.447 M65.592,316.996l-23.058-7.327l-0.862,18.102l22.196-7.11
			L65.592,316.996z"/>
		<path fill="#2E3C40" d="M52.662,319.365c0.215,0,6.465,8.188,6.465,8.188l-1.939,0.862l-6.25-7.111L52.662,319.365z
			 M89.08,357.509l0.646-2.371l-0.215-2.371l-1.724-2.155l17.239-3.231l1.725,1.293l0.646,1.938l-0.861,1.725L89.08,357.509z
			 M82.4,362.249l1.51-2.587l0.215-4.74l-1.508-3.663l-2.371-1.724l2.586-0.216c0,0,1.938,1.077,2.37,1.077
			c0.431,0,2.37,2.586,2.37,2.586l0.216,3.233l-0.646,2.586l-1.938,2.586L82.4,362.249z"/>
		<path fill="#2E3C40" d="M80.676,362.033l1.077-2.371v-5.387l-1.725-3.017l-1.938-1.509l-2.371,1.938l-1.078,3.448l0.646,4.094
			l2.154,1.939l1.725,0.861h1.51V362.033z M119.896,312.47l-4.31-3.448l-3.448-0.431l-2.802,0.215l-4.311,3.232l-1.938,5.172
			l1.078,5.387l4.524,3.448l5.172,0.646l4.741-2.37l2.801-6.25L119.896,312.47z M117.094,317.858l-7.111,3.663v-7.758
			L117.094,317.858z M86.494,299.11l9.481,9.913l10.344-7.11l0.216,0.861l0.861,1.077l1.078,0.862l2.371,0.646l1.939-0.861
			l0.861-1.725l-0.861-2.371l-2.586-1.938h-1.725l-2.371,1.078l-7.973,5.603l-6.68-7.111l5.603-3.662l0.862,1.724l1.724,1.509
			l2.37,0.646l2.371-1.078l0.646-2.371l-0.861-1.939l-1.078-0.861l-1.078-0.646h-3.232L86.494,299.11z M108.69,380.996l0.862-1.938
			l1.508-0.216l1.939,1.509l-4.311,10.773l-1.724,0.217l-1.939-1.51l0.862-1.724l-1.724-0.216l-0.862-2.37l1.939-5.172l1.077-0.646
			l1.939-3.231l1.938-1.939l2.37-1.724l3.664-0.862l3.664,0.862l2.586,1.724l1.939,2.37l0.862,3.879v3.664l-0.646,2.37l0.862,1.725
			l-2.37,4.74l-1.078,1.51l-1.724-1.51l-0.646,1.939c-0.215,0-2.37-0.216-2.37-0.216l-1.509-1.509l4.31-10.989l1.939-0.216
			l1.508,1.509l-0.862,2.37l0.862,0.216l0.646-2.586v-2.803l-1.077-1.076l-1.078-2.587l-2.586-1.725l-2.801-0.861l-1.939,0.216
			l-2.371,1.509l-2.371,0.216l-0.861,0.861l-1.725,2.586L108.69,380.996L108.69,380.996z M99.64,410.305l4.311-4.741l6.465,1.077
			l-1.939-5.604l4.311-5.172l7.758,4.311l-14.224,16.378L99.64,410.305z M113.862,351.259L111.922,356l-4.094,7.11l-4.095-6.034
			l8.404-5.603L113.862,351.259z M100.717,358.802l-4.956,3.447l7.111,11.205l3.017-7.11L100.717,358.802z M92.959,364.619
			l7.758,11.853l-2.37,4.741l-2.371-0.217l-1.938-2.802l-6.681-10.343L92.959,364.619z M70.117,313.979l-1.509-1.724l-5.817,1.078
			l-0.862-1.725l3.232-6.249l-5.388,1.077l-1.293-2.155l6.465-7.758l-16.378,8.189l-1.508-1.939l7.974-9.913l-2.802,0.217
			l-2.586-3.018l2.801-2.371l2.803,1.939l5.817-3.018l1.293,1.939l-7.542,9.48l14.653-6.68l1.724,2.155l-7.973,8.404l6.034-1.293
			l1.508,2.154l-4.741,6.896l4.095-0.862l2.154,3.448L70.117,313.979z M-11.555,336.175l1.077-2.155l-3.017-4.741l0.862-1.724
			l7.326,0.862l-3.017-4.525l1.293-2.371l9.697,3.448l-13.576-12.499l1.077-1.939l12.283,3.664l-1.293-2.371l1.724-3.662
			l3.231,1.724l-0.646,3.448l4.956,4.31l-1.293,1.939l-11.637-3.663l11.637,10.99l-1.078,2.586l-10.99-3.88l3.663,4.741l-1.508,2.37
			l-8.189-1.938l1.939,3.231l-1.939,3.448L-11.555,336.175z M17.968,308.807l-1.078,2.586l8.835,15.3l2.585,1.509l2.371,3.879
			l7.111-3.232l-1.939-4.525l0.215-2.586l-6.896-17.023H25.94L17.968,308.807z M20.338,313.979v-0.646l0.216-0.862l0.646-0.215
			l0.646-0.215l0.646,0.215l0.646,0.646v0.862l-0.646,0.862l-0.217,0.215H21.63l-0.646-0.215L20.338,313.979z M22.924,317.642
			l0.216-0.862l0.646-0.646l0.861-0.215l0.646,0.215l0.646,0.646v0.862l-0.215,0.646l-1.078,0.861h-0.646l-0.646-0.646
			L22.924,317.642z M28.096,322.383l-0.646,0.862l-0.216,0.431h-0.646l-0.646-0.216l-0.215-0.646l-0.216-0.861l0.216-0.862
			l0.646-0.216l0.646-0.215l0.646,0.215l0.646,0.646L28.096,322.383z M33.052,320.228l-0.216,0.646l-0.646,0.216h-0.646
			l-0.432-0.646l-0.216-0.861l0.216-0.862l0.646-0.646l0.862-0.215l0.646,0.215l0.646,0.646L33.052,320.228z M31.328,314.841v0.862
			l-0.646,0.216H29.82l-0.646-0.216l-0.646-0.216l-0.216-0.861v-0.216l0.646-0.646l0.646-0.215h0.646l0.646,0.215L31.328,314.841z
			 M28.742,308.807l0.646,0.215l0.215,0.862v0.862l-0.861,0.646H27.88l-0.646-0.216l-0.215-0.646l-0.216-0.861v-0.215l0.646-0.646
			l0.646-0.215L28.742,308.807z M34.345,307.299l-1.509-1.724l-1.077,0.646l1.077,3.448l1.078-0.646L34.345,307.299z
			 M33.483,310.962l1.078,3.879l1.078-0.431l0.646-2.155l-1.725-1.725L33.483,310.962z M35.422,316.134l1.293,3.448l1.293-0.862
			l-0.431-1.939l-1.078-1.508L35.422,316.134z M22.062,322.383l-1.508,0.646l0.646,2.586l1.508,1.077l1.078-0.861
			C24.001,325.831,22.062,322.814,22.062,322.383z M21.416,321.09l-1.939-3.018l-1.508,0.862v1.509l1.724,1.509L21.416,321.09z
			 M18.398,316.565l-1.724-3.231l-1.509,0.646l0.216,1.939l1.293,1.293L18.398,316.565z M69.04,326.478l4.956-1.508l5.388,0.215
			l4.31,3.018l2.371,4.524l0.432,4.311l-1.939,5.603l-4.31,2.37l-4.095,1.078l-4.095-1.939l-1.293-3.017l-1.293-5.604l3.448-4.74
			l5.603-0.646l3.018,2.802l0.431,4.095l-1.724,2.801l-3.232,1.293l-2.155-1.939l-1.078-3.017l1.939-1.293l0.862,0.646l-0.432,1.077
			l0.432,1.509l0.861,0.216l1.509-0.862l0.431-1.078l-1.939-3.664l-3.017,0.216l-2.371,2.586l1.078,6.034l4.741,1.725l4.957-2.587
			l1.293-4.31l-0.646-4.957l-4.524-3.231l-8.62,0.431l-2.586,4.094l-2.155-0.646l0.862-2.155L69.04,326.478z M94.037,327.555
			l5.172,2.586l3.879,4.525l1.508,4.524l-1.724,3.448l-2.371,1.724l-5.172,1.078l-2.802-0.861l-2.586-2.155l-0.216-6.68l1.939-4.525
			L94.037,327.555z M1.59,299.972l4.31-3.448l5.388-1.724l4.524,0.216l2.155,3.017l0.862,2.587l-1.078,4.74l-1.725,2.37
			l-2.802,1.509l-6.034-2.154l-3.017-3.448L1.59,299.972z M131.748,348.673l-1.51-1.725h-0.861l-6.896-0.215l-3.878-0.215
			l-1.938,1.725l-0.862,19.609l1.939,1.939l10.989,0.215l1.939-0.861L131.748,348.673z M121.835,350.613l1.508-0.861h1.508
			l1.078,0.646l0.646,1.509l-0.862,1.725l-1.939,0.646l-1.077-0.215l-1.077-1.508L121.835,350.613L121.835,350.613z
			 M127.653,365.697l-2.801,1.509l-3.879-0.646l-1.938-2.586l0.646-3.879l1.509-2.371l2.801-0.215l3.663,0.86l1.51,3.448
			L127.653,365.697z"/>
		<path fill="#2E3C40" d="M124.206,359.662l-1.725,0.217l-0.861,1.293v1.938l1.724,0.862l1.724-0.216l0.862-1.51l-0.431-1.724
			L124.206,359.662z M37.362,410.52l-0.646-2.801l-1.077-1.726l-1.078-1.508l-2.801-0.861l-2.802,0.861l-1.508,2.37l0.646,3.232
			l1.724,2.586l2.802,1.509l3.447-0.646L37.362,410.52z"/>
		<path fill="#2E3C40" d="M29.604,407.719l-16.593,5.172l-1.508-1.939l2.586-1.938l1.077-4.312l2.586-3.446l3.231-0.646l2.371,1.508
			l-1.938,0.217l-1.293,1.938l-0.862,2.586l-0.431,1.724l11.421-3.662L29.604,407.719z M50.938,273.466v3.231l0.862,1.725
			l1.078,1.509l2.586,1.508l2.801-0.215l1.724-1.938v-3.448l-1.508-2.801l-2.586-1.725l-3.231,0.215L50.938,273.466z"/>
		<path fill="#2E3C40" d="M58.049,277.129l17.455-2.155l1.077,1.939l-2.802,1.724l-1.724,3.879l-3.017,3.017l-3.232,0.217
			l-2.155-1.725l1.939-0.215l1.724-1.724l1.078-2.371l0.646-1.725l-11.853,2.37L58.049,277.129z M-15.865,313.117l1.508-3.879
			l-3.231-4.74h-4.956l-7.974,12.499l10.344,5.817h3.879l3.231-3.447l-0.215-4.957L-15.865,313.117z M99.424,417.415l-2.801-4.311
			l-0.862-0.431l-4.525,6.68l-1.509-1.293l2.802-7.11l-7.11,0.432l-4.525,5.817l0.646,6.249l4.094,4.525l6.465,0.862l5.387-4.312
			L99.424,417.415z M22.493,438.533l15.73-3.664l6.034,1.726l-1.508,4.956l1.938,0.646l4.741-11.853l-2.586-0.861l-1.724,4.525
			l-6.034-1.509l-10.775-11.854L22.493,438.533z M62.359,380.566l4.525,9.481l1.724-0.432l1.725,0.861l0.431,2.155l-2.155,1.293
			l-1.293-0.432l-0.861-2.586l-7.974-4.095l0.215,8.62l1.078,0.646l1.293,0.861v1.509l-2.371,1.293l-1.724-1.293l-0.215-1.724
			l0.862-0.862l-4.956-6.896l-4.096,7.11l0.432,1.077l0.431,1.509l-0.646,0.861l-1.078,0.646l-1.725-0.861l-0.431-1.293l0.431-1.293
			l1.292-0.646l-0.861-10.56L62.359,380.566z M-4.228,393.064l-2.154,10.344l1.293,2.371l1.293,0.215l-1.725,3.879l2.155,0.433
			l6.034-2.802l5.172,0.861l2.586-1.725l1.939-8.835l-1.939-2.802l-11.637-2.586L-4.228,393.064z M14.951,352.336l-5.173,1.293
			l1.725,7.542l-9.051,6.465l10.989-0.862l2.37,7.974l6.25-1.938L14.951,352.336z M-26.855,399.314l-5.387-5.818l8.835-0.861
			l-3.017-3.663l9.696,0.86l-2.586-3.662l14.869,0.646l-7.973,4.525l2.586,3.447l-9.051,0.432l1.293,3.448L-26.855,399.314z
			 M2.883,285.965l6.249,4.956l-8.835,1.938l3.448,3.018l-9.697,0.646l3.017,3.448l-14.653,1.509l7.11-5.817l-2.801-3.018
			l9.051-2.155l-1.938-2.802L2.883,285.965z M28.311,378.41l-0.861,2.586l-1.939,0.862l-3.232-1.293l0.646-3.232l1.293-1.725
			l3.448,1.509 M15.812,388.108L35.854,401.9l6.034-17.24l-23.272,0.433L15.812,388.108z"/>
		<path fill="#2E3C40" d="M28.742,389.831c-0.216-0.215-3.663-9.696-3.663-9.696l1.938-0.215l3.878,8.835L28.742,389.831z
			 M-1.642,357.509L-3.582,356l-2.371-0.862l-2.8,0.862l4.31-17.455l1.724-0.646l1.939,0.216l1.508,1.294L-1.642,357.509z
			 M-0.134,365.697l-1.725-2.37l-4.31-2.371l-3.879-0.215l-2.586,1.509l0.861-2.37c0,0,1.725-1.51,1.939-1.725
			c0.215-0.216,3.448-1.078,3.448-1.078l3.231,0.862l2.371,1.724l1.508,2.803L-0.134,365.697z"/>
		<path fill="#2E3C40" d="M-0.996,366.99l-1.939-1.938l-4.957-1.939l-3.447,0.216l-1.939,0.861l0.862,3.232l2.371,2.154l3.879,1.293
			l3.231-1.293l1.077-1.076L-0.996,366.99z M13.011,374.963l-4.31-3.447l-3.448-0.431L2.452,371.3l-4.311,3.231l-1.938,5.389
			l1.077,5.387l4.525,3.448l5.172,0.646l4.741-2.37l2.801-6.25L13.011,374.963z M9.779,380.135l-7.11,3.664v-7.759L9.779,380.135z
			 M24.863,424.312l-10.344-8.835l-9.266,8.188l-0.215-0.862l-1.078-1.077l-1.077-0.646h-2.37l-1.938,1.077l-0.646,1.939l0.862,2.37
			l2.802,1.725l1.724-0.216l1.939-1.509l7.327-6.896l7.758,6.465l-5.387,4.311l-1.078-1.508l-2.155-1.51l-2.155-0.216L7.41,428.62
			l-0.217,2.37l1.078,1.939l1.293,0.646l1.077,0.646l2.371-0.215l0.646-0.217L24.863,424.312z M-23.838,328.632l1.938,0.862
			l0.215,1.509l-1.508,1.938l-10.344-4.524l-0.215-1.725l1.508-1.938l1.724,0.861l0.215-1.724l2.37-0.862l4.741,1.939l0.646,1.078
			l2.801,1.938l1.938,1.939l1.725,2.371l0.861,3.663l-1.077,3.879l-1.725,2.586l-2.586,1.938l-3.879,0.646l-3.664,0.216
			l-2.371-0.646l-1.508,0.646l-4.741-2.371l-1.078-1.508l1.51-1.724c0,0-1.939-0.646-1.939-0.862s0.215-2.371,0.215-2.371
			l1.508-1.508l10.775,4.524l0.215,1.939l-1.508,1.077l-2.586-0.646l-0.216,0.862l2.586,0.862h2.802l1.077-1.078l2.586-1.077
			l1.724-2.371l0.646-2.371l-0.215-1.938l-0.862-2.37v-2.155l-0.862-0.862l-2.801-1.724L-23.838,328.632L-23.838,328.632z
			 M-15.865,401.9l4.957,4.74l-2.155,6.25l6.034-1.509l4.525,4.956l-4.741,7.11l-15.3-15.729L-15.865,401.9z M-8.323,351.259
			l-4.31,3.017l-7.111,3.664l-0.646-7.327h10.345L-8.323,351.259z M-23.407,350.613h-6.249v13.146l6.465-4.311L-23.407,350.613z
			 M-33.104,350.828l-0.431,14.223l-4.525,2.586L-40,366.56v-3.664l0.215-12.283L-33.104,350.828z M106.535,397.806h-2.37
			l-3.018,5.172l-1.938-0.216l-2.371-6.896l-2.801,4.525l-2.586-0.216l-1.078-10.128l-5.388,17.671l-2.369-0.217l-1.939-12.498
			l-1.724,1.938h-3.664v-3.447l3.231-0.861l1.509-6.466l2.587,0.217l1.724,12.066l5.172-15.516h2.801l0.862,12.066l2.801-5.387
			l2.586,0.215l1.939,7.975l1.938-3.018l4.311,0.432L106.535,397.806z M75.72,419.354l-2.586-1.077l-15.946,8.835l-1.509,2.586
			l-4.31,2.371l3.231,7.326l4.525-1.939l2.586,0.217l17.67-6.896v-3.231L75.72,419.354z M70.333,421.726l0.646-0.216l0.862,0.216
			l0.215,0.646l0.216,0.861l-0.216,0.862l-0.646,0.216h-0.862l-0.646-0.646l-0.215-0.217v-0.646l0.215-0.646L70.333,421.726z
			 M66.454,424.312l0.861,0.215l0.646,0.646l0.215,0.861l-0.431,0.432l-0.862,0.646l-0.862-0.215l-0.431-0.432l-0.216-0.646
			l0.216-0.646l0.646-0.646L66.454,424.312z M61.497,429.698l-0.862-0.646l-0.215-0.646v-0.646l0.215-0.646h0.646l0.646-0.215
			l1.078,0.215l0.215,0.646l0.215,0.861l-0.646,0.217l-0.646,0.646L61.497,429.698z M63.868,434.869l-0.646-0.215l-0.215-0.646
			l0.215-0.646l0.646-0.646l0.861-0.216l0.862,0.216l0.646,0.646l0.216,0.861l-0.216,0.646l-0.646,0.433L63.868,434.869z
			 M69.255,433.146h-0.862l-0.216-0.646v-0.861l0.216-0.646l0.646-0.215l0.861-0.216h0.646l0.646,0.646l0.216,0.862v0.646
			l-1.077,0.215L69.255,433.146z M75.504,430.561l-0.646,0.646l-0.861,0.217h-0.862l-0.215-0.646v-0.861l0.215-0.646l0.646-0.216
			l0.862-0.215h0.646l0.646,0.646l0.216,0.861L75.504,430.561z M77.013,435.948l1.939-1.078l-0.862-1.508l-3.664,1.077l0.431,1.509
			H77.013z M72.918,435.086l-3.664,1.509l0.646,1.077l2.155,0.216l1.724-1.293L72.918,435.086z M67.747,437.025l-3.448,1.509
			l0.646,1.077h1.939l1.724-1.077L67.747,437.025z M61.497,423.448l-0.646-1.509l-2.586,0.646l-1.077,1.509l0.862,1.077
			C58.049,425.173,61.282,423.448,61.497,423.448z M63.006,422.587l3.017-1.939l-0.861-1.508h-1.509l-1.509,1.724L63.006,422.587z
			 M67.531,419.785l3.448-2.154l-0.646-1.293l-2.155,0.216l-1.508,1.508L67.531,419.785z M50.723,404.271l4.311,3.448l2.586,4.524
			l-0.432,5.388l-2.371,4.31l-3.231,2.802l-6.034,1.293l-4.094-1.938l-3.232-3.448l-0.646-4.31l1.724-2.802l4.095-4.095l6.034,0.432
			l3.663,4.524l-0.862,3.879l-3.231,2.586l-3.448,0.216l-2.801-2.154l0.215-2.586l2.371-2.586l1.938,0.861v1.077l-1.292-0.215
			l-0.864,1.723l0.216,0.861l1.508,0.432l1.293-0.216l1.939-3.447l-1.939-2.586l-3.448-0.432l-4.524,3.879l1.293,5.172l4.956,2.803
			l4.31-1.294l3.663-3.231l0.431-5.604l-5.172-6.896H45.12l-0.862-2.37l2.155-0.216L50.723,404.271z M61.066,412.675l0.215-5.818
			l2.371-5.603l3.232-3.232h3.879l2.371,1.293l3.232,3.879l0.646,3.232l-0.646,3.017l-6.034,3.232l-4.741,0.431L61.066,412.675z
			 M-13.925,380.781l1.077-1.724l-0.216-0.862l-1.724-6.464l-1.078-3.879l-2.371-1.078l-18.532,4.741l-1.508,2.37l2.801,10.773
			l1.725,1.509L-13.925,380.781z M-18.666,371.946l1.077,1.078l0.216,1.508l-0.216,1.509l-1.509,0.861l-1.508-0.431l-1.078-1.725
			v-1.077l0.862-1.077L-18.666,371.946z M-31.165,381.859l-2.371-2.155l-0.646-3.879l1.939-2.801l3.879-0.862l2.586,0.862
			l1.508,2.37l0.215,3.663l-2.801,2.586L-31.165,381.859z"/>
	</g>
</g>
<path fill="#2E3C40" d="M197.607,376.605h8.62l10.128,29.522l10.128-29.522h8.62l-14.007,39.004h-9.266L197.607,376.605z
	 M242.214,374.882c2.802,0,4.957,2.155,4.957,4.741s-2.155,4.74-4.957,4.74c-2.586,0-4.741-2.154-4.741-4.74
	S239.628,374.882,242.214,374.882z M238.335,415.609h7.758v-26.505h-7.758V415.609z M269.582,400.955c0-3.017-1.508-5.17-4.525-5.17
	c-3.231,0-4.741,2.37-4.741,5.17v14.653h-7.758v-26.505h7.758v3.448c1.939-3.664,6.465-3.879,7.542-3.879
	c6.681,0,9.697,5.172,9.697,10.559v16.593h-7.757v-14.869H269.582z M290.054,412.809l-11.206-23.705h8.62l6.68,15.084l5.818-15.084
	h7.973l-16.162,39.651h-8.188L290.054,412.809L290.054,412.809z M318.93,375.097v40.512h-7.758v-40.512H318.93z M373.019,389.104
	l-10.99,26.505h-5.388l-10.99-26.29v26.29h-7.973v-39.004h10.773l10.774,25.859l10.56-25.859h11.205v39.004h-7.973L373.019,389.104
	L373.019,389.104z M393.705,404.404c0.432,3.232,3.232,5.172,6.466,5.172c2.37,0,4.739-1.293,5.603-3.447l6.465,2.154
	c-1.725,5.172-6.681,7.758-11.853,7.758c-7.974,0-14.653-5.603-14.653-13.791c0-7.757,6.465-13.792,14.007-13.792
	c7.975,0,13.146,5.388,13.146,13.36c0,0.862,0,1.939-0.216,2.802h-18.964L393.705,404.404L393.705,404.404z M405.342,399.448
	c-0.215-1.938-1.725-4.74-5.604-4.74c-3.446,0-5.387,2.802-5.817,4.74H405.342z M416.979,425.092v-3.664
	c3.018-1.077,4.741-2.801,5.172-5.604c-0.431,0.216-1.077,0.216-1.508,0.216c-2.586,0-4.525-2.154-4.525-4.74
	c0-2.801,2.586-4.525,5.172-4.525c3.663,0,5.604,2.802,5.604,6.465C426.892,419.488,423.229,424.014,416.979,425.092
	L416.979,425.092z M453.397,401.818h-6.034v13.791h-7.973v-39.004h14.438c7.759,0,14.007,4.311,14.007,12.499
	C467.619,397.724,461.586,401.818,453.397,401.818z M452.966,384.363h-5.604v10.128h5.818c3.231,0,6.465-1.509,6.465-4.956
	C459.431,385.656,456.198,384.363,452.966,384.363L452.966,384.363z M479.472,375.097v40.512h-7.758v-40.512H479.472z
	 M491.971,404.404c0.431,3.232,3.231,5.172,6.465,5.172c2.37,0,4.74-1.293,5.603-3.447l6.466,2.154
	c-1.725,5.172-6.682,7.758-11.854,7.758c-7.973,0-14.653-5.603-14.653-13.791c0-7.757,6.466-13.792,14.008-13.792
	c7.974,0,13.146,5.388,13.146,13.36c0,0.862,0,1.939-0.216,2.802h-18.963L491.971,404.404L491.971,404.404z M503.392,399.448
	c-0.216-1.938-1.724-4.74-5.604-4.74c-3.447,0-5.388,2.802-5.817,4.74H503.392z M514.382,408.282v-0.216
	c0-6.249,6.465-8.188,11.637-8.188h2.586c1.508,0,2.154-0.646,2.154-1.725c0-1.725-1.293-3.232-4.095-3.232
	c-2.37,0-4.095,1.293-4.74,3.664l-6.896-1.51c0.862-5.603,6.465-8.403,11.853-8.403c6.681,0,11.422,3.663,11.422,10.774v12.282
	c0,1.509,0,2.802,0.215,4.311h-7.326c-0.216-1.077-0.216-2.37-0.216-3.231c-1.939,2.801-4.956,3.879-7.973,3.879
	C518.477,416.04,514.382,413.023,514.382,408.282L514.382,408.282z M530.544,405.267v-0.646h-4.741
	c-1.509,0-3.879,0.861-3.879,3.018c0,1.938,1.509,2.802,3.231,2.802C528.819,410.438,530.544,408.067,530.544,405.267
	L530.544,405.267z M542.396,408.067l6.896-1.508c0.216,1.724,1.725,3.663,4.311,3.663c2.155,0,3.017-1.293,3.017-2.37
	c0-0.862-0.646-1.726-2.586-2.371l-3.231-0.646c-5.172-1.077-7.758-3.88-7.758-7.759c0-4.74,4.311-8.619,10.129-8.619
	c7.109,0,10.128,4.524,10.559,7.542l-6.681,1.509c-0.432-1.724-1.725-3.233-3.878-3.233c-1.726,0-3.019,1.078-3.019,2.155
	c0,1.078,0.646,1.725,2.155,1.938l3.663,0.646c5.388,1.078,8.188,4.095,8.188,8.188c0,4.311-3.446,8.835-10.559,8.835
	C545.844,416.256,542.611,410.868,542.396,408.067L542.396,408.067z M575.15,404.404c0.433,3.232,3.232,5.172,6.465,5.172
	c2.371,0,4.741-1.293,5.604-3.447l6.465,2.154c-1.725,5.172-6.681,7.758-11.854,7.758c-7.974,0-14.652-5.603-14.652-13.791
	c0-7.757,6.465-13.792,14.007-13.792c7.974,0,13.146,5.388,13.146,13.36c0,0.862,0,1.939-0.216,2.802H575.15V404.404z
	 M586.786,399.448c-0.215-1.938-1.724-4.74-5.603-4.74c-3.448,0-5.388,2.802-5.818,4.74H586.786L586.786,399.448z M597.992,410.868
	c0-3.017,2.37-5.388,5.389-5.388c3.017,0,5.387,2.371,5.387,5.388c0,3.018-2.37,5.388-5.387,5.388
	C600.363,416.256,597.992,413.67,597.992,410.868z"/>
</svg>
