<?xml version="1.0" encoding="utf-8"?>
<!-- Generator: Adobe Illustrator 15.1.0, SVG Export Plug-In . SVG Version: 6.00 Build 0)  -->
<!DOCTYPE svg PUBLIC "-//W3C//DTD SVG 1.1//EN" "http://www.w3.org/Graphics/SVG/1.1/DTD/svg11.dtd">
<svg version="1.1" id="header-logo" xmlns="http://www.w3.org/2000/svg" xmlns:xlink="http://www.w3.org/1999/xlink" x="0px"
	 y="0px" width="568px" height="238.422px" viewBox="0 0 568 238.422" enable-background="new 0 0 568 238.422"
	 xml:space="preserve">
<linearGradient id="SVGID_1_" gradientUnits="userSpaceOnUse" x1="-184.9468" y1="661.8447" x2="-184.9468" y2="431.6932" gradientTransform="matrix(1 0 0 1 468.9448 -429.8535)">
	<stop  offset="0" style="stop-color:#FFFFFF;stop-opacity:0"/>
	<stop  offset="1" style="stop-color:#FFFFFF"/>
</linearGradient>
<path fill="url(#SVGID_1_)" d="M388.734,86.219L357.879,65.19L340.732,0.632L305.893,0l-8.369,6.704l-8.627-1.078l-20.979,21.938
	h-15.579l-65.571,83.118l-16.515,1.6l-86.481,126.14h400.454L388.734,86.219z M352.468,90.688l32.483,31.737l2.992,31.384
	l-32.493,12.319l4.11-7.843l-50.785,32.482l2.609-15.312l-7.096-9.705l37.713-72.457l1.872-1.117L352.468,90.688z M302.251,140.729
	l-10.989-0.612v-6.709l-25.635,12.813l-15.859,9.153l-8.545-1.224l46.38-53.092l12.812-1.219l26.242-26.85l4.268,9.15
	L302.251,140.729z M278.725,72.119h13.427l-42.722,58.585l-25.631,3.665l-19.528,18.304l-26.85-1.222l76.894-96.421l15.868-1.22
	l35.392-28.075h12.881L278.725,72.119z"/>
<path fill="#FFFFFF" d="M26.308,233.639H0v-63.623h25.036c12.562,0,19.264,7.422,19.264,18.408c0,7.238-4.752,11.258-6.619,12.598
	c2.463,1.61,7.472,4.918,7.472,13.854C45.152,227.027,37.088,233.639,26.308,233.639z M24.102,184.045h-9.25v10.364h9.25
	c4.075,0,5.349-2.681,5.349-5.179C29.449,186.729,28.177,184.045,24.102,184.045z M24.864,208.439H14.852v11.168h10.014
	c4.074,0,5.433-2.951,5.433-5.627C30.297,211.299,28.939,208.439,24.864,208.439z"/>
<path fill="#FFFFFF" d="M59.668,233.639v-63.623h14.854v63.623H59.668z"/>
<path fill="#FFFFFF" d="M129.521,227.027c-5.177,5.629-10.951,7.149-17.567,7.149c-7.044,0-12.395-2.504-16.808-7.149
	c-6.365-6.705-6.107-15.639-6.107-25.199c0-9.562-0.258-18.497,6.107-25.201c4.413-4.645,9.505-7.146,16.808-7.146
	c15.53,0,22.148,10.634,23.594,21.088h-14.936c-1.191-4.824-3.566-7.146-8.658-7.146c-2.716,0-4.757,1.251-5.857,2.767
	c-1.357,1.881-2.206,4.023-2.206,15.642c0,11.61,0.849,13.851,2.206,15.729c1.102,1.518,3.143,2.682,5.857,2.682
	c3.14,0,5.26-0.982,6.616-2.504c1.699-1.787,2.295-4.379,2.295-6.795v-0.894h-8.911v-13.044h23.678v8.844
	C135.63,216.128,134.102,222.111,129.521,227.027z"/>
<path fill="#FFFFFF" d="M199.543,233.639h-26.311v-63.623h25.037c12.562,0,19.267,7.422,19.267,18.408
	c0,7.238-4.748,11.258-6.619,12.598c2.464,1.61,7.471,4.918,7.471,13.854C218.388,227.027,210.324,233.639,199.543,233.639z
	 M197.339,184.045h-9.251v10.364h9.251c4.077,0,5.347-2.681,5.347-5.179C202.686,186.729,201.416,184.045,197.339,184.045z
	 M198.101,208.439h-10.013v11.168h10.013c4.077,0,5.434-2.951,5.434-5.627C203.533,211.299,202.178,208.439,198.101,208.439z"/>
<path fill="#FFFFFF" d="M270.843,227.027c-4.416,4.646-9.508,7.149-16.889,7.149c-7.385,0-12.479-2.504-16.891-7.149
	c-6.366-6.705-6.107-15.639-6.107-25.199c0-9.562-0.259-18.497,6.107-25.201c4.412-4.645,9.506-7.146,16.891-7.146
	c7.381,0,12.473,2.504,16.889,7.146c6.366,6.704,6.111,15.639,6.111,25.201C276.954,211.389,277.209,220.322,270.843,227.027z
	 M259.893,186.188c-1.101-1.516-3.225-2.767-5.938-2.767c-2.719,0-4.841,1.251-5.942,2.767c-1.357,1.881-2.208,4.023-2.208,15.642
	c0,11.61,0.851,13.672,2.208,15.545c1.104,1.521,3.225,2.865,5.942,2.865c2.714,0,4.838-1.347,5.938-2.865
	c1.36-1.873,2.209-3.935,2.209-15.545C262.102,190.212,261.253,188.068,259.893,186.188z"/>
<path fill="#FFFFFF" d="M313.287,234.178c-12.564,0-22.831-8.938-22.831-22.879v-41.283h14.847v40.924
	c0,5.901,3.059,9.302,7.984,9.302c4.914,0,8.143-3.398,8.143-9.302v-40.924h14.854v41.283
	C336.282,225.238,325.85,234.178,313.287,234.178z"/>
<path fill="#FFFFFF" d="M351.734,233.639v-63.623h14.854V219.7h25.375v13.938H351.734z"/>
<path fill="#FFFFFF" d="M443.57,227.382c-4.159,4.384-10.018,6.257-16.293,6.257H404.87v-63.623h22.407
	c6.275,0,12.134,1.877,16.293,6.258c7.046,7.416,6.283,15.547,6.283,25.557C449.854,211.837,450.615,219.971,443.57,227.382z
	 M433.388,187.531c-1.357-2.146-3.396-3.577-7.132-3.577h-6.53v35.743h6.53c3.735,0,5.772-1.43,7.132-3.569
	c1.186-1.792,1.609-3.489,1.609-14.3C434.997,191.105,434.572,189.318,433.388,187.531z"/>
<path fill="#FFFFFF" d="M464.367,233.639v-63.623h41.078v13.938h-26.223v10.642h22.406v13.937h-22.406V219.7h26.223v13.938H464.367z
	"/>
<path fill="#FFFFFF" d="M550.773,233.639l-10.692-23.675h-5.011v23.675h-14.854v-63.623h23.938
	c13.409,0,20.623,10.008,20.623,20.465c0,8.668-5.093,14.119-9.848,16.619L568,233.639H550.773z M543.473,184.045h-8.401v12.868
	h8.401c4.074,0,6.452-3.124,6.452-6.433C549.925,187.171,547.547,184.045,543.473,184.045z"/>
</svg>
