<?xml version="1.0" encoding="utf-8"?>
<!-- Generator: Adobe Illustrator 15.1.0, SVG Export Plug-In . SVG Version: 6.00 Build 0)  -->
<!DOCTYPE svg PUBLIC "-//W3C//DTD SVG 1.1//EN" "http://www.w3.org/Graphics/SVG/1.1/DTD/svg11.dtd">
<svg version="1.1"
	 id="Layer_1" xmlns:rdf="http://www.w3.org/1999/02/22-rdf-syntax-ns#" xmlns:cc="http://creativecommons.org/ns#" xmlns:dc="http://purl.org/dc/elements/1.1/"
	 xmlns="http://www.w3.org/2000/svg" xmlns:xlink="http://www.w3.org/1999/xlink" x="0px" y="0px" width="274px" height="307px"
	 viewBox="0 0 274 307" enable-background="new 0 0 274 307" xml:space="preserve">
<g>
	<path fill="#FFFFFF" d="M86.572,47.568h0.534c-7.06,15.876-11.583,34.049-11.583,53.72s4.553,37.744,11.583,53.722h-0.534
		c-10.385-15.978-17.075-33.951-17.075-53.922c0-19.671,6.77-38.043,17.075-53.72V47.568z M128.709,202.339l1.658-1.937
		c-21.868-18.174-47.13-53.821-47.13-98.955c0-45.233,25.163-80.78,47.13-98.954l-1.997-1.997
		C94.22,16.475,61.269,56.415,61.269,101.349c0,4.454,0.32,8.867,0.94,13.18c5.611,39.442,35.447,73.292,66.102,87.67"/>
	<path fill="#FFFFFF" d="M187.723,47.568c10.385,15.577,17.074,34.049,17.074,53.72s-6.779,38.044-17.074,53.722h-0.539
		c7.062-15.878,11.582-34.051,11.582-53.722s-4.553-37.744-11.582-53.72H187.723z M191.007,101.289
		c0,45.233-25.163,80.779-47.13,98.954l1.657,1.938c34.05-15.979,67.101-55.917,67.101-100.853
		c0-45.033-33.051-84.974-67.101-100.851l-1.657,1.947c21.867,18.173,47.13,53.82,47.13,98.953"/>
	<g>
		<path fill="#FFFFFF" d="M21.568,236.986c0-1.467,1.178-2.205,3.146-2.205h1.318c1.967,0,3.146,0.732,3.146,2.205v9.457
			c0,1.468-1.178,2.207-3.146,2.207h-1.318c-1.967,0-3.146-0.732-3.146-2.207V236.986z M24.713,251.965h1.318
			c5.322,0,7.14-2.316,7.14-4.783v-10.883c0-2.467-1.817-4.793-7.14-4.793h-1.318c-5.312,0-7.14,2.316-7.14,4.793v10.883
			C17.574,249.648,19.391,251.965,24.713,251.965"/>
		<path fill="#FFFFFF" d="M7.129,251.965h1.099v-0.008c5.272-0.02,6.85-2.326,6.85-4.783v-2.556h-3.844v1.856
			c0,1.469-1.028,2.207-2.996,2.207H7.14c-1.967,0-3.146-0.736-3.146-2.207v-9.455c0-1.47,1.178-2.207,3.146-2.207h1.098v0.004
			c1.967,0,2.996,0.735,2.996,2.207v1.438h3.844v-2.146c0-2.457-1.578-4.762-6.85-4.782v-0.005H7.129
			c-5.212,0-7.029,2.996-7.029,4.992v10.886c0,2.478,1.817,4.793,7.129,4.793"/>
		<path fill="#FFFFFF" d="M86.771,244.977h-3.285v3.443h-6.61v-4.951h5.352v-3.316h-5.352v-5.12h6.61v3.442h3.285v-6.729H70.895
			v3.285h2.027v13.38h-2.027v3.284h15.876v-6.729"/>
		<path fill="#FFFFFF" d="M105.843,247.971v3.285h15.876v-6.729h-3.295v3.442h-6.62v-4.95h5.352v-3.315h-5.352v-5.122h6.62v3.443
			h3.295v-6.729h-15.876v3.285h2.027v13.38h-2.027"/>
		<path fill="#FFFFFF" d="M51.124,244.977h-3.295v3.533h-6.451v-13.379h2.027v-3.285h-8.028v3.285h2.027v13.379h-2.027v3.297h15.777
			v-6.82"/>
		<path fill="#FFFFFF" d="M68.698,244.977h-3.285v3.533h-6.46v-13.379h2.027v-3.285h-8.018v3.285h2.027v13.379h-2.027v3.297h15.777
			v-6.82"/>
		<path fill="#FFFFFF" d="M103.846,237.986v-1.908c0-2.467-1.588-4.792-6.9-4.792h-1.099c-5.322,0-7.139,2.315-7.139,4.792v10.885
			c0,2.477,1.817,4.793,7.139,4.793h1.099c5.312,0,6.9-2.316,6.9-4.793v-5.932h-7.12v3.295h3.275v1.967
			c0,1.438-1.029,2.168-2.996,2.178h-1.159c-1.977,0-3.145-0.732-3.145-2.207v-9.455c0-1.469,1.178-2.207,3.145-2.207h1.148
			c1.967,0,2.996,0.732,2.996,2.207v1.207h3.844"/>
		<path fill="#FFFFFF" d="M151.775,245.975v-9.457c0-1.467,1.178-2.205,3.145-2.205h1.318c1.967,0,3.146,0.732,3.146,2.205v9.457
			c0,1.479-1.179,2.207-3.146,2.207h-1.318C152.953,248.182,151.775,247.447,151.775,245.975z M156.238,251.467
			c5.312,0,7.14-2.316,7.14-4.783v-10.885c0-2.466-1.817-4.793-7.14-4.793h-1.318c-5.322,0-7.139,2.316-7.139,4.793v10.885
			c0,2.467,1.816,4.783,7.139,4.783H156.238"/>
		<path fill="#FFFFFF" d="M169.748,245.975v-9.457c0-1.467,1.18-2.205,3.146-2.205h1.316c1.969,0,3.146,0.732,3.146,2.205v9.457
			c0,1.479-1.178,2.207-3.146,2.207h-1.316C170.928,248.182,169.748,247.447,169.748,245.975z M174.212,251.467
			c5.312,0,7.14-2.316,7.14-4.783v-10.885c0-2.466-1.816-4.793-7.14-4.793h-1.317c-5.312,0-7.141,2.316-7.141,4.793v10.885
			c0,2.467,1.818,4.783,7.141,4.783H174.212"/>
		<path fill="#FFFFFF" d="M256.619,244.977h-3.285v3.533h-6.46v-13.379h2.026v-3.296h-8.02v3.296h2.027v13.379h-2.027v3.297h15.777
			v-6.83"/>
		<path fill="#FFFFFF" d="M273.594,244.977h-3.295v3.533h-6.449v-13.379h2.026v-3.296h-8.019v3.296h2.025v13.379h-2.025v3.297
			h15.775v-6.83"/>
		<path fill="#FFFFFF" d="M213.684,236.986v0.91c0,1.498-0.465,2.207-2.348,2.207h-3.475v-4.994h3.385
			C213.214,235.109,213.684,235.52,213.684,236.986L213.684,236.986z M214.623,245.125v1.209c0,1.467-0.496,2.176-2.467,2.176
			h-4.293v-5.4h4.293c1.967,0,2.467,0.766,2.467,2.025V245.125z M201.842,231.846v3.295h2.027v13.381h-2.027v3.295h10.285
			c5.322,0,6.37-2.178,6.37-4.645v-2.316c0-1.616-1.118-2.854-3.115-3.555c1.538-0.705,2.206-1.857,2.206-3.285v-1.735
			c0-2.468-1.059-4.443-6.37-4.443h-9.376"/>
		<path fill="#FFFFFF" d="M200.703,237.986v-6.73h-17.874v6.73h3.284v-3.438h3.676v13.383h-2.037v3.295h8.027v-3.295h-2.026V234.55
			h3.675v3.437h3.285"/>
		<path fill="#FFFFFF" d="M228.661,235.988c0.012,0.18,1.168,3.705,2.356,7.32h-4.754
			C227.473,239.693,228.631,236.168,228.661,235.988z M226.344,248.77h-1.906c0.233-0.688,0.492-1.477,0.775-2.326h6.85
			c0.277,0.849,0.543,1.64,0.771,2.326h-1.907v3.295h7.278v-3.295h-1.43l-6.08-16.674h-3.885l-6.109,16.674h-1.639v3.295h7.289
			v-3.295"/>
		<path fill="#FFFFFF" d="M129.808,247.971v3.295h8.487v-3.295h-2.496v-4.951h5.352v-3.314h-5.352v-5.122h6.609v3.437h3.296v-6.729
			h-15.876v3.295h2.027v13.38h-2.027"/>
		<path fill="#FFFFFF" d="M185.725,293.902c0,3.295-2.637,4.942-7.049,4.942h-2.957c-4.412,0-7.049-1.647-7.049-4.942v-21.168
			c0-3.295,2.637-4.942,7.049-4.942h2.957c4.412,0,7.049,1.647,7.049,4.942V293.902z M194.682,295.49v-24.363
			c0-5.542-4.084-10.783-15.977-10.783h-2.955c-11.883,0-15.977,5.201-15.977,10.783v24.363c0,5.531,4.084,10.785,15.977,10.785
			h2.955C190.588,306.275,194.682,301.072,194.682,295.49"/>
		<path fill="#FFFFFF" d="M273.594,275.93v-15.078h-35.646v7.379h4.544v30.059h-4.544v7.379h19.071v-7.379h-5.592v-11.084h11.982
			v-7.449h-11.982v-11.48h14.877v7.709h7.379"/>
		<path fill="#FFFFFF" d="M38.743,298.896v7.379H73.99v-15.277h-7.379v7.908H52.133V268.85h4.543v-7.379H38.703v7.379h4.543v30.058
			h-4.543"/>
		<path fill="#FFFFFF" d="M99.852,269.938c0.035,0.41,2.616,8.289,5.292,16.377H94.46c2.706-8.106,5.312-15.978,5.372-16.377H99.852
			z M94.65,298.596h-4.264c0.515-1.547,1.108-3.313,1.737-5.201H107.5c0.624,1.888,1.218,3.654,1.737,5.201h-4.283v7.379h16.375
			v-7.379h-3.205l-13.68-37.443h-8.727l-13.68,37.443h-3.675v7.379H94.74v-7.379"/>
		<path fill="#FFFFFF" d="M13.48,268.939H20c4.413,0,7.109,1.639,7.109,4.941v5.791c0,3.227-2.706,4.885-7.109,4.885h-6.52V268.939z
			 M18.023,298.996H13.48v-7.051H20c11.882,0,15.976-5.201,15.976-10.783v-8.896c0-5.531-4.024-10.785-15.976-10.785H0.03v7.382
			h4.543v30.056H0.03v7.379h17.974v-7.379"/>
		<path fill="#FFFFFF" d="M114.83,268.939h4.703l12.182,21.369v8.695h-4.513v7.379h17.973v-7.379h-4.513v-9.746l11.98-20.271h5.393
			v-7.379h-17.973v7.379h3.764c-3.225,5.371-7.578,12.582-7.618,12.781c-0.043-0.164-4.074-7.41-7.069-12.781h3.734v-7.379H114.9
			v7.379"/>
		<path fill="#FFFFFF" d="M234.652,275.93v-15.078h-35.647v7.379h4.544v30.059h-4.544v7.379h19.071v-7.379h-5.602v-11.084h11.98
			v-7.449h-11.98v-11.48h14.879v7.709h7.379"/>
		<path fill="#FFFFFF" d="M122.818,72.032h29.256v7.239h-29.256V72.032L122.818,72.032z"/>
		<path fill="#FFFFFF" d="M151.775,96.296v-7.229h-29.257v7.229H151.775z"/>
		<path fill="#FFFFFF" d="M151.775,113.171v-7.239h-29.257v7.239H151.775z"/>
		<path fill="#FFFFFF" d="M151.775,130.146v-7.239h-29.257v7.239H151.775z"/>
	</g>
</g>
</svg>
