<?xml version="1.0" encoding="utf-8"?>
<!-- Generator: Adobe Illustrator 15.1.0, SVG Export Plug-In . SVG Version: 6.00 Build 0)  -->
<!DOCTYPE svg PUBLIC "-//W3C//DTD SVG 1.1//EN" "http://www.w3.org/Graphics/SVG/1.1/DTD/svg11.dtd">
<svg version="1.1" xmlns="http://www.w3.org/2000/svg" xmlns:xlink="http://www.w3.org/1999/xlink" x="0px" y="0px" width="300px"
	 height="100px" viewBox="0 0 300 100" enable-background="new 0 0 300 100" xml:space="preserve">
<g id="bg" display="none">
	<rect display="inline" fill="#FF7BAC" width="300" height="100"/>
</g>
<g id="greenpeace" display="none">
	<g id="layer1" display="inline">
		<path id="path10" fill="#FFFFFF" d="M243.617,29.988c-1.5,0.303-4.295,0.787-6.252,1.495c-3.354,1.223-6.399,3.05-9.166,4.854
			c-1.524,0.988-2.567,3.276-3.51,4.85c-1.774,2.923-3.198,8.306-0.812,11.966c0.382,0.559,1.167,1.091,1.549,1.646
			c0.764,1.174,2.162,2.622,3.331,3.332c0.833,0.506,1.725,0.863,2.589,1.396c0.738,0.459,1.398,1.471,2.235,1.756
			c0.786,0.225,1.32,0.326,2.082,0.66c0.357,0.125,0.658,0.558,1.041,0.66c0.969,0.303,2.185,0.605,3.481,0.938
			c1.931,0.483,3.687,1.12,6.221,0.048c0.589-0.254,1.858-0.939,2.187-1.472c0.532-0.913,0.587-1.728,0.968-2.894
			c0.303-1.018,0.939-1.986,1.091-2.949c0.128-0.889-0.177-1.803-0.939-2.742c-0.253-0.306-0.587-0.738-1.271-0.561
			c-0.915,0.203-1.905,1.245-2.616,1.73c-0.507,0.352-1.524,0.988-2.083,1.143c-4.011,1.066-14.125-4.371-14.683-6.683
			c-1.219-4.927,4.749-10.442,7.444-12.221c0.326-0.2,0.86-0.787,1.218-0.885c0.405-0.156,1.192-0.127,1.423-0.204
			c0.558-0.152,1.192-0.484,1.603-0.612c1.066-0.328,2.387,0.689,2.46,1.931c0.131,1.906-0.887,4.449-0.25,5.207
			c0.429,0.537,1.853,0.689,2.591,0.891c2.257,0.66,2.487,1.22,4.037-2.259c0.558-1.296,0.734-4.116,0.202-6.097
			c-0.637-2.365-1.575-4.419-3.198-4.776c-0.816-0.204-0.736-0.332-1.779-0.307C243.743,29.86,244.098,29.886,243.617,29.988z
			 M197.611,30.496c-2.385,0.582-4.697,0.758-7.137,1.8c-1.603,0.689-3.48,0.865-5.133,1.271c-2.414,0.61-4.698,0.307-6.504,1.397
			c-0.786,0.485-1.498,4.449-2.286,5.363c-2.487,2.997-2.464,4.468-2.82,5.104c-0.176,0.333-1.011-0.177-3.427,6.985
			c-1.628,4.854-0.764,11.891,7.771,13.67c2.671,0.582,7.217,0.684,9.35-0.715c1.778-1.167,3.377-2.664,2.334-5.793
			c-0.199-0.631-0.175-1.393-0.684-1.678c-1.398-0.732-3.48,0.666-4.443,1.146c-2.083,1.018-4.346,1.501-7.572-0.05
			c-2.21-1.041-3.377-2.643-0.963-4.164c0.277-0.18,0.787-0.689,1.145-0.787c1.242-0.41,2.971-0.029,4.418-0.382
			c1.116-0.284,1.394-0.636,3.124-0.485c1.218,0.129,2.513-0.506,4.219-0.634c2.132-0.128,2.26-0.332,2.641-0.532
			c1.192-0.637,0.991,0.381,2.766-0.51c0.788-0.406,0.637-2.796,0.23-3.529c-0.382-0.713-0.405-2.517-1.219-2.771
			c-0.839-0.254-1.068,0.407-1.42,0.611c-1.169,0.709-2.975,1.143-5.188,1.472c-2.361,0.381-4.141,0.866-6.857,0.282
			c2.185,0.534-2.182-0.102-1.293-1.627c0.607-1.119,1.648-2.542,2.513-3.481c1.805-2.033,19.052-4.217,19.891-5.053
			c0.637-0.46,0.179-2.259,0.051-2.846c-0.127-0.458-0.357-1.779-0.43-2.058c-0.079-0.328-0.943-0.787-0.943-0.991
			C199.718,30.57,199.718,29.959,197.611,30.496z M110.558,30.521c-2.641,0.356-3.074,0.861-4.091,1.145
			c-2.132,0.508-3.607,0.303-5.788,0.835c-1.072,0.279-2.185,0.939-3.154,1.247c-0.66,0.226-1.271,0.127-1.776,0.455
			c-1.014,0.689-0.432,4.013-0.762,5.362c-0.252,1.192-1.705,2.537-2.135,3.76c-1.907,5.509-4.371,15.086,0.635,19.305
			c0.738,0.61,1.727,0.812,2.695,1.218c3.457,1.373,4.243,0.688,7.312,0.99c0.357,0.027,0.563,0.177,1.17,0.052
			c0.792-0.201,1.78-0.989,2.62-1.37c1.776-0.841,2.028-3.964,1.294-5.563c-0.18-0.381-0.483-0.811-0.762-1.221
			c-0.279-0.457-0.459-0.939-0.762-0.988c-1.599,0.023-1.271,1.218-2.336,1.494c-2.569,0.689-6.502,0.512-8.234-0.276
			c-0.837-0.383-1.931-0.989-1.576-2.361c0.868-3.276,8.004-2.972,11.637-3.862c0.89-0.23,2.161-0.764,3.276-1.12
			c1.603-0.509,2.971-0.686,3.124-0.939c0.459-0.558-1.066-5.636-2.259-5.97c-0.177-0.048-0.939,0.049-1.119,0.103
			c-0.759,0.201-13.106,4.977-10.439,0.152c0.354-0.685,0.79-1.98,1.296-2.567c1.803-2.107,3.58-2.386,5.662-2.692
			c1.398-0.226,2.947-0.71,4.649-0.837c1.451-0.102,3.2-0.587,4.649-0.635c0.815-0.049,1.524,0.048,1.65-0.025
			c0.305-0.23,0.025-0.561,0.279-1.144c0.66-1.574-0.861-2.008-1.623-3.149c-0.204-0.306-0.255-0.634-0.434-1.068
			C114.902,30.061,111.828,30.34,110.558,30.521z M286.264,26.991c0.691-0.18-0.858,0.177-2.742,0.708
			c-0.454,0.128-2.614,0.739-3.504,0.612c-0.355-0.054-0.738,0.557-1.446,0.405c-0.305-0.053-2.361,0.407-4.548,0.66
			c-3.201,0.357-4.879,0.685-7.52,1.422c-0.663,0.178-1.832,0-2.49,0.178c-2.387,0.585-4.039,0.405-5.764,1.548
			c-2.235,1.449-1.956,3.864-2.059,6.381c-0.025,0.787-1.628,3.377-2.084,4.825c-0.888,2.846-3.024,10.061-1.754,13.819
			c0.102,0.256,0.509,0.637,0.66,0.837c1.144,1.729,1.931,2.312,3.861,3.251c1.375,0.635,5.08,1.907,7.7,1.5
			c0.126-0.025,0.86-0.406,1.016-0.43c0.757-0.204,1.394,0.099,2.181-0.18c1.094-0.407,3.661-0.535,4.854-1.297
			c1.678-1.089,1.806-5.665-0.404-6.272c-0.738-0.181-1.322,0.255-2.998,0.534c-3.48,0.532-5.973,1.877-10.163,0.254
			c-0.786-0.309-1.599-1.12-1.295-2.264c0.763-2.997,10.492-0.938,13.185-1.496c2.005-0.434,3.226-0.077,4.243-1.348
			c0.353-0.456,0.431-1.116,0.582-1.878c0.204-0.915,1.096-0.407,0.181-2.489c-0.279-0.664-1.906-3.152-2.414-3.304
			c-1.271-0.381-2.163,0.582-2.821,0.762c-0.709,0.177-1.727-0.103-2.792-0.025c-1.604,0.098-3.256,0.455-3.662,0.127
			c-0.429-0.356-2.208,0.533-3.197,0.024c-1.323-0.685,0.073-2.923,0.305-3.657c1.217-3.886,4.927-3.026,8.862-4.115
			c5.134-1.476,6.888-0.181,9.986-0.939c0.989-0.254,2.133-0.029,3.125-0.283c1.016-0.254,4.062-0.607,4.521-0.508
			c0.71,0.126,1.779,0.053,2.132-0.201c0.405-0.23,0.332-1.271,0.279-1.677c-0.227-2.185-0.837-2.947-1.727-4.267
			C287.994,27.369,288.02,26.557,286.264,26.991z M120.896,28.947c-3.049,0.811-0.812,7.337-1.193,10.007
			c-0.434,3.202-0.279,6.248-0.913,9.324c-0.788,3.709-1.628,7.444-2.518,11.33c-0.864,3.682,0.89,4.521,3.559,5.08
			c0.352,0.072,0.987,0.454,1.472,0.023c1.218-1.09,0.684-5.182,1.016-6.834c0.406-1.803,1.247-7.29,2.313-8.383
			c0.582-0.582,1.192-1.169,1.98-0.405c1.905,1.777,3.225,4.345,4.498,6.784c0.582,1.114,2.004,1.75,2.334,2.996
			c0.51,1.906,0.738,6.527,2.084,7.342c0.532,0.303,1.09,0.05,1.853,0.201c0.357,0.078,1.325,0.459,2.035,0.23
			c0.864-0.303,1.422-2.996,1.626-3.912c0.709-3.303-0.562-6.124-0.027-9.146c0.027-0.128,0.077-0.991,0.102-1.12
			c0.228-0.988-0.255-2.131-0.049-3.123c0.483-2.259,0.151-6.044,0.533-9.068c0.229-1.931-0.303-3.378,0.078-5.182
			c0.303-1.575,0.049-3.582-0.562-5.055c-0.583-1.373-3.913-1.143-4.27,0.406c-0.252,1.041,0.461,1.677,0.208,2.796
			c-0.208,0.939-0.357,3.378-0.485,6.146c-0.229,4.829-0.532,10.491-2.489,9.655c-0.914-0.406-1.756-1.55-2.161-2.542
			c-0.327-0.763-1.194-1.321-1.599-1.981c-1.524-2.287-3.402-3.607-4.193-6.78c-0.989-3.989,1.628-7.396-2.44-8.589
			C123.155,28.996,121.786,28.716,120.896,28.947z M157.629,28.081c-2.082,0.357-3.989-0.024-6.174,0.509
			c-2.666,0.636-5.563,1.295-7.646,2.664c-0.583,0.357-0.66,1.96-0.66,1.96c-0.332,6.375,6.427,0.684,8.867,2.133
			c0.128,0.077,0.509,0.458,0.582,0.585c0.078,0.099,0.153,0.431,0.177,0.504c0.483,1.452,0.332,4.805-0.153,5.919
			c-0.252,0.636-0.582-0.048-0.733,0.69c-0.89,0.15-2.438,0.405-3.05,0.913c-0.483,0.407-0.963,2.108-1.042,2.792
			c-0.405,3.304,2.106,3.862,2.567,4.194c0.454,0.329,0.634-0.534,1.902-0.204c0.029,1.065-0.05,1.524,0.053,2.209
			c0.151,1.065-0.103,2.868-0.355,4.165c-0.357,1.678-1.145,6.275-0.456,7.697c0.279,0.611,0.963,0.279,2.132,1.065
			c0.431,0.305,1.271,0.813,2.288,0.487c0.788-0.279,0.86-1.631,1.064-2.568c0.334-1.599-0.177-4.116,0.104-6.071
			c0.303-2.132,0.837-7.29,0.913-7.851c0.305-0.381,2.283-0.684,3.709-1.065c0.479-0.127,1.043-0.611,1.421-0.738
			c0.814-0.279,1.475-0.253,2.158-0.558c0.892-0.406,1.831-1.168,2.567-1.75c2.107-1.677,4.243-2.718,4.601-3.255
			c0.43-0.607,0.479-1.346,1.041-2.083c1.901-2.386-0.382-6.883-2.314-9.219c-0.253-0.329-0.507-0.812-0.913-0.915
			c-0.658-0.206-0.864-0.078-1.35-0.356c-0.326-0.202-0.888-0.812-1.239-0.916c-0.637-0.201-1.858-0.151-2.519-0.304
			C163.799,28.438,159.307,27.828,157.629,28.081z M157.78,34.661c1.499-0.355,2.972-0.127,4.673-0.151
			c1.678-0.029,3.583,0.049,4.727,1.242c2.515,2.694-5.131,6.375-8.104,6.58c-1.296,0.103-1.042-0.635-0.964-1.5
			c0-0.099-0.254-1.673-0.534-2.665c-0.33-1.118-0.052-1.754-0.052-1.754C157.551,35.878,156.992,34.837,157.78,34.661z
			 M211.631,26.684c-0.762,0.254-2.13,1.98-2.562,2.742c-0.382,0.66-1.324,1.247-1.676,1.907c-0.79,1.471-1.707,2.844-2.464,4.267
			c-1.677,3.15-2.541,6.658-4.396,9.729c-0.635,1.07-2.161,1.143-2.492,2.591c-0.454,1.905-0.454,3.938-1.169,5.64
			c-1.016,2.465-2.565,3.378-3.196,6.63c-0.538,2.694,0.913,3.783,2.538,4.267c1.42,0.433,2.111-1.345,2.414-2.058
			c0.762-1.876,2.488-7.215,4.188-7.796c2.084-0.715,3.331-0.383,5.716-1.32c0.713-0.255,3.765-0.078,5.562-0.357
			c-0.025,1.247-0.25,7.241-0.226,8.863c0.049,3.076,0.915,5.896,2.082,6.302c0.892,0.332,1.729,0.053,2.515,0.125
			c0.126-0.2,0.102-0.326,0.229-0.506c0.078-0.075,0.204-0.075,0.254-0.178c0.151-0.203,0.078-0.357,0.177-0.66
			c0.562-1.729,0.713-4.902,0.255-6.883c-0.662-2.844-0.075-5.996-0.101-8.535c1.648-0.61,1.902-1.042,2.132-3.024
			c0.051-0.381,0.128-1.601,0.128-1.652c0-0.101-0.024-0.633-0.024-0.633c0.048-0.102-0.025-0.713-0.053-0.762
			c-0.255-0.562-1.066-0.229-1.956-0.206c0.151-1.295,0.023-3.862-0.279-5.461c-0.328-1.803,0.024-2.718-0.482-4.267
			c-0.128-0.382,0-0.812-0.407-1.551c-0.2-0.43-0.2-0.966-0.328-1.397c-0.229-0.835-1.119-1.472-1.449-2.185
			C215.771,28.537,215.062,25.516,211.631,26.684z M211.787,35.218c0.892-0.229,1.423,0.406,1.957,1.398
			c0.404,0.762,0.175,6.682,0.2,8.306c-1.956,0.254-4.85,0.279-7.24,0.23c-0.049-0.612,0.864-2.161,1.858-4.194
			c0.532-1.066,0.732-2.209,1.241-3.198C210.517,36.412,211.456,35.321,211.787,35.218z M85.308,28.462
			c-1.702,0.432-3.278,0.993-4.929,1.398c-1.041,0.254-1.955,0.254-3.072,0.558c-0.534,0.151-1.703,0.812-2.235,0.963
			c-0.914,0.23-1.12,0.102-2.137,0.381c-0.327,0.103-1.115,0.459-1.446,0.534c-1.096,0.307-2.235,0.411-2.974,1.071
			c-1.65,1.524-1.65,4.189-0.531,6.452c0.507,1.013,1.98,0.686,1.652,2.816c-0.533,3.509-2.111,4.829-2.543,6.684
			c-0.303,1.269-0.357,2.463-0.429,3.734c-0.156,3.225,0.279,6.223,2.259,8.637c0.864,1.066,6.223,3.045,7.977,3.428
			c2.438,0.51,4.19-0.406,5.918-0.709c0.505-0.482,1.116-1.197,1.268-1.678c0.788-2.564-0.762-6.197-1.32-6.403
			c-1.652,0.026-1.955,1.067-3.202,1.375c-2.917,0.708-6.194-0.813-7.416-2.084c-0.483-0.509-0.558-1.626-0.279-2.239
			c0.23-0.532,1.12-1.573,1.652-1.748c0.964-0.334,1.599-0.05,2.616-0.305c1.295-0.332,3.045-0.815,4.214-1.094
			c1.07-0.279,2.414,0.407,3.812,0.053c1.344-0.332,3.886-0.664,4.345-1.094c0.303-0.407,0.177-1.955,0-2.567
			c-0.356-1.422-0.689-3.227-2.009-3.607c-1.827-0.558-4.673,1.017-7.669,1.525c-2.796,0.459-4.957,0.078-4.195-2.513
			c0.333-1.119,0.357-1.73,1.041-2.438c1.249-1.247,3.584-1.701,6.022-2.211c0.866-0.179,1.829-0.561,2.669-0.712
			c1.116-0.202,2.132-0.202,3.071-0.456c0.509-0.126,1.5-0.459,2.62-0.66c1.041-0.204,2.235-0.283,2.562-0.562
			c0.762-0.66-1.497-5.031-1.776-5.51c-0.053-0.103-0.053-0.078-0.102-0.181C90.314,28.081,87.137,28.003,85.308,28.462z
			 M49.618,27.573c-1.472,0.255-5.31,1.041-5.563,1.779c-0.151,0.381-0.229,1.295-0.459,2.235c-0.255,1.089-0.812,1.627-0.534,2.615
			c0.715,2.489,2.646,2.288,1.957,4.649c-0.43,1.524-1.296,6.021-2.766,6.784c-0.714,0.382-1.756,0.177-2.108,0.456
			c-0.284,0.459-0.611,3.632,0.175,5.183c0.255,0.482,1.145,0.968,1.296,1.398c0.255,0.762,0.024,2.463-0.078,2.844
			c-1.091,4.473-1.647,9.475,2.439,10.414c0.459,0.102,1.271,0.203,1.422-0.024c2.592-3.735-0.786-6.454,0.84-10.34
			c0.788-1.853,1.271-2.058,2.565-1.448c1.878,0.891,4.724,3.432,5.563,4.016c3.149,2.184,4.573,6.809,8.333,5.664
			c0.966-0.304,3.43-2.846,2.994-4.6c-0.071-0.303-0.381-1.012-0.531-1.344c-0.837-1.654-3.021-2.16-4.801-3.379
			c-0.636-0.459-1.222-1.192-1.854-1.652c-0.664-0.484-1.269-1.191-1.754-1.852c-0.151-0.153-0.151-0.509-0.025-0.84
			c0.177-0.431,0.964-0.939,1.244-1.32c1.323-1.803,2.72-3.784,3.329-6.301c1.422-5.994-1.701-11.914-4.723-13.767
			c-0.764-0.458-1.579-0.684-2.494-0.963C53.099,27.496,51.319,27.241,49.618,27.573z M51.445,33.718
			c2.161-0.758,4.474,2.214,4.801,3.129c0.333,0.939,0.079,2.131-0.126,2.972c-0.304,1.344-2.005,2.639-3.076,3.353
			c-0.66,0.431-1.041,1.624-1.902,1.801c-3.915,0.864-1.12-5.842-0.966-6.576c0.228-1.071-0.383-2.366-0.051-3.379
			C50.176,34.789,51.217,33.796,51.445,33.718z M32.929,73.324c0.201-0.126,0.201-0.229,0.327-0.332
			c0.078-0.102,0.156-0.255,0.231-0.357c0.251-0.278,0.126-0.303,0.251-0.762c0.892-3.021,0.105-6.756,1.096-10.69
			c0.381-1.604,0.987-5.134,1.647-6.63c0.357-0.793,1.223-1.779,1.425-2.747c0.762-3.251-1.701-7.212-2.313-7.391
			c-0.66-0.837-6.883,0.406-10.896,1.524c-2.465,0.71-2.513-0.356-7.06,0.737c-2.184,0.509-3.887,0.941-4.345,3.198
			c-0.279,1.246,0.458,4.903,1.016,5.059c2.059,0.632,3.076-0.636,5.818-1.119c1.702-0.279,2.693-0.078,4.342-0.482
			c0.816-0.201,2.312-0.963,3.559-0.582c0.633,0.2,0.963,1.113,0.66,1.853c-0.279,0.684-0.813,1.495-1.398,1.876
			c-0.861,0.588-2.361,1.678-3.355,1.932c-0.762,0.205-1.548-0.074-2.283,0.127c-0.381,0.102-1.294,0.637-1.779,0.713
			c-2.083,0.279-5.229,0.231-6.934-0.126c-0.66-0.153-1.678-0.636-2.259-0.788c-2.212-0.508-5.134-1.602-5.692-3.66
			c-1.092-4.037,6.454-11.963,8.385-13.943c2.057-2.111,4.086-4.066,6.603-5.715c0.964-0.634,1.957-2.007,3.174-2.341
			c0.585-0.152,0.966,0.03,1.222,0.103c2.157,0.689,3.173,4.751,3.681,4.902c1.702,0.51,3.049-0.633,3.457-1.495
			c0.507-1.143,0.303-3.279-0.078-4.424c-0.534-1.549-2.562-3.759-3.96-4.419c-0.51-0.229-1.07-0.253-1.628-0.405
			c-0.56-0.182-1.329-0.582-2.198-0.615H23.5h-0.06c-0.291,0.009-0.592,0.065-0.902,0.186c-3.074,1.143-4.726,2.995-6.959,4.776
			c-0.84,0.66-1.73,1.24-2.542,1.954c-2.617,2.211-6.376,6.249-8.18,9.245c-1.192,1.956-2.773,3.026-3.457,5.641
			c-0.126,0.483-0.738,1.09-0.861,1.623c-0.156,0.612,0.051,1.017-0.102,1.628C0.273,52.083,0.03,53.108,0,54.14v0.408
			c0.014,0.421,0.07,0.837,0.184,1.222c0.104,0.328,0.479,0.558,0.582,0.89c0.208,0.61,0.255,1.146,0.461,1.727
			c0.151,0.382,0.58,0.66,0.733,0.913c0.892,1.35,1.3,2.111,2.644,2.925c1.701,1.016,4.318,1.726,6.4,2.185
			c0.508,0.099,1.095-0.153,1.603-0.053c0.153,0.053,0.534,0.481,0.686,0.509c0.866,0.204,2.058-0.027,2.972-0.052
			c5.133-0.102,8.027-0.966,11.205-2.82c0.303,1.98-0.078,4.903-0.127,6.938c-0.029,1.169,0.127,1.932,0.127,3.147
			c0.177,0.739,2.31,0.843,2.919,1.296C31.251,74.01,32.697,73.476,32.929,73.324z"/>
	</g>
</g>
<g id="heavybit">
	<g>
		<polygon fill="#FFFFFF" points="173.715,74.124 175.22,74.124 175.22,59.333 173.715,59.333 		"/>
		<polygon fill="#FFFFFF" points="190.341,71.866 190.299,71.866 181.486,59.333 179.606,59.333 179.606,74.124 181.111,74.124 
			181.111,61.465 181.153,61.465 189.966,74.124 191.846,74.124 191.846,59.333 190.341,59.333 		"/>
		<path fill="#FFFFFF" d="M206.35,68.832c-0.128,0.603-0.631,1.51-1.073,2.03c-0.471,0.55-1.079,1.081-1.907,1.423
			c-0.83,0.343-1.512,0.459-2.643,0.459h-2.707V60.712h2.67c1.124,0,2.176,0.091,3.015,0.51c0.532,0.265,0.934,0.413,1.491,1.093
			c0.259,0.309,0.7,0.72,1.083,2.015c0.261,0.896,0.306,1.692,0.306,2.46C206.586,67.555,206.528,68.009,206.35,68.832
			L206.35,68.832z M206.172,61.251c-0.535-0.599-1.319-1.121-2.236-1.457c-0.764-0.282-1.849-0.461-2.767-0.461h-4.653v14.791h4.688
			c0.768-0.018,1.849-0.165,2.458-0.391c0.848-0.315,1.494-0.641,2.156-1.271c0.648-0.62,1.268-1.368,1.652-2.418
			c0.366-1,0.583-2.077,0.583-3.316c0-1.225-0.136-2.16-0.402-2.942C207.265,62.667,206.674,61.811,206.172,61.251L206.172,61.251z"
			/>
		<path fill="#FFFFFF" d="M220.834,68.441c0,0.711-0.07,1.317-0.211,1.827c-0.139,0.51-0.322,0.936-0.554,1.284
			c-0.23,0.349-0.489,0.625-0.773,0.828c-0.287,0.2-0.571,0.352-0.856,0.468c-0.284,0.11-0.564,0.182-0.836,0.215
			c-0.271,0.032-0.541,0.053-0.718,0.053c-0.196,0-0.485-0.019-0.75-0.053c-0.262-0.033-0.538-0.111-0.824-0.215
			c-0.285-0.116-0.571-0.268-0.854-0.468c-0.289-0.207-0.544-0.482-0.777-0.828c-0.229-0.349-0.414-0.774-0.552-1.284
			c-0.141-0.51-0.21-1.116-0.21-1.827v-9.108h-1.506v9.276c0,0.611,0.072,1.265,0.219,1.954c0.147,0.688,0.421,1.324,0.824,1.909
			c0.405,0.586,0.956,1.066,1.65,1.45c0.696,0.384,1.66,0.576,2.776,0.576c1.099,0,2.041-0.192,2.745-0.576
			c0.701-0.384,1.255-0.869,1.661-1.45c0.399-0.589,0.68-1.222,0.825-1.909c0.144-0.688,0.215-1.343,0.215-1.954v-9.276h-1.502
			v9.108H220.834z"/>
		<path fill="#FFFFFF" d="M233.823,66.864c-0.556-0.313-1.167-0.565-1.826-0.753c-0.662-0.188-1.271-0.399-1.827-0.638
			c-0.557-0.23-1.021-0.538-1.399-0.906c-0.375-0.369-0.562-0.89-0.562-1.559c0-0.459,0.088-0.858,0.267-1.199
			c0.184-0.341,0.422-0.621,0.726-0.834c0.301-0.217,0.636-0.377,1.012-0.48c0.377-0.107,0.761-0.158,1.153-0.158
			c1.249,0,2.207,0.479,2.857,1.438l1.317-1.021c-0.587-0.671-1.219-1.134-1.899-1.398c-0.682-0.264-1.443-0.397-2.278-0.397
			c-0.602,0-1.185,0.081-1.758,0.249c-0.569,0.166-1.081,0.429-1.533,0.775c-0.45,0.351-0.816,0.787-1.086,1.315
			c-0.272,0.531-0.406,1.15-0.406,1.859c0,0.683,0.106,1.25,0.323,1.703c0.213,0.452,0.5,0.83,0.857,1.128
			c0.354,0.302,0.757,0.547,1.211,0.741c0.451,0.196,0.916,0.371,1.397,0.522c0.479,0.152,0.947,0.307,1.399,0.458
			c0.449,0.156,0.856,0.346,1.211,0.577c0.354,0.229,0.639,0.515,0.856,0.856c0.214,0.344,0.324,0.772,0.324,1.284
			c0,0.435-0.098,0.82-0.297,1.154c-0.192,0.333-0.442,0.615-0.738,0.845c-0.298,0.228-0.637,0.403-1.013,0.521
			c-0.375,0.119-0.75,0.177-1.128,0.177c-0.778,0-1.454-0.165-2.025-0.494c-0.576-0.322-1.013-0.762-1.339-1.302l-1.359,0.981
			c0.569,0.779,1.264,1.342,2.081,1.68c0.816,0.342,1.672,0.512,2.579,0.512c0.587,0,1.165-0.097,1.743-0.294
			c0.58-0.194,1.104-0.473,1.567-0.834c0.468-0.359,0.845-0.81,1.129-1.346c0.287-0.538,0.428-1.141,0.428-1.81
			c0-0.889-0.188-1.595-0.564-2.107C234.848,67.592,234.379,67.178,233.823,66.864L233.823,66.864z"/>
		<polygon fill="#FFFFFF" points="238.541,60.712 243.488,60.712 243.488,74.124 244.993,74.124 244.993,60.712 249.942,60.712 
			249.942,59.333 238.541,59.333 		"/>
		<path fill="#FFFFFF" d="M258.215,66.099h-2.832v-5.387h2.675c0.669,0,1.236,0.066,1.701,0.199
			c0.468,0.132,0.841,0.317,1.118,0.554c0.279,0.235,0.481,0.512,0.607,0.822c0.122,0.312,0.187,0.872,0.187,1.221
			c0,0.359-0.06,0.729-0.185,1.042c-0.123,0.309-0.266,0.6-0.544,0.827c-0.278,0.231-0.556,0.37-1.024,0.508
			C259.45,66.03,258.884,66.099,258.215,66.099L258.215,66.099z M262.297,66.306c0.641-0.713,1.004-1.764,1.004-2.796
			c0-1.321-0.437-2.539-1.306-3.195c-0.871-0.655-2.055-0.981-3.559-0.981h-4.551v14.791h1.5v-6.646h3.454l3.611,6.646h1.841
			l-3.824-6.792C260.593,67.259,261.561,67.122,262.297,66.306L262.297,66.306z"/>
		<polygon fill="#FFFFFF" points="267.989,74.124 269.491,74.124 269.491,59.333 267.989,59.333 		"/>
		<polygon fill="#FFFFFF" points="276.024,67.243 283.188,67.243 283.188,65.864 276.024,65.864 276.024,60.712 283.689,60.712 
			283.689,59.333 274.521,59.333 274.521,74.124 283.944,74.124 283.944,72.744 276.024,72.744 		"/>
		<path fill="#FFFFFF" d="M296.337,68.108c-0.378-0.517-0.845-0.931-1.4-1.248c-0.559-0.312-1.17-0.564-1.829-0.752
			c-0.662-0.188-1.271-0.4-1.825-0.635c-0.556-0.233-1.021-0.541-1.401-0.906c-0.374-0.369-0.562-0.89-0.562-1.559
			c0-0.459,0.091-0.861,0.272-1.2c0.177-0.342,0.42-0.62,0.72-0.834c0.305-0.219,0.636-0.377,1.013-0.48
			c0.379-0.106,0.762-0.157,1.151-0.157c1.25,0,2.206,0.479,2.86,1.438l1.318-1.021c-0.588-0.672-1.223-1.134-1.903-1.398
			c-0.683-0.266-1.441-0.401-2.279-0.401c-0.598,0-1.185,0.084-1.754,0.253c-0.574,0.165-1.084,0.429-1.531,0.774
			c-0.455,0.349-0.821,0.788-1.092,1.315c-0.268,0.529-0.404,1.149-0.404,1.857c0,0.685,0.109,1.252,0.324,1.704
			c0.212,0.452,0.501,0.829,0.854,1.127c0.355,0.304,0.763,0.548,1.214,0.742c0.452,0.196,0.917,0.37,1.396,0.522
			c0.48,0.152,0.947,0.307,1.4,0.459c0.449,0.154,0.855,0.345,1.21,0.576c0.354,0.229,0.64,0.514,0.856,0.856
			c0.213,0.345,0.322,0.773,0.322,1.285c0,0.435-0.095,0.819-0.291,1.152c-0.196,0.334-0.441,0.616-0.742,0.846
			c-0.301,0.227-0.635,0.403-1.012,0.521c-0.376,0.119-0.751,0.177-1.126,0.177c-0.781,0-1.456-0.166-2.027-0.494
			c-0.572-0.322-1.014-0.762-1.338-1.303l-1.355,0.982c0.568,0.779,1.261,1.342,2.077,1.68c0.813,0.342,1.673,0.512,2.575,0.512
			c0.589,0,1.17-0.098,1.75-0.295c0.575-0.194,1.099-0.472,1.565-0.833c0.467-0.359,0.843-0.81,1.129-1.346
			c0.286-0.539,0.428-1.141,0.428-1.81C296.899,69.326,296.712,68.62,296.337,68.108L296.337,68.108z"/>
		<polygon fill="#FFFFFF" points="17.057,44.791 6.734,44.791 6.734,25.52 0,25.52 0,74.106 6.734,74.106 6.746,52.506 
			17.048,52.506 17.057,74.106 23.794,74.106 23.794,25.52 17.057,25.52 		"/>
		<path fill="#FFFFFF" d="M52.138,53.438l3.571-18.124l3.569,18.124H52.138L52.138,53.438z M51.941,25.512l-8.789,41.875H32.978
			V52.506h10.008v-7.715H32.978V32.233h10.956V25.52h-17.69v48.587h15.498h2.191h4.262l2.771-13.964h9.48l2.746,13.964h6.457
			L59.389,25.512H51.941L51.941,25.512z"/>
		<path fill="#FFFFFF" d="M132.232,61.621c-0.055,0.687-0.164,1.333-0.333,1.938c-0.165,0.604-0.408,1.16-0.716,1.679
			c-0.323,0.519-0.731,0.905-1.252,1.17c-0.703,0.338-1.462,0.512-2.279,0.512h-2.385h-2.909V51.767h4.239
			c1.222,0,2.201,0.139,2.945,0.419c0.738,0.283,1.318,0.722,1.724,1.324c0.405,0.604,0.684,1.383,0.827,2.329
			c0.152,0.952,0.226,2.542,0.226,3.836C132.32,60.277,132.291,60.931,132.232,61.621L132.232,61.621z M122.357,31.399h4.854
			c1.776,0.084,2.926,0.584,3.442,1.489c0.521,0.905,0.777,2.26,0.777,4.072c0,1.165-0.049,3.309-0.142,4.169
			c-0.09,0.86-0.32,1.594-0.688,2.198c-0.631,0.908-1.478,1.412-2.532,1.518c-1.057,0.111-2.063,0.162-3.026,0.162h-2.684
			L122.357,31.399L122.357,31.399z M133.64,48.206v-0.128c1.036-0.434,1.889-1.014,2.557-1.747c0.67-0.731,1.178-1.54,1.53-2.427
			c0.354-0.88,0.592-1.951,0.724-2.986c0.125-1.036,0.195-2.068,0.195-3.103c0-1.638-0.121-3.169-0.362-4.593
			c-0.238-1.422-0.81-2.802-1.699-4.145c-0.553-0.812-1.169-1.459-1.855-1.935c-0.687-0.476-1.404-0.829-2.143-1.067
			c-0.739-0.237-1.272-0.389-2.104-0.453c-0.835-0.063-1.288-0.098-2.107-0.098h-11.908h-0.643h-7.35l-7.33,23.917
			c0,0.009-7.205-23.917-7.205-23.917l-3.118,0.008l-1.758,8.824l8.327,24.888v14.874h7.6V59.386l10.834-31.962v46.611h13.72
			c2.778,0,4.34-0.684,5.932-2.072c1.591-1.376,2.813-3.598,3.668-6.658c0.222-0.992,0.368-1.985,0.442-2.974
			c0.079-0.995,0.113-1.989,0.113-2.982c0-3.149-0.461-5.616-1.386-7.619C137.384,49.728,135.826,48.551,133.64,48.206
			L133.64,48.206z"/>
		<polygon fill="#FFFFFF" points="82.287,25.52 75.708,59.531 69.149,25.499 61.997,25.52 72.03,74.106 79.33,74.106 87.662,33.64 
			89.322,25.52 		"/>
		<polygon fill="#FFFFFF" points="141.711,74.106 148.445,74.106 148.445,25.521 141.711,25.521 		"/>
		<polygon fill="#FFFFFF" points="149.997,32.268 157.234,32.268 157.234,74.106 163.971,74.106 163.971,32.268 171.228,32.268 
			171.228,25.521 149.997,25.521 		"/>
	</g>
</g>
<g id="self-made" display="none">
	<g display="inline">
		<g>
			<path fill="#FFFFFF" d="M78.498,89.248H0V10.751h78.498V89.248z M1.668,87.58h75.161V12.419H1.668V87.58z"/>
		</g>
		<g>
			<g>
				<path fill="#FFFFFF" d="M6.285,47.032l2.648-3.171c1.833,1.513,3.753,2.474,6.081,2.474c1.833,0,2.939-0.728,2.939-1.921v-0.059
					c0-1.134-0.699-1.716-4.103-2.589c-4.103-1.048-6.75-2.183-6.75-6.228v-0.058c0-3.695,2.968-6.14,7.128-6.14
					c2.968,0,5.5,0.931,7.565,2.59l-2.328,3.375c-1.804-1.251-3.579-2.008-5.296-2.008c-1.716,0-2.619,0.786-2.619,1.775v0.058
					c0,1.339,0.873,1.775,4.394,2.677c4.132,1.077,6.459,2.561,6.459,6.111v0.058c0,4.045-3.084,6.313-7.478,6.313
					C11.842,50.291,8.729,49.214,6.285,47.032z"/>
				<path fill="#FFFFFF" d="M24.47,29.632h15.363v3.986H28.921v4.131h9.602v3.986h-9.602v4.278h11.057V50H24.47V29.632z"/>
				<path fill="#FFFFFF" d="M42.131,29.632h4.481v16.294h10.155V50H42.131V29.632z"/>
				<path fill="#FFFFFF" d="M58.308,29.632h15.509v4.073H62.789v4.336h9.719v4.073h-9.719V50h-4.48V29.632L58.308,29.632z"/>
			</g>
			<g>
				<path fill="#FFFFFF" d="M7.219,53.141h3.917l4.342,6.984l4.343-6.984h3.917v16.52h-3.611V58.875l-4.649,7.057h-0.094
					l-4.602-6.986V69.66H7.219V53.141z"/>
				<path fill="#FFFFFF" d="M31.879,53.023h3.351l7.08,16.637h-3.799L37,65.955h-6.985l-1.511,3.705h-3.705L31.879,53.023z
					 M35.702,62.744l-2.194-5.355l-2.195,5.355H35.702z"/>
				<path fill="#FFFFFF" d="M43.348,53.141h6.443c5.192,0,8.779,3.562,8.779,8.213V61.4c0,4.648-3.587,8.26-8.779,8.26h-6.443
					V53.141z M46.982,56.42v9.959h2.809c2.974,0,4.979-2.006,4.979-4.932V61.4c0-2.928-2.006-4.98-4.979-4.98H46.982L46.982,56.42z"
					/>
				<path fill="#FFFFFF" d="M60.315,53.141h12.461v3.232h-8.85v3.352h7.787v3.232h-7.787v3.471h8.968v3.232H60.315V53.141
					L60.315,53.141z"/>
			</g>
		</g>
	</g>
</g>
</svg>
