<?xml version="1.0" encoding="utf-8"?>
<!-- Generator: Adobe Illustrator 15.1.0, SVG Export Plug-In . SVG Version: 6.00 Build 0)  -->
<!DOCTYPE svg PUBLIC "-//W3C//DTD SVG 1.1//EN" "http://www.w3.org/Graphics/SVG/1.1/DTD/svg11.dtd">
<svg version="1.1" xmlns="http://www.w3.org/2000/svg" xmlns:xlink="http://www.w3.org/1999/xlink" x="0px" y="0px" width="300px"
	 height="100px" viewBox="0 0 300 100" enable-background="new 0 0 300 100" xml:space="preserve">
<g id="bg" display="none">
	<rect display="inline" fill="#FF7BAC" width="300" height="100"/>
</g>
<g id="greenpeace" display="none">
	<g id="layer1" display="inline">
		<path id="path10" fill="#FFFFFF" d="M243.617,29.988c-1.5,0.303-4.295,0.787-6.252,1.495c-3.354,1.223-6.399,3.05-9.166,4.854
			c-1.524,0.988-2.567,3.276-3.51,4.85c-1.774,2.923-3.198,8.306-0.812,11.966c0.382,0.559,1.167,1.091,1.549,1.646
			c0.764,1.174,2.162,2.622,3.331,3.332c0.833,0.506,1.725,0.863,2.589,1.396c0.738,0.459,1.398,1.471,2.235,1.756
			c0.786,0.225,1.32,0.326,2.082,0.66c0.357,0.125,0.658,0.558,1.041,0.66c0.969,0.303,2.185,0.605,3.481,0.938
			c1.931,0.483,3.687,1.12,6.221,0.048c0.589-0.254,1.858-0.939,2.187-1.472c0.532-0.913,0.587-1.728,0.968-2.894
			c0.303-1.018,0.939-1.986,1.091-2.949c0.128-0.889-0.177-1.803-0.939-2.742c-0.253-0.306-0.587-0.738-1.271-0.561
			c-0.915,0.203-1.905,1.245-2.616,1.73c-0.507,0.352-1.524,0.988-2.083,1.143c-4.011,1.066-14.125-4.371-14.683-6.683
			c-1.219-4.927,4.749-10.442,7.444-12.221c0.326-0.2,0.86-0.787,1.218-0.885c0.405-0.156,1.192-0.127,1.423-0.204
			c0.558-0.152,1.192-0.484,1.603-0.612c1.066-0.328,2.387,0.689,2.46,1.931c0.131,1.906-0.887,4.449-0.25,5.207
			c0.429,0.537,1.853,0.689,2.591,0.891c2.257,0.66,2.487,1.22,4.037-2.259c0.558-1.296,0.734-4.116,0.202-6.097
			c-0.637-2.365-1.575-4.419-3.198-4.776c-0.816-0.204-0.736-0.332-1.779-0.307C243.743,29.86,244.098,29.886,243.617,29.988z
			 M197.611,30.496c-2.385,0.582-4.697,0.758-7.137,1.8c-1.603,0.689-3.48,0.865-5.133,1.271c-2.414,0.61-4.698,0.307-6.504,1.397
			c-0.786,0.485-1.498,4.449-2.286,5.363c-2.487,2.997-2.464,4.468-2.82,5.104c-0.176,0.333-1.011-0.177-3.427,6.985
			c-1.628,4.854-0.764,11.891,7.771,13.67c2.671,0.582,7.217,0.684,9.35-0.715c1.778-1.167,3.377-2.664,2.334-5.793
			c-0.199-0.631-0.175-1.393-0.684-1.678c-1.398-0.732-3.48,0.666-4.443,1.146c-2.083,1.018-4.346,1.501-7.572-0.05
			c-2.21-1.041-3.377-2.643-0.963-4.164c0.277-0.18,0.787-0.689,1.145-0.787c1.242-0.41,2.971-0.029,4.418-0.382
			c1.116-0.284,1.394-0.636,3.124-0.485c1.218,0.129,2.513-0.506,4.219-0.634c2.132-0.128,2.26-0.332,2.641-0.532
			c1.192-0.637,0.991,0.381,2.766-0.51c0.788-0.406,0.637-2.796,0.23-3.529c-0.382-0.713-0.405-2.517-1.219-2.771
			c-0.839-0.254-1.068,0.407-1.42,0.611c-1.169,0.709-2.975,1.143-5.188,1.472c-2.361,0.381-4.141,0.866-6.857,0.282
			c2.185,0.534-2.182-0.102-1.293-1.627c0.607-1.119,1.648-2.542,2.513-3.481c1.805-2.033,19.052-4.217,19.891-5.053
			c0.637-0.46,0.179-2.259,0.051-2.846c-0.127-0.458-0.357-1.779-0.43-2.058c-0.079-0.328-0.943-0.787-0.943-0.991
			C199.718,30.57,199.718,29.959,197.611,30.496z M110.558,30.521c-2.641,0.356-3.074,0.861-4.091,1.145
			c-2.132,0.508-3.607,0.303-5.788,0.835c-1.072,0.279-2.185,0.939-3.154,1.247c-0.66,0.226-1.271,0.127-1.776,0.455
			c-1.014,0.689-0.432,4.013-0.762,5.362c-0.252,1.192-1.705,2.537-2.135,3.76c-1.907,5.509-4.371,15.086,0.635,19.305
			c0.738,0.61,1.727,0.812,2.695,1.218c3.457,1.373,4.243,0.688,7.312,0.99c0.357,0.027,0.563,0.177,1.17,0.052
			c0.792-0.201,1.78-0.989,2.62-1.37c1.776-0.841,2.028-3.964,1.294-5.563c-0.18-0.381-0.483-0.811-0.762-1.221
			c-0.279-0.457-0.459-0.939-0.762-0.988c-1.599,0.023-1.271,1.218-2.336,1.494c-2.569,0.689-6.502,0.512-8.234-0.276
			c-0.837-0.383-1.931-0.989-1.576-2.361c0.868-3.276,8.004-2.972,11.637-3.862c0.89-0.23,2.161-0.764,3.276-1.12
			c1.603-0.509,2.971-0.686,3.124-0.939c0.459-0.558-1.066-5.636-2.259-5.97c-0.177-0.048-0.939,0.049-1.119,0.103
			c-0.759,0.201-13.106,4.977-10.439,0.152c0.354-0.685,0.79-1.98,1.296-2.567c1.803-2.107,3.58-2.386,5.662-2.692
			c1.398-0.226,2.947-0.71,4.649-0.837c1.451-0.102,3.2-0.587,4.649-0.635c0.815-0.049,1.524,0.048,1.65-0.025
			c0.305-0.23,0.025-0.561,0.279-1.144c0.66-1.574-0.861-2.008-1.623-3.149c-0.204-0.306-0.255-0.634-0.434-1.068
			C114.902,30.061,111.828,30.34,110.558,30.521z M286.264,26.991c0.691-0.18-0.858,0.177-2.742,0.708
			c-0.454,0.128-2.614,0.739-3.504,0.612c-0.355-0.054-0.738,0.557-1.446,0.405c-0.305-0.053-2.361,0.407-4.548,0.66
			c-3.201,0.357-4.879,0.685-7.52,1.422c-0.663,0.178-1.832,0-2.49,0.178c-2.387,0.585-4.039,0.405-5.764,1.548
			c-2.235,1.449-1.956,3.864-2.059,6.381c-0.025,0.787-1.628,3.377-2.084,4.825c-0.888,2.846-3.024,10.061-1.754,13.819
			c0.102,0.256,0.509,0.637,0.66,0.837c1.144,1.729,1.931,2.312,3.861,3.251c1.375,0.635,5.08,1.907,7.7,1.5
			c0.126-0.025,0.86-0.406,1.016-0.43c0.757-0.204,1.394,0.099,2.181-0.18c1.094-0.407,3.661-0.535,4.854-1.297
			c1.678-1.089,1.806-5.665-0.404-6.272c-0.738-0.181-1.322,0.255-2.998,0.534c-3.48,0.532-5.973,1.877-10.163,0.254
			c-0.786-0.309-1.599-1.12-1.295-2.264c0.763-2.997,10.492-0.938,13.185-1.496c2.005-0.434,3.226-0.077,4.243-1.348
			c0.353-0.456,0.431-1.116,0.582-1.878c0.204-0.915,1.096-0.407,0.181-2.489c-0.279-0.664-1.906-3.152-2.414-3.304
			c-1.271-0.381-2.163,0.582-2.821,0.762c-0.709,0.177-1.727-0.103-2.792-0.025c-1.604,0.098-3.256,0.455-3.662,0.127
			c-0.429-0.356-2.208,0.533-3.197,0.024c-1.323-0.685,0.073-2.923,0.305-3.657c1.217-3.886,4.927-3.026,8.862-4.115
			c5.134-1.476,6.888-0.181,9.986-0.939c0.989-0.254,2.133-0.029,3.125-0.283c1.016-0.254,4.062-0.607,4.521-0.508
			c0.71,0.126,1.779,0.053,2.132-0.201c0.405-0.23,0.332-1.271,0.279-1.677c-0.227-2.185-0.837-2.947-1.727-4.267
			C287.994,27.369,288.02,26.557,286.264,26.991z M120.896,28.947c-3.049,0.811-0.812,7.337-1.193,10.007
			c-0.434,3.202-0.279,6.248-0.913,9.324c-0.788,3.709-1.628,7.444-2.518,11.33c-0.864,3.682,0.89,4.521,3.559,5.08
			c0.352,0.072,0.987,0.454,1.472,0.023c1.218-1.09,0.684-5.182,1.016-6.834c0.406-1.803,1.247-7.29,2.313-8.383
			c0.582-0.582,1.192-1.169,1.98-0.405c1.905,1.777,3.225,4.345,4.498,6.784c0.582,1.114,2.004,1.75,2.334,2.996
			c0.51,1.906,0.738,6.527,2.084,7.342c0.532,0.303,1.09,0.05,1.853,0.201c0.357,0.078,1.325,0.459,2.035,0.23
			c0.864-0.303,1.422-2.996,1.626-3.912c0.709-3.303-0.562-6.124-0.027-9.146c0.027-0.128,0.077-0.991,0.102-1.12
			c0.228-0.988-0.255-2.131-0.049-3.123c0.483-2.259,0.151-6.044,0.533-9.068c0.229-1.931-0.303-3.378,0.078-5.182
			c0.303-1.575,0.049-3.582-0.562-5.055c-0.583-1.373-3.913-1.143-4.27,0.406c-0.252,1.041,0.461,1.677,0.208,2.796
			c-0.208,0.939-0.357,3.378-0.485,6.146c-0.229,4.829-0.532,10.491-2.489,9.655c-0.914-0.406-1.756-1.55-2.161-2.542
			c-0.327-0.763-1.194-1.321-1.599-1.981c-1.524-2.287-3.402-3.607-4.193-6.78c-0.989-3.989,1.628-7.396-2.44-8.589
			C123.155,28.996,121.786,28.716,120.896,28.947z M157.629,28.081c-2.082,0.357-3.989-0.024-6.174,0.509
			c-2.666,0.636-5.563,1.295-7.646,2.664c-0.583,0.357-0.66,1.96-0.66,1.96c-0.332,6.375,6.427,0.684,8.867,2.133
			c0.128,0.077,0.509,0.458,0.582,0.585c0.078,0.099,0.153,0.431,0.177,0.504c0.483,1.452,0.332,4.805-0.153,5.919
			c-0.252,0.636-0.582-0.048-0.733,0.69c-0.89,0.15-2.438,0.405-3.05,0.913c-0.483,0.407-0.963,2.108-1.042,2.792
			c-0.405,3.304,2.106,3.862,2.567,4.194c0.454,0.329,0.634-0.534,1.902-0.204c0.029,1.065-0.05,1.524,0.053,2.209
			c0.151,1.065-0.103,2.868-0.355,4.165c-0.357,1.678-1.145,6.275-0.456,7.697c0.279,0.611,0.963,0.279,2.132,1.065
			c0.431,0.305,1.271,0.813,2.288,0.487c0.788-0.279,0.86-1.631,1.064-2.568c0.334-1.599-0.177-4.116,0.104-6.071
			c0.303-2.132,0.837-7.29,0.913-7.851c0.305-0.381,2.283-0.684,3.709-1.065c0.479-0.127,1.043-0.611,1.421-0.738
			c0.814-0.279,1.475-0.253,2.158-0.558c0.892-0.406,1.831-1.168,2.567-1.75c2.107-1.677,4.243-2.718,4.601-3.255
			c0.43-0.607,0.479-1.346,1.041-2.083c1.901-2.386-0.382-6.883-2.314-9.219c-0.253-0.329-0.507-0.812-0.913-0.915
			c-0.658-0.206-0.864-0.078-1.35-0.356c-0.326-0.202-0.888-0.812-1.239-0.916c-0.637-0.201-1.858-0.151-2.519-0.304
			C163.799,28.438,159.307,27.828,157.629,28.081z M157.78,34.661c1.499-0.355,2.972-0.127,4.673-0.151
			c1.678-0.029,3.583,0.049,4.727,1.242c2.515,2.694-5.131,6.375-8.104,6.58c-1.296,0.103-1.042-0.635-0.964-1.5
			c0-0.099-0.254-1.673-0.534-2.665c-0.33-1.118-0.052-1.754-0.052-1.754C157.551,35.878,156.992,34.837,157.78,34.661z
			 M211.631,26.684c-0.762,0.254-2.13,1.98-2.562,2.742c-0.382,0.66-1.324,1.247-1.676,1.907c-0.79,1.471-1.707,2.844-2.464,4.267
			c-1.677,3.15-2.541,6.658-4.396,9.729c-0.635,1.07-2.161,1.143-2.492,2.591c-0.454,1.905-0.454,3.938-1.169,5.64
			c-1.016,2.465-2.565,3.378-3.196,6.63c-0.538,2.694,0.913,3.783,2.538,4.267c1.42,0.433,2.111-1.345,2.414-2.058
			c0.762-1.876,2.488-7.215,4.188-7.796c2.084-0.715,3.331-0.383,5.716-1.32c0.713-0.255,3.765-0.078,5.562-0.357
			c-0.025,1.247-0.25,7.241-0.226,8.863c0.049,3.076,0.915,5.896,2.082,6.302c0.892,0.332,1.729,0.053,2.515,0.125
			c0.126-0.2,0.102-0.326,0.229-0.506c0.078-0.075,0.204-0.075,0.254-0.178c0.151-0.203,0.078-0.357,0.177-0.66
			c0.562-1.729,0.713-4.902,0.255-6.883c-0.662-2.844-0.075-5.996-0.101-8.535c1.648-0.61,1.902-1.042,2.132-3.024
			c0.051-0.381,0.128-1.601,0.128-1.652c0-0.101-0.024-0.633-0.024-0.633c0.048-0.102-0.025-0.713-0.053-0.762
			c-0.255-0.562-1.066-0.229-1.956-0.206c0.151-1.295,0.023-3.862-0.279-5.461c-0.328-1.803,0.024-2.718-0.482-4.267
			c-0.128-0.382,0-0.812-0.407-1.551c-0.2-0.43-0.2-0.966-0.328-1.397c-0.229-0.835-1.119-1.472-1.449-2.185
			C215.771,28.537,215.062,25.516,211.631,26.684z M211.787,35.218c0.892-0.229,1.423,0.406,1.957,1.398
			c0.404,0.762,0.175,6.682,0.2,8.306c-1.956,0.254-4.85,0.279-7.24,0.23c-0.049-0.612,0.864-2.161,1.858-4.194
			c0.532-1.066,0.732-2.209,1.241-3.198C210.517,36.412,211.456,35.321,211.787,35.218z M85.308,28.462
			c-1.702,0.432-3.278,0.993-4.929,1.398c-1.041,0.254-1.955,0.254-3.072,0.558c-0.534,0.151-1.703,0.812-2.235,0.963
			c-0.914,0.23-1.12,0.102-2.137,0.381c-0.327,0.103-1.115,0.459-1.446,0.534c-1.096,0.307-2.235,0.411-2.974,1.071
			c-1.65,1.524-1.65,4.189-0.531,6.452c0.507,1.013,1.98,0.686,1.652,2.816c-0.533,3.509-2.111,4.829-2.543,6.684
			c-0.303,1.269-0.357,2.463-0.429,3.734c-0.156,3.225,0.279,6.223,2.259,8.637c0.864,1.066,6.223,3.045,7.977,3.428
			c2.438,0.51,4.19-0.406,5.918-0.709c0.505-0.482,1.116-1.197,1.268-1.678c0.788-2.564-0.762-6.197-1.32-6.403
			c-1.652,0.026-1.955,1.067-3.202,1.375c-2.917,0.708-6.194-0.813-7.416-2.084c-0.483-0.509-0.558-1.626-0.279-2.239
			c0.23-0.532,1.12-1.573,1.652-1.748c0.964-0.334,1.599-0.05,2.616-0.305c1.295-0.332,3.045-0.815,4.214-1.094
			c1.07-0.279,2.414,0.407,3.812,0.053c1.344-0.332,3.886-0.664,4.345-1.094c0.303-0.407,0.177-1.955,0-2.567
			c-0.356-1.422-0.689-3.227-2.009-3.607c-1.827-0.558-4.673,1.017-7.669,1.525c-2.796,0.459-4.957,0.078-4.195-2.513
			c0.333-1.119,0.357-1.73,1.041-2.438c1.249-1.247,3.584-1.701,6.022-2.211c0.866-0.179,1.829-0.561,2.669-0.712
			c1.116-0.202,2.132-0.202,3.071-0.456c0.509-0.126,1.5-0.459,2.62-0.66c1.041-0.204,2.235-0.283,2.562-0.562
			c0.762-0.66-1.497-5.031-1.776-5.51c-0.053-0.103-0.053-0.078-0.102-0.181C90.314,28.081,87.137,28.003,85.308,28.462z
			 M49.618,27.573c-1.472,0.255-5.31,1.041-5.563,1.779c-0.151,0.381-0.229,1.295-0.459,2.235c-0.255,1.089-0.812,1.627-0.534,2.615
			c0.715,2.489,2.646,2.288,1.957,4.649c-0.43,1.524-1.296,6.021-2.766,6.784c-0.714,0.382-1.756,0.177-2.108,0.456
			c-0.284,0.459-0.611,3.632,0.175,5.183c0.255,0.482,1.145,0.968,1.296,1.398c0.255,0.762,0.024,2.463-0.078,2.844
			c-1.091,4.473-1.647,9.475,2.439,10.414c0.459,0.102,1.271,0.203,1.422-0.024c2.592-3.735-0.786-6.454,0.84-10.34
			c0.788-1.853,1.271-2.058,2.565-1.448c1.878,0.891,4.724,3.432,5.563,4.016c3.149,2.184,4.573,6.809,8.333,5.664
			c0.966-0.304,3.43-2.846,2.994-4.6c-0.071-0.303-0.381-1.012-0.531-1.344c-0.837-1.654-3.021-2.16-4.801-3.379
			c-0.636-0.459-1.222-1.192-1.854-1.652c-0.664-0.484-1.269-1.191-1.754-1.852c-0.151-0.153-0.151-0.509-0.025-0.84
			c0.177-0.431,0.964-0.939,1.244-1.32c1.323-1.803,2.72-3.784,3.329-6.301c1.422-5.994-1.701-11.914-4.723-13.767
			c-0.764-0.458-1.579-0.684-2.494-0.963C53.099,27.496,51.319,27.241,49.618,27.573z M51.445,33.718
			c2.161-0.758,4.474,2.214,4.801,3.129c0.333,0.939,0.079,2.131-0.126,2.972c-0.304,1.344-2.005,2.639-3.076,3.353
			c-0.66,0.431-1.041,1.624-1.902,1.801c-3.915,0.864-1.12-5.842-0.966-6.576c0.228-1.071-0.383-2.366-0.051-3.379
			C50.176,34.789,51.217,33.796,51.445,33.718z M32.929,73.324c0.201-0.126,0.201-0.229,0.327-0.332
			c0.078-0.102,0.156-0.255,0.231-0.357c0.251-0.278,0.126-0.303,0.251-0.762c0.892-3.021,0.105-6.756,1.096-10.69
			c0.381-1.604,0.987-5.134,1.647-6.63c0.357-0.793,1.223-1.779,1.425-2.747c0.762-3.251-1.701-7.212-2.313-7.391
			c-0.66-0.837-6.883,0.406-10.896,1.524c-2.465,0.71-2.513-0.356-7.06,0.737c-2.184,0.509-3.887,0.941-4.345,3.198
			c-0.279,1.246,0.458,4.903,1.016,5.059c2.059,0.632,3.076-0.636,5.818-1.119c1.702-0.279,2.693-0.078,4.342-0.482
			c0.816-0.201,2.312-0.963,3.559-0.582c0.633,0.2,0.963,1.113,0.66,1.853c-0.279,0.684-0.813,1.495-1.398,1.876
			c-0.861,0.588-2.361,1.678-3.355,1.932c-0.762,0.205-1.548-0.074-2.283,0.127c-0.381,0.102-1.294,0.637-1.779,0.713
			c-2.083,0.279-5.229,0.231-6.934-0.126c-0.66-0.153-1.678-0.636-2.259-0.788c-2.212-0.508-5.134-1.602-5.692-3.66
			c-1.092-4.037,6.454-11.963,8.385-13.943c2.057-2.111,4.086-4.066,6.603-5.715c0.964-0.634,1.957-2.007,3.174-2.341
			c0.585-0.152,0.966,0.03,1.222,0.103c2.157,0.689,3.173,4.751,3.681,4.902c1.702,0.51,3.049-0.633,3.457-1.495
			c0.507-1.143,0.303-3.279-0.078-4.424c-0.534-1.549-2.562-3.759-3.96-4.419c-0.51-0.229-1.07-0.253-1.628-0.405
			c-0.56-0.182-1.329-0.582-2.198-0.615H23.5h-0.06c-0.291,0.009-0.592,0.065-0.902,0.186c-3.074,1.143-4.726,2.995-6.959,4.776
			c-0.84,0.66-1.73,1.24-2.542,1.954c-2.617,2.211-6.376,6.249-8.18,9.245c-1.192,1.956-2.773,3.026-3.457,5.641
			c-0.126,0.483-0.738,1.09-0.861,1.623c-0.156,0.612,0.051,1.017-0.102,1.628C0.273,52.083,0.03,53.108,0,54.14v0.408
			c0.014,0.421,0.07,0.837,0.184,1.222c0.104,0.328,0.479,0.558,0.582,0.89c0.208,0.61,0.255,1.146,0.461,1.727
			c0.151,0.382,0.58,0.66,0.733,0.913c0.892,1.35,1.3,2.111,2.644,2.925c1.701,1.016,4.318,1.726,6.4,2.185
			c0.508,0.099,1.095-0.153,1.603-0.053c0.153,0.053,0.534,0.481,0.686,0.509c0.866,0.204,2.058-0.027,2.972-0.052
			c5.133-0.102,8.027-0.966,11.205-2.82c0.303,1.98-0.078,4.903-0.127,6.938c-0.029,1.169,0.127,1.932,0.127,3.147
			c0.177,0.739,2.31,0.843,2.919,1.296C31.251,74.01,32.697,73.476,32.929,73.324z"/>
	</g>
</g>
<g id="heavybit" display="none">
	<g display="inline">
		<polygon fill="#FFFFFF" points="173.715,74.124 175.22,74.124 175.22,59.333 173.715,59.333 		"/>
		<polygon fill="#FFFFFF" points="190.341,71.866 190.299,71.866 181.486,59.333 179.606,59.333 179.606,74.124 181.111,74.124 
			181.111,61.465 181.153,61.465 189.966,74.124 191.846,74.124 191.846,59.333 190.341,59.333 		"/>
		<path fill="#FFFFFF" d="M206.35,68.832c-0.128,0.603-0.631,1.51-1.073,2.03c-0.471,0.55-1.079,1.081-1.907,1.423
			c-0.83,0.343-1.512,0.459-2.643,0.459h-2.707V60.712h2.67c1.124,0,2.176,0.091,3.015,0.51c0.532,0.265,0.934,0.413,1.491,1.093
			c0.259,0.309,0.7,0.72,1.083,2.015c0.261,0.896,0.306,1.692,0.306,2.46C206.586,67.555,206.528,68.009,206.35,68.832
			L206.35,68.832z M206.172,61.251c-0.535-0.599-1.319-1.121-2.236-1.457c-0.764-0.282-1.849-0.461-2.767-0.461h-4.653v14.791h4.688
			c0.768-0.018,1.849-0.165,2.458-0.391c0.848-0.315,1.494-0.641,2.156-1.271c0.648-0.62,1.268-1.368,1.652-2.418
			c0.366-1,0.583-2.077,0.583-3.316c0-1.225-0.136-2.16-0.402-2.942C207.265,62.667,206.674,61.811,206.172,61.251L206.172,61.251z"
			/>
		<path fill="#FFFFFF" d="M220.834,68.441c0,0.711-0.07,1.317-0.211,1.827c-0.139,0.51-0.322,0.936-0.554,1.284
			c-0.23,0.349-0.489,0.625-0.773,0.828c-0.287,0.2-0.571,0.352-0.856,0.468c-0.284,0.11-0.564,0.182-0.836,0.215
			c-0.271,0.032-0.541,0.053-0.718,0.053c-0.196,0-0.485-0.019-0.75-0.053c-0.262-0.033-0.538-0.111-0.824-0.215
			c-0.285-0.116-0.571-0.268-0.854-0.468c-0.289-0.207-0.544-0.482-0.777-0.828c-0.229-0.349-0.414-0.774-0.552-1.284
			c-0.141-0.51-0.21-1.116-0.21-1.827v-9.108h-1.506v9.276c0,0.611,0.072,1.265,0.219,1.954c0.147,0.688,0.421,1.324,0.824,1.909
			c0.405,0.586,0.956,1.066,1.65,1.45c0.696,0.384,1.66,0.576,2.776,0.576c1.099,0,2.041-0.192,2.745-0.576
			c0.701-0.384,1.255-0.869,1.661-1.45c0.399-0.589,0.68-1.222,0.825-1.909c0.144-0.688,0.215-1.343,0.215-1.954v-9.276h-1.502
			v9.108H220.834z"/>
		<path fill="#FFFFFF" d="M233.823,66.864c-0.556-0.313-1.167-0.565-1.826-0.753c-0.662-0.188-1.271-0.399-1.827-0.638
			c-0.557-0.23-1.021-0.538-1.399-0.906c-0.375-0.369-0.562-0.89-0.562-1.559c0-0.459,0.088-0.858,0.267-1.199
			c0.184-0.341,0.422-0.621,0.726-0.834c0.301-0.217,0.636-0.377,1.012-0.48c0.377-0.107,0.761-0.158,1.153-0.158
			c1.249,0,2.207,0.479,2.857,1.438l1.317-1.021c-0.587-0.671-1.219-1.134-1.899-1.398c-0.682-0.264-1.443-0.397-2.278-0.397
			c-0.602,0-1.185,0.081-1.758,0.249c-0.569,0.166-1.081,0.429-1.533,0.775c-0.45,0.351-0.816,0.787-1.086,1.315
			c-0.272,0.531-0.406,1.15-0.406,1.859c0,0.683,0.106,1.25,0.323,1.703c0.213,0.452,0.5,0.83,0.857,1.128
			c0.354,0.302,0.757,0.547,1.211,0.741c0.451,0.196,0.916,0.371,1.397,0.522c0.479,0.152,0.947,0.307,1.399,0.458
			c0.449,0.156,0.856,0.346,1.211,0.577c0.354,0.229,0.639,0.515,0.856,0.856c0.214,0.344,0.324,0.772,0.324,1.284
			c0,0.435-0.098,0.82-0.297,1.154c-0.192,0.333-0.442,0.615-0.738,0.845c-0.298,0.228-0.637,0.403-1.013,0.521
			c-0.375,0.119-0.75,0.177-1.128,0.177c-0.778,0-1.454-0.165-2.025-0.494c-0.576-0.322-1.013-0.762-1.339-1.302l-1.359,0.981
			c0.569,0.779,1.264,1.342,2.081,1.68c0.816,0.342,1.672,0.512,2.579,0.512c0.587,0,1.165-0.097,1.743-0.294
			c0.58-0.194,1.104-0.473,1.567-0.834c0.468-0.359,0.845-0.81,1.129-1.346c0.287-0.538,0.428-1.141,0.428-1.81
			c0-0.889-0.188-1.595-0.564-2.107C234.848,67.592,234.379,67.178,233.823,66.864L233.823,66.864z"/>
		<polygon fill="#FFFFFF" points="238.541,60.712 243.488,60.712 243.488,74.124 244.993,74.124 244.993,60.712 249.942,60.712 
			249.942,59.333 238.541,59.333 		"/>
		<path fill="#FFFFFF" d="M258.215,66.099h-2.832v-5.387h2.675c0.669,0,1.236,0.066,1.701,0.199
			c0.468,0.132,0.841,0.317,1.118,0.554c0.279,0.235,0.481,0.512,0.607,0.822c0.122,0.312,0.187,0.872,0.187,1.221
			c0,0.359-0.06,0.729-0.185,1.042c-0.123,0.309-0.266,0.6-0.544,0.827c-0.278,0.231-0.556,0.37-1.024,0.508
			C259.45,66.03,258.884,66.099,258.215,66.099L258.215,66.099z M262.297,66.306c0.641-0.713,1.004-1.764,1.004-2.796
			c0-1.321-0.437-2.539-1.306-3.195c-0.871-0.655-2.055-0.981-3.559-0.981h-4.551v14.791h1.5v-6.646h3.454l3.611,6.646h1.841
			l-3.824-6.792C260.593,67.259,261.561,67.122,262.297,66.306L262.297,66.306z"/>
		<polygon fill="#FFFFFF" points="267.989,74.124 269.491,74.124 269.491,59.333 267.989,59.333 		"/>
		<polygon fill="#FFFFFF" points="276.024,67.243 283.188,67.243 283.188,65.864 276.024,65.864 276.024,60.712 283.689,60.712 
			283.689,59.333 274.521,59.333 274.521,74.124 283.944,74.124 283.944,72.744 276.024,72.744 		"/>
		<path fill="#FFFFFF" d="M296.337,68.108c-0.378-0.517-0.845-0.931-1.4-1.248c-0.559-0.312-1.17-0.564-1.829-0.752
			c-0.662-0.188-1.271-0.4-1.825-0.635c-0.556-0.233-1.021-0.541-1.401-0.906c-0.374-0.369-0.562-0.89-0.562-1.559
			c0-0.459,0.091-0.861,0.272-1.2c0.177-0.342,0.42-0.62,0.72-0.834c0.305-0.219,0.636-0.377,1.013-0.48
			c0.379-0.106,0.762-0.157,1.151-0.157c1.25,0,2.206,0.479,2.86,1.438l1.318-1.021c-0.588-0.672-1.223-1.134-1.903-1.398
			c-0.683-0.266-1.441-0.401-2.279-0.401c-0.598,0-1.185,0.084-1.754,0.253c-0.574,0.165-1.084,0.429-1.531,0.774
			c-0.455,0.349-0.821,0.788-1.092,1.315c-0.268,0.529-0.404,1.149-0.404,1.857c0,0.685,0.109,1.252,0.324,1.704
			c0.212,0.452,0.501,0.829,0.854,1.127c0.355,0.304,0.763,0.548,1.214,0.742c0.452,0.196,0.917,0.37,1.396,0.522
			c0.48,0.152,0.947,0.307,1.4,0.459c0.449,0.154,0.855,0.345,1.21,0.576c0.354,0.229,0.64,0.514,0.856,0.856
			c0.213,0.345,0.322,0.773,0.322,1.285c0,0.435-0.095,0.819-0.291,1.152c-0.196,0.334-0.441,0.616-0.742,0.846
			c-0.301,0.227-0.635,0.403-1.012,0.521c-0.376,0.119-0.751,0.177-1.126,0.177c-0.781,0-1.456-0.166-2.027-0.494
			c-0.572-0.322-1.014-0.762-1.338-1.303l-1.355,0.982c0.568,0.779,1.261,1.342,2.077,1.68c0.813,0.342,1.673,0.512,2.575,0.512
			c0.589,0,1.17-0.098,1.75-0.295c0.575-0.194,1.099-0.472,1.565-0.833c0.467-0.359,0.843-0.81,1.129-1.346
			c0.286-0.539,0.428-1.141,0.428-1.81C296.899,69.326,296.712,68.62,296.337,68.108L296.337,68.108z"/>
		<polygon fill="#FFFFFF" points="17.057,44.791 6.734,44.791 6.734,25.52 0,25.52 0,74.106 6.734,74.106 6.746,52.506 
			17.048,52.506 17.057,74.106 23.794,74.106 23.794,25.52 17.057,25.52 		"/>
		<path fill="#FFFFFF" d="M52.138,53.438l3.571-18.124l3.569,18.124H52.138L52.138,53.438z M51.941,25.512l-8.789,41.875H32.978
			V52.506h10.008v-7.715H32.978V32.233h10.956V25.52h-17.69v48.587h15.498h2.191h4.262l2.771-13.964h9.48l2.746,13.964h6.457
			L59.389,25.512H51.941L51.941,25.512z"/>
		<path fill="#FFFFFF" d="M132.232,61.621c-0.055,0.687-0.164,1.333-0.333,1.938c-0.165,0.604-0.408,1.16-0.716,1.679
			c-0.323,0.519-0.731,0.905-1.252,1.17c-0.703,0.338-1.462,0.512-2.279,0.512h-2.385h-2.909V51.767h4.239
			c1.222,0,2.201,0.139,2.945,0.419c0.738,0.283,1.318,0.722,1.724,1.324c0.405,0.604,0.684,1.383,0.827,2.329
			c0.152,0.952,0.226,2.542,0.226,3.836C132.32,60.277,132.291,60.931,132.232,61.621L132.232,61.621z M122.357,31.399h4.854
			c1.776,0.084,2.926,0.584,3.442,1.489c0.521,0.905,0.777,2.26,0.777,4.072c0,1.165-0.049,3.309-0.142,4.169
			c-0.09,0.86-0.32,1.594-0.688,2.198c-0.631,0.908-1.478,1.412-2.532,1.518c-1.057,0.111-2.063,0.162-3.026,0.162h-2.684
			L122.357,31.399L122.357,31.399z M133.64,48.206v-0.128c1.036-0.434,1.889-1.014,2.557-1.747c0.67-0.731,1.178-1.54,1.53-2.427
			c0.354-0.88,0.592-1.951,0.724-2.986c0.125-1.036,0.195-2.068,0.195-3.103c0-1.638-0.121-3.169-0.362-4.593
			c-0.238-1.422-0.81-2.802-1.699-4.145c-0.553-0.812-1.169-1.459-1.855-1.935c-0.687-0.476-1.404-0.829-2.143-1.067
			c-0.739-0.237-1.272-0.389-2.104-0.453c-0.835-0.063-1.288-0.098-2.107-0.098h-11.908h-0.643h-7.35l-7.33,23.917
			c0,0.009-7.205-23.917-7.205-23.917l-3.118,0.008l-1.758,8.824l8.327,24.888v14.874h7.6V59.386l10.834-31.962v46.611h13.72
			c2.778,0,4.34-0.684,5.932-2.072c1.591-1.376,2.813-3.598,3.668-6.658c0.222-0.992,0.368-1.985,0.442-2.974
			c0.079-0.995,0.113-1.989,0.113-2.982c0-3.149-0.461-5.616-1.386-7.619C137.384,49.728,135.826,48.551,133.64,48.206
			L133.64,48.206z"/>
		<polygon fill="#FFFFFF" points="82.287,25.52 75.708,59.531 69.149,25.499 61.997,25.52 72.03,74.106 79.33,74.106 87.662,33.64 
			89.322,25.52 		"/>
		<polygon fill="#FFFFFF" points="141.711,74.106 148.445,74.106 148.445,25.521 141.711,25.521 		"/>
		<polygon fill="#FFFFFF" points="149.997,32.268 157.234,32.268 157.234,74.106 163.971,74.106 163.971,32.268 171.228,32.268 
			171.228,25.521 149.997,25.521 		"/>
	</g>
</g>
<g id="vmp">
	<g>
		<path fill="#FFFFFF" d="M35.203,48.889l-0.185,2.13l1.574,0.834l1.575-0.278l0.741-1.203l-0.833-1.761l-1.297-0.463L35.203,48.889
			z M47.895,57.227l-1.575,0.554l-0.557,2.411l1.483,1.574l6.207-0.742l-1.019-5.002l-1.111-1.297l-2.039-0.185l-1.482,1.481
			L47.895,57.227L47.895,57.227z M33.35,12.944l-1.759,1.39l-0.279,0.279l3.057,1.759l-0.463,0.741l-3.242-1.112l0.555,3.058
			l2.409,1.945l2.687-0.464l1.852-1.944l0.278-2.687l-2.038-2.224L33.35,12.944z"/>
		<path fill="#FFFFFF" d="M26.032,26.192l6.855-1.482l2.5,0.741l-0.648,2.13l0.833,0.278l2.131-5.003l-1.296-0.37l-0.742,1.853
			l-2.501-0.648l-4.54-5.28L26.032,26.192L26.032,26.192z M50.025,33.881l1.482-4.261l-0.742-0.371l-0.092-0.741l0.556-0.927
			l0.833,0.371l0.371,0.556l-0.463,0.834l1.019,3.799l2.687-2.688l-0.185-0.556l-0.093-0.556l0.463-0.371l1.02,0.278l0.092,0.834
			l-0.371,0.556l-0.555,0.186l-0.649,3.428l3.521-0.741l0.186-0.648l0.371-0.464h0.462l0.464,0.278l0.278,0.555L60.4,33.695
			l-0.556,0.278l-0.648-0.093l-2.965,3.428L50.025,33.881z M24.828,47.221l-4.447-1.389l-0.277,0.74l-0.649,0.093l-0.833-0.464
			l0.186-0.926l0.555-0.371l0.926,0.464l3.706-1.111l-2.872-2.688l-0.371,0.278l-0.555,0.093l-0.464-0.464l0.185-1.019l1.02-0.278
			l0.555,0.556v0.464l3.613,0.648l-0.926-3.612h-0.555l-0.464-0.463l-0.186-0.464l0.278-0.557l0.555-0.184l0.557,0.184l0.37,0.649
			l-0.185,0.647l3.428,2.78L24.828,47.221z M48.264,19.893l1.761,4.168l0.926,0.464l0.556-0.093l0.37,1.761l0.834-0.371l1.482-2.501
			l2.038-0.834l0.557-1.204l-1.482-3.705l-1.391-0.464l-4.723,1.854L48.264,19.893z M19.083,17.854l0.833,2.224l3.057-1.02
			l3.058,3.706l-0.742-4.817l3.428-1.204l-1.205-2.594L19.083,17.854z M73.092,41.662l0.277,3.428l-3.058-2.224l-0.092,2.038
			l-2.964-2.964l-0.278,1.945l-4.632-4.261l3.984,0.74l0.092-1.853l3.15,2.316l0.37-1.483L73.092,41.662z M41.502,38.791V37.68
			l0.649-0.741l1.481,0.185l0.278,1.482l-0.464,0.74h-1.481L41.502,38.791z M45.393,33.231l-9.913-3.148l-0.37,7.781l9.541-3.057
			L45.393,33.231z"/>
		<path fill="#FFFFFF" d="M39.835,34.252c0.093,0,2.778,3.521,2.778,3.521l-0.833,0.369l-2.687-3.057L39.835,34.252z M55.491,50.648
			l0.277-1.02l-0.092-1.019l-0.741-0.926l7.41-1.391l0.742,0.557l0.277,0.834l-0.37,0.74L55.491,50.648L55.491,50.648z
			 M52.619,52.688l0.648-1.113l0.093-2.038l-0.649-1.574l-1.019-0.741l1.112-0.093c0,0,0.834,0.463,1.02,0.463
			c0.185,0,1.019,1.112,1.019,1.112l0.093,1.39l-0.278,1.111l-0.834,1.111L52.619,52.688z"/>
		<path fill="#FFFFFF" d="M51.877,52.595l0.464-1.021V49.26l-0.742-1.298l-0.833-0.649l-1.019,0.835l-0.463,1.481l0.278,1.76
			l0.926,0.834l0.742,0.372H51.877L51.877,52.595L51.877,52.595z M68.738,31.287l-1.853-1.482l-1.482-0.185l-1.204,0.093
			l-1.854,1.389l-0.833,2.223l0.462,2.316l1.946,1.482l2.224,0.278l2.037-1.02l1.204-2.687L68.738,31.287z M67.534,33.603
			l-3.058,1.575v-3.335L67.534,33.603z M54.378,25.544l4.077,4.261l4.447-3.057l0.093,0.37l0.37,0.463l0.464,0.371l1.019,0.278
			l0.833-0.371l0.371-0.741L65.681,26.1l-1.112-0.835h-0.74l-1.019,0.464l-3.428,2.409l-2.872-3.057l2.409-1.575l0.371,0.74
			l0.741,0.649l1.019,0.276l1.019-0.462l0.278-1.02l-0.371-0.834l-0.462-0.37l-0.464-0.278h-1.39L54.378,25.544L54.378,25.544z
			 M63.921,60.747l0.37-0.829l0.648-0.094l0.833,0.644l-1.852,4.631l-0.742,0.096l-0.833-0.646l0.371-0.741l-0.742-0.093
			l-0.37-1.017l0.833-2.227l0.464-0.276l0.833-1.395l0.833-0.83l1.02-0.74l1.575-0.374l1.575,0.37l1.112,0.739l0.833,1.016
			l0.371,1.672v1.574l-0.279,1.015l0.371,0.742l-1.02,2.038l-0.462,0.647l-0.742-0.647l-0.277,0.827
			c-0.093,0-1.019-0.086-1.019-0.086l-0.649-0.648l1.854-4.725l0.833-0.094l0.647,0.649l-0.37,1.022l0.37,0.095l0.278-1.108v-1.208
			l-0.464-0.465l-0.462-1.109l-1.112-0.736l-1.204-0.371l-0.833,0.091l-1.021,0.646l-1.019,0.093l-0.37,0.369l-0.742,1.112
			L63.921,60.747L63.921,60.747z M60.029,73.346l1.854-2.038l2.779,0.464l-0.833-2.411l1.853-2.222l3.334,1.854l-6.113,7.039
			L60.029,73.346z M66.145,47.962L65.311,50l-1.761,3.059l-1.76-2.595l3.613-2.409L66.145,47.962z M60.493,51.204l-2.13,1.483
			l3.057,4.816l1.297-3.057L60.493,51.204z M57.158,53.705l3.335,5.096l-1.019,2.038l-1.02-0.092l-0.834-1.205l-2.871-4.446
			L57.158,53.705z M47.338,31.936l-0.648-0.741l-2.501,0.464l-0.371-0.742l1.39-2.686l-2.316,0.462l-0.556-0.926l2.779-3.335
			l-7.041,3.521l-0.648-0.834l3.428-4.262l-1.205,0.093l-1.111-1.297l1.205-1.019l1.204,0.834l2.5-1.297l0.556,0.833l-3.242,4.077
			l6.298-2.873l0.742,0.927l-3.427,3.613l2.592-0.556l0.649,0.926l-2.038,2.965l1.76-0.37l0.926,1.481L47.338,31.936L47.338,31.936z
			 M12.228,41.477l0.463-0.926l-1.297-2.038l0.371-0.74l3.149,0.369l-1.297-1.944l0.556-1.02l4.168,1.482l-5.836-5.373l0.464-0.834
			l5.28,1.575l-0.556-1.02l0.741-1.574l1.39,0.74l-0.278,1.483l2.13,1.853l-0.556,0.834l-5.002-1.575l5.002,4.725l-0.464,1.111
			l-4.725-1.667l1.576,2.038l-0.649,1.019l-3.521-0.834l0.834,1.39l-0.834,1.482l-1.108-0.557H12.228z M24.919,29.713l-0.463,1.107
			l3.799,6.579l1.111,0.647l1.019,1.668l3.056-1.39l-0.833-1.944l0.093-1.112l-2.965-7.318h-1.389L24.919,29.713z M25.939,31.936
			v-0.277l0.093-0.371l0.556-0.186l0.278,0.093l0.278,0.278v0.37l-0.278,0.37l-0.092,0.093h-0.279l-0.278-0.093L25.939,31.936z
			 M27.051,33.511l0.092-0.37l0.277-0.278l0.371-0.093l0.278,0.093l0.279,0.278v0.37l-0.093,0.277l-0.464,0.371h-0.278l-0.278-0.278
			L27.051,33.511z M29.274,35.548l-0.278,0.371l-0.093,0.186h-0.279l-0.276-0.093l-0.093-0.278l-0.093-0.37l0.093-0.371l0.555-0.185
			l0.278,0.093l0.278,0.277L29.274,35.548z M31.405,34.622L31.312,34.9l-0.278,0.092h-0.278l-0.184-0.277l-0.093-0.37l0.093-0.371
			l0.276-0.278l0.371-0.093l0.278,0.093l0.278,0.278L31.405,34.622z M30.664,32.306v0.371l-0.278,0.093h-0.371l-0.555-0.186
			l-0.093-0.371v-0.092l0.277-0.278l0.278-0.092H30.2l0.278,0.092L30.664,32.306z M29.551,29.713l0.278,0.092l0.093,0.37v0.371
			l-0.371,0.278h-0.37l-0.278-0.093l-0.093-0.278l-0.092-0.37v-0.094l0.278-0.276l0.278-0.093L29.551,29.713z M31.96,29.063
			l-0.648-0.74L30.848,28.6l0.464,1.483l0.464-0.278L31.96,29.063z M31.59,30.639l0.462,1.667l0.464-0.185l0.278-0.927l-0.742-0.741
			L31.59,30.639z M32.423,32.862l0.557,1.482l0.555-0.371l-0.186-0.833l-0.462-0.649L32.423,32.862z M26.68,35.548l-0.648,0.278
			l0.277,1.112l0.649,0.463l0.462-0.371C27.513,37.03,26.68,35.733,26.68,35.548z M26.402,34.992l-0.833-1.297l-0.649,0.371v0.648
			l0.742,0.648L26.402,34.992z M25.104,33.048l-0.74-1.39l-0.648,0.277l0.091,0.834l0.557,0.555L25.104,33.048z M46.875,37.309
			l2.13-0.648l2.316,0.092l1.852,1.297l1.02,1.946l0.185,1.853l-0.833,2.409l-1.854,1.019l-1.759,0.464l-1.761-0.835l-0.555-1.296
			l-0.557-2.409l1.483-2.038l2.408-0.277l1.297,1.204l0.186,1.76l-0.742,1.205l-1.389,0.556l-0.927-0.835l-0.463-1.297l0.833-0.555
			l0.371,0.277l-0.185,0.463l0.185,0.649l0.37,0.093l0.649-0.371l0.186-0.464l-0.835-1.574l-1.295,0.093l-1.021,1.111l0.464,2.594
			l2.038,0.742l2.13-1.112l0.557-1.854l-0.279-2.131l-1.945-1.39l-3.706,0.187l-1.111,1.76l-0.926-0.277l0.37-0.927L46.875,37.309
			L46.875,37.309z M57.621,37.772l2.224,1.111l1.668,1.945l0.648,1.944l-0.741,1.483l-1.019,0.74l-2.223,0.464l-1.205-0.371
			l-1.112-0.927l-0.093-2.87l0.833-1.947L57.621,37.772z M17.879,25.914l1.853-1.482l2.315-0.741l1.946,0.094l0.926,1.297
			l0.371,1.107l-0.462,2.04l-0.742,1.021l-1.204,0.648l-2.594-0.927l-1.296-1.482L17.879,25.914L17.879,25.914z M73.833,46.851
			l-0.648-0.742h-0.371l-2.964-0.092l-1.668-0.092l-0.833,0.74l-0.371,8.431l0.833,0.834l4.725,0.092l0.834-0.371L73.833,46.851z
			 M69.572,47.685l0.648-0.372h0.649l0.462,0.278l0.278,0.649l-0.371,0.741l-0.833,0.278l-0.463-0.093l-0.463-0.649L69.572,47.685z
			 M72.073,54.168l-1.204,0.649l-1.668-0.277l-0.833-1.11l0.278-1.67l0.648-1.019l1.205-0.093l1.575,0.37l0.648,1.484L72.073,54.168
			z"/>
		<path fill="#FFFFFF" d="M70.59,51.574l-0.741,0.095l-0.371,0.554v0.836l0.741,0.371l0.742-0.096l0.37-0.646l-0.185-0.742
			L70.59,51.574z M33.257,73.438l-0.277-1.205l-0.464-0.735l-0.464-0.653l-1.205-0.371l-1.204,0.371l-0.648,1.018l0.278,1.391
			l0.741,1.112l1.204,0.643l1.483-0.272L33.257,73.438z"/>
		<path fill="#FFFFFF" d="M29.922,72.232l-7.133,2.226l-0.648-0.834l1.111-0.834l0.464-1.853l1.112-1.482l1.389-0.279l1.019,0.65
			l-0.833,0.091l-0.555,0.834l-0.371,1.11L25.29,72.6l4.91-1.576L29.922,72.232L29.922,72.232z M39.093,14.52v1.39l0.371,0.741
			l0.464,0.648l1.111,0.648l1.204-0.093l0.741-0.835v-1.48l-0.648-1.205l-1.112-0.741l-1.389,0.093L39.093,14.52z"/>
		<path fill="#FFFFFF" d="M42.151,16.094l7.503-0.926l0.464,0.833l-1.205,0.742l-0.742,1.667l-1.296,1.297l-1.39,0.093l-0.926-0.741
			l0.833-0.092l0.741-0.742l0.464-1.019l0.278-0.741l-5.095,1.019L42.151,16.094z M10.375,31.565l0.648-1.668l-1.389-2.038h-2.13
			l-3.429,5.372l4.448,2.502h1.667l1.39-1.481l-0.093-2.131L10.375,31.565z M59.937,76.403l-1.204-1.854l-0.37-0.185l-1.946,2.871
			l-0.648-0.557l1.205-3.055l-3.058,0.183l-1.944,2.502l0.278,2.686l1.76,1.946l2.78,0.371l2.316-1.857L59.937,76.403L59.937,76.403
			z M26.865,85.481l6.763-1.574l2.594,0.735l-0.649,2.13l0.835,0.283l2.038-5.095l-1.112-0.37l-0.742,1.946l-2.593-0.646
			l-4.632-5.095L26.865,85.481z M44.003,60.562l1.946,4.076l0.741-0.181l0.741,0.366l0.186,0.924l-0.926,0.556l-0.556-0.185
			l-0.371-1.109l-3.427-1.76l0.092,3.704l0.464,0.276l0.555,0.371v0.648l-1.019,0.557l-0.741-0.557l-0.093-0.74l0.372-0.371
			l-2.131-2.961l-1.761,3.053l0.185,0.465l0.186,0.647l-0.278,0.37l-0.463,0.279l-0.741-0.372l-0.186-0.556l0.186-0.555l0.557-0.279
			l-0.371-4.538L44.003,60.562L44.003,60.562z M15.378,65.934l-0.926,4.447l0.555,1.021l0.556,0.089l-0.741,1.67l0.926,0.186
			l2.594-1.203l2.223,0.364l1.112-0.735l0.834-3.804l-0.834-1.204l-5.001-1.107L15.378,65.934z M23.624,48.425L21.4,48.981
			l0.74,3.241l-3.891,2.78l4.725-0.371l1.019,3.43l2.687-0.835L23.624,48.425z M5.651,68.62l-2.316-2.501l3.798-0.371l-1.297-1.573
			l4.168,0.368l-1.112-1.574l6.394,0.281l-3.428,1.944l1.111,1.481l-3.892,0.184l0.557,1.483L5.651,68.62z M18.435,19.893
			l2.687,2.131l-3.798,0.833l1.483,1.298l-4.169,0.277l1.296,1.482l-6.298,0.647l3.057-2.501l-1.205-1.296l3.892-0.928l-0.835-1.203
			L18.435,19.893z M29.367,59.636l-0.371,1.111l-0.833,0.369l-1.39-0.554l0.278-1.392l0.555-0.739l1.482,0.646L29.367,59.636z
			 M23.993,63.804l8.616,5.927l2.594-7.409l-10.006,0.187L23.993,63.804z"/>
		<path fill="#FFFFFF" d="M29.551,64.543c-0.091-0.091-1.574-4.166-1.574-4.166l0.833-0.095l1.668,3.8L29.551,64.543z M16.49,50.648
			L15.655,50l-1.019-0.371L13.433,50l1.854-7.504l0.741-0.277l0.833,0.093l0.649,0.555L16.49,50.648z M17.138,54.168l-0.741-1.02
			l-1.854-1.013l-1.667-0.093l-1.111,0.648l0.371-1.018c0,0,0.74-0.65,0.833-0.743c0.093-0.093,1.482-0.463,1.482-0.463l1.388,0.37
			l1.02,0.746l0.649,1.195L17.138,54.168L17.138,54.168z"/>
		<path fill="#FFFFFF" d="M16.768,54.725l-0.835-0.834l-2.13-0.832l-1.483,0.09l-0.833,0.371l0.372,1.391l1.018,0.926l1.667,0.552
			l1.39-0.552l0.464-0.462L16.768,54.725z M22.789,58.15l-1.853-1.48l-1.483-0.186l-1.204,0.092l-1.853,1.39l-0.833,2.316
			l0.463,2.315l1.944,1.487l2.225,0.279l2.038-1.021l1.204-2.682L22.789,58.15z M21.4,60.377l-3.058,1.573v-3.333L21.4,60.377z
			 M27.884,79.366l-4.446-3.797l-3.984,3.521l-0.093-0.371l-0.462-0.464l-0.463-0.277h-1.019l-0.834,0.46l-0.278,0.838l0.372,1.018
			l1.204,0.741l0.741-0.094l0.833-0.647l3.149-2.964l3.336,2.779l-2.315,1.853l-0.464-0.649l-0.926-0.647l-0.927-0.092L20.38,81.22
			l-0.093,1.019l0.464,0.833l0.556,0.281l0.463,0.274l1.019-0.09l0.278-0.096l4.817-4.07V79.366z M6.948,38.235l0.833,0.37
			l0.093,0.648l-0.648,0.834l-4.447-1.946l-0.092-0.74l0.648-0.833l0.74,0.37l0.093-0.741l1.02-0.371l2.038,0.834l0.278,0.463
			l1.203,0.833l0.834,0.835l0.741,1.019l0.371,1.574l-0.464,1.669l-0.741,1.11l-1.112,0.834L6.67,45.275l-1.574,0.093L4.075,45.09
			l-0.647,0.278L1.39,44.35L0.926,43.7l0.649-0.741c0,0-0.834-0.277-0.834-0.37s0.093-1.02,0.093-1.02l0.649-0.647l4.632,1.944
			L6.207,43.7l-0.649,0.463l-1.112-0.277l-0.093,0.371l1.112,0.37H6.67l0.463-0.464L8.245,43.7l0.741-1.019l0.278-1.02l-0.093-0.833
			L8.8,39.81v-0.926l-0.37-0.371l-1.204-0.74L6.948,38.235L6.948,38.235z M10.375,69.73l2.13,2.041l-0.926,2.687l2.594-0.645
			l1.945,2.131l-2.038,3.05l-6.577-6.762L10.375,69.73z M13.618,47.962l-1.853,1.298l-3.058,1.574L8.43,47.685h4.446L13.618,47.962z
			 M7.133,47.685H4.446v5.649l2.78-1.851L7.133,47.685z M2.964,47.776l-0.185,6.114l-1.946,1.112L0,54.54v-1.578l0.093-5.277
			L2.964,47.776z M62.995,67.972h-1.02l-1.296,2.227l-0.834-0.097l-1.019-2.963l-1.205,1.945l-1.111-0.092l-0.462-4.354
			l-2.316,7.594l-1.02-0.09l-0.834-5.374l-0.74,0.833h-1.576v-1.482l1.39-0.371l0.648-2.779l1.112,0.095l0.742,5.187l2.223-6.67
			h1.205l0.371,5.188l1.204-2.316l1.112,0.091L60.4,67.97l0.833-1.297l1.854,0.187L62.995,67.972L62.995,67.972z M49.747,77.235
			l-1.111-0.461l-6.855,3.802l-0.649,1.11l-1.853,1.019l1.39,3.147l1.945-0.833l1.112,0.094l7.597-2.965V80.76L49.747,77.235
			L49.747,77.235z M47.431,78.255l0.278-0.091l0.37,0.091l0.092,0.279l0.093,0.371l-0.093,0.37l-0.277,0.091h-0.371l-0.278-0.276
			l-0.092-0.096v-0.275l0.092-0.281L47.431,78.255z M45.763,79.366l0.371,0.094l0.278,0.278l0.093,0.37l-0.186,0.185l-0.371,0.279
			l-0.37-0.094l-0.186-0.186L45.3,80.015l0.093-0.276l0.278-0.278L45.763,79.366L45.763,79.366z M43.632,81.683l-0.37-0.277
			l-0.093-0.279V80.85l0.093-0.277h0.277l0.278-0.094l0.463,0.094l0.093,0.277l0.092,0.37l-0.278,0.092l-0.278,0.279L43.632,81.683z
			 M44.651,83.907l-0.277-0.096l-0.093-0.274l0.093-0.281l0.277-0.271l0.371-0.094l0.371,0.094l0.278,0.271l0.092,0.371l-0.092,0.28
			l-0.278,0.186L44.651,83.907z M46.967,83.166h-0.369l-0.093-0.278v-0.37l0.093-0.279l0.278-0.092l0.37-0.094h0.278l0.278,0.279
			l0.093,0.37v0.276L46.967,83.166z M49.654,82.053l-0.278,0.279l-0.37,0.092h-0.371l-0.092-0.277v-0.368l0.092-0.281l0.278-0.092
			l0.37-0.094h0.278l0.279,0.279l0.093,0.37L49.654,82.053z M50.303,84.368l0.833-0.461l-0.371-0.651l-1.574,0.467l0.184,0.646
			H50.303z M48.543,83.998l-1.576,0.648l0.279,0.465l0.926,0.092l0.742-0.557L48.543,83.998z M46.319,84.832l-1.483,0.649
			l0.278,0.461h0.834l0.741-0.461L46.319,84.832z M43.632,78.994l-0.277-0.641l-1.112,0.271l-0.463,0.651l0.371,0.463
			C42.151,79.738,43.54,78.994,43.632,78.994z M44.281,78.624l1.297-0.833l-0.371-0.646H44.56l-0.649,0.739L44.281,78.624z
			 M46.226,77.42l1.483-0.927l-0.278-0.554l-0.926,0.092l-0.649,0.647L46.226,77.42z M39,70.751l1.854,1.481l1.112,1.945
			l-0.186,2.315l-1.019,1.855l-1.39,1.203l-2.595,0.557l-1.759-0.833l-1.39-1.484l-0.278-1.852l0.742-1.205l1.76-1.765l2.594,0.19
			l1.574,1.944l-0.37,1.67l-1.39,1.11l-1.482,0.093l-1.205-0.928l0.093-1.11l1.019-1.11l0.834,0.368v0.464l-0.557-0.092
			l-0.371,0.739l0.093,0.37l0.649,0.186l0.555-0.09l0.834-1.488l-0.834-1.108l-1.481-0.186l-1.946,1.669l0.557,2.224l2.13,1.205
			L39,78.534l1.576-1.389l0.186-2.411l-2.223-2.963H36.59l-0.37-1.021l0.926-0.094L39,70.751L39,70.751z M43.447,74.364l0.093-2.503
			l1.02-2.406l1.389-1.391h1.667l1.019,0.556l1.39,1.667l0.278,1.389l-0.278,1.3l-2.594,1.389l-2.038,0.185L43.447,74.364
			L43.447,74.364z M11.209,60.653l0.463-0.735l-0.093-0.376l-0.74-2.779l-0.464-1.667l-1.019-0.464L1.39,56.67l-0.649,1.02
			l1.205,4.632l0.742,0.647L11.209,60.653z M9.171,56.856l0.464,0.463l0.092,0.646l-0.092,0.646l-0.649,0.37l-0.648-0.181
			l-0.463-0.739v-0.466l0.371-0.462L9.171,56.856z M3.799,61.116l-1.02-0.925l-0.277-1.67l0.833-1.202l1.667-0.371l1.112,0.371
			l0.648,1.017l0.093,1.582l-1.205,1.105L3.799,61.116z"/>
		<path fill="#FFFFFF" d="M84.95,41.662h3.705l4.355,12.691l4.354-12.691h3.707l-6.023,16.77h-3.984L84.95,41.662z M104.125,40.922
			c1.206,0,2.13,0.926,2.13,2.037c0,1.112-0.925,2.038-2.13,2.038c-1.11,0-2.038-0.926-2.038-2.038
			C102.088,41.848,103.015,40.922,104.125,40.922z M102.458,58.432h3.333V47.036h-3.333V58.432z M115.89,52.131
			c0-1.297-0.648-2.223-1.944-2.223c-1.391,0-2.038,1.018-2.038,2.223v6.301h-3.335V47.036h3.335v1.481
			c0.832-1.574,2.778-1.667,3.243-1.667c2.87,0,4.166,2.224,4.166,4.538v7.133h-3.333v-6.396L115.89,52.131L115.89,52.131z
			 M124.691,57.227l-4.817-10.19h3.705l2.873,6.483l2.501-6.483h3.43l-6.948,17.046h-3.52L124.691,57.227z M137.105,41.015v17.417
			h-3.336V41.015H137.105z M160.357,47.036l-4.725,11.396h-2.315l-4.724-11.304v11.304h-3.43v-16.77h4.632l4.632,11.117
			l4.541-11.117h4.818v16.77h-3.425L160.357,47.036L160.357,47.036z M169.251,53.614c0.185,1.393,1.389,2.222,2.777,2.222
			c1.022,0,2.04-0.55,2.411-1.482l2.777,0.927c-0.739,2.224-2.873,3.331-5.093,3.331c-3.43,0-6.303-2.405-6.303-5.929
			c0-3.336,2.776-5.929,6.023-5.929c3.428,0,5.653,2.315,5.653,5.743c0,0.371,0,0.828-0.097,1.208h-8.155L169.251,53.614
			L169.251,53.614z M174.254,51.483c-0.094-0.829-0.741-2.039-2.409-2.039c-1.48,0-2.315,1.207-2.5,2.039H174.254z M179.257,62.508
			v-1.575c1.295-0.465,2.037-1.205,2.222-2.411c-0.185,0.096-0.463,0.096-0.647,0.096c-1.114,0-1.944-0.928-1.944-2.041
			c0-1.202,1.111-1.944,2.223-1.944c1.574,0,2.407,1.204,2.407,2.78C183.517,60.097,181.942,62.044,179.257,62.508L179.257,62.508z
			 M194.912,52.503h-2.595v5.929h-3.427v-16.77h6.211c3.328,0,6.021,1.854,6.021,5.374C201.024,50.741,198.43,52.503,194.912,52.503
			z M194.727,44.997h-2.409v4.354h2.503c1.391,0,2.779-0.648,2.779-2.131C197.504,45.553,196.115,44.997,194.727,44.997
			L194.727,44.997z M206.121,41.015v17.417h-3.333V41.015H206.121z M211.495,53.614c0.186,1.393,1.39,2.222,2.777,2.222
			c1.014,0,2.04-0.55,2.411-1.482l2.771,0.927c-0.737,2.224-2.867,3.331-5.089,3.331c-3.427,0-6.304-2.405-6.304-5.929
			c0-3.336,2.779-5.929,6.024-5.929c3.424,0,5.646,2.315,5.646,5.743c0,0.371,0,0.828-0.091,1.208h-8.158v-0.091H211.495
			L211.495,53.614z M216.402,51.483c-0.09-0.835-0.738-2.039-2.406-2.039c-1.489,0-2.315,1.207-2.501,2.039H216.402z M221.129,55.28
			v-0.092c0-2.686,2.777-3.523,5.003-3.523h1.107c0.647,0,0.925-0.276,0.925-0.74c0-0.741-0.559-1.391-1.764-1.391
			c-1.014,0-1.759,0.557-2.036,1.575l-2.959-0.646c0.371-2.409,2.78-3.613,5.095-3.613c2.873,0,4.912,1.574,4.912,4.633v5.274
			c0,0.65,0,1.208,0.092,1.854h-3.15c-0.092-0.461-0.092-1.016-0.092-1.39c-0.828,1.206-2.13,1.666-3.423,1.666
			C222.888,58.617,221.129,57.319,221.129,55.28L221.129,55.28z M228.076,53.984v-0.279h-2.038c-0.647,0-1.667,0.371-1.667,1.302
			c0,0.829,0.648,1.208,1.39,1.208C227.335,56.206,228.076,55.187,228.076,53.984L228.076,53.984z M233.172,55.188l2.964-0.648
			c0.092,0.74,0.739,1.576,1.852,1.576c0.928,0,1.299-0.558,1.299-1.016c0-0.37-0.272-0.742-1.107-1.02l-1.389-0.272
			c-2.229-0.465-3.338-1.673-3.338-3.336c0-2.038,1.857-3.705,4.36-3.705c3.052,0,4.355,1.944,4.54,3.241l-2.873,0.649
			c-0.185-0.741-0.741-1.39-1.667-1.39c-0.743,0-1.302,0.463-1.302,0.926c0,0.464,0.279,0.741,0.921,0.834l1.582,0.279
			c2.315,0.461,3.521,1.765,3.521,3.523c0,1.853-1.486,3.8-4.541,3.8C234.654,58.71,233.266,56.394,233.172,55.188L233.172,55.188
			L233.172,55.188z M247.252,53.614c0.186,1.393,1.39,2.222,2.779,2.222c1.021,0,2.038-0.55,2.409-1.482l2.779,0.927
			c-0.741,2.224-2.873,3.331-5.097,3.331c-3.427,0-6.3-2.405-6.3-5.929c0-3.336,2.781-5.929,6.023-5.929
			c3.427,0,5.65,2.315,5.65,5.743c0,0.371,0,0.828-0.094,1.208h-8.155L247.252,53.614L247.252,53.614z M252.256,51.483
			c-0.094-0.829-0.744-2.039-2.409-2.039c-1.483,0-2.315,1.207-2.503,2.039H252.256z M257.073,56.392
			c0-1.296,1.016-2.315,2.315-2.315c1.297,0,2.314,1.02,2.314,2.315c0,1.298-1.018,2.316-2.314,2.316
			C258.089,58.708,257.073,57.596,257.073,56.392z"/>
	</g>
</g>
<g id="self-made" display="none">
	<g display="inline">
		<g>
			<path fill="#FFFFFF" d="M78.498,89.248H0V10.751h78.498V89.248z M1.668,87.58h75.161V12.419H1.668V87.58z"/>
		</g>
		<g>
			<g>
				<path fill="#FFFFFF" d="M6.285,47.032l2.648-3.171c1.833,1.513,3.753,2.474,6.081,2.474c1.833,0,2.939-0.728,2.939-1.921v-0.059
					c0-1.134-0.699-1.716-4.103-2.589c-4.103-1.048-6.75-2.183-6.75-6.228v-0.058c0-3.695,2.968-6.14,7.128-6.14
					c2.968,0,5.5,0.931,7.565,2.59l-2.328,3.375c-1.804-1.251-3.579-2.008-5.296-2.008c-1.716,0-2.619,0.786-2.619,1.775v0.058
					c0,1.339,0.873,1.775,4.394,2.677c4.132,1.077,6.459,2.561,6.459,6.111v0.058c0,4.045-3.084,6.313-7.478,6.313
					C11.842,50.291,8.729,49.214,6.285,47.032z"/>
				<path fill="#FFFFFF" d="M24.47,29.632h15.363v3.986H28.921v4.131h9.602v3.986h-9.602v4.278h11.057V50H24.47V29.632z"/>
				<path fill="#FFFFFF" d="M42.131,29.632h4.481v16.294h10.155V50H42.131V29.632z"/>
				<path fill="#FFFFFF" d="M58.308,29.632h15.509v4.073H62.789v4.336h9.719v4.073h-9.719V50h-4.48V29.632L58.308,29.632z"/>
			</g>
			<g>
				<path fill="#FFFFFF" d="M7.219,53.141h3.917l4.342,6.984l4.343-6.984h3.917v16.52h-3.611V58.875l-4.649,7.057h-0.094
					l-4.602-6.986V69.66H7.219V53.141z"/>
				<path fill="#FFFFFF" d="M31.879,53.023h3.351l7.08,16.637h-3.799L37,65.955h-6.985l-1.511,3.705h-3.705L31.879,53.023z
					 M35.702,62.744l-2.194-5.355l-2.195,5.355H35.702z"/>
				<path fill="#FFFFFF" d="M43.348,53.141h6.443c5.192,0,8.779,3.562,8.779,8.213V61.4c0,4.648-3.587,8.26-8.779,8.26h-6.443
					V53.141z M46.982,56.42v9.959h2.809c2.974,0,4.979-2.006,4.979-4.932V61.4c0-2.928-2.006-4.98-4.979-4.98H46.982L46.982,56.42z"
					/>
				<path fill="#FFFFFF" d="M60.315,53.141h12.461v3.232h-8.85v3.352h7.787v3.232h-7.787v3.471h8.968v3.232H60.315V53.141
					L60.315,53.141z"/>
			</g>
		</g>
	</g>
</g>
</svg>
