<svg xmlns="http://www.w3.org/2000/svg" viewBox="0 0 568 238.422">
  <linearGradient id="a" gradientUnits="userSpaceOnUse" x1="169.053" y1="206.155" x2="169.053" y2="436.307" gradientTransform="matrix(1 0 0 -1 114.945 438.147)">
    <stop offset="0" stop-color="#2E3C40" stop-opacity="0"/>
    <stop offset="1" stop-color="#2E3C40"/>
  </linearGradient>
  <path fill="url(#a)" d="M388.734 86.22L357.88 65.19 340.73.632 305.892 0l-8.37 6.704-8.626-1.078-20.98 21.938H252.34l-65.57 83.118-16.516 1.6-86.48 126.14h400.453L388.735 86.22zm-36.266 4.468l32.483 31.737 3 31.384-32.49 12.31 4.11-7.85-50.78 32.48 2.61-15.32-7.09-9.71L342 93.29l1.872-1.116 8.594-1.488zm-50.217 50.04l-10.98-.612v-6.71l-25.64 12.814-15.86 9.156-8.54-1.224 46.38-53.09 12.82-1.22 26.24-26.85 4.27 9.15-28.67 58.59zm-23.52-68.61h13.43l-42.72 58.586-25.63 3.665-19.53 18.3-26.85-1.22 76.9-96.42 15.87-1.22 35.4-28.08h12.88l-39.73 46.38z"/>
  <path fill="#2E3C40" d="M26.308 233.64H0v-63.624h25.036c12.562 0 19.264 7.422 19.264 18.408 0 7.238-4.752 11.258-6.62 12.598 2.464 1.61 7.473 4.918 7.473 13.853 0 12.152-8.065 18.764-18.845 18.764zm-2.206-49.595h-9.25v10.364h9.25c4.075 0 5.35-2.69 5.35-5.18-.003-2.5-1.275-5.19-5.35-5.19zm.762 24.394H14.852v11.16h10.014c4.074 0 5.433-2.95 5.433-5.63-.01-2.68-1.36-5.54-5.44-5.54zm34.804 25.2v-63.63h14.854v63.62H59.668zm69.852-6.62c-5.176 5.63-10.95 7.15-17.566 7.15-7.044 0-12.395-2.51-16.808-7.15-6.365-6.71-6.107-15.64-6.107-25.2 0-9.56-.26-18.5 6.1-25.2 4.41-4.65 9.5-7.15 16.81-7.15 15.53 0 22.15 10.63 23.59 21.09h-14.93c-1.19-4.83-3.57-7.15-8.66-7.15-2.72 0-4.76 1.25-5.86 2.76-1.36 1.88-2.21 4.02-2.21 15.64 0 11.61.85 13.85 2.2 15.73 1.1 1.52 3.14 2.68 5.85 2.68 3.14 0 5.26-.98 6.615-2.51 1.7-1.786 2.294-4.38 2.294-6.794v-.893h-8.91V197h23.68v8.84c0 10.28-1.53 16.26-6.11 21.18zm70.023 6.61h-26.31v-63.62h25.036c12.56 0 19.26 7.42 19.26 18.41 0 7.24-4.75 11.26-6.62 12.6 2.46 1.61 7.47 4.92 7.47 13.85 0 12.15-8.07 18.76-18.85 18.76zm-2.204-49.6h-9.26v10.37h9.25c4.08 0 5.35-2.69 5.35-5.18 0-2.5-1.27-5.19-5.35-5.19zm.76 24.39h-10.01v11.17h10.01c4.07 0 5.43-2.95 5.43-5.63 0-2.68-1.36-5.54-5.44-5.54zM270.84 227c-4.42 4.646-9.51 7.15-16.89 7.15-7.39 0-12.48-2.504-16.89-7.15-6.37-6.705-6.11-15.64-6.11-25.2 0-9.56-.26-18.496 6.1-25.2 4.41-4.645 9.5-7.146 16.89-7.146 7.38 0 12.47 2.505 16.89 7.147 6.36 6.71 6.11 15.64 6.11 25.2 0 9.56.25 18.5-6.11 25.2zm-10.95-40.84c-1.1-1.515-3.23-2.766-5.94-2.766-2.72 0-4.84 1.252-5.94 2.77-1.36 1.88-2.21 4.02-2.21 15.64 0 11.61.85 13.67 2.21 15.544 1.1 1.52 3.22 2.865 5.94 2.865 2.71 0 4.84-1.35 5.94-2.868 1.36-1.876 2.21-3.937 2.21-15.548 0-11.62-.85-13.765-2.21-15.645zm53.39 47.99c-12.57 0-22.83-8.94-22.83-22.88V170h14.85v40.924c0 5.9 3.06 9.3 7.98 9.3 4.91 0 8.14-3.395 8.14-9.3v-40.92h14.85v41.29c0 13.94-10.43 22.88-23 22.88zm38.44-.537V170h14.85v49.69h25.37v13.94h-40.23zm91.83-6.256c-4.16 4.384-10.02 6.257-16.297 6.257h-22.4V170h22.406c6.27 0 12.13 1.88 16.29 6.26 7.04 7.416 6.28 15.547 6.28 25.556 0 10.005.76 18.14-6.29 25.55zm-10.186-39.85c-1.358-2.146-3.396-3.578-7.13-3.578h-6.53v35.74h6.53c3.734 0 5.77-1.43 7.13-3.57 1.186-1.79 1.61-3.49 1.61-14.3 0-10.72-.425-12.51-1.61-14.3zm30.98 46.11V170h41.077v13.94H479.2v10.64h22.408v13.936h-22.4v11.17h26.22v13.94h-41.07zm86.405 0l-10.69-23.67h-5.01v23.674H520.2V170h23.937c13.41 0 20.624 10.01 20.624 20.466 0 8.67-5.09 14.12-9.84 16.62L568 233.64h-17.227zm-7.3-49.596h-8.41v12.87h8.402c4.076 0 6.454-3.12 6.454-6.43 0-3.31-2.38-6.43-6.45-6.43z"/>
</svg>
