<?xml version="1.0" encoding="utf-8"?>
<!-- Generator: Adobe Illustrator 15.1.0, SVG Export Plug-In . SVG Version: 6.00 Build 0)  -->
<!DOCTYPE svg PUBLIC "-//W3C//DTD SVG 1.1//EN" "http://www.w3.org/Graphics/SVG/1.1/DTD/svg11.dtd">
<svg version="1.1" id="Layer_1" xmlns="http://www.w3.org/2000/svg" xmlns:xlink="http://www.w3.org/1999/xlink" x="0px" y="0px"
	 width="262.799px" height="43.372px" viewBox="0 0 262.799 43.372" enable-background="new 0 0 262.799 43.372"
	 xml:space="preserve">
<g>
	<polygon fill="#2E3C40" points="153.763,43.04 155.095,43.04 155.095,29.948 153.763,29.948 	"/>
	<polygon fill="#2E3C40" points="168.479,41.042 168.442,41.042 160.642,29.948 158.978,29.948 158.978,43.04 160.31,43.04 
		160.31,31.834 160.347,31.834 168.147,43.04 169.812,43.04 169.812,29.948 168.479,29.948 	"/>
	<path fill="#2E3C40" d="M182.649,38.356c-0.113,0.533-0.557,1.336-0.95,1.797c-0.417,0.486-0.955,0.957-1.688,1.26
		c-0.734,0.303-1.338,0.406-2.339,0.406h-2.396v-10.65h2.363c0.996,0,1.926,0.08,2.668,0.451c0.471,0.234,0.828,0.365,1.322,0.967
		c0.227,0.273,0.619,0.636,0.958,1.783c0.233,0.793,0.271,1.498,0.271,2.178C182.858,37.225,182.808,37.627,182.649,38.356
		L182.649,38.356z M182.492,31.645c-0.474-0.529-1.168-0.992-1.979-1.289c-0.676-0.25-1.637-0.408-2.449-0.408h-4.119V43.04h4.15
		c0.68-0.016,1.637-0.146,2.176-0.346c0.75-0.279,1.322-0.566,1.908-1.125c0.574-0.549,1.122-1.211,1.463-2.141
		c0.324-0.885,0.514-1.838,0.514-2.936c0-1.084-0.12-1.912-0.355-2.603C183.459,32.899,182.937,32.141,182.492,31.645
		L182.492,31.645z"/>
	<path fill="#2E3C40" d="M195.47,38.01c0,0.629-0.062,1.166-0.187,1.617c-0.123,0.451-0.285,0.828-0.49,1.137
		c-0.204,0.309-0.433,0.553-0.685,0.732c-0.254,0.178-0.506,0.313-0.758,0.414c-0.252,0.098-0.5,0.163-0.74,0.192
		c-0.239,0.03-0.477,0.047-0.635,0.047c-0.172,0-0.428-0.016-0.664-0.047c-0.231-0.029-0.475-0.097-0.729-0.192
		c-0.253-0.101-0.506-0.236-0.757-0.414c-0.255-0.181-0.481-0.425-0.687-0.732c-0.203-0.309-0.367-0.686-0.488-1.137
		c-0.125-0.451-0.186-0.988-0.186-1.617v-8.062h-1.333v8.211c0,0.541,0.065,1.119,0.194,1.729c0.13,0.608,0.373,1.172,0.729,1.69
		c0.359,0.519,0.846,0.945,1.461,1.285c0.617,0.338,1.469,0.508,2.457,0.508c0.973,0,1.807-0.17,2.43-0.508
		c0.621-0.34,1.111-0.768,1.47-1.285c0.354-0.52,0.601-1.082,0.731-1.69c0.127-0.609,0.191-1.188,0.191-1.729v-8.211h-1.33v8.062
		H195.47z"/>
	<path fill="#2E3C40" d="M206.968,36.614c-0.492-0.277-1.033-0.5-1.617-0.666c-0.586-0.166-1.125-0.354-1.617-0.564
		c-0.494-0.206-0.906-0.477-1.24-0.803c-0.332-0.326-0.498-0.787-0.498-1.379c0-0.406,0.078-0.76,0.238-1.062
		c0.162-0.302,0.373-0.55,0.64-0.738c0.265-0.192,0.565-0.334,0.896-0.426c0.334-0.095,0.674-0.14,1.021-0.14
		c1.106,0,1.953,0.425,2.53,1.275l1.166-0.906c-0.519-0.592-1.08-1.004-1.682-1.237c-0.604-0.234-1.277-0.353-2.016-0.353
		c-0.532,0-1.049,0.074-1.555,0.221c-0.504,0.148-0.957,0.379-1.358,0.687c-0.399,0.31-0.722,0.697-0.961,1.164
		c-0.241,0.469-0.36,1.019-0.36,1.646c0,0.604,0.094,1.106,0.287,1.508c0.189,0.399,0.442,0.733,0.758,0.998
		c0.313,0.266,0.67,0.483,1.072,0.656c0.4,0.174,0.812,0.327,1.237,0.463c0.425,0.135,0.839,0.271,1.239,0.405
		c0.399,0.138,0.758,0.306,1.072,0.511c0.313,0.203,0.566,0.455,0.758,0.758c0.19,0.303,0.287,0.682,0.287,1.135
		c0,0.385-0.086,0.725-0.262,1.02c-0.17,0.295-0.391,0.545-0.654,0.748s-0.564,0.359-0.896,0.461
		c-0.332,0.107-0.664,0.158-0.998,0.158c-0.691,0-1.287-0.145-1.793-0.436c-0.508-0.287-0.898-0.674-1.184-1.154l-1.203,0.869
		c0.504,0.691,1.119,1.188,1.84,1.488c0.723,0.301,1.482,0.453,2.285,0.453c0.518,0,1.031-0.086,1.543-0.261
		c0.512-0.172,0.975-0.418,1.386-0.737c0.414-0.32,0.747-0.717,0.999-1.193c0.254-0.475,0.379-1.008,0.379-1.6
		c0-0.787-0.166-1.412-0.5-1.865C207.874,37.258,207.459,36.891,206.968,36.614L206.968,36.614z"/>
	<polygon fill="#2E3C40" points="211.144,31.168 215.522,31.168 215.522,43.04 216.854,43.04 216.854,31.168 221.235,31.168 
		221.235,29.948 211.144,29.948 	"/>
	<path fill="#2E3C40" d="M228.558,35.936h-2.507v-4.768h2.367c0.593,0,1.095,0.059,1.506,0.176c0.414,0.117,0.744,0.281,0.99,0.49
		c0.247,0.209,0.426,0.453,0.537,0.729c0.108,0.276,0.165,0.772,0.165,1.08c0,0.319-0.053,0.644-0.163,0.922
		c-0.108,0.274-0.235,0.531-0.481,0.733c-0.246,0.205-0.492,0.328-0.906,0.449C229.651,35.875,229.149,35.936,228.558,35.936
		L228.558,35.936z M232.171,36.12c0.566-0.631,0.889-1.562,0.889-2.475c0-1.17-0.387-2.248-1.156-2.828
		c-0.771-0.58-1.82-0.869-3.151-0.869h-4.03V43.04h1.33v-5.883h3.055l3.197,5.883h1.629l-3.383-6.012
		C230.662,36.963,231.519,36.842,232.171,36.12L232.171,36.12z"/>
	<polygon fill="#2E3C40" points="237.209,43.04 238.539,43.04 238.539,29.948 237.209,29.948 	"/>
	<polygon fill="#2E3C40" points="244.321,36.95 250.663,36.95 250.663,35.729 244.321,35.729 244.321,31.168 251.106,31.168 
		251.106,29.948 242.991,29.948 242.991,43.04 251.332,43.04 251.332,41.819 244.321,41.819 	"/>
	<path fill="#2E3C40" d="M262.301,37.715c-0.334-0.457-0.747-0.824-1.239-1.103c-0.494-0.278-1.035-0.5-1.619-0.666
		c-0.586-0.166-1.125-0.354-1.617-0.563c-0.492-0.207-0.904-0.478-1.24-0.803c-0.331-0.326-0.497-0.787-0.497-1.379
		c0-0.406,0.08-0.761,0.241-1.062c0.158-0.303,0.371-0.549,0.637-0.738c0.268-0.193,0.562-0.334,0.896-0.426
		c0.334-0.094,0.673-0.139,1.018-0.139c1.107,0,1.953,0.424,2.532,1.274l1.167-0.905c-0.52-0.593-1.082-1.004-1.684-1.238
		c-0.605-0.234-1.277-0.353-2.017-0.353c-0.53,0-1.049,0.074-1.553,0.222c-0.507,0.147-0.959,0.379-1.356,0.686
		c-0.402,0.309-0.726,0.697-0.965,1.164c-0.238,0.469-0.359,1.018-0.359,1.645c0,0.605,0.096,1.107,0.287,1.508
		c0.188,0.4,0.444,0.734,0.756,0.998c0.315,0.267,0.674,0.484,1.074,0.656c0.401,0.174,0.812,0.328,1.237,0.463
		s0.838,0.271,1.239,0.406c0.398,0.137,0.757,0.305,1.072,0.51c0.314,0.203,0.566,0.455,0.758,0.758
		c0.189,0.304,0.285,0.683,0.285,1.136c0,0.385-0.084,0.725-0.258,1.021c-0.173,0.295-0.39,0.545-0.656,0.748
		c-0.266,0.202-0.563,0.358-0.896,0.461c-0.333,0.106-0.665,0.157-0.997,0.157c-0.692,0-1.289-0.146-1.795-0.437
		c-0.506-0.286-0.897-0.674-1.183-1.153l-1.201,0.869c0.503,0.69,1.117,1.188,1.839,1.487c0.72,0.302,1.481,0.453,2.28,0.453
		c0.521,0,1.035-0.086,1.548-0.26c0.51-0.172,0.973-0.418,1.386-0.738c0.413-0.319,0.746-0.717,0.999-1.192
		c0.254-0.476,0.379-1.009,0.379-1.601C262.799,38.793,262.633,38.168,262.301,37.715L262.301,37.715z"/>
	<polygon fill="#2E3C40" points="15.098,17.076 5.961,17.076 5.961,0.018 0,0.018 0,43.024 5.961,43.024 5.971,23.905 15.09,23.905 
		15.098,43.024 21.061,43.024 21.061,0.018 15.098,0.018 	"/>
	<path fill="#2E3C40" d="M46.15,24.729l3.161-16.042l3.159,16.042H46.15L46.15,24.729z M45.975,0.011l-7.779,37.065H29.19V23.905
		h8.859v-6.829H29.19V5.961h9.697V0.018H23.229v43.006h13.718h1.939h3.773l2.453-12.359h8.391l2.43,12.359h5.715l-9.08-43.013
		H45.975L45.975,0.011z"/>
	<path fill="#2E3C40" d="M117.045,31.973c-0.049,0.607-0.145,1.18-0.295,1.715c-0.146,0.535-0.361,1.027-0.634,1.486
		c-0.286,0.459-0.647,0.801-1.108,1.035c-0.622,0.299-1.294,0.453-2.018,0.453h-2.111h-2.575V23.25h3.752
		c1.081,0,1.948,0.123,2.607,0.371c0.653,0.25,1.167,0.64,1.526,1.172c0.359,0.535,0.605,1.224,0.732,2.062
		c0.134,0.842,0.2,2.25,0.2,3.396C117.122,30.784,117.096,31.362,117.045,31.973L117.045,31.973z M108.304,5.222h4.296
		c1.572,0.075,2.59,0.517,3.047,1.319c0.461,0.801,0.688,2,0.688,3.604c0,1.032-0.043,2.929-0.125,3.69
		c-0.08,0.762-0.283,1.411-0.609,1.946c-0.558,0.804-1.308,1.25-2.241,1.343c-0.935,0.099-1.827,0.144-2.679,0.144h-2.376
		L108.304,5.222L108.304,5.222z M118.291,20.099v-0.113c0.917-0.384,1.672-0.898,2.263-1.547c0.593-0.647,1.042-1.363,1.354-2.148
		c0.313-0.779,0.525-1.727,0.641-2.643c0.111-0.917,0.173-1.831,0.173-2.746c0-1.45-0.107-2.806-0.321-4.066
		c-0.211-1.258-0.717-2.48-1.503-3.668c-0.49-0.72-1.035-1.292-1.643-1.713s-1.242-0.734-1.897-0.944
		c-0.654-0.21-1.125-0.344-1.862-0.401c-0.739-0.057-1.14-0.087-1.865-0.087h-10.54h-0.569h-6.506l-6.488,21.17
		c0,0.008-6.377-21.17-6.377-21.17l-2.76,0.007l-1.556,7.811l7.37,22.029v13.166h6.727V29.995l9.59-28.292v41.259h12.144
		c2.459,0,3.842-0.606,5.251-1.834c1.408-1.219,2.49-3.184,3.247-5.893c0.196-0.879,0.325-1.758,0.392-2.633
		c0.069-0.881,0.1-1.76,0.1-2.639c0-2.787-0.409-4.971-1.227-6.744C121.604,21.446,120.226,20.404,118.291,20.099L118.291,20.099z"
		/>
	<polygon fill="#2E3C40" points="72.836,0.018 67.012,30.124 61.207,0 54.876,0.018 63.757,43.024 70.219,43.024 77.594,7.205 
		79.063,0.018 	"/>
	<polygon fill="#2E3C40" points="125.434,43.024 131.395,43.024 131.395,0.019 125.434,0.019 	"/>
	<polygon fill="#2E3C40" points="132.769,5.991 139.175,5.991 139.175,43.024 145.138,43.024 145.138,5.991 151.562,5.991 
		151.562,0.019 132.769,0.019 	"/>
</g>
</svg>
