<?xml version="1.0" encoding="utf-8"?>
<!-- Generator: Adobe Illustrator 15.1.0, SVG Export Plug-In . SVG Version: 6.00 Build 0)  -->
<!DOCTYPE svg PUBLIC "-//W3C//DTD SVG 1.1//EN" "http://www.w3.org/Graphics/SVG/1.1/DTD/svg11.dtd">
<svg version="1.1" id="Layer_1" xmlns="http://www.w3.org/2000/svg" xmlns:xlink="http://www.w3.org/1999/xlink" x="0px" y="0px"
	 width="219.982px" height="70.828px" viewBox="0 0 219.982 70.828" enable-background="new 0 0 219.982 70.828"
	 xml:space="preserve">
<path fill-rule="evenodd" clip-rule="evenodd" fill="#2E3C40" d="M111.421,25.647c-0.079-0.133-0.385-0.53-0.807-1.083
	c-1.359-1.782-3.888-5.097-5.149-7.62c-1.738-3.476-1.398-7.321-1.142-8.394c0.032-0.134,0.06-0.262,0.088-0.388
	c0.217-0.98,0.405-1.978,2.001-4.515C107.375,2.116,108.661,1,109.702,0c-0.025,0-0.051,0-0.076,0
	C98.149,1,88.977,9.852,89.178,21.326c0.059,3.369,0.942,6.777,2.554,9.712c3.265,5.948,9.174,9.912,15.806,10.702
	c0.728-0.303,1.657-0.719,2.446-1.366c1.826-1.494,3.493-3.122,3.822-6.687C114.112,30.364,111.873,26.407,111.421,25.647z
	 M99.413,24.916c-0.088,0.041-0.137,0.054-0.185,0.054c-0.069,0-0.114-0.027-0.147-0.048c-0.02-0.013-0.037-0.023-0.067-0.032
	l-0.051-0.03c-0.008-0.008-0.031-0.028-2.486-2.947c-0.096-0.117-0.101-0.221-0.088-0.289c0.021-0.109,0.097-0.18,0.144-0.215
	c0.048-0.057,0.148-0.079,0.315-0.114c0.506-0.108,1.561-0.334,1.543-1.341c-0.012-0.634-0.679-1.014-1.317-1.014l-0.713,0.013
	c-0.095,0.001-0.115,0.018-0.116,0.019c-0.005,0.008-0.012,0.039-0.01,0.135l0.078,4.536c0.005,0.25,0.027,0.441,0.043,0.581
	c0.025,0.213,0.039,0.33-0.041,0.42c-0.043,0.048-0.104,0.073-0.183,0.073c0,0-0.553,0.032-1.003-0.007c0,0-0.001,0-0.001,0
	c-0.043,0-0.093-0.021-0.129-0.062c-0.09-0.099-0.075-0.269-0.05-0.552c0.014-0.148,0.029-0.317,0.025-0.477h0.009
	c-0.023-0.218-0.035-1.026-0.084-4.361c-0.004-0.202-0.018-0.385-0.03-0.546c-0.03-0.394-0.051-0.679,0.107-0.854
	c0.086-0.094,0.211-0.142,0.384-0.145l0,0.013c0.174-0.028,0.594-0.031,1.64-0.039l0.073,0c1.598,0,2.644,0.88,2.664,2.243
	c0.019,1.043-0.448,1.778-1.389,2.185l0.01,0.021c0.126,0.134,1.089,1.125,1.735,1.787c0.053,0.048,0.082,0.121,0.076,0.201
	C100.147,24.416,99.584,24.805,99.413,24.916z"/>
<path fill-rule="evenodd" clip-rule="evenodd" fill="#2E3C40" d="M112.228,0.426c-0.864,0.622-2.006,1.497-3.107,2.654
	c-1.674,1.756-3.545,5.164-3.31,8.986c0.211,3.425,2.574,6.526,5.565,10.454l0.484,0.636c3.476,4.568,4.532,8.919,3.23,13.301
	c-0.77,2.597-2.637,4.392-4.254,5.442c7.56-0.307,14.33-4.644,17.75-11.428l0.037-0.068c1.482-2.975,2.235-6.311,2.179-9.653
	C130.62,10.228,122.478,1.542,112.228,0.426z M124.753,18.09l-0.011-0.004c-0.072,0.254-0.466,1.308-2.321,6.281
	c-0.014,0.037-0.026,0.132-0.038,0.168c-0.059,0.178-0.132,0.465-0.372,0.465h-0.006c-0.231,0-0.322-0.301-0.395-0.495l-0.031-0.111
	l0.006-0.017c-0.254-0.555-2.296-5.537-2.533-6.182l-0.014,0.002c-0.067-0.166-0.125-0.355-0.036-0.488
	c0.036-0.054,0.11-0.12,0.262-0.121l0.037-0.006c0.215-0.028,0.379-0.05,0.88-0.012c0.178,0.027,0.215,0.194,0.248,0.341
	c0.016,0.07,0.033,0.15,0.065,0.229l1.449,3.467c0.002,0.008,0.005,0.016,0.008,0.023c0.001-0.004,0.002-0.009,0.003-0.013
	l1.34-3.552c0.029-0.076,0.045-0.15,0.059-0.214c0.032-0.145,0.071-0.325,0.263-0.341c0.452-0.042,0.649-0.038,0.917-0.017h0.001
	c0.093,0,0.177,0.041,0.228,0.114C124.836,17.715,124.833,17.874,124.753,18.09z"/>
<g>
	<g>
		<path fill="#2E3C40" d="M9.533,70.403c-0.637-0.661-1.084-1.11-1.58-1.605l-5.877-5.876c1.11,0.142,1.818,0.117,2.525,0.024
			c2.148-0.283,3.989-1.912,3.989-4.06c0-2.29-1.794-4.2-4.06-4.365c-1.227-0.096-2.171,0-2.926,0.095v13.285
			c0,0.756,0.048,0.991,0.096,2.146H0c0.071-1.132,0.095-1.297,0.095-2.146V55.63c0-0.755-0.024-1.368-0.095-2.241
			c1.157-0.166,2.667-0.379,4.625-0.213c3.045,0.259,5.451,2.549,5.475,5.734c0.024,2.596-2.171,4.979-4.861,5.191l3.824,3.564
			c1.014,0.943,1.038,0.896,1.722,1.463L9.533,70.403z"/>
	</g>
	<g>
		<path fill="#2E3C40" d="M23.562,63.713c0,2.975-2.446,5.421-5.403,5.421c-2.973,0-5.402-2.446-5.402-5.421
			s2.411-5.403,5.402-5.403C21.134,58.31,23.562,60.738,23.562,63.713z M24.708,63.713c0-3.608-2.94-6.549-6.549-6.549
			c-3.625,0-6.547,2.94-6.547,6.549s2.939,6.565,6.547,6.565C21.75,70.278,24.708,67.321,24.708,63.713z"/>
	</g>
	<g>
		<path fill="#2E3C40" d="M31.552,60.51c0,1.091-0.616,1.725-1.479,2.041c-0.582,0.229-1.303,0.265-1.99,0.265
			c-0.088,0-1.038,0-1.038,0V58.45c0.422-0.036,1.145-0.141,2.095-0.07C30.25,58.468,31.552,59.347,31.552,60.51z M33.646,66.37
			c0.018-1.919-1.461-3.027-2.463-3.327c0.722-0.351,1.478-1.179,1.478-2.533c0-1.867-1.706-3.01-3.291-3.168
			c-1.603-0.159-3.574,0.264-3.574,0.264c0.088,0.633,0.105,1.003,0.105,1.549v9.151c0,0.67-0.018,0.986-0.069,1.654
			c1.531,0.318,2.71,0.388,3.96,0.265C31.182,70.084,33.611,69.116,33.646,66.37z M32.502,66.405c0,2.007-1.936,2.781-3.38,2.799
			c-0.686,0-1.565-0.053-2.077-0.158v-5.192c0,0,0.934,0,1.056,0c0.845,0,1.479-0.019,2.112,0.069
			C31.587,64.135,32.502,65.033,32.502,66.405z"/>
	</g>
	<g>
		<path fill="#2E3C40" d="M42.674,70.048h-7.709c0.018-0.668,0.052-1.107,0.052-1.688v-9.188c0-0.546-0.017-0.916-0.052-1.62h5.314
			l2.288-0.052l-0.316,1.108h-6.106v5.597h4.013l2.271-0.052l-0.282,1.108h-6.001v3.731h4.293c0.74,0,2.482-0.053,2.482-0.053
			L42.674,70.048z"/>
	</g>
	<g>
		<path fill="#2E3C40" d="M51.509,70.313c-0.476-0.493-0.809-0.827-1.18-1.197l-4.381-4.383c0.827,0.105,1.355,0.088,1.882,0.018
			c1.603-0.212,2.975-1.426,2.975-3.028c0-1.706-1.338-3.133-3.026-3.255c-0.916-0.071-1.62,0-2.183,0.07v9.909
			c0,0.562,0.034,0.739,0.07,1.601h-1.267c0.052-0.844,0.07-0.968,0.07-1.601v-9.152c0-0.564-0.019-1.021-0.07-1.673
			c0.862-0.122,1.988-0.28,3.45-0.158c2.271,0.194,4.065,1.9,4.083,4.277c0.018,1.936-1.62,3.714-3.627,3.872l2.853,2.658
			c0.756,0.704,0.774,0.669,1.284,1.091L51.509,70.313z"/>
	</g>
	<g>
		<path fill="#2E3C40" d="M60.712,58.626l-1.286-0.036h-2.199v9.77c0,0.616,0.018,1.037,0.035,1.688h-1.233
			c0.037-0.615,0.054-1.055,0.054-1.688v-9.77h-2.429l-1.372,0.036l0.264-1.126l1.143,0.052h5.738l1.548-0.052L60.712,58.626z"/>
	</g>
	<g>
		<path fill="#2E3C40" d="M71.486,70.284c-3.328,0-5.24-2.1-6.041-2.901l1.084-1.086c1.676,1.888,3.233,2.501,4.555,2.549
			c0.991,0.047,3.846-0.119,4.107-2.645c0.236-2.454-1.487-3.255-4.767-4.294c-3.28-1.015-4.319-2.289-4.39-4.342
			c-0.117-2.077,1.511-4.365,4.791-4.483c2.501-0.095,4.271,1.368,5.05,2.218l-1.062,0.872c-0.471-0.329-1.699-1.722-3.893-1.746
			c-1.888-0.022-3.352,1.346-3.304,3.021c0.094,1.982,1.699,2.431,4.247,3.257c5.24,1.722,4.979,4.176,4.908,5.546
			C76.7,67.358,75.733,70.284,71.486,70.284z"/>
	</g>
	<g>
		<path fill="#2E3C40" d="M78.853,70.048c0.018-0.722,0.052-1.16,0.052-1.724v-9.136c0-0.599,0-0.562-0.034-1.637h1.196
			c-0.017,0.616-0.035,1.074-0.035,1.637v9.136c0,0.563,0.018,1.056,0.035,1.724H78.853z"/>
	</g>
	<g>
		<path fill="#2E3C40" d="M91.278,59.207v11.388l-7.533-10.244v7.991c0,0.546,0.034,0.984,0.052,1.706h-1.231
			c0.034-0.703,0.052-0.932,0.052-1.706V57.024l7.533,10.19v-8.008c0-0.581-0.035-0.985-0.052-1.655h1.213
			C91.295,58.222,91.278,58.643,91.278,59.207z"/>
	</g>
	<g>
		<path fill="#2E3C40" d="M97.474,70.225c-2.482,0-3.907-1.566-4.507-2.165l0.81-0.809c1.25,1.407,2.412,1.865,3.398,1.9
			c0.738,0.035,2.868-0.088,3.062-1.971c0.175-1.831-1.109-2.43-3.555-3.205c-2.447-0.756-3.221-1.706-3.274-3.237
			c-0.088-1.55,1.125-3.256,3.572-3.344c1.866-0.07,3.187,1.02,3.767,1.653L99.954,59.7c-0.351-0.247-1.267-1.286-2.904-1.304
			c-1.408-0.017-2.499,1.004-2.463,2.254c0.071,1.479,1.267,1.812,3.167,2.429c3.908,1.284,3.713,3.114,3.662,4.136
			C101.362,68.043,100.642,70.225,97.474,70.225z"/>
	</g>
	<g>
		<path fill="#2E3C40" d="M110.495,70.225c-0.458-0.475-0.829-0.792-1.268-1.161l-5.315-4.471v3.731
			c0,0.827,0.036,1.072,0.053,1.724h-1.232c0.035-0.651,0.053-0.844,0.053-1.706v-8.978c0-0.597-0.019-1.16-0.053-1.812h1.215
			c-0.019,0.652-0.036,1.216-0.036,1.812v3.469l4.646-4.207c0.405-0.37,0.721-0.722,1.197-1.214l0.899,0.897
			c-0.495,0.458-0.846,0.774-1.267,1.161l-4.647,4.242l5.297,4.435c0.458,0.37,0.792,0.67,1.321,1.108L110.495,70.225z"/>
	</g>
	<g>
		<path fill="#2E3C40" d="M120.35,70.048h-7.708c0.017-0.668,0.054-1.107,0.054-1.688v-9.188c0-0.546-0.018-0.916-0.054-1.62h5.315
			l2.288-0.052l-0.316,1.108h-6.108v5.597h4.013l2.271-0.052l-0.282,1.108h-6.001v3.731h4.295c0.738,0,2.48-0.053,2.48-0.053
			L120.35,70.048z"/>
	</g>
	<g>
		<path fill="#2E3C40" d="M129.608,59.418l-3.203,5.087v3.871c0,0.546,0.02,0.617,0.054,1.672h-1.233
			c0.037-1.038,0.054-1.126,0.054-1.672v-3.871l-3.308-5.087c-0.301-0.458-0.934-1.425-0.934-1.425l1.057-0.651
			c0,0,0.51,0.896,0.86,1.442l2.887,4.471l2.763-4.453c0.404-0.65,0.846-1.478,0.846-1.478l1.092,0.686
			C130.542,58.01,130.03,58.768,129.608,59.418z"/>
	</g>
	<g>
		<path fill="#2E3C40" d="M147.587,55.654l-5.993,15.174l-6.09-15.151c-0.283-0.707-0.871-2.101-0.871-2.101l1.558-0.589
			c0,0,0.613,1.699,0.776,2.101l4.604,11.847l4.555-11.847c0.26-0.685,0.754-2.124,0.754-2.124l1.604,0.612
			C148.483,53.576,147.871,54.946,147.587,55.654z"/>
	</g>
	<g>
		<path fill="#2E3C40" d="M150.094,70.048c0.018-0.722,0.052-1.16,0.052-1.724v-9.136c0-0.599,0-0.562-0.034-1.637h1.196
			c-0.017,0.616-0.034,1.074-0.034,1.637v9.136c0,0.563,0.018,1.056,0.034,1.724H150.094z"/>
	</g>
	<g>
		<path fill="#2E3C40" d="M162.52,59.207v11.388l-7.533-10.244v7.991c0,0.546,0.034,0.984,0.051,1.706h-1.23
			c0.034-0.703,0.051-0.932,0.051-1.706V57.024l7.534,10.19v-8.008c0-0.581-0.034-0.985-0.054-1.655h1.216
			C162.538,58.222,162.52,58.643,162.52,59.207z"/>
	</g>
	<g>
		<path fill="#2E3C40" d="M172.358,70.048h-7.709c0.018-0.668,0.051-1.107,0.051-1.688v-9.188c0-0.546-0.017-0.916-0.051-1.62h5.313
			l2.288-0.052l-0.317,1.108h-6.107v5.597h4.013l2.271-0.052l-0.28,1.108h-6.003v3.731h4.295c0.741,0,2.483-0.053,2.483-0.053
			L172.358,70.048z"/>
	</g>
	<g>
		<path fill="#2E3C40" d="M181.616,59.418l-3.204,5.087v3.871c0,0.546,0.018,0.617,0.052,1.672h-1.23
			c0.034-1.038,0.051-1.126,0.051-1.672v-3.871l-3.309-5.087c-0.298-0.458-0.934-1.425-0.934-1.425l1.059-0.651
			c0,0,0.508,0.896,0.861,1.442l2.885,4.471l2.766-4.453c0.404-0.65,0.843-1.478,0.843-1.478l1.091,0.686
			C182.545,58.01,182.038,58.768,181.616,59.418z"/>
	</g>
	<g>
		<path fill="#2E3C40" d="M187.667,64.205h-3.45l1.726-4.61L187.667,64.205z M191.151,70.048l-5.189-13.551l-5.248,13.551h1.27
			l1.812-4.786h4.275l1.814,4.786H191.151z"/>
	</g>
	<g>
		<path fill="#2E3C40" d="M199,70.313c-0.476-0.493-0.809-0.827-1.18-1.197l-4.383-4.383c0.829,0.105,1.357,0.088,1.883,0.018
			c1.604-0.212,2.975-1.426,2.975-3.028c0-1.706-1.337-3.133-3.025-3.255c-0.916-0.071-1.62,0-2.183,0.07v9.909
			c0,0.562,0.034,0.739,0.071,1.601h-1.268c0.051-0.844,0.07-0.968,0.07-1.601v-9.152c0-0.564-0.02-1.021-0.07-1.673
			c0.863-0.122,1.988-0.28,3.447-0.158c2.273,0.194,4.066,1.9,4.086,4.277c0.018,1.936-1.62,3.714-3.625,3.872l2.851,2.658
			c0.755,0.704,0.774,0.669,1.283,1.091L199,70.313z"/>
	</g>
	<g>
		<path fill="#2E3C40" d="M209.455,63.801c0,3.027-2.375,5.421-5.367,5.421c-0.774,0-1.337-0.124-1.566-0.176v-10.49
			c0.282-0.018,0.95-0.088,1.566-0.088C207.096,58.503,209.455,60.843,209.455,63.801z M210.688,63.801
			c0-3.644-2.976-6.425-6.601-6.425c-1.513,0-2.782,0.229-2.782,0.229c0.02,0.633,0.09,1.125,0.09,1.707v9.012
			c0,0.546-0.07,1.021-0.09,1.654c0,0,1.374,0.352,2.782,0.352C207.712,70.33,210.688,67.426,210.688,63.801z"/>
	</g>
	<g>
		<path fill="#2E3C40" d="M216.021,70.225c-2.483,0-3.908-1.566-4.505-2.165l0.809-0.809c1.25,1.407,2.412,1.865,3.396,1.9
			c0.74,0.035,2.87-0.088,3.062-1.971c0.178-1.831-1.108-2.43-3.555-3.205c-2.446-0.756-3.221-1.706-3.274-3.237
			c-0.088-1.55,1.128-3.256,3.574-3.344c1.863-0.07,3.184,1.02,3.767,1.653L218.5,59.7c-0.351-0.247-1.267-1.286-2.901-1.304
			c-1.408-0.017-2.499,1.004-2.464,2.254c0.069,1.479,1.266,1.812,3.168,2.429c3.905,1.284,3.713,3.114,3.659,4.136
			C219.909,68.043,219.188,70.225,216.021,70.225z"/>
	</g>
</g>
</svg>
