<?xml version="1.0" encoding="utf-8"?>
<!-- Generator: Adobe Illustrator 15.1.0, SVG Export Plug-In . SVG Version: 6.00 Build 0)  -->
<!DOCTYPE svg PUBLIC "-//W3C//DTD SVG 1.1//EN" "http://www.w3.org/Graphics/SVG/1.1/DTD/svg11.dtd">
<svg version="1.1" id="Layer_1" xmlns="http://www.w3.org/2000/svg" xmlns:xlink="http://www.w3.org/1999/xlink" x="0px" y="0px"
	 width="489.285px" height="166.437px" viewBox="0 0 489.285 166.437" enable-background="new 0 0 489.285 166.437"
	 xml:space="preserve">
<g>
	<polygon fill="#2E3C40" points="37.719,40.654 78.374,0 40.654,0 0,40.654 43.738,85.31 3.385,125.287 40.133,125.287 
		81.603,84.035 	"/>
	<polygon fill="#2E3C40" points="119.254,40.482 81.338,40.678 124.701,84.229 42.494,166.437 80.621,166.437 162.828,84.229 
		162.928,84.229 	"/>
</g>
<g>
	<path fill="#2E3C40" d="M202.466,127.832c0-1.916,0.958-2.875,2.875-2.875h3.285c0.935,0,1.609,0.211,2.02,0.633
		c0.411,0.422,0.672,1.146,0.787,2.173c0.159,2.19,0.77,3.965,1.831,5.322c1.061,1.358,2.629,2.037,4.706,2.037
		c1.871,0,3.411-0.61,4.62-1.831c1.209-1.22,1.814-3.085,1.814-5.596v-27.139h-9.944c-1.972,0-2.958-0.958-2.958-2.875V95.73
		c0-1.962,0.981-2.943,2.943-2.943h15.982c0.935,0,1.66,0.257,2.173,0.77c0.514,0.514,0.77,1.238,0.77,2.173v32.102
		c0,2.601-0.443,4.929-1.329,6.982s-2.067,3.685-3.543,4.894c-1.477,1.209-3.112,2.128-4.907,2.755
		c-1.794,0.627-3.668,0.941-5.622,0.941c-1.985,0-3.879-0.32-5.681-0.958c-1.803-0.639-3.445-1.574-4.928-2.806
		c-1.483-1.232-2.669-2.869-3.559-4.911C202.911,132.686,202.466,130.387,202.466,127.832z"/>
	<path fill="#2E3C40" d="M260.824,124.683V95.73c0-1.962,0.958-2.943,2.875-2.943h3.148c1.962,0,2.943,0.981,2.943,2.943v28.885
		c0,3.332,0.986,5.916,2.96,7.751c1.973,1.837,4.648,2.755,8.025,2.755c3.399,0,6.097-0.918,8.094-2.755
		c1.996-1.836,2.995-4.42,2.995-7.751V95.73c0-1.962,0.958-2.943,2.875-2.943h3.217c1.917,0,2.875,0.981,2.875,2.943v28.953
		c0,5.59-1.837,10.108-5.51,13.553c-3.674,3.445-8.499,5.168-14.477,5.168c-6.001,0-10.838-1.723-14.511-5.168
		C262.66,134.791,260.824,130.273,260.824,124.683z"/>
	<path fill="#2E3C40" d="M328.285,139.605V95.73c0-1.962,0.959-2.943,2.875-2.943h13.45c4.312,0,7.472,0.445,9.479,1.335
		c2.578,1.073,4.608,2.778,6.092,5.116c1.483,2.339,2.225,5.163,2.225,8.471c0,3.002-0.735,5.753-2.207,8.255
		c-1.472,2.501-3.485,4.264-6.041,5.287v0.169c0.411,0.503,0.947,1.361,1.608,2.572l8.181,15.055
		c0.363,0.617,0.547,1.166,0.547,1.646c0,0.321-0.08,0.607-0.24,0.859c-0.388,0.664-1.163,0.996-2.326,0.996h-3.799
		c-1.529,0-2.67-0.675-3.423-2.026l-8.761-16.625h-8.693v15.698c0,1.969-0.958,2.954-2.875,2.954h-3.217
		C329.244,142.548,328.285,141.567,328.285,139.605z M337.251,116.127h8.146c2.418,0,4.329-0.713,5.732-2.139
		c1.403-1.426,2.104-3.359,2.104-5.801c0-3.445-1.312-5.704-3.936-6.776c-1.255-0.57-3.046-0.855-5.373-0.855h-6.674V116.127z"/>
	<path fill="#2E3C40" d="M391.948,139.605V95.73c0-1.962,0.959-2.943,2.875-2.943h23.957c0.935,0,1.66,0.257,2.173,0.77
		c0.514,0.514,0.77,1.238,0.77,2.173v1.951c0,1.917-0.98,2.875-2.942,2.875h-17.865v13.073h13.895c1.963,0,2.943,0.954,2.943,2.862
		v1.942c0,1.977-0.98,2.965-2.943,2.965h-13.895v13.381h18.994c1.962,0,2.943,0.958,2.943,2.875v1.951
		c0,1.962-0.981,2.943-2.943,2.943h-25.086C392.907,142.548,391.948,141.567,391.948,139.605z"/>
	<path fill="#2E3C40" d="M450.306,139.605V95.73c0-1.962,0.958-2.943,2.875-2.943h3.217c1.917,0,2.875,0.981,2.875,2.943v17.317
		h6.537l10.506-18.241c0.753-1.346,1.895-2.02,3.423-2.02h3.422c1.164,0,1.939,0.342,2.327,1.027c0.159,0.274,0.24,0.571,0.24,0.89
		c0,0.479-0.172,1.004-0.514,1.575l-12.047,20.192v0.137l12.937,22.451c0.364,0.616,0.548,1.164,0.548,1.643
		c0,0.32-0.08,0.605-0.239,0.855c-0.389,0.662-1.164,0.993-2.327,0.993h-3.867c-1.529,0-2.67-0.672-3.423-2.019l-10.985-19.713
		h-6.537v18.789c0,1.962-0.958,2.943-2.875,2.943h-3.217C451.264,142.548,450.306,141.567,450.306,139.605z"/>
</g>
<g>
	<path fill="#2E3C40" d="M204.135,68.36c-0.205-0.354-0.279-0.792-0.222-1.318c0.057-0.524,0.302-1.083,0.735-1.677l1.575-2.225
		c0.547-0.753,1.141-1.175,1.779-1.266c0.091-0.022,0.194-0.034,0.308-0.034c0.564,0,1.207,0.22,1.929,0.66
		c3.459,2.48,6.818,3.72,10.073,3.72c2.287,0,4.1-0.527,5.438-1.58s2.007-2.428,2.007-4.124c0-1.007-0.263-1.929-0.789-2.766
		c-0.527-0.836-1.241-1.563-2.145-2.182c-0.904-0.618-1.938-1.214-3.105-1.787c-1.167-0.572-2.39-1.134-3.67-1.684
		c-1.281-0.55-2.555-1.134-3.822-1.752c-1.268-0.618-2.477-1.334-3.631-2.147s-2.178-1.707-3.072-2.68
		c-0.894-0.973-1.601-2.152-2.121-3.539s-0.78-2.904-0.78-4.553c0-2.843,0.741-5.368,2.225-7.574
		c1.482-2.207,3.491-3.895,6.023-5.067c2.532-1.171,5.373-1.757,8.521-1.757c2.646,0,5.122,0.394,7.426,1.181
		c2.304,0.787,4.107,1.66,5.408,2.618c0.935,0.662,1.403,1.437,1.403,2.327c0,0.525-0.172,1.084-0.515,1.677l-1.273,2.293
		c-0.527,1.027-1.249,1.54-2.166,1.54c-0.551,0-1.158-0.186-1.823-0.559c-0.894-0.536-1.673-0.972-2.338-1.31
		c-0.665-0.338-1.587-0.67-2.768-0.996s-2.367-0.489-3.559-0.489c-2.315,0-4.16,0.516-5.535,1.547
		c-1.375,1.031-2.063,2.394-2.063,4.088c0,1.26,0.429,2.377,1.287,3.35c0.857,0.974,1.966,1.805,3.327,2.491
		c1.361,0.687,2.864,1.369,4.511,2.044c1.646,0.676,3.292,1.432,4.938,2.268c1.645,0.836,3.143,1.781,4.493,2.834
		c1.351,1.054,2.451,2.422,3.302,4.106c0.851,1.683,1.276,3.602,1.276,5.755c0,2.024-0.37,3.925-1.109,5.699
		c-0.739,1.774-1.797,3.333-3.173,4.675s-3.111,2.4-5.203,3.173c-2.093,0.773-4.401,1.16-6.926,1.16c-3.137,0-6.047-0.53-8.73-1.591
		c-2.683-1.061-4.846-2.219-6.489-3.474C204.66,69.074,204.34,68.714,204.135,68.36z"/>
	<path fill="#2E3C40" d="M255.075,48.562c0-3.582,0.633-6.941,1.899-10.079c1.266-3.137,3.017-5.84,5.253-8.111
		c2.235-2.27,4.95-4.061,8.146-5.373c3.193-1.312,6.639-1.968,10.335-1.968c6.138,0,11.567,1.666,16.291,4.997
		c0.821,0.639,1.231,1.358,1.231,2.156c0,0.593-0.229,1.232-0.685,1.916l-1.266,2.02c-0.571,0.913-1.267,1.369-2.088,1.369
		c-0.57,0-1.21-0.228-1.917-0.684c-3.582-2.327-7.312-3.491-11.19-3.491c-2.624,0-5.009,0.462-7.153,1.386
		c-2.145,0.924-3.907,2.173-5.287,3.748c-1.381,1.574-2.436,3.388-3.166,5.441c-0.73,2.054-1.095,4.233-1.095,6.537
		c0,2.351,0.376,4.586,1.129,6.708c0.753,2.122,1.825,4.01,3.218,5.664c1.391,1.654,3.159,2.972,5.304,3.953
		c2.145,0.981,4.518,1.472,7.119,1.472c4.106,0,8.168-1.448,12.184-4.346c0.729-0.524,1.403-0.787,2.019-0.787
		c0.776,0,1.46,0.422,2.054,1.266l1.403,1.917c0.502,0.662,0.753,1.3,0.753,1.917c0,0.753-0.388,1.46-1.163,2.122
		c-5.134,4.13-10.998,6.194-17.592,6.194c-5.11,0-9.634-1.146-13.569-3.439s-6.947-5.396-9.035-9.309S255.075,53.445,255.075,48.562
		z"/>
	<path fill="#2E3C40" d="M317.916,48.425c0-4.7,1.089-8.983,3.269-12.851c2.178-3.868,5.236-6.924,9.172-9.172
		c3.936-2.247,8.368-3.371,13.296-3.371s9.36,1.124,13.296,3.371c3.935,2.248,6.987,5.305,9.154,9.172
		c2.168,3.867,3.252,8.151,3.252,12.851c0,4.837-1.084,9.241-3.252,13.21c-2.167,3.97-5.219,7.107-9.154,9.412
		c-3.936,2.305-8.368,3.457-13.296,3.457s-9.36-1.152-13.296-3.457c-3.936-2.304-6.994-5.441-9.172-9.412
		C319.005,57.666,317.916,53.262,317.916,48.425z M327.224,48.425c0,5.088,1.551,9.326,4.655,12.714
		c3.103,3.388,7.027,5.082,11.773,5.082c4.745,0,8.664-1.694,11.756-5.082c3.091-3.388,4.637-7.626,4.637-12.714
		c0-4.882-1.546-8.955-4.637-12.218c-3.092-3.262-7.011-4.894-11.756-4.894c-4.746,0-8.67,1.632-11.773,4.894
		C328.775,39.47,327.224,43.543,327.224,48.425z"/>
	<path fill="#2E3C40" d="M387.705,28.781V26.83c0-1.962,0.982-2.943,2.946-2.943h35.793c1.917,0,2.877,0.981,2.877,2.943v1.951
		c0,1.917-0.96,2.875-2.881,2.875h-13.409v39.049c0,1.962-0.979,2.943-2.933,2.943h-3.17c-1.91,0-2.864-0.981-2.864-2.943V31.655
		h-13.409C388.688,31.655,387.705,30.697,387.705,28.781z"/>
	<path fill="#2E3C40" d="M447.671,28.781V26.83c0-1.962,0.981-2.943,2.945-2.943h35.793c1.918,0,2.877,0.981,2.877,2.943v1.951
		c0,1.917-0.96,2.875-2.881,2.875h-13.409v39.049c0,1.962-0.978,2.943-2.932,2.943h-3.171c-1.91,0-2.864-0.981-2.864-2.943V31.655
		h-13.409C448.654,31.655,447.671,30.697,447.671,28.781z"/>
</g>
</svg>
