<?xml version="1.0" encoding="utf-8"?>
<!-- Generator: Adobe Illustrator 15.1.0, SVG Export Plug-In . SVG Version: 6.00 Build 0)  -->
<!DOCTYPE svg PUBLIC "-//W3C//DTD SVG 1.1//EN" "http://www.w3.org/Graphics/SVG/1.1/DTD/svg11.dtd">
<svg version="1.1" id="Layer_1" xmlns="http://www.w3.org/2000/svg" xmlns:xlink="http://www.w3.org/1999/xlink" x="0px" y="0px"
	 width="518px" height="518px" viewBox="0 0 518 518" enable-background="new 0 0 518 518" xml:space="preserve">
<g>
	<path fill="#2E3C40" d="M517.459,518.329H-0.031V0.84h517.49V518.329z M10.969,507.329h495.49V11.84H10.969V507.329z"/>
</g>
<g>
	<g>
		<path fill="#2E3C40" d="M41.402,240.02l17.456-20.908c12.084,9.975,24.745,16.305,40.09,16.305
			c12.085,0,19.374-4.795,19.374-12.66v-0.384c0-7.48-4.604-11.316-27.046-17.072c-27.046-6.904-44.502-14.386-44.502-41.049v-0.384
			c0-24.361,19.565-40.474,46.996-40.474c19.565,0,36.253,6.138,49.873,17.071l-15.345,22.251
			c-11.894-8.247-23.594-13.234-34.911-13.234s-17.264,5.179-17.264,11.701v0.384c0,8.824,5.754,11.701,28.964,17.646
			c27.238,7.099,42.584,16.881,42.584,40.282v0.383c0,26.663-20.333,41.625-49.297,41.625
			C78.04,261.503,57.515,254.406,41.402,240.02z"/>
		<path fill="#2E3C40" d="M161.286,125.312h101.279v26.278h-71.932v27.238h63.3v26.279h-63.3v28.197h72.891v26.278H161.286V125.312z
			"/>
		<path fill="#2E3C40" d="M277.716,125.312h29.54V232.73H374.2v26.854h-96.484V125.312z"/>
		<path fill="#2E3C40" d="M384.362,125.312h102.239v26.854h-72.699v28.581h64.067v26.854h-64.067v51.982h-29.54V125.312
			L384.362,125.312z"/>
	</g>
	<g>
		<path fill="#2E3C40" d="M47.559,280.286h25.826l28.626,46.052l28.626-46.052h25.826v108.905H132.66v-71.101l-30.649,46.52h-0.622
			l-30.338-46.052v70.633H47.559V280.286z"/>
		<path fill="#2E3C40" d="M210.132,279.51h22.092l46.673,109.683H253.85l-9.957-24.426h-46.051l-9.957,24.426h-24.426
			L210.132,279.51z M235.336,343.606l-14.469-35.315l-14.47,35.315H235.336z"/>
		<path fill="#2E3C40" d="M285.736,280.286h42.475c34.227,0,57.875,23.492,57.875,54.143v0.312
			c0,30.648-23.648,54.452-57.875,54.452h-42.475V280.286z M309.695,301.912v65.654h18.516c19.603,0,32.826-13.226,32.826-32.518
			v-0.311c0-19.292-13.225-32.827-32.826-32.827L309.695,301.912L309.695,301.912z"/>
		<path fill="#2E3C40" d="M397.592,280.286h82.146V301.6h-58.342v22.092h51.341v21.313h-51.341v22.87h59.12v21.314h-82.924V280.286
			L397.592,280.286z"/>
	</g>
</g>
</svg>
