<?xml version="1.0" encoding="utf-8"?>
<!-- Generator: Adobe Illustrator 15.1.0, SVG Export Plug-In . SVG Version: 6.00 Build 0)  -->
<!DOCTYPE svg PUBLIC "-//W3C//DTD SVG 1.1//EN" "http://www.w3.org/Graphics/SVG/1.1/DTD/svg11.dtd">
<svg version="1.1" id="Layer_1" xmlns="http://www.w3.org/2000/svg" xmlns:xlink="http://www.w3.org/1999/xlink" x="0px" y="0px"
	 width="268.555px" height="159.342px" viewBox="0 0 268.555 159.342" enable-background="new 0 0 268.555 159.342"
	 xml:space="preserve">
<path fill="#2E3C40" d="M14.656,35.187v0.57c0,4.162,1.572,6.165,4.655,6.165c3.01,0,4.799-1.573,4.799-4.229
	c0-4.659-3.51-5.016-9.098-7.521c-7.6-3.443-11.465-8.385-11.465-14.547C3.549,6.522,10.574,0,20.885,0
	c9.179,0,15.484,5.876,15.484,14.978v0.789H24.9c0-3.156-1.716-4.945-4.652-4.945c-2.294,0-3.943,1.576-3.943,3.803
	c0,3.792,3.729,4.582,10.248,7.948c6.949,3.583,10.321,8.099,10.321,14.19c0,8.885-7.311,16.193-16.773,16.193
	c-11.321,0-17.339-5.732-17.339-16.627v-1.143L14.656,35.187L14.656,35.187z"/>
<polygon fill="#2E3C40" points="44.167,51.956 44.167,12.827 34.703,12.827 34.703,1 66.312,1 66.312,12.827 56.635,12.827 
	56.635,51.956 "/>
<path fill="#2E3C40" d="M81.713,17.696l-5.086,16.34h10.102L81.713,17.696z M70.676,51.956H57.062L76.627,1h10.178l19.557,50.956
	H92.607l-2.513-7.385H73.258L70.676,51.956z"/>
<polygon fill="#2E3C40" points="104.925,51.956 104.925,1 116.173,1 134.879,29.308 134.879,1 147.35,1 147.35,51.956 
	136.385,51.956 117.396,23.582 117.396,51.956 "/>
<path fill="#2E3C40" d="M181.276,26.298c0-9.174-4.94-14.33-14.111-14.33h-4.949v28.811h5.019
	C176.761,40.778,181.276,36.329,181.276,26.298 M149.742,51.956V1h17.421c8.091,0,13.753,1.076,19.062,6.092
	c4.872,4.585,7.444,11.255,7.444,19.636c0,7.738-2.509,14.117-7.374,18.92c-5.449,5.303-10.248,6.309-17.417,6.309L149.742,51.956
	L149.742,51.956z"/>
<path fill="#2E3C40" d="M17.945,53.996v31.387c0,5.735,1.79,8.675,6.018,8.675c4.373,0,6.449-2.869,6.449-8.675V53.996h12.467v31.89
	c0,12.469-7.592,19.854-18.986,19.854c-11.544,0-18.492-7.098-18.492-19.854v-31.89H17.945z"/>
<path fill="#2E3C40" d="M59.301,77.505c6.166,0,9.175-1.576,9.175-6.166c0-4.229-2.647-5.945-8.171-5.945h-3.297v12.111H59.301z
	 M44.4,104.948V53.996h16.914c5.369,0,9.454,0.36,12.896,2.796c4.516,3.152,6.882,7.955,6.882,14.33
	c0,6.596-3.006,12.041-8.099,15.117c-3.228,1.939-7.238,2.297-12.546,2.297h-3.577v16.412H44.4z"/>
<polygon fill="#2E3C40" points="92.121,104.948 92.121,65.823 82.67,65.823 82.67,53.996 114.267,53.996 114.267,65.823 
	104.596,65.823 104.596,104.948 "/>
<path fill="#2E3C40" d="M134.949,93.271c7.312,0,13.26-5.875,13.26-14.188c0-7.455-5.948-13.401-13.117-13.401
	c-7.594,0-13.541,5.946-13.541,13.401C121.551,87.099,127.928,93.271,134.949,93.271 M116.459,60.515
	c5.02-4.939,11.324-7.448,18.562-7.448c6.812,0,13.253,2.649,18.201,7.521c5.164,5.092,7.883,11.61,7.883,18.56
	c0,7.312-2.576,13.833-7.379,18.779c-4.943,5.162-11.688,7.952-18.777,7.952c-7.525,0-13.977-2.724-18.986-8.021
	c-4.803-5.094-7.242-11.397-7.242-18.923C108.721,71.912,111.447,65.464,116.459,60.515"/>
<path fill="#2E3C40" d="M26.158,159.342c-7.522,0-13.901-2.79-18.917-8.103C2.436,146.16,0,139.849,0,132.323
	c0-7.021,2.655-13.471,7.744-18.412c5.013-4.945,11.319-7.525,18.557-7.525c11.896,0,22.078,7.809,25.375,20.35H38.198
	c-2.721-5.014-6.807-7.67-11.823-7.67c-7.597,0-13.548,5.877-13.548,13.336c0,8.096,6.312,14.33,13.332,14.33
	c4.802,0,9.032-2.58,11.754-7.312h13.543C48.09,151.815,38.418,159.342,26.158,159.342"/>
<path fill="#2E3C40" d="M68.986,124.081l-5.093,16.341h10.104L68.986,124.081z M57.944,158.339H44.327l19.564-50.949h10.171
	l19.57,50.949H79.87l-2.512-7.386H60.523L57.944,158.339z"/>
<polygon fill="#2E3C40" points="92.171,158.339 92.171,107.39 103.422,107.39 122.125,135.696 122.125,107.39 134.592,107.39 
	134.592,158.339 123.628,158.339 104.635,129.964 104.635,158.339 "/>
<path fill="#2E3C40" d="M160.438,159.342c-7.523,0-13.898-2.79-18.92-8.103c-4.803-5.079-7.238-11.391-7.238-18.916
	c0-7.021,2.646-13.471,7.742-18.412c5.014-4.945,11.32-7.525,18.561-7.525c11.895,0,22.071,7.809,25.369,20.35h-13.477
	c-2.727-5.014-6.809-7.67-11.824-7.67c-7.592,0-13.54,5.877-13.54,13.336c0,8.096,6.308,14.33,13.327,14.33
	c4.795,0,9.025-2.58,11.75-7.312h13.549C182.366,151.815,172.691,159.342,160.438,159.342"/>
<polygon fill="#2E3C40" points="186.436,158.339 186.436,107.39 214.104,107.39 214.104,118.64 198.906,118.64 198.906,126.882 
	214.104,126.882 214.104,138.202 198.906,138.202 198.906,147.087 214.104,147.087 214.104,158.339 "/>
<path fill="#2E3C40" d="M230.848,130.892c6.158,0,9.17-1.57,9.17-6.166c0-4.223-2.646-5.943-8.164-5.943h-3.445v12.109H230.848z
	 M215.936,158.339V107.39h16.92c5.369,0,9.455,0.361,12.896,2.795c4.52,3.149,6.879,7.955,6.879,14.258
	c0,8.242-4.295,14.404-11.535,16.41l12.473,17.486h-15.412l-9.746-16.406v16.406H215.936L215.936,158.339z"/>
<g>
	<path fill="#2E3C40" d="M262.555,106.021c1.521,0,2.865,0.519,4.033,1.555c1.312,1.154,1.967,2.654,1.967,4.494
		c0,1.478-0.502,2.8-1.504,3.968c-1.146,1.334-2.646,2-4.496,2c-1.916,0-3.443-0.705-4.578-2.116
		c-0.937-1.167-1.403-2.463-1.403-3.883c0-1.555,0.546-2.928,1.637-4.116C259.377,106.653,260.824,106.021,262.555,106.021z
		 M262.588,107.026c-1.234,0-2.342,0.42-3.322,1.257c-1.146,0.979-1.719,2.26-1.719,3.835c0,1.167,0.413,2.236,1.24,3.207
		c0.969,1.135,2.226,1.701,3.768,1.701c1.367,0,2.549-0.471,3.546-1.412s1.495-2.113,1.495-3.514c0-1.377-0.49-2.566-1.471-3.568
		C265.145,107.528,263.966,107.026,262.588,107.026z M261.68,115.259h-1.604v-6.645h2.609c0.76,0,1.339,0.076,1.735,0.23
		c0.628,0.241,0.997,0.698,1.105,1.371v0.247c0,0.476-0.136,0.868-0.403,1.185c-0.271,0.312-0.625,0.523-1.066,0.636l1.472,2.976
		l-1.8,0.008l-1.229-2.707l-0.82,0.006V115.259L261.68,115.259z M261.68,109.604v1.951c0.23,0,0.396,0,0.495,0
		c0.604,0,1.02-0.052,1.24-0.15c0.286-0.133,0.43-0.405,0.43-0.816c0-0.41-0.157-0.677-0.472-0.799
		C263.059,109.667,262.494,109.604,261.68,109.604z"/>
</g>
</svg>
