<?xml version="1.0" encoding="utf-8"?>
<!-- Generator: Adobe Illustrator 15.1.0, SVG Export Plug-In . SVG Version: 6.00 Build 0)  -->
<!DOCTYPE svg PUBLIC "-//W3C//DTD SVG 1.1//EN" "http://www.w3.org/Graphics/SVG/1.1/DTD/svg11.dtd">
<svg version="1.1" id="Layer_1" xmlns="http://www.w3.org/2000/svg" xmlns:xlink="http://www.w3.org/1999/xlink" x="0px" y="0px"
	 width="253.4px" height="241.863px" viewBox="0 0 253.4 241.863" enable-background="new 0 0 253.4 241.863" xml:space="preserve">
<g>
	<linearGradient id="SVGID_1_" gradientUnits="userSpaceOnUse" x1="126.7002" y1="148.082" x2="126.7002" y2="49.1147">
		<stop  offset="0" style="stop-color:#D1D2D3;stop-opacity:0"/>
		<stop  offset="1" style="stop-color:#BABBBF"/>
	</linearGradient>
	<path fill="url(#SVGID_1_)" d="M192.974,54.557L173.453,41.25L162.601,0.398L140.553,0l-5.298,4.246l-5.453-0.689l-13.278,13.887
		h-9.855L65.172,70.036l-10.444,1.009L0,150.865h253.4L192.974,54.557z M170.021,57.384l20.56,20.087l1.889,19.85l-20.564,7.799
		l2.609-4.959l-32.14,20.551l1.654-9.688l-4.49-6.145l23.866-45.85l1.185-0.701L170.021,57.384z M138.245,89.051l-6.947-0.392V84.42
		l-16.225,8.104l-10.034,5.79l-5.41-0.771l29.357-33.595l8.102-0.771l16.609-16.991l2.694,5.796L138.245,89.051z M123.364,45.634
		h8.495l-27.033,37.073l-16.223,2.319L76.248,96.608l-16.982-0.776l48.646-61.006l10.045-0.779l22.395-17.76h8.153L123.364,45.634z"
		/>
	<path fill="#D1D2D3" d="M76.924,208.27h-34.88v-83.344h33.478c16.271,0,25.758,9.131,25.758,23.412
		c0,9.248-6.092,15.215-10.303,17.203c5.032,2.348,11.47,7.613,11.47,18.734C102.446,199.848,91.792,208.27,76.924,208.27z
		 M74.236,139.441H58.309v19.195h15.928c6.904,0,10.769-3.861,10.769-9.596C85.005,143.299,81.141,139.441,74.236,139.441z
		 M75.287,173.275H58.309v20.479h16.979c7.371,0,10.886-4.68,10.886-10.297C86.173,177.838,82.658,173.275,75.287,173.275z"/>
	<path fill="#D1D2D3" d="M119.072,208.27v-83.344h16.268v83.344H119.072z"/>
	<path fill="#D1D2D3" d="M206.162,199.498c-6.438,6.555-14.166,9.477-23.527,9.477c-8.902,0-16.391-3.041-22.476-9.127
		c-3.633-3.637-5.854-7.846-6.792-12.525c-0.939-4.686-1.407-11.592-1.407-20.721c0-9.139,0.468-16.043,1.407-20.727
		c0.938-4.801,3.159-8.895,6.792-12.523c6.085-6.082,13.573-9.131,22.476-9.131c18.962,0,29.148,12.178,31.374,26.691h-16.397
		c-1.983-8.076-6.9-12.174-14.977-12.174c-4.33,0-7.852,1.521-10.422,4.449c-3.046,3.867-3.979,6.902-3.979,23.414
		c0,16.393,0.71,19.666,3.979,23.527c2.459,2.924,5.979,4.334,10.422,4.334c4.796,0,8.662-1.521,11.59-4.688
		c2.454-2.807,3.745-6.561,3.745-11.117v-3.16h-15.335v-13.584h31.485v12.178C214.12,186.268,211.896,193.406,206.162,199.498z"/>
	<path fill="#D1D2D3" d="M51.623,241.684h-9.579v-22.016h9.118c4.573,0,7.02,2.568,7.02,6.367c0,2.506-1.733,3.896-2.412,4.361
		c0.892,0.564,2.719,1.703,2.719,4.795C58.488,239.393,55.549,241.684,51.623,241.684z M50.82,224.523h-3.366v3.586h3.366
		c1.487,0,1.951-0.932,1.951-1.793C52.771,225.449,52.308,224.523,50.82,224.523z M51.1,232.967h-3.646v3.855H51.1
		c1.481,0,1.979-1.018,1.979-1.943C53.078,233.949,52.581,232.967,51.1,232.967z"/>
	<path fill="#D1D2D3" d="M82.222,239.393c-1.609,1.609-3.46,2.471-6.147,2.471c-2.693,0-4.545-0.861-6.158-2.471
		c-2.313-2.318-2.221-5.414-2.221-8.717c0-3.305-0.093-6.4,2.221-8.713c1.613-1.611,3.465-2.48,6.158-2.48
		c2.688,0,4.538,0.869,6.147,2.48c2.319,2.312,2.228,5.408,2.228,8.713C84.449,233.979,84.541,237.074,82.222,239.393z
		 M78.234,225.266c-0.404-0.531-1.176-0.961-2.16-0.961c-0.994,0-1.766,0.43-2.168,0.961c-0.497,0.654-0.799,1.393-0.799,5.41
		c0,4.023,0.302,4.729,0.799,5.377c0.402,0.529,1.174,0.986,2.168,0.986c0.984,0,1.756-0.457,2.16-0.986
		c0.496-0.648,0.803-1.354,0.803-5.377C79.037,226.658,78.73,225.92,78.234,225.266z"/>
	<path fill="#D1D2D3" d="M102.307,241.863c-4.57,0-8.312-3.092-8.312-7.914v-14.281h5.409v14.164c0,2.033,1.115,3.207,2.903,3.207
		c1.8,0,2.968-1.174,2.968-3.207v-14.164h5.409v14.281C110.684,238.771,106.893,241.863,102.307,241.863z"/>
	<path fill="#D1D2D3" d="M120.943,241.684v-22.016h5.41v17.193h9.243v4.822H120.943z"/>
	<path fill="#D1D2D3" d="M159.03,239.523c-1.521,1.506-3.651,2.16-5.943,2.16h-8.157v-22.016h8.157c2.292,0,4.423,0.656,5.943,2.172
		c2.559,2.561,2.279,5.369,2.279,8.836C161.31,234.141,161.589,236.957,159.03,239.523z M155.309,225.729
		c-0.488-0.744-1.229-1.24-2.593-1.24h-2.378v12.373h2.378c1.363,0,2.104-0.496,2.593-1.24c0.444-0.621,0.596-1.207,0.596-4.945
		C155.904,226.965,155.753,226.35,155.309,225.729z"/>
	<path fill="#D1D2D3" d="M171.224,241.684v-22.016h14.965v4.82h-9.551v3.684h8.166v4.822h-8.166v3.867h9.551v4.822H171.224z"/>
	<path fill="#D1D2D3" d="M207.331,241.684l-3.891-8.197h-1.833v8.197h-5.404v-22.016h8.712c4.892,0,7.512,3.463,7.512,7.072
		c0,3.012-1.855,4.885-3.582,5.762l4.761,9.182H207.331z M204.67,224.523h-3.062v4.447h3.062c1.48,0,2.354-1.078,2.354-2.23
		C207.023,225.6,206.15,224.523,204.67,224.523z"/>
</g>
</svg>
