<?xml version="1.0" encoding="utf-8"?>
<!-- Generator: Adobe Illustrator 15.1.0, SVG Export Plug-In . SVG Version: 6.00 Build 0)  -->
<!DOCTYPE svg PUBLIC "-//W3C//DTD SVG 1.1//EN" "http://www.w3.org/Graphics/SVG/1.1/DTD/svg11.dtd">
<svg version="1.1" id="Layer_1" xmlns="http://www.w3.org/2000/svg" xmlns:xlink="http://www.w3.org/1999/xlink" x="0px" y="0px"
	 width="254.16px" height="180.478px" viewBox="0 0 254.16 180.478" enable-background="new 0 0 254.16 180.478"
	 xml:space="preserve">
<g>
	<g id="_x23_ffffffff">
		<path id="path5" fill="#D1D2D3" d="M4.803,68.058c20.211,0,40.434,0.054,60.648-0.044c-1.656,9.36-3.307,18.722-4.982,28.083
			c-4.297,0.024-8.592-0.044-12.885,0.033c-0.168,14.503-0.154,29.014-0.148,43.527c-10.363-0.092-20.736,0.175-31.1-0.168
			c0.006-14.411,0.006-28.825,0-43.235C10.895,96.205,5.445,96.309,0,96.19C1.554,86.806,3.218,77.437,4.803,68.058z"/>
		<path id="path7" fill="#D1D2D3" d="M123.027,67.931c9.655,0.004,19.314-0.007,28.966,0.004
			c-0.304,23.73-0.074,47.473-0.129,71.199c-9.61,0.004-19.212-0.065-28.815,0.031C123.006,115.421,123.043,91.676,123.027,67.931z"
			/>
		<path id="path9" fill="#D1D2D3" d="M157.968,67.931c9.531,0,19.055-0.007,28.582,0.004c-0.006,11.489-0.006,22.978,0,34.473
			c4.955-3.093,9.477-7.809,10.26-13.831c8.909,0,17.814,0,26.722,0c-2.222,10.639-10.723,19.438-21.074,22.506
			c8.254,7.821,16.719,15.439,25.164,23.065c4.181-1.398,8.82-2.021,13.13-0.795c3.948,1.069,7.148,4.622,7.491,8.752
			c0.466,4.674-1.242,9.309-3.576,13.292c-4.019-3.547-8.188-6.93-12.186-10.503c-5.076,4.335-10.322,8.458-15.405,12.791
			c2.566,4.502,5.038,9.047,7.581,13.564c-4.416,1.65-9.418,2.355-13.945,0.716c-3.347-1.13-5.839-4.295-6.284-7.784
			c-0.711-4.451,0.97-8.815,2.933-12.723c-7.037-11.338-13.982-22.728-20.972-34.096c0.037,7.249,0.028,14.503,0.013,21.75
			c-9.47,0.048-18.943-0.006-28.416,0.025C157.951,115.401,157.972,91.666,157.968,67.931z"/>
		<path id="path11" fill="#D1D2D3" d="M72.418,88.277c5.131-1.399,10.479-1.78,15.778-1.68c5.972-0.114,12.155,0.382,17.649,2.918
			c5.327,2.367,9.447,7.363,10.578,13.105c0.658,3.378,0.816,6.839,0.764,10.279c-0.004,8.737,0.01,17.47-0.004,26.207
			c-9.521,0.074-19.04-0.038-28.554,0.059c-0.011-1.257-0.003-2.505,0-3.76c-5.094,3.188-11.286,4.935-17.286,3.801
			c-3.535-0.795-6.988-2.726-8.957-5.854c-3.014-4.55-2.953-10.917,0.082-15.447c2.023-3.021,5.307-4.968,8.723-6.05
			c5.684-1.755,11.822-1.431,17.535,0.033c-0.705-3.104-3.732-4.707-6.391-5.907c-1.871-0.653-3.754-1.785-5.799-1.382
			c-4.706,0.611-9.544,1.351-13.779,3.609c1.016-5.793,1.814-11.629,2.863-17.409C67.648,89.409,70.095,88.932,72.418,88.277
			 M78.678,125.593c1.615,3.771,6.909,4.228,9.952,1.962c-0.028-2.396-0.011-4.79,0.005-7.187c-2.164-0.718-4.535-1.221-6.771-0.512
			C79.35,120.354,77.58,123.156,78.678,125.593z"/>
		<path id="path13" fill="#D1D2D3" d="M233.843,152.636c6.767,2.396,13.531,4.768,20.317,7.098
			c-2.211,6.939-4.722,13.792-6.914,20.744c-6.836-2.299-13.626-4.734-20.431-7.11C229.146,166.458,231.438,159.526,233.843,152.636
			 M238.739,162.405c-1.861,0.83-3.139,2.962-2.689,5.001c0.37,2.509,3.208,4.458,5.658,3.547c2.373-0.705,3.94-3.601,2.888-5.918
			C243.834,162.719,240.98,161.39,238.739,162.405z"/>
	</g>
	<g id="_x23_ebcb1eff">
		<path id="path25" fill="#D1D2D3" d="M48.982,3.794C55.85,0.963,63.334-0.212,70.74,0.031c7.608-0.244,15.227,1.101,22.263,4.013
			c-2.246,8.229-4.955,16.344-7.444,24.507c-4.584-1.583-9.504-2.026-14.326-1.883c-3.418,0.295-7.319,1.377-9.17,4.537
			c-1.128,1.679-0.433,3.986,0.952,5.289c1.924,1.808,4.583,2.562,7.143,2.864c5.327,0.449,10.734-0.329,15.736-2.187
			c2.275,8.847,4.483,17.721,6.657,26.591c-8.364,2.748-17.182,4.116-25.975,3.803c-9.532-0.269-19.277-2.862-26.907-8.756
			c-6.226-4.666-10.68-11.726-11.911-19.429c-1.293-7.468,0.156-15.424,4.254-21.825C35.963,11.266,42.164,6.598,48.982,3.794z"/>
		<path id="path27" fill="#D1D2D3" d="M194.949,14.792c4.813-2.84,11.379-2.977,16.053,0.229c6.713,4.487,7.169,15.82,0.579,20.619
			c-6.127,4.448-15.244,3.368-20.449-2.036c-3.105,2.746-3.945,7.073-4.029,11.033c-0.021,7.056,0,14.117-0.008,21.172
			c-9.669,0.008-19.338,0.002-28.998,0.002c0.213-16.232,0.066-32.468,0.104-48.701c9.59-1.519,19.251-2.648,28.865-4.005
			c0.033,3.753,0.075,7.505-0.031,11.258C188.83,20.604,191.255,16.908,194.949,14.792z"/>
		<path id="path29" fill="#D1D2D3" d="M101.39,16.523c8.308-3.035,17.286-3.599,26.054-3.093c6.594,0.403,13.695,1.897,18.542,6.731
			c3.747,3.584,5.472,8.745,5.662,13.84c0.406,10.598,0.138,21.208,0.2,31.81c-9.66,0-19.318,0.006-28.973,0
			c-0.006-1.275,0.01-2.548,0.037-3.821c-4.871,2.971-10.695,4.841-16.439,4.04c-4.304-0.541-8.471-2.906-10.721-6.676
			c-2.586-4.584-2.426-10.7,0.709-14.988c1.789-2.488,4.42-4.262,7.27-5.333c6.15-2.296,12.934-2.012,19.232-0.464
			c-0.848-3.189-3.996-4.792-6.782-5.987c-1.843-0.664-3.722-1.602-5.738-1.252c-4.722,0.595-9.546,1.371-13.839,3.532
			c0.974-5.712,1.826-11.454,2.822-17.158C99.918,17.101,100.711,16.868,101.39,16.523 M114.497,47.149
			c-0.92,0.687-1.974,1.569-2.017,2.813c-0.449,2.409,1.43,4.807,3.747,5.314c2.258,0.653,4.739,0.198,6.661-1.133
			c-0.067-2.407,0.092-4.82-0.11-7.221C120.095,46.23,117.035,45.663,114.497,47.149z"/>
	</g>
</g>
</svg>
