<?xml version="1.0" encoding="utf-8"?>
<!-- Generator: Adobe Illustrator 15.1.0, SVG Export Plug-In . SVG Version: 6.00 Build 0)  -->
<!DOCTYPE svg PUBLIC "-//W3C//DTD SVG 1.1//EN" "http://www.w3.org/Graphics/SVG/1.1/DTD/svg11.dtd">
<svg version="1.1" id="Layer_1" xmlns="http://www.w3.org/2000/svg" xmlns:xlink="http://www.w3.org/1999/xlink" x="0px" y="0px"
	 width="276.844px" height="111.146px" viewBox="0 0 276.844 111.146" enable-background="new 0 0 276.844 111.146"
	 xml:space="preserve">
<g>
	<path fill="#D1D2D3" d="M34.328,13.364c-2.486-3.034-6.257-4.861-10.082-4.861c-8.566,0-13.482,7.9-13.482,15.803
		c0,7.711,5.104,15.422,13.42,15.422c3.83,0,7.658-2.006,10.145-4.858v10.629c-3.34,1.578-6.682,2.731-10.387,2.731
		c-12.878,0-22.413-11.11-22.413-23.749C1.528,11.479,10.699,0,24.125,0c3.582,0,7.101,0.976,10.203,2.679V13.364z"/>
	<path fill="#D1D2D3" d="M69.803,48.227c-13.97,0-22.652-10.682-22.652-24.173c0-13.599,8.99-24.051,22.652-24.051
		c13.67,0,22.658,10.452,22.658,24.051C92.461,37.545,83.771,48.227,69.803,48.227 M69.803,8.811
		c-8.438,0-13.424,7.474-13.424,14.884c0,7.042,3.525,15.728,13.424,15.728c9.904,0,13.43-8.686,13.43-15.728
		C83.232,16.284,78.246,8.811,69.803,8.811"/>
	<path fill="#D1D2D3" d="M105.956,1.219h12.751c13.242,0,22.105,9.904,22.105,22.96c0,12.878-9.109,22.839-22.164,22.839h-12.692
		V1.219z M114.881,39.241h1.461c10.992,0,15.24-6.074,15.24-15.125c0-9.96-5.104-15.122-15.24-15.122h-1.461V39.241z"/>
	<polygon fill="#D1D2D3" points="163.231,8.994 163.231,19.073 177.453,19.073 177.453,26.852 163.231,26.852 163.231,39.241 
		178,39.241 178,47.021 154.299,47.021 154.299,1.219 178,1.219 178,8.994 	"/>
	<path fill="#D1D2D3" d="M10.094,100.082l-4.643,10.2H0L19.424,67.88l19.422,42.402h-5.443l-4.643-10.2H10.094z M19.424,78.993
		l-7.229,16.456h14.457L19.424,78.993z"/>
	<polygon fill="#D1D2D3" points="57.25,83.419 57.133,83.419 52.389,110.282 47.156,110.282 55.467,67.88 69.439,99.924 
		83.418,67.88 91.722,110.282 86.494,110.282 81.746,83.419 81.633,83.419 69.439,111.146 	"/>
	<polygon fill="#D1D2D3" points="104.355,69.607 126.199,69.607 126.199,74.247 109.424,74.247 109.424,85.629 125.715,85.629 
		125.715,90.265 109.424,90.265 109.424,105.642 126.199,105.642 126.199,110.279 104.355,110.279 	"/>
	<path fill="#D1D2D3" d="M165.859,110.279h-6.148l-11.98-17.208h-2.102v17.208h-5.072V69.607h6.15c3.613,0,7.5,0.051,10.738,1.89
		c3.393,1.995,5.338,5.824,5.338,9.709c0,5.827-3.884,10.678-9.765,11.381L165.859,110.279z M145.629,88.87h1.621
		c5.178,0,10.785-0.977,10.785-7.446c0-6.365-6.039-7.291-11.059-7.291h-1.348V88.87z"/>
	<rect x="177.781" y="69.611" fill="#D1D2D3" width="5.072" height="40.671"/>
	<path fill="#D1D2D3" d="M228.176,77.377c-2.91-2.595-6.904-3.989-10.738-3.989c-9.113,0-16.068,7.604-16.068,16.613
		c0,8.9,6.906,16.508,15.961,16.508c3.998,0,7.826-1.513,10.846-4.207v5.985c-3.125,1.84-7.121,2.859-10.678,2.859
		c-11.604,0-21.2-9.221-21.2-20.984c0-12.032,9.653-21.419,21.63-21.419c3.555,0,7.172,0.864,10.248,2.754V77.377z"/>
	<path fill="#D1D2D3" d="M248.09,100.082l-4.643,10.2h-5.449l19.424-42.402l19.422,42.402H271.4l-4.65-10.2H248.09z M257.422,78.993
		l-7.223,16.456h14.456L257.422,78.993z"/>
	<path fill="#D1D2D3" d="M215.068,29.4c-1.398,2.266-2.793,4.702-4.178,7.312c-1.385,2.607-2.858,5.196-4.426,7.767
		c-1.564,2.576-3.237,5.048-5.014,7.421c-1.785,2.374-3.755,4.469-5.919,6.284c-2.149,1.815-4.53,3.263-7.142,4.345
		c-2.609,1.081-5.512,1.619-8.713,1.619c-1.086,0-2.23-0.115-3.456-0.346c-1.22-0.241-2.331-0.627-3.343-1.161
		c-1.01-0.548-1.844-1.265-2.51-2.163c-0.672-0.901-0.998-2.033-0.998-3.394c0-1.051,0.225-1.965,0.672-2.754
		c0.448-0.792,1.045-1.461,1.781-2.001c0.736-0.534,1.575-0.951,2.51-1.243c0.936-0.283,1.888-0.426,2.863-0.426
		c0.504,0,0.958,0.013,1.367,0.053c0.416,0.037,0.783,0.09,1.113,0.161v0.433c-1.73,0.108-3.121,0.718-4.189,1.833
		c-1.057,1.115-1.586,2.539-1.586,4.268c0,1.865,0.523,3.35,1.566,4.443c1.046,1.104,2.729,1.65,5.066,1.65
		c2.125,0,4.161-0.587,6.096-1.756c1.951-1.165,3.805-2.704,5.59-4.611c1.784-1.908,3.469-4.078,5.07-6.505s3.127-4.91,4.588-7.443
		c1.455-2.536,2.85-5.01,4.178-7.421c1.336-2.405,2.596-4.537,3.777-6.364h-5.176l0.533-0.971h5.297
		c1.037-1.8,2.273-3.778,3.691-5.936c1.426-2.163,3.018-4.174,4.805-6.044c1.777-1.868,3.729-3.438,5.855-4.69
		c2.119-1.265,4.389-1.896,6.797-1.896c0.756,0,1.482,0.093,2.184,0.273c0.703,0.181,1.33,0.451,1.891,0.814
		c0.555,0.354,1.008,0.814,1.348,1.373c0.342,0.554,0.517,1.213,0.517,1.968c0,1.296-0.47,2.266-1.405,2.915
		c-0.935,0.644-2.039,0.973-3.294,0.973c-0.288,0-0.614-0.037-0.97-0.111c0.324-0.653,0.591-1.33,0.808-2.049
		c0.212-0.717,0.323-1.5,0.323-2.327c0-1.038-0.217-1.827-0.645-2.368c-0.43-0.541-1.01-0.808-1.729-0.808
		c-0.898,0-1.854,0.345-2.859,1.05c-1.008,0.696-1.996,1.609-2.965,2.726c-0.977,1.115-1.939,2.359-2.891,3.724
		c-0.958,1.367-1.824,2.713-2.617,4.049c-0.789,1.323-1.498,2.555-2.135,3.691c-0.625,1.135-1.134,2.021-1.531,2.673h13.922
		l-0.596,0.971H215.068z"/>
	<path fill="#D1D2D3" d="M249.98,33.446c-0.719,0.933-1.577,1.783-2.56,2.535c-0.989,0.759-2.079,1.138-3.271,1.138
		c-0.82,0-1.544-0.181-2.156-0.547c-0.609-0.354-1.168-0.857-1.674-1.507c-0.428,1.799-1.141,3.502-2.13,5.093
		c-0.989,1.604-2.182,3.012-3.587,4.215c-1.404,1.206-2.965,2.156-4.692,2.858c-1.729,0.699-3.532,1.051-5.396,1.051
		c-1.982,0-3.562-0.565-4.744-1.697c-1.191-1.137-1.787-2.685-1.787-4.668c0-1.91,0.484-3.734,1.453-5.475
		c0.977-1.75,2.232-3.275,3.781-4.588c1.547-1.311,3.248-2.355,5.127-3.126c1.869-0.773,3.703-1.163,5.5-1.163
		c1.943,0,3.474,0.52,4.588,1.566c1.111,1.042,1.803,2.3,2.05,3.773c0.181,1.082,0.584,1.945,1.218,2.592
		c0.625,0.646,1.449,0.976,2.449,0.976c0.976,0,1.891-0.292,2.754-0.87c0.863-0.572,1.783-1.436,2.752-2.586L249.98,33.446z
		 M227.592,46.717c0.896-0.606,1.76-1.402,2.58-2.368c0.833-0.977,1.598-2.073,2.299-3.292c0.701-1.225,1.307-2.445,1.836-3.671
		c0.521-1.224,0.926-2.393,1.213-3.508c0.283-1.109,0.433-2.048,0.433-2.807c0-0.897-0.187-1.597-0.567-2.1
		c-0.376-0.505-0.98-0.756-1.807-0.756c-0.9,0-1.803,0.302-2.697,0.916c-0.902,0.609-1.766,1.399-2.592,2.372
		c-0.826,0.966-1.592,2.066-2.291,3.291c-0.705,1.225-1.32,2.449-1.837,3.667c-0.521,1.225-0.925,2.399-1.212,3.512
		c-0.291,1.113-0.432,2.051-0.432,2.803c0,0.902,0.188,1.604,0.562,2.104c0.379,0.507,0.982,0.761,1.81,0.761
		C225.791,47.642,226.686,47.331,227.592,46.717"/>
	<path fill="#D1D2D3" d="M239.297,47.421c1.83-3.166,3.697-6.311,5.588-9.447c1.883-3.123,3.76-6.312,5.637-9.547l6.148-0.215
		l-7.124,10.035l0.11,0.106c1.369-1.685,2.58-3.046,3.637-4.068c1.064-1.025,1.988-1.864,2.779-2.511
		c0.796-0.646,1.461-1.144,2.002-1.489c0.539-0.333,0.938-0.63,1.186-0.885c0.393-0.398,0.766-0.712,1.107-0.942
		c0.342-0.232,0.746-0.416,1.215-0.547c0.463-0.118,1.029-0.202,1.697-0.239c0.668-0.03,1.501-0.071,2.508-0.106
		c-0.678,0.971-1.311,1.99-1.889,3.046c-0.574,1.063-0.857,2.204-0.857,3.432c0,1.545,0.77,2.315,2.316,2.315
		c0.504,0,0.996-0.104,1.479-0.326c0.492-0.212,0.952-0.485,1.38-0.803c0.43-0.326,0.846-0.677,1.243-1.05
		c0.398-0.38,0.755-0.73,1.076-1.057l0.214,0.273c-1.004,1.256-2.191,2.281-3.559,3.076c-1.365,0.79-2.857,1.182-4.48,1.182
		c-1.436,0-2.567-0.38-3.395-1.135c-0.833-0.755-1.242-1.867-1.242-3.341c0-0.938,0.267-1.818,0.807-2.65l-0.107-0.106
		c-1.507,1.01-2.951,2.179-4.312,3.509c-1.374,1.33-2.634,2.738-3.81,4.208c-1.168,1.479-2.249,2.999-3.231,4.562
		c-0.989,1.561-1.884,3.083-2.673,4.561L239.297,47.421z"/>
</g>
</svg>
