<?xml version="1.0" encoding="utf-8"?>
<!-- Generator: Adobe Illustrator 15.1.0, SVG Export Plug-In . SVG Version: 6.00 Build 0)  -->
<!DOCTYPE svg PUBLIC "-//W3C//DTD SVG 1.1//EN" "http://www.w3.org/Graphics/SVG/1.1/DTD/svg11.dtd">
<svg version="1.1" id="Layer_1" xmlns="http://www.w3.org/2000/svg" xmlns:xlink="http://www.w3.org/1999/xlink" x="0px" y="0px"
	 width="285.012px" height="188.574px" viewBox="0 0 285.012 188.574" enable-background="new 0 0 285.012 188.574"
	 xml:space="preserve">
<g>
	<path fill="#D1D2D3" d="M276.07,31.764L149.004,0.68c-3.706-0.906-9.301-0.906-13.014,0L8.939,31.764
		C3.927,32.99,0,37.994,0,43.156v102.141c0,5.166,3.927,10.17,8.936,11.397l127.055,31.193c3.713,0.916,9.309,0.916,13.02,0
		l127.068-31.193c5.01-1.228,8.934-6.239,8.934-11.397V43.156C285.012,37.994,281.086,32.99,276.07,31.764z M281.302,145.296
		c0,3.469-2.739,6.965-6.11,7.793l-127.07,31.2c-3.096,0.761-8.143,0.761-11.248,0l-127.055-31.2
		c-3.366-0.821-6.11-4.317-6.11-7.793V43.156c0-3.469,2.744-6.965,6.11-7.786L136.873,4.285c3.102-0.761,8.15-0.761,11.248,0
		L275.189,35.37c3.37,0.821,6.112,4.317,6.112,7.786V145.296z"/>
	<g>
		<path fill="#D1D2D3" d="M96.562,82.448h-3.334v10.855h3.102c3.334,0,4.573-1.128,4.573-4.229V86.82
			C100.903,83.789,99.664,82.448,96.562,82.448z"/>
		<polygon fill="#D1D2D3" points="86.488,35.777 83.814,52.626 88.652,52.266 		"/>
		<polygon fill="#D1D2D3" points="94.683,148.568 99.592,149.281 97.174,132.993 		"/>
		<path fill="#D1D2D3" d="M246.379,146.396c-0.843,0.129-0.843,1.311-0.843,1.948v0.075c0,0.448,0,1.283,0.368,1.562
			c0.115,0.087,0.264,0.114,0.446,0.081c0.847-0.17,0.847-1.385,0.847-2.037c0-0.435,0-1.235-0.361-1.527
			C246.719,146.403,246.568,146.369,246.379,146.396z"/>
		<path fill="#D1D2D3" d="M128.02,133.016l-2.74-0.116v11.812l2.551,0.258c2.744,0.285,3.762-0.882,3.762-4.365v-2.535
			C131.592,134.666,130.574,133.118,128.02,133.016z"/>
		<path fill="#D1D2D3" d="M241.83,147.094c-0.842,0.13-0.842,1.394-0.842,2.071v0.074c0,0.482,0,1.379,0.376,1.678
			c0.116,0.088,0.257,0.115,0.435,0.074c0.846-0.176,0.846-1.466,0.846-2.159c0-0.468,0-1.329-0.365-1.635
			C242.158,147.102,242.014,147.068,241.83,147.094z"/>
		<path fill="#D1D2D3" d="M204.178,41.996v-1.97c0-2.637-1.01-3.872-3.194-4.477l-2.448-0.604V45.03l2.279,0.257
			C203.268,45.573,204.178,44.691,204.178,41.996z"/>
		<polygon fill="#D1D2D3" points="172.828,32.369 170.604,49.808 174.99,50.141 		"/>
		<path fill="#D1D2D3" d="M215.477,86.82c0-3.031-1.238-4.372-4.342-4.372h-3.333v10.855h3.103c3.334,0,4.572-1.128,4.572-4.229
			V86.82z"/>
		<path fill="#D1D2D3" d="M274.752,37.168L147.68,6.084c-2.807-0.686-7.557-0.686-10.365,0L10.26,37.168
			c-2.545,0.625-4.697,3.363-4.697,5.987v102.141c0,2.627,2.152,5.37,4.697,5.994l127.055,31.193c2.814,0.692,7.559,0.692,10.365,0
			l127.072-31.193c2.545-0.624,4.695-3.367,4.695-5.994V43.156C279.447,40.532,277.297,37.793,274.752,37.168z M224.78,33.951
			l3.595,12.6l5.413-10.292l8.364,2.044l-9.9,15.804v11.086h-7.699V53.566l-8.967-21.761L224.78,33.951z M210.672,100.423h-2.87
			v15.295h-10.468V75.116h15.662c8.764,0,12.795,3.246,12.795,10.506v2.04c0,4.725-1.705,8.108-6.356,9.308
			c4.806,1.479,6.435,5.638,6.435,10.358v2.82c0,1.904,0.078,3.877,1.16,5.57h-10.618c-0.7-2.117-1.009-3.455-1.009-5.783v-3.1
			C215.402,102.467,213.928,100.423,210.672,100.423z M190.418,25.621l11.359,2.801c6.377,1.738,9.891,6.059,9.891,12.101v1.697
			c0,3.93-1.162,6.245-4.58,6.925c3.535,1.58,6.008,5.145,6.008,9.069v2.349c0,1.581,0.392,3.492,1.67,4.63h-8.623
			c-0.771-1.372-1.234-3.007-1.234-5.034v-2.701c0-3.806-1.867-5.673-4.266-5.859l-2.107-0.166v13.761h-8.117V25.621z
			 M188.09,90.763v8.106h-11.555v8.601h14.109v8.248h-24.578V75.116h23.959v8.038h-13.49v7.609H188.09z M167.268,19.988l11.82,2.891
			l6.395,42.313h-8.781l-0.91-7.353l-6.043-0.224l-0.971,7.576h-9.263L167.268,19.988z M128.967,35.084
			c0-12.002,2.781-19.747,12.826-19.747c7.143,0,12.039,3.403,12.039,14.385v2.383H145.1c0-3.32,0.266-7.236-3.236-7.236
			c-2.514,0-3.639,2.215-3.639,6.045v19.744c0,3.747,1.189,5.791,3.705,5.791c2.315,0,3.436-1.619,3.436-4.088v-4.596h-2.764v-8.143
			h11.424c0,0,0,9.165,0,25.508h-4.692l-1.192-1.703c-1.52,1.789-3.768,2.552-6.937,2.552c-10.122,0-12.237-8.001-12.237-19.747
			V35.084z M105.547,22.885l10.055-2.396v35.478l9.318-0.143v9.184l-19.373,0.068V22.885z M44.422,48.431
			c0-6.897,2.264-11.867,12.203-13.972c7.797-1.655,12.654,0.089,12.654,7.902v2.04l-9.572,1.109c0-2.151,0.312-5.641-3.021-5.07
			c-2.328,0.399-3.332,1.859-3.332,4.328v11.516c0,2.213,1.135,3.503,3.271,3.414c3.52-0.142,3.082-4.85,3.082-6.781l9.762-0.719
			v1.981c0,8.622-5.297,11.568-12.844,11.568c-10.189,0-12.203-4.583-12.203-11.626V48.431z M25.664,52.219l1.867-5.757l1.869,5.757
			h6.049l-4.895,3.557l1.869,5.75l-4.893-3.558l-4.895,3.558l1.869-5.75l-4.896-3.557H25.664z M41.819,99.507H30.969v16.211H20.422
			V75.116h23.652v8.038H30.891v8.388h10.929V99.507z M52.824,75.116h15.293l8.84,40.603H66.412l-1.24-7.264h-9.553l-1.322,7.264
			H43.912L52.824,75.116z M78.523,158.908l-8.666-2.105v-23.111l-5.242,21.836l-7.486-1.84l-4.961-21.36v20.104l-7.301-1.772
			v-25.735H57.17l4.207,18.825l4.209-18.825l12.938,0.071V158.908z M72.463,65.184l7.264-35.901l13.789-3.373l7.154,39.188
			L90.541,65.13l-1.004-6.341l-6.668,0.259l-1.071,6.109L72.463,65.184z M101.646,164.617l-1.162-8.052l-6.76-1.263l-1.238,7.067
			l-8.545-2.098l7.488-35.349h12.131l7.488,42.001L101.646,164.617z M101.838,115.718c-0.701-2.117-1.013-3.455-1.013-5.783v-3.1
			c0-4.368-1.474-6.412-4.728-6.412h-2.869v15.295H82.762V75.116h15.662c8.758,0,12.791,3.246,12.791,10.506v2.04
			c0,4.725-1.707,8.108-6.357,9.308c4.807,1.479,6.436,5.638,6.436,10.358v2.82c0,1.904,0.078,3.877,1.166,5.57H101.838z
			 M132.133,172.104c-0.844-1.582-0.604-5.458-0.604-8.072v-3.481c0-4.908-1.211-7.379-3.889-7.76l-2.361-0.332v17.949l-8.609-2.153
			v-43.331h13.479c7.207,0,10.523,3.803,10.523,12.301v2.396c0,5.525-1.406,9.328-5.23,10.251c3.957,2.207,5.295,7.257,5.295,12.783
			v3.306c0,2.233-0.68,6.599,0.918,8.479L132.133,172.104z M142.731,115.718h-8.604l-5.893-29.252v29.252h-9.383V75.116h14.579
			l5.116,25.798l5.113-25.798h14.576v40.603h-9.383V86.4L142.731,115.718z M168.531,168.254l-9.755-19.53v21.954l-9.522,2.315
			v-48.07h9.522v17.284l0.067-0.007l8.188-17.277h10.107l-10.373,19.729l11.9,21.118L168.531,168.254z M212.859,157.373
			l-29.418,7.236v-39.686h23.27v6.803l-13.652,0.916l0.066,6.959l10.176-0.923v6.937l-10.176,1.406v7.508l19.789-3.673
			L212.859,157.373z M231.56,152.878l-9.22,2.166v-23.896l-10.303,0.569v-6.795l27.004-0.007v5.333l-7.481,0.448V152.878z
			 M238.947,152.349l-3.434,0.768v-0.122l0.023-0.802l0.447-0.569l1.637-2.199c0.207-0.319,0.336-0.599,0.336-0.999
			c0-0.244-0.061-0.421-0.18-0.516c-0.119-0.102-0.287-0.129-0.52-0.095c-0.432,0.074-0.723,0.476-0.695,0.957l0.006,0.096
			l-0.98,0.169v-0.115c-0.011-1.02,0.666-1.84,1.64-1.982c0.532-0.082,0.974,0.014,1.282,0.271c0.279,0.237,0.424,0.584,0.424,1.012
			c0,0.665-0.18,1.005-0.552,1.574c-0.39,0.612-1.128,1.555-1.614,2.146c0.412-0.088,2.18-0.462,2.18-0.462V152.349z
			 M239.621,144.611l-3.752,0.481v-5.804l3.59-0.122l0.104-0.007v0.787c0,0-2.441,0.108-2.623,0.115c0,0.17,0,1.379,0,1.562
			c0.199-0.013,2.438-0.177,2.438-0.177v0.787c0,0-2.262,0.191-2.438,0.204c0,0.163,0,1.507,0,1.696
			c0.207-0.019,2.682-0.312,2.682-0.312V144.611z M241.834,151.828c-0.452,0.102-0.824,0.039-1.117-0.191
			c-0.468-0.359-0.706-1.126-0.706-2.273c0-1.859,0.622-2.934,1.796-3.109c0.455-0.061,0.832,0.027,1.124,0.266
			c0.456,0.38,0.69,1.126,0.69,2.212C243.621,150.502,243.004,151.576,241.834,151.828z M242.554,144.346
			c-0.784,0.108-1.356,0.007-1.7-0.299c-0.422-0.374-0.4-0.951-0.393-1.194l0.005-0.096l1.054-0.102v0.258
			c0,0.224,0.07,0.394,0.202,0.509c0.173,0.149,0.466,0.211,0.821,0.17c0.506-0.054,1.113-0.245,1.113-0.822
			c0-0.42-0.58-0.597-1.25-0.794c-0.838-0.258-1.785-0.55-1.785-1.459c0-0.91,0.818-1.521,2.088-1.561
			c0.771-0.021,1.324,0.129,1.646,0.447c0.244,0.238,0.355,0.577,0.332,1.005l-0.004,0.087l-1.102,0.062v-0.108
			c0.002-0.259-0.054-0.442-0.178-0.557c-0.145-0.137-0.394-0.197-0.756-0.185c-0.221,0.015-0.939,0.089-0.939,0.686
			c0,0.442,0.586,0.619,1.265,0.829c0.832,0.251,1.772,0.536,1.772,1.426C244.746,143.565,243.967,144.169,242.554,144.346z
			 M246.381,150.856c-0.457,0.095-0.84,0.034-1.135-0.189c-0.455-0.347-0.688-1.065-0.688-2.133c0-1.751,0.621-2.769,1.796-2.933
			c0.466-0.067,0.851,0.021,1.147,0.259c0.445,0.359,0.668,1.06,0.668,2.063C248.17,149.593,247.553,150.612,246.381,150.856z
			 M248.174,143.559l-1.07,0.128c0,0,0-3.862,0-4.06c-0.188,0.007-1.779,0.075-1.779,0.075v-0.727l4.523-0.136h0.109v0.673
			c0,0-1.607,0.061-1.783,0.066C248.174,139.763,248.174,143.559,248.174,143.559z M250.701,142.452l0.117-0.014v0.808l-1.087,0.129
			v-0.82L250.701,142.452z M252.92,148.44c0,0-0.604,0.114-0.741,0.142c0,0.137,0,0.978,0,0.978l-0.868,0.177c0,0,0-0.814,0-0.99
			c-0.215,0.039-2.311,0.44-2.311,0.44v-0.115l0.016-0.76c0,0,2.158-3.253,2.234-3.3l0.814-0.108l0.114-0.015c0,0,0,2.777,0,2.98
			c0.167-0.027,0.741-0.135,0.741-0.135V148.44z M244.962,116.421c-9.073,0-14.035-3.385-14.035-11.982v-2.043h9.772
			c0,3.242-0.156,6.622,4.572,6.622c2.561,0,3.955-1.267,3.955-3.522v-1.338c0-2.96-3.334-4.372-8.684-6.416
			c-6.512-2.463-9.072-5.498-9.072-12.049c0-7.896,4.732-11.208,12.949-11.208c9.381,0,14.109,3.591,14.109,10.149v2.75h-9.537
			c0-2.821-0.23-5.5-4.107-5.5c-2.246,0-3.49,0.988-3.49,3.035v1.123c0,1.976,2.717,3.662,7.598,5.355
			c7.369,2.537,10.469,5.924,10.469,13.181C259.461,113.533,253.879,116.421,244.962,116.421z M255.016,55.776l1.871,5.75
			l-4.895-3.558l-4.895,3.558l1.871-5.75l-4.895-3.557h6.047l1.871-5.757l1.869,5.757h6.049L255.016,55.776z M272.986,83.121
			c0,2.685-2.932,6.809-6.311,8.617l-1.781-2.061c1.592-1.126,2.803-3.062,3.567-6.058h-3.313v-8.935h7.838V83.121z"/>
		<polygon fill="#D1D2D3" points="60.373,82.489 56.781,100.914 64.088,100.914 		"/>
		<path fill="#D1D2D3" d="M251.311,148.025c0-0.136,0-1.487,0-1.935c-0.258,0.394-1.252,1.914-1.436,2.192
			C250.193,148.228,251.174,148.052,251.311,148.025z"/>
	</g>
</g>
</svg>
