<?xml version="1.0" encoding="utf-8"?>
<!-- Generator: Adobe Illustrator 15.1.0, SVG Export Plug-In . SVG Version: 6.00 Build 0)  -->
<!DOCTYPE svg PUBLIC "-//W3C//DTD SVG 1.1//EN" "http://www.w3.org/Graphics/SVG/1.1/DTD/svg11.dtd">
<svg version="1.1" id="Layer_1" xmlns="http://www.w3.org/2000/svg" xmlns:xlink="http://www.w3.org/1999/xlink" x="0px" y="0px"
	 width="389.384px" height="173.126px" viewBox="0 0 389.384 173.126" enable-background="new 0 0 389.384 173.126"
	 xml:space="preserve">
<g>
	<path fill="#D1D2D3" d="M172.842,58.987c0-1.265,1.007-1.896,2.698-1.896h1.131c1.691,0,2.702,0.631,2.702,1.896V67.1
		c0,1.26-1.011,1.893-2.702,1.893h-1.131c-1.691,0-2.698-0.633-2.698-1.893V58.987z M175.541,71.812h1.131
		c4.561,0,6.123-1.989,6.123-4.104v-9.328c0-2.12-1.562-4.108-6.123-4.108h-1.131c-4.562,0-6.123,1.988-6.123,4.108v9.328
		C169.417,69.823,170.979,71.812,175.541,71.812"/>
	<path fill="#D1D2D3" d="M161.384,54.275v-0.003h-0.942c-4.563,0-6.121,1.988-6.121,4.108v9.322c0,2.12,1.558,4.109,6.121,4.109
		h0.89h0.016h0.037v-0.002c4.521-0.018,5.871-1.994,5.871-4.107v-2.191h-3.301V67.1c0,1.26-0.882,1.893-2.57,1.893h-0.942
		c-1.687,0-2.694-0.633-2.694-1.893v-8.112c0-1.263,1.008-1.896,2.694-1.896h0.942v0.006c1.688,0,2.57,0.627,2.57,1.89v0.007v1.227
		h3.301v-1.84C167.255,56.273,165.905,54.291,161.384,54.275"/>
	<polygon fill="#D1D2D3" points="215.091,54.474 215.091,57.296 216.832,57.296 216.832,68.788 215.091,68.788 215.091,71.61 
		228.732,71.61 228.732,65.839 225.91,65.839 225.91,68.788 220.236,68.788 220.236,64.535 224.822,64.535 224.822,61.689 
		220.236,61.689 220.236,57.296 225.91,57.296 225.91,60.245 228.732,60.245 228.732,54.474 	"/>
	<polygon fill="#D1D2D3" points="245.539,54.474 245.539,57.296 247.281,57.296 247.281,68.788 245.539,68.788 245.539,71.61 
		259.179,71.61 259.179,65.839 256.355,65.839 256.355,68.788 250.677,68.788 250.677,64.535 255.267,64.535 255.267,61.689 
		250.677,61.689 250.677,57.296 256.355,57.296 256.355,60.245 259.179,60.245 259.179,54.474 	"/>
	<polygon fill="#D1D2D3" points="195.398,65.761 195.398,68.765 195.398,68.788 189.86,68.788 189.86,57.296 191.599,57.296 
		191.599,54.474 184.718,54.474 184.718,57.296 186.458,57.296 186.458,68.788 184.718,68.788 184.718,71.613 198.22,71.613 
		198.22,65.761 	"/>
	<polygon fill="#D1D2D3" points="210.402,65.761 210.402,68.765 210.402,68.788 204.857,68.788 204.857,57.296 206.601,57.296 
		206.601,54.474 199.718,54.474 199.718,57.296 201.455,57.296 201.455,68.788 199.718,68.788 199.718,71.613 213.222,71.613 
		213.222,65.761 	"/>
	<path fill="#D1D2D3" d="M237.72,54.272h-0.941c-4.559,0-6.125,1.988-6.125,4.108v9.322c0,2.12,1.566,4.109,6.125,4.109h0.941
		c4.561,0,5.918-1.989,5.918-4.109v-2.156v-0.11v-2.819h-6.104v2.819h2.805v1.687c0,1.236-0.879,1.869-2.566,1.869h-0.994
		c-1.688,0-2.697-0.633-2.697-1.891v-8.114c0-1.263,1.01-1.896,2.697-1.896h0.992v0.006c1.688,0,2.568,0.627,2.568,1.89v1.032h3.299
		v-1.639C243.638,56.261,242.281,54.272,237.72,54.272"/>
	<path fill="#D1D2D3" d="M284.357,58.987c0-1.265,1.006-1.896,2.695-1.896h1.133c1.689,0,2.699,0.631,2.699,1.896v8.11
		c0,1.262-1.01,1.895-2.699,1.895h-1.133c-1.689,0-2.695-0.633-2.695-1.895V58.987z M287.052,71.812h1.133
		c4.562,0,6.125-1.989,6.125-4.104v-9.328c0-2.12-1.562-4.108-6.125-4.108h-1.133c-4.562,0-6.123,1.988-6.123,4.108v9.328
		C280.929,69.823,282.49,71.812,287.052,71.812"/>
	<path fill="#D1D2D3" d="M299.701,58.987c0-1.265,1.008-1.896,2.699-1.896h1.131c1.688,0,2.695,0.631,2.695,1.896v8.11
		c0,1.262-1.008,1.895-2.695,1.895H302.4c-1.691,0-2.699-0.633-2.699-1.895V58.987z M302.4,71.812h1.131
		c4.564,0,6.125-1.989,6.125-4.104v-9.328c0-2.12-1.561-4.108-6.125-4.108H302.4c-4.564,0-6.125,1.988-6.125,4.108v9.328
		C296.275,69.823,297.835,71.812,302.4,71.812"/>
	<polygon fill="#D1D2D3" points="371.544,65.761 371.544,68.765 371.544,68.791 366.005,68.791 366.005,57.296 367.742,57.296 
		367.742,54.474 360.863,54.474 360.863,57.296 362.599,57.296 362.599,68.791 360.863,68.791 360.863,71.613 374.365,71.613 
		374.365,65.761 	"/>
	<polygon fill="#D1D2D3" points="375.761,54.474 375.761,57.296 377.501,57.296 377.501,68.791 375.761,68.791 375.761,71.613 
		389.263,71.613 389.263,65.761 386.443,65.761 386.443,68.765 386.443,68.791 380.898,68.791 380.898,57.296 382.638,57.296 
		382.638,54.474 	"/>
	<path fill="#D1D2D3" d="M338.378,66.927c0,1.259-0.43,1.864-2.117,1.864h-3.686v-4.639h3.686c1.688,0,2.117,0.656,2.117,1.737
		V66.927z M332.576,57.296h2.906c1.688,0,2.084,0.353,2.084,1.614v0.777c0,1.291-0.396,1.893-2.01,1.893h-2.98V57.296z
		 M339.06,62.591c1.311-0.606,1.889-1.591,1.889-2.827V58.28c0-2.12-0.904-3.807-5.467-3.807h-8.047v2.822h1.738v11.495h-1.738
		v2.822h8.826c4.562,0,5.469-1.864,5.469-3.982v-1.992C341.73,64.251,340.771,63.191,339.06,62.591"/>
	<polygon fill="#D1D2D3" points="311.082,54.474 311.082,60.245 313.906,60.245 313.906,57.296 317.056,57.296 317.056,68.791 
		315.31,68.791 315.31,71.613 322.193,71.613 322.193,68.791 320.457,68.791 320.457,57.296 323.607,57.296 323.607,60.245 
		326.429,60.245 326.429,54.474 	"/>
	<path fill="#D1D2D3" d="M348.853,64.103c1.037-3.103,2.031-6.124,2.059-6.277c0.01,0.153,0.998,3.175,2.023,6.277H348.853z
		 M357.871,68.791l-5.217-14.317h-3.338l-5.238,14.317h-1.406v2.822h6.246v-2.822h-1.629c0.195-0.59,0.424-1.268,0.662-1.993h5.875
		c0.24,0.726,0.467,1.403,0.662,1.993h-1.633v2.822h6.246v-2.822H357.871z"/>
	<polygon fill="#D1D2D3" points="273.105,68.788 270.962,68.788 270.962,64.535 271.699,64.535 275.55,64.535 275.55,61.689 
		270.962,61.689 270.962,57.293 276.64,57.293 276.64,60.242 279.462,60.242 279.462,54.474 265.822,54.474 265.822,57.293 
		267.556,57.293 267.556,68.788 265.822,68.788 265.822,71.61 273.105,71.61 	"/>
	<path fill="#D1D2D3" d="M299.279,90.084c0-2.826,2.262-4.239,6.053-4.239h2.539c3.785,0,6.047,1.413,6.047,4.239v18.2
		c0,2.825-2.262,4.237-6.047,4.237h-2.539c-3.791,0-6.053-1.412-6.053-4.237V90.084z M305.332,118.853h2.539
		c10.227,0,13.727-4.466,13.727-9.214V88.728c0-4.747-3.5-9.211-13.727-9.211h-2.539c-10.234,0-13.738,4.464-13.738,9.211v20.911
		C291.593,114.387,295.097,118.853,305.332,118.853"/>
	<polygon fill="#D1D2D3" points="358.794,79.965 358.794,86.297 362.695,86.297 362.695,112.067 358.794,112.067 358.794,118.404 
		375.13,118.404 375.13,112.067 370.332,112.067 370.332,102.536 371.982,102.536 380.617,102.536 380.617,96.146 370.332,96.146 
		370.332,86.297 383.052,86.297 383.052,92.912 389.384,92.912 389.384,79.965 	"/>
	<polygon fill="#D1D2D3" points="187.525,79.965 187.525,86.297 191.424,86.297 191.424,112.067 187.525,112.067 187.525,118.404 
		217.804,118.404 217.804,105.284 211.474,105.284 211.474,112.016 211.474,112.067 199.054,112.067 199.054,86.297 202.957,86.297 
		202.957,79.965 	"/>
	<path fill="#D1D2D3" d="M235.421,101.558c2.322-6.959,4.557-13.723,4.611-14.069c0.029,0.347,2.242,7.11,4.543,14.069H235.421z
		 M255.652,112.067l-11.701-32.103h-7.49l-11.75,32.103h-3.154v6.337h14.014v-6.337h-3.664c0.445-1.324,0.953-2.838,1.496-4.463
		h13.172c0.537,1.625,1.045,3.139,1.492,4.463h-3.672v6.337h14.012v-6.337H255.652z"/>
	<path fill="#D1D2D3" d="M177.565,95.507c0,2.774-2.321,4.189-6.103,4.189h-5.599V86.297h5.599c3.781,0,6.103,1.409,6.103,4.241
		V95.507z M171.462,79.965h-17.13v6.332h3.9v25.775h-3.9v6.332h15.429v-6.332h-3.897v-6.049h5.599
		c10.229,0,13.676-4.468,13.676-9.215v-7.632C185.138,84.431,181.691,79.965,171.462,79.965"/>
	<path fill="#D1D2D3" d="M274.306,79.965v6.332h3.227c-2.773,4.611-6.496,10.824-6.535,10.966c-0.037-0.142-3.496-6.354-6.07-10.966
		h3.205v-6.332h-15.436v6.332h4.033l10.418,18.31v7.466h-3.865v6.332h15.43v-6.332h-3.871v-8.368l10.268-17.407h4.627v-6.332
		H274.306z"/>
	<polygon fill="#D1D2D3" points="324.904,79.965 324.904,86.297 328.804,86.297 328.804,112.067 324.904,112.067 324.904,118.404 
		341.236,118.404 341.236,112.067 336.435,112.067 336.435,102.536 338.085,102.536 346.728,102.536 346.728,96.146 336.435,96.146 
		336.435,86.297 349.162,86.297 349.162,92.912 355.492,92.912 355.492,79.965 	"/>
	<path fill="#D1D2D3" d="M0.805,97.896c4.816,33.877,30.413,62.906,56.733,75.23l1.423-1.666c-18.773-15.576-40.4-46.13-40.4-84.897
		s21.627-69.327,40.4-84.899L57.538,0C28.323,13.678,0,47.938,0,86.562C0,90.388,0.278,94.173,0.805,97.896 M21.375,40.511h0.46
		c-6.057,13.628-9.957,29.172-9.957,46.052c0,16.877,3.9,32.418,9.957,46.052h-0.46c-8.879-13.387-14.691-29.211-14.691-46.052
		C6.684,69.721,12.497,53.896,21.375,40.511"/>
	<path fill="#D1D2D3" d="M110.693,86.562c0,38.768-21.621,69.321-40.398,84.899l1.422,1.664
		c29.219-13.679,57.542-47.937,57.542-86.563c0-38.625-28.323-72.885-57.542-86.562l-1.422,1.663
		C89.072,17.235,110.693,47.795,110.693,86.562 M107.88,132.616h-0.465c6.057-13.636,9.965-29.177,9.965-46.054
		c0-16.88-3.908-32.424-9.965-46.052h0.465c8.877,13.388,14.688,29.208,14.688,46.052
		C122.569,103.403,116.757,119.228,107.88,132.616"/>
	<rect x="52.097" y="61.498" fill="#D1D2D3" width="25.062" height="6.205"/>
	<rect x="52.097" y="76.142" fill="#D1D2D3" width="25.062" height="6.2"/>
	<rect x="52.097" y="90.774" fill="#D1D2D3" width="25.062" height="6.209"/>
	<rect x="52.097" y="105.413" fill="#D1D2D3" width="25.062" height="6.208"/>
</g>
</svg>
