<?xml version="1.0" encoding="utf-8"?>
<!-- Generator: Adobe Illustrator 15.1.0, SVG Export Plug-In . SVG Version: 6.00 Build 0)  -->
<!DOCTYPE svg PUBLIC "-//W3C//DTD SVG 1.1//EN" "http://www.w3.org/Graphics/SVG/1.1/DTD/svg11.dtd">
<svg version="1.1" id="Layer_1" xmlns="http://www.w3.org/2000/svg" xmlns:xlink="http://www.w3.org/1999/xlink" x="0px" y="0px"
	 width="354.49px" height="204.352px" viewBox="0 0 354.49 204.352" enable-background="new 0 0 354.49 204.352"
	 xml:space="preserve">
<g>
	<g>
		<g>
			<path sodipodi:nodetypes="ccc" inkscape:connector-curvature="0" fill="#E6E7E8" d="M116.311,16.199
				c11.178,10.78,15.642,10.65,21.817,13.312C132.135,17.14,121.588,16.343,116.311,16.199z"/>
			<path sodipodi:nodetypes="ccc" inkscape:connector-curvature="0" fill="#E6E7E8" d="M138.845,21.329
				c-1.02-3.09-6.272-19.243-7.639-11.259C121.189,5.603,135.482,22.137,138.845,21.329z"/>
			<path sodipodi:nodetypes="ccc" inkscape:connector-curvature="0" fill="#E6E7E8" d="M150.572,24.066
				c-4.301-12.824-7.705-14.111-11.342-18.347C139.027,18.306,146.659,22.292,150.572,24.066z"/>
			<path sodipodi:nodetypes="ccsc" inkscape:connector-curvature="0" fill="#E6E7E8" d="M155.537,18.53
				c3.653-5.02-6.273-22.811-7.913-14.051c-3.675-0.171-5.008,2.983-2.564,3.254C151.893,8.5,153.367,19.059,155.537,18.53
				L155.537,18.53z"/>
			<path sodipodi:nodetypes="ccc" inkscape:connector-curvature="0" fill="#E6E7E8" d="M174.227,18.797
				c1.112-3.918,6.979-24.35-0.252-16.382C166.23-7.848,169.971,17.864,174.227,18.797z"/>
			<path sodipodi:nodetypes="ccc" inkscape:connector-curvature="0" fill="#E6E7E8" d="M158.683,0.553
				c1.371,15.215,5.063,17.58,8.163,23.227C170.791,10.093,162.839,3.589,158.683,0.553z"/>
			<path sodipodi:nodetypes="ccc" inkscape:connector-curvature="0" fill="#E6E7E8" d="M181.236,23.066
				c6.073-13.496,4.382-16.648,4.678-22.442C176.533,11.194,179.511,19.193,181.236,23.066z"/>
			<path sodipodi:nodetypes="ccc" inkscape:connector-curvature="0" fill="#E6E7E8" d="M190.449,19.737
				c2.697-3.052,16.847-18.951,6.74-14.263C194.361-5.793,186.888,17.621,190.449,19.737z"/>
			<path sodipodi:nodetypes="ccc" inkscape:connector-curvature="0" fill="#E6E7E8" d="M196.964,25.211
				c11.537-11.283,11.124-14.828,13.757-20.353C197.067,12.336,196.804,20.952,196.964,25.211z"/>
			<path sodipodi:nodetypes="ccsc" inkscape:connector-curvature="0" fill="#E6E7E8" d="M208.407,21.88
				c6.647,0.089,18.657-15.581,9.447-12.425c-1.69-2.648-5.38-2.033-4.41-0.192c2.72,5.147-6.634,11.364-5.037,12.62V21.88z"/>
			<path sodipodi:nodetypes="ccc" inkscape:connector-curvature="0" fill="#E6E7E8" d="M230.938,13.914
				c-15.527,5.369-16.932,9.043-21.944,13.149C224.47,26.455,228.962,18.155,230.938,13.914z"/>
		</g>
		<path fill="#E6E7E8" d="M305.746,57.021c-17.646,10.746-25.318-1.705-19.508-18.333c3.073-8.8,15.836-17.896,17.534-25.526
			c-21.185,7.497-32.935,30.043-36.195,37.67c-2.125,4.969-12.99-6.234-16.95-9.775c-5.643,13.556,24.026,48.832-8.956,29.264
			c2.289,11.004,6.571,17.724,5.825,23.273c-1.654,12.395-15.093,11.815-16.326,7.217c-2.317,7.56-20.045,25.664-25.88,7.04
			c-5.431,3.954-8.599,15.169-11.218,19.407c-5.115,0.621-7.081-4.599-5.885-8.983c0.704-2.591,6.102-4.153,3.537-6.438
			c-3.165-2.82-0.972-5.291,4.362-7.196c3.419-9.505,7.567-4.354,16.347-6.231c-8.076-3.923-1.718-7.979,9.875-8.467
			c-3.146-4.471-2.55-8.362,7.158-10.844c-3.905-3.39-4.787-7.596,8.562-10.199c-10.099-4.173-17.86,3.213-4.021-9.661
			c-9.871-0.931-13.919,8.254-9.409-9.498c-9.028,6.482-12.757,0.319-7.456-5.939c-0.072-1.347-3.064,1.218-4.893,0.72
			c-3.501-0.948-4.348-5.494,10.946-15.506c-14.768-1.922-22.602,17.363-22.258-2.927c-10.048,12.719-9.127,8.387-9.199-4.37
			c-12.709,4.534-10.963,19.638-15.919-0.837c-14.05,2.552,1.885,24.66-19.598,0.481c-2.895,12.493,9.539,20.302-11.055,4.75
			c1.59,20.304,11.359,13.57-16.719,2.893c11.43,10.838,16.73,19.203,2.237,14.279c2.795,7.071,0.549,9.775-8.149,6.886
			c3.555,12.637,5.826,12.523-9.406,8.55c4.438,5.443,13.053,11.038-2.119,9.015c6.283,4.356,17.434,4.466,4.172,13.083
			c7.93,2.228,20.203,3.936,9.342,8.436c7.046,2.279,20.361,2.427,13.068,9.457c9.897,0.508,17.578,0.748,12.57,7.415
			c6.758,0.02,11.215,1.78,5.564,7.923c11.5,7.596,4.304,15.639-1.863,13.895c-4.615-2.662-3.75-6.662-4.668-8.936
			c-3.758-9.262-7.117-11.316-8.154-11.295c-2.051,0.047-0.336,10.957-11.746,8.838c-7.351-4.547-7.692-8.483-12.524-15.932
			c-15.915,14.226-16.603-6.275-12.716-31.335c-28.623,24.032-10.251-10.968-7.502-27.872C73.348,72.445,69.982,14.926,38.53,13.004
			c34.382,41.592,30.249,54.761,3.449,46.006c14.695,17.488,9.688,7.881,24.989,21.925c16.134,14.806-17.977,17.472-14.378,23.503
			c24.648-2.557,45.443,10.984,20.146,21.678c-10.207,8.479,19.717-2.419,26.852-2.475c3.553-0.026,14.965,3.188-8.16,17.938
			c15.212,0.245,19.539-6.075,26.264-7.471c11.499-2.393,18.082,0.597,3.191,16.148c9.813-1.447,39.186-12.281,30.271,0.636
			c6.632,1.967,14.595,3.438,1.391,12.742c10.856,5.671,7.652,11.56,0.404,18.133c15.461,7.234-19.968,17.122-33.326,22.584
			l108.247-0.019c-23.499-5.309-36.273-12.94-33.188-24.002c-5.103-4.232-7.08-8.935,0-14.979c-2.296-4.65-10.847-9.29,1.194-13.771
			c1.597-18.937,26.307,8.071,34.139-4.395c-9.274-1.22-14.792-5.666-13.7-8.377c6.297-15.65,24.987,6.294,40.301,0.952
			c-8.911-2.246-20.213-12.55-10.656-15.754c6.873-2.299,17.915,5.664,30.898,0.943c-25.066-6.529-8.778-26.781,19.645-19.975
			c-2.067-3.477-5.301-6.443-8.716-7.964c-10.804-4.823-12.094-7.331-10.368-11.644C281.414,75.384,300.52,66.793,305.746,57.021z
			 M225.898,62.637c0.451,0.048,0.875,0.125,0.75,0.839c-1.694,0.478-2.012,1.734-2.411,2.917
			C222.766,66.548,223.979,63.017,225.898,62.637z M226.049,70.199c0.417,0.156,0.801,0.337,0.445,0.992
			c-1.779,0.045-2.487,1.173-3.252,2.212C221.772,73.188,224.084,70.096,226.049,70.199z M200.003,96.157
			c-2.203,0.051-3.088,1.277-4.037,2.413c-1.816-0.231,1.05-3.608,3.49-3.497C199.97,95.251,200.445,95.443,200.003,96.157z
			 M195.896,90.224l-5.735,5.813v-0.002c0-6.15-0.966-11.473,4.601-14.205c1.826,2.345,4.111,4.142,5.295,8.315L195.896,90.224z
			 M167.76,72.97l-2.295,7.131c-3.68-5.255-5.584-10.275-2-14.568c2.467,1.597,5.104,2.544,7.758,6.046L167.76,72.97z
			 M168.337,90.499l-3.468,0.066l-4.572,4.919c-1.22-5.207-1.008-9.71,3.627-12.023C165.445,85.442,167.355,86.968,168.337,90.499z
			 M162.445,64.331l-2.68,1.347l-1.124,5.619c-3.548-3.685-5.628-7.346-3.157-10.915C157.666,61.389,159.916,61.889,162.445,64.331z
			 M158.005,49.875c1.924,0.945,3.92,1.456,6.147,3.642l-2.387,1.063l-1.039,4.787C157.605,56.076,155.785,52.855,158.005,49.875z
			 M173.975,72.546c1.746,2.196,3.896,3.83,5.118,7.88l-3.795,0.356l-4.806,6.123C168.947,80.907,168.996,75.622,173.975,72.546z
			 M181.893,64.174l-2.721,1.949l-1.734,6.628h-0.002c-2.965-3-4.525-9.245-1.741-12.701
			C177.662,61.366,179.762,61.31,181.893,64.174z M182.782,49.438c1.891,1.111,3.858,1.708,5.989,4.276l-2.444,1.25l-1.27,5.628
			C182.085,56.72,180.415,52.939,182.782,49.438z M176.712,49.375l-0.438,5.723c-3.512-3.517-5.725-7.083-3.885-10.816
			c2.032,0.895,4.077,1.272,6.563,3.586L176.712,49.375z M179.091,82.509c1.825,2.34,4.115,4.142,5.299,8.312l-4.164,0.083
			l-5.485,5.806C173.282,90.557,173.529,85.235,179.091,82.509z M181.828,77.018c-1.422-4.854-1.566-9.164,2.244-11.791
			c1.452,1.754,3.204,3.031,4.3,6.307l-2.973,0.377L181.828,77.018z M191.999,72.729c1.231,2.09,2.65,3.723,3.199,7.383
			l-2.976-0.047l-4.567,4.898l0,0C187.655,79.569,187.314,74.952,191.999,72.729z M196.906,76.24
			c-1.353-5.292-1.313-9.952,3.016-12.658c1.524,1.943,3.393,3.386,4.462,6.963l-3.303,0.307L196.906,76.24z M204.848,54.135
			c2.011,1.565,4.233,2.578,6.259,5.828l-3.121,0.983l-2.561,6.104C202.649,62.189,201.394,57.661,204.848,54.135z M206.8,89.873
			c-0.454-0.272-0.86-0.56-0.237-1.164c2.155,0.404,3.35-0.608,4.582-1.519C212.847,87.788,209.138,90.479,206.8,89.873z
			 M207.619,80.219l-6.139,5.299c-0.731-6.251,0.14-11.521,5.998-13.751c1.534,2.492,3.604,4.484,4.291,8.736L207.619,80.219z
			 M216.16,76.084L216.16,76.084v0.298c-5-4.701-5.83-9.158-2.627-12.857c2.121,1.46,3.828,2.353,6.082,5.488l-2.19,1.147
			l-1.265,6.071V76.084z M219.837,80.526c-1.78,0.046-2.497,1.172-3.258,2.211c-1.464-0.215,0.848-3.303,2.815-3.204
			C219.808,79.694,220.192,79.872,219.837,80.526z M219.788,54.565c0.438-0.074,0.866-0.125,1.082,0.313
			c-0.418,0.729-0.339,1.474-0.819,2.201C218.778,57.495,218.22,55.208,219.788,54.565z M216.16,56.833v0.002
			c0,0.664,3.402,2.16,4.527,4.445c-1.559,1.229-1.896,2.453-2.447,3.677c-0.434,0.219-0.993,0.142-1.427-0.031
			c-0.899-4.007-1.245-4.188-2.056-5.395C214.938,58.476,214.16,57.586,216.16,56.833z M211.886,46.33
			c0.433-0.084,0.86-0.142,1.081,0.371c-0.423,0.854-0.342,1.724-0.822,2.573C210.87,49.76,210.312,47.081,211.886,46.33z
			 M209.615,50.255c1.235,0.19,2.26,4.31,1.312,5.388c-1.217,1.058-1.58,0.033-1.549-2.264
			C208.961,51.96,206.753,50.265,209.615,50.255z M205.223,36.688c0.436-0.104,0.863-0.178,1.085,0.459
			c-0.421,1.061-0.344,2.141-0.82,3.199C204.212,40.952,203.654,37.624,205.223,36.688z M203.625,48.504
			c-0.755-1.202-1.246-2.294-1.938-3.54C202.709,42.893,211.904,49.464,203.625,48.504z M202.312,51.669l-2.227,1.13l-1.159,5.075
			c-2.709-3.492-4.229-6.902-2.069-10.063C198.577,48.812,200.374,49.351,202.312,51.669z M196.514,42.799
			c-0.789-0.892-1.369-1.725-2.124-2.656C194.741,38.306,202.783,42.497,196.514,42.799z M197.189,61.858l-3.246,0.601l-3.515,5.734
			c-1.97-5.143-2.489-9.783,1.494-12.858C193.669,57.129,195.703,58.394,197.189,61.858z M193.76,45.349l-1.934,1.171l-0.334,4.37
			c-3.077-2.657-5.02-5.368-3.459-8.228C189.806,43.328,191.583,43.598,193.76,45.349z M190.661,38.383
			c-0.144,0.373-0.302,0.717-1.038,0.529c-0.789-0.895-1.871-1.434-2.626-2.364C187.122,35.295,190.633,36.73,190.661,38.383z
			 M179.357,38.304c1.686,0.589,3.377,0.833,5.44,2.379l-1.833,1.029l-0.321,3.865C179.723,43.23,177.877,40.836,179.357,38.304z
			 M171.974,35.843c1.241,0.371,2.482,0.52,4.003,1.484l-1.352,0.645l-0.231,2.417C172.243,38.922,170.881,37.421,171.974,35.843z
			 M172.811,58.849l-2.598,1.311l-1.133,5.888c-3.398-4.05-5.378-8.007-2.961-11.67C168.212,55.537,170.387,56.162,172.811,58.849z
			 M163.565,40.172c2.034,0.763,4.076,1.083,6.562,3.05l-2.242,1.277l-0.438,4.856C163.934,46.368,161.729,43.345,163.565,40.172z
			 M156.104,37.926c1.723,0.291,2.252,0.226,4.566,1.417l-2.036,3.888C158.634,43.231,155.315,40.786,156.104,37.926z
			 M149.745,46.241c1.818,0.625,3.627,0.837,5.884,2.588l-1.926,1.313l-0.209,4.628C150.299,52.102,148.244,49.329,149.745,46.241z
			 M149.105,56.648c1.684,0.861,3.435,1.313,5.354,3.343l-2.138,1.044l-1.032,4.543C148.605,62.512,147.07,59.5,149.105,56.648z
			 M149.651,69.535c1.965,1.407,4.149,2.335,6.075,5.197l-3.148,0.784l-2.742,5.217C147.21,76.462,146.094,72.511,149.651,69.535z
			 M147.354,46.128c-0.145,0.68-0.308,1.188-1.039,0.834c-0.792-1.633-1.874-1.636-2.632-4.461l0,0
			C143.814,41.086,147.32,43.095,147.354,46.128z M147.297,56.326l-1.93,1.315l-0.211,4.627c-3.197-2.672-5.248-5.44-3.742-8.531
			C143.228,54.363,145.036,54.575,147.297,56.326z M146.979,68.412l-2.616,1.051l-1.535,4.632c-2.997-3.143-4.623-6.224-2.011-9.127
			C142.766,65.86,144.829,66.327,146.979,68.412z M141.023,52.762c-0.144,0.685-0.312,1.32-1.043,0.967
			c-0.792-1.633-1.871-2.622-2.624-4.33C137.479,47.1,140.99,49.733,141.023,52.762z M134.525,61.716
			c1.453,0.757,2.992,1.155,4.599,2.93l-1.953,0.896l-1.146,3.94C133.789,66.803,132.572,64.181,134.525,61.716z M130.596,54.238
			c1.145,1.537,1.428,2.876,2.481,4.394c-0.104,0.722-0.796,0.464-1.515,0.157C128.758,56.98,128.377,52.968,130.596,54.238z
			 M124.891,62.512c1.326,1.121,1.887,2.225,3.133,3.34c0.085,0.645-0.555,0.546-1.233,0.416
			C124.008,65.223,122.735,61.824,124.891,62.512z M121.215,70.321c-0.305-0.594,0.342-0.671,1.029-0.719
			c3.019,0.272,5.416,3.177,3.117,3.083C123.712,71.97,122.79,71.058,121.215,70.321z M129.773,81.077
			c-3.031,0.117-5.902-2.445-3.613-2.65c1.761,0.498,2.824,1.279,4.507,1.809C131.071,80.782,130.446,80.938,129.773,81.077z
			 M129.406,69.919c1.578,0.493,3.171,0.654,5.086,2.04l-1.764,1.056l-0.398,3.676C129.623,74.573,127.938,72.38,129.406,69.919z
			 M137.955,89.005c-1.708-1.213-2.357-0.787-4.439-0.467l0,0c-2.08-1.205,3.299-2.133,5.061-0.666
			C138.836,88.295,138.826,88.714,137.955,89.005z M138.498,77.886l-0.408,3.973c-2.781-2.287-4.518-4.66-3.006-7.316
			c1.625,0.535,3.261,0.708,5.232,2.209L138.498,77.886z M141.438,78.603c1.664,0.893,3.418,1.32,5.258,3.392l-2.228,1.097
			l-1.292,4.637l0,0C140.619,84.194,139.22,81.437,141.438,78.603z M148.691,97.288c-1.871-1.397-3.627-0.904-5.352-0.533
			c-1.314-1.393,3.861-2.464,5.795-0.772C149.418,96.473,149.651,96.954,148.691,97.288z M150.654,89.563l-1.453,5.168
			c-2.876-3.555-4.441-7.021-1.953-10.238c1.871,1.018,3.839,1.562,5.908,3.916L150.654,89.563z M155.209,88.007
			c-1.827-5.07-2.159-9.565,2.176-12.283c1.75,1.838,3.828,3.182,5.23,6.604l-3.441,0.378L155.209,88.007z M161.666,100.308
			c-3.419-0.333-4.766-2.459-1.512-2.902c5.912,0.227,9.896,2.129,13.838,4.061c1.041,0.388,2.08,0.522,3.124,0
			c4.353-1.383,8.566-4.346,13.081-3.896c1.946,0.562,2.168,2.525,0.156,2.441c-8.422,2.157-10.01,3.175-12.463,4.549
			c-2.473,0.86-3.226,0.257-4.797,0C168.438,102.096,165.953,101.64,161.666,100.308z M163.026,141.753
			c-0.767,0.89-2.882-0.174-3.814-0.385c-13.474-4.2-14.511,1.381-19.93,0.724c-4.185-0.508,0.421-4.69,6.616-6.071
			c-10.084-6.575-15.873-6.871-22.191-7.762c-3.084,0.361-8.887,3.608-10.807,2.87c-2.032-0.782,2.095-3.062,5.746-5.563
			l-17.717-7.928c-4.375,0.861-8.385,3.812-13.431,3.881c-1.347-3.684,5.864-5.458,8.567-7.757
			c-3.826-2.454-7.696-4.811-10.516-9.448l-15.182-2.02l12.459-2.025L71.355,73.268c-2.404-2.198-14.837-7.283-11.838-9.303
			c1.4-0.947,10.453,6.072,11.321,4.407c1.108-8.735-1.286-16.621-4.924-23.621H65.91c-0.139-2,0.145-2.533,1.458-2.052
			c9.626,17.664,12.487,40.415,22.075,54.422c11.313,18.452,32.85,23.083,52.562,30.408c8.006,3.055,16.21,7.391,20.328,12.227
			C163.637,141.291,163.628,141.062,163.026,141.753z M178.088,177.974l3.535,3.605l-4.373,2.528c-0.457,2.123-1.615,3.646,0,7.571
			c1.088,1.193,2.319,2.285,1.252,4.871c-2.561,2.325-4.518,1.503-4.585,0c-0.981-21.419-0.837-65.611,0.202-88.378l0,0
			c0-1.866,5.705-1.862,5.838,0c0.142,5.345-6.228,12.415,1.146,17.405c0.967,0.751,0.438,1.498,0.053,2.254
			c-4.632,4.133-4.357,8.438-2.371,12.805l3.088,4.508c-4.858,3.99-7.928,8.317-2.934,14.432l3.944,2.888
			C178.039,166.694,173.927,171.139,178.088,177.974z M278.489,99.956l-15.364,3.604c-2.724,4.679-6.548,7.093-10.323,9.6
			c2.746,2.261,9.991,3.93,8.721,7.629c-5.046,0.009-9.114-2.882-13.509-3.675l-17.551,8.187c3.694,2.449,7.87,4.669,5.854,5.479
			c-1.904,0.768-7.773-2.393-10.861-2.703c-6.302,0.983-12.082,1.365-22.031,8.088c6.22,1.289,10.909,5.4,6.736,5.973
			c-5.406,0.738-6.556-4.825-19.945-0.424c-0.929,0.225-3.019,1.32-3.805,0.443c-0.614-0.686-0.626-0.592,0.651-2.148
			c4.02-4.899,12.134-9.496,20.075-12.67c19.563-7.62,40.998-12.85,51.938-31.475c9.308-14.152,11.708-37.47,20.973-55.278
			c1.304-0.498,1.601,0.202,1.472,0.907c-3.478,7.562-5.705,16.1-4.426,24.819c0.899,1.65,11.849-3.06,13.267-2.133
			c3.038,1.977-11.3,5.895-13.661,8.127l-10.929,27.169L278.489,99.956z"/>
	</g>
	<g>
		<path fill="#CDCCCC" d="M43.321,42.81c0.11,0,1.626-0.058,1.794-0.084c0.409-0.072,0.525-0.185,0.65-0.623
			c0.045-0.142,0.1-0.423,0.112-0.692c0-0.072,0.044-0.096,0.099-0.096l0.355,0.012c0.068,0,0.097,0.058,0.084,0.116
			c-0.045,0.238-0.045,1.397-0.045,1.609c0,0.496,0.058,1.174,0.086,1.47c0,0.072-0.028,0.098-0.086,0.115l-0.308,0.041
			c-0.072,0.014-0.099-0.029-0.114-0.128c-0.027-0.183-0.112-0.51-0.156-0.661c-0.084-0.298-0.237-0.51-0.61-0.556
			c-0.661-0.069-1.636-0.069-1.861-0.069v0.878c0,0.76,0.029,2.133,0.029,2.415c0.011,0.736,0.365,1.02,0.803,1.104
			c0.284,0.056,0.693,0.102,1.049,0.102c0.241,0,0.945-0.015,1.243-0.046c0.238-0.027,0.861-0.181,1.229-0.493
			c0.169-0.14,0.962-1.16,1.157-1.486c0.045-0.068,0.086-0.125,0.17-0.084l0.229,0.127c0.07,0.043,0.07,0.084,0.027,0.2
			l-0.748,2.078c-0.046,0.128-0.143,0.212-0.311,0.212c-0.072,0-0.381-0.014-1.231-0.031c-0.852,0-2.218-0.009-4.425-0.009
			c-0.525,0-0.92,0.009-1.203,0.009c-0.299,0.017-0.479,0.031-0.605,0.031c-0.083,0-0.129-0.031-0.129-0.098v-0.383
			c0-0.057,0.046-0.072,0.143-0.072h0.567c0.647,0,0.702-0.097,0.702-0.621v-3.351v-1.385c0-1.172-0.023-2.941-0.038-3.079
			c-0.058-0.457-0.202-0.556-0.722-0.556h-0.51c-0.072,0-0.111-0.012-0.111-0.099v-0.38c0-0.041,0.027-0.072,0.098-0.072
			c0.307,0,0.807,0.043,1.738,0.043h0.623c1.399,0,2.797-0.012,4.193-0.012c0.231,0,0.496-0.031,0.568-0.031
			c0.069,0,0.099,0.031,0.113,0.072c0.058,0.197,0.681,2.133,0.722,2.275c0.017,0.057,0.017,0.101-0.041,0.127l-0.212,0.113
			c-0.043,0.029-0.102-0.012-0.113-0.043c-0.029-0.057-1.074-1.4-1.416-1.609c-0.297-0.2-0.69-0.368-1.073-0.385l-2.516-0.055V42.81
			z"/>
		<path fill="#CDCCCC" d="M65.112,40.051c0-0.83-0.423-1.299-0.933-1.311l-0.578-0.017c-0.072,0-0.086-0.055-0.086-0.099V38.26
			c0-0.056,0.014-0.087,0.086-0.087c0.067,0,0.184,0.015,0.395,0.015c0.212,0.017,0.521,0.029,1.006,0.029
			c0.479,0,0.777-0.029,0.942-0.029c0.188,0,0.298,0.058,0.413,0.185c0.073,0.086,2.814,3.646,2.969,3.844
			c0.153,0.199,2.545,3.124,2.881,3.576h0.059v-1.682c0-1.258-0.016-1.953-0.041-2.657c-0.018-0.551-0.087-1.937-0.171-2.174
			c-0.113-0.356-0.38-0.556-0.779-0.556h-0.452c-0.056,0-0.082-0.029-0.082-0.099V38.26c0-0.056,0.026-0.087,0.082-0.087
			c0.199,0,0.651,0.043,1.559,0.043c0.846,0,1.188-0.043,1.369-0.043c0.103,0,0.112,0.043,0.112,0.101v0.352
			c0,0.058-0.026,0.099-0.081,0.099h-0.386c-0.38,0-0.52,0.241-0.548,0.777c-0.059,0.948-0.059,2.35-0.059,3.269v5.286
			c0,0.198-0.014,0.339-0.072,0.339c-0.168,0-0.293-0.168-0.336-0.226c-0.015-0.029-0.852-1.075-1.725-2.179
			c-0.988-1.227-2.023-2.528-2.109-2.612c-0.154-0.144-2.754-3.406-2.841-3.521h-0.084v3.136c0,1.318,0.115,3.62,0.14,3.904
			c0.058,0.55,0.145,0.818,0.523,0.818h0.424c0.1,0,0.115,0.046,0.115,0.127v0.312c0,0.082-0.016,0.113-0.115,0.113
			c-0.14,0-0.99-0.041-1.371-0.041c-0.293,0-1.27,0.041-1.414,0.041c-0.058,0-0.067-0.031-0.067-0.098v-0.368
			c0-0.041,0.01-0.086,0.082-0.086h0.481c0.408,0,0.567-0.171,0.635-0.864c0.029-0.265,0.058-1.879,0.058-4.394V40.051z"/>
		<path fill="#CDCCCC" d="M90.484,47.134c-1.022-0.959-1.516-2.6-1.516-3.959c0-1.311,0.426-2.669,1.445-3.742
			c0.717-0.765,1.989-1.429,3.531-1.429c1.287,0,2.346,0.479,2.855,0.777c0.186,0.113,0.252,0.099,0.283,0l0.111-0.409
			c0.031-0.087,0.057-0.087,0.185-0.087c0.125,0,0.154,0.029,0.154,0.227c0,0.269,0.286,2.347,0.353,2.744
			c0.018,0.069,0,0.127-0.055,0.14l-0.212,0.058c-0.069,0.012-0.097,0-0.142-0.116c-0.197-0.467-0.508-1.145-1.102-1.75
			c-0.594-0.606-1.345-1.087-2.461-1.087c-2.529,0-3.545,2.249-3.535,4.31c0,0.82,0.255,2.417,1.355,3.634
			c0.965,1.073,1.771,1.188,2.719,1.188c1.598,0,2.84-0.878,3.492-1.796c0.041-0.073,0.068-0.084,0.111-0.043l0.185,0.144
			c0.041,0.026,0.069,0.053,0.028,0.125c-0.848,1.229-2.219,2.376-4.216,2.376C92.391,48.438,91.328,47.914,90.484,47.134z"/>
		<path fill="#CDCCCC" d="M117.9,45.598c0,0.551,0.043,1.465,0.059,1.624c0.038,0.452,0.252,0.493,0.62,0.493h0.55
			c0.1,0,0.1,0.046,0.1,0.101v0.325c0,0.087,0,0.127-0.1,0.127c-0.165,0-0.719-0.041-1.906-0.041c-1.272,0-1.713,0.041-1.867,0.041
			c-0.057,0-0.086-0.041-0.086-0.113v-0.339c0-0.055,0.018-0.101,0.102-0.101h0.691c0.371,0,0.479-0.14,0.496-0.354
			c0.014-0.198,0.043-1.313,0.043-2.629v-0.82c-0.188-0.365-2.533-4.353-2.943-4.846c-0.184-0.209-0.51-0.341-0.734-0.341h-0.354
			c-0.086,0-0.1-0.041-0.1-0.099V38.26c0-0.056,0.014-0.087,0.1-0.087c0.131,0,0.792,0.043,1.655,0.043
			c1.453,0,1.962-0.043,2.104-0.043c0.084,0,0.104,0.031,0.104,0.072v0.351c0,0.072-0.02,0.127-0.104,0.127h-0.467
			c-0.426,0-0.479,0.132-0.426,0.466c0.043,0.227,1.785,3.295,2.208,4.101c0.524-0.818,2.502-3.759,2.56-4.012
			c0.058-0.243,0.125-0.556-0.467-0.556h-0.383c-0.084,0-0.098-0.041-0.098-0.127V38.26c0-0.056,0.014-0.087,0.098-0.087
			c0.143,0,0.722,0.043,1.672,0.043c0.827,0,1.143-0.043,1.27-0.043c0.1,0,0.111,0.031,0.111,0.087v0.336
			c0,0.087-0.012,0.127-0.111,0.127h-0.355c-0.212,0-0.449,0.084-0.693,0.312c-0.281,0.27-2.812,3.928-3.348,4.707V45.598z"/>
		<path fill="#CDCCCC" d="M137.7,47.134c-1.021-0.959-1.513-2.6-1.513-3.959c0-1.311,0.426-2.669,1.44-3.742
			c0.722-0.765,1.996-1.429,3.536-1.429c1.284,0,2.342,0.479,2.854,0.777c0.185,0.113,0.253,0.099,0.282,0l0.115-0.409
			c0.025-0.087,0.057-0.087,0.182-0.087c0.128,0,0.154,0.029,0.154,0.227c0,0.269,0.284,2.347,0.355,2.744
			c0.015,0.069,0,0.127-0.057,0.14l-0.213,0.058c-0.068,0.012-0.1,0-0.144-0.116c-0.195-0.467-0.505-1.145-1.102-1.75
			c-0.592-0.606-1.343-1.087-2.456-1.087c-2.532,0-3.547,2.249-3.538,4.31c0,0.82,0.255,2.417,1.359,3.634
			c0.96,1.073,1.768,1.188,2.716,1.188c1.597,0,2.838-0.878,3.492-1.796c0.039-0.073,0.067-0.084,0.11-0.043l0.183,0.144
			c0.043,0.026,0.072,0.053,0.029,0.125c-0.847,1.229-2.218,2.376-4.212,2.376C139.609,48.438,138.549,47.914,137.7,47.134z"/>
		<path fill="#CDCCCC" d="M161.881,41.892c0-0.904-0.027-2.4-0.043-2.656c-0.028-0.371-0.099-0.512-0.523-0.512h-0.664
			c-0.082,0-0.097-0.07-0.097-0.137v-0.313c0-0.069,0.015-0.101,0.097-0.101c0.156,0,0.664,0.043,1.837,0.043
			c1.371,0,1.968-0.043,2.093-0.043c0.113,0,0.13,0.043,0.13,0.113v0.325c0,0.073-0.028,0.113-0.144,0.113h-0.848
			c-0.438,0-0.495,0.142-0.495,0.556c0,0.183-0.038,2.316-0.038,3.305v1.217c0,0.238,0,3.293,0.038,3.873
			c0.313,0.029,3.107,0.056,3.55,0c0.832-0.13,1.682-1.826,1.881-2.372c0.024-0.058,0.053-0.089,0.111-0.058l0.226,0.079
			c0.044,0.031,0.044,0.046,0.028,0.133c-0.043,0.098-0.605,2.432-0.692,2.811c-0.183-0.014-1.284-0.031-2.544-0.031
			c-1.256-0.009-2.642-0.009-3.406-0.009c-0.551,0-0.962,0.009-1.26,0.009c-0.284,0.017-0.453,0.031-0.549,0.031
			c-0.101,0-0.113-0.031-0.113-0.098v-0.354c0-0.069,0.013-0.101,0.099-0.101h0.677c0.521,0,0.607-0.197,0.607-0.38
			c0-0.271,0.043-3.788,0.043-4.649V41.892z"/>
		<path fill="#CDCCCC" d="M185.697,47.517c-1.005-0.608-2.08-2.136-2.08-4.197c0-0.863,0.226-2.206,1.315-3.519
			c1.246-1.515,2.644-1.796,3.829-1.796c0.891,0,2.049,0.183,3.165,1.116c1.034,0.89,1.941,2.275,1.941,4.226
			c0,1.034-0.329,2.11-1.062,3.098c-0.863,1.145-2.121,1.994-4.074,1.994C188.04,48.438,186.813,48.209,185.697,47.517z
			 M192.48,43.462c0-3.098-2.203-4.924-3.774-4.924c-0.211,0-1.176-0.166-2.233,0.837c-0.946,0.904-1.415,2.331-1.415,3.492
			c0,3.718,2.588,5.031,3.791,5.031C191.956,47.899,192.48,44.72,192.48,43.462z"/>
		<path fill="#CDCCCC" d="M211.573,44.477c0,0.666,0.014,2.585,0.028,2.788c0.028,0.31,0.173,0.45,0.467,0.45h0.904
			c0.101,0,0.114,0.046,0.114,0.101v0.339c0,0.072-0.014,0.113-0.129,0.113c-0.197,0-0.635-0.041-1.963-0.041
			c-1.246,0-1.8,0.041-1.953,0.041c-0.099,0-0.11-0.041-0.11-0.098v-0.354c0-0.069,0.012-0.101,0.081-0.101h0.609
			c0.478,0,0.58-0.07,0.623-0.45c0.014-0.145,0.058-2.348,0.058-3.988V41.65c0-0.933-0.018-2.473-0.029-2.614
			c-0.028-0.284-0.174-0.312-0.553-0.312h-0.804c-0.072,0-0.086-0.029-0.086-0.113v-0.337c0-0.069,0.014-0.101,0.086-0.101
			c0.153,0,0.662,0.043,2.004,0.043c0.257,0,1.09-0.043,1.559-0.043c1.595,0,2.345,0.154,3.153,0.707
			c0.661,0.454,1.071,1.246,1.071,2.049c0,1.782-1.342,2.886-3.59,2.886c-0.522,0-1.088-0.015-1.541-0.072V44.477z M211.573,43.233
			c0.283,0.086,0.75,0.13,1.298,0.13c0.866,0,1.629-0.467,1.996-0.965c0.312-0.406,0.368-0.933,0.368-1.426
			c0-1.852-1.725-2.348-2.562-2.348c-0.238,0-0.817,0-1.101,0.099V43.233z"/>
		<path fill="#CDCCCC" d="M236.615,43.219c0.115,0,1.713-0.053,1.881-0.084c0.399-0.055,0.538-0.153,0.623-0.603l0.127-0.698
			c0-0.096,0.043-0.111,0.125-0.096l0.315,0.026c0.069,0,0.122,0.017,0.113,0.101c-0.044,0.224-0.044,1.397-0.044,1.597
			c0,0.507,0.053,1.186,0.087,1.469c0.01,0.084-0.043,0.111-0.115,0.111l-0.284,0.043c-0.072,0.014-0.099,0-0.11-0.083l-0.183-0.692
			c-0.072-0.298-0.23-0.51-0.583-0.539c-0.679-0.043-1.712-0.043-1.952-0.043v0.411c0,0.76,0.031,2.133,0.031,2.415
			c0,0.806,0.226,1.02,0.692,1.119c0.255,0.056,0.876,0.087,1.171,0.087c0.241,0,0.766-0.015,1.09-0.046
			c0.368-0.012,0.861-0.125,1.147-0.493l1.102-1.486c0.058-0.097,0.14-0.097,0.211-0.053l0.169,0.096
			c0.072,0.043,0.11,0.058,0.087,0.142l-0.779,2.136c-0.041,0.154-0.111,0.212-0.227,0.212c-0.097,0-0.351-0.014-1.116-0.031
			c-0.775,0-2.077-0.009-4.27-0.009c-0.48,0-0.862,0.009-1.144,0.009c-0.268,0.017-0.465,0.031-0.594,0.031
			c-0.111,0-0.141-0.041-0.141-0.127v-0.298c0-0.096,0.038-0.127,0.125-0.127h0.809c0.351,0,0.406-0.113,0.406-0.621v-3.365h-2.812
			c-0.58,1.101-1.429,2.799-1.54,3.054c-0.112,0.255-0.156,0.45-0.156,0.606c0,0.228,0.228,0.325,0.397,0.325h0.676
			c0.114,0,0.142,0.057,0.142,0.115v0.252c0,0.145-0.012,0.185-0.125,0.185c-0.17,0-0.523-0.041-1.582-0.041
			c-0.895,0-1.361,0.041-1.544,0.041c-0.083,0-0.097-0.084-0.097-0.185v-0.24c0-0.082,0.014-0.127,0.097-0.127h0.48
			c0.284,0,0.524-0.325,0.765-0.652c0.212-0.279,1.539-2.752,2.208-3.983c0.491-0.905,1.948-3.336,2.117-3.704
			c0.212-0.481,0.087-0.664-0.197-0.664h-0.256c-0.098,0-0.127-0.043-0.127-0.125v-0.301c0-0.113,0.061-0.127,0.156-0.127
			c0.453,0,0.962,0.058,1.838,0.058h0.959c1.175,0,2.348-0.012,3.523-0.012c0.224,0,0.521-0.046,0.578-0.046
			c0.043,0,0.101,0.029,0.11,0.073c0.058,0.211,0.667,2.147,0.71,2.29c0.026,0.069,0.026,0.101-0.043,0.127l-0.169,0.101
			c-0.07,0.041-0.099,0.012-0.142-0.031l-1.345-1.597c-0.238-0.298-0.705-0.409-0.948-0.409l-2.445-0.043V43.219z M235.386,43.219
			v-3.843c0-0.127-0.04-0.229-0.127-0.229c-0.083,0-0.14,0.031-0.224,0.171l-2.163,3.901H235.386z"/>
		<path fill="#CDCCCC" d="M258.269,41.737c0-0.368-0.044-2.374-0.069-2.617c-0.044-0.339-0.227-0.397-0.608-0.397h-0.777
			c-0.071,0-0.116-0.012-0.116-0.099v-0.38c0-0.058,0.045-0.072,0.103-0.072c0.182,0,0.802,0.043,2.077,0.043
			c0.365,0,1.779-0.043,2.107-0.043c1.822,0,3.348,0.212,4.593,1.27c0.915,0.794,1.569,1.968,1.569,3.608
			c0,1.626-0.467,2.702-1.4,3.719c-1.356,1.498-3.309,1.498-4.396,1.498c-0.89,0-1.965-0.041-2.603-0.041
			c-1.227,0-1.794,0.041-1.994,0.041c-0.066,0-0.096-0.031-0.096-0.098v-0.368c0-0.055,0.04-0.086,0.113-0.086h0.947
			c0.265,0,0.424-0.113,0.453-0.337c0.042-0.296,0.098-3.478,0.098-4.582V41.737z M259.566,43.108c0,0.183,0.018,2.588,0.029,3.463
			c0,0.279,0.058,0.51,0.243,0.79c0.222,0.298,0.792,0.454,1.496,0.454c1.441,0,2.617-0.625,3.324-1.525
			c0.592-0.736,1.029-1.896,1.029-3.182c0-1.102-0.48-2.376-1.159-3.127c-0.736-0.804-1.978-1.356-3.545-1.356
			c-0.312,0-0.891,0-1.135,0.142c-0.196,0.127-0.254,0.354-0.266,0.667c-0.018,0.594-0.018,2.446-0.018,2.669V43.108z"/>
		<path fill="#CDCCCC" d="M283.568,42.302c0-0.341-0.043-2.886-0.06-3.098c-0.027-0.339-0.166-0.481-0.706-0.481h-0.821
			c-0.069,0-0.11-0.029-0.11-0.084v-0.38c0-0.056,0.041-0.087,0.096-0.087c0.173,0,0.89,0.043,2.207,0.043
			c1.259,0,1.711-0.043,1.906-0.043c0.071,0,0.101,0.043,0.101,0.101v0.352c0,0.069-0.043,0.099-0.111,0.099h-0.665
			c-0.284,0-0.494,0.116-0.494,0.397c0,0.142-0.043,3.264-0.043,3.437v1.089c0,0.137,0.043,3.406,0.043,3.56
			c0,0.438,0.21,0.508,0.664,0.508h0.577c0.072,0,0.111,0.031,0.111,0.101v0.368c0,0.053-0.039,0.084-0.125,0.084
			c-0.169,0-0.733-0.041-1.964-0.041c-1.342,0-1.947,0.041-2.105,0.041c-0.07,0-0.116-0.031-0.116-0.084v-0.382
			c0-0.055,0.046-0.086,0.116-0.086h0.788c0.284,0,0.582-0.041,0.641-0.409c0.028-0.211,0.071-3.266,0.071-4.014V42.302z"/>
		<path fill="#CDCCCC" d="M303.777,44.292c-0.143,0.356-0.92,2.506-0.989,2.802c-0.017,0.096-0.045,0.24-0.045,0.312
			c0,0.195,0.173,0.308,0.48,0.308h0.669c0.097,0,0.139,0.031,0.139,0.101v0.325c0,0.096-0.042,0.127-0.115,0.127
			c-0.197,0-0.777-0.041-1.61-0.041c-1.033,0-1.344,0.041-1.54,0.041c-0.072,0-0.101-0.031-0.101-0.113v-0.339
			c0-0.069,0.058-0.101,0.115-0.101h0.492c0.426,0,0.623-0.197,0.821-0.652c0.101-0.222,1.13-2.838,1.541-3.998
			c0.099-0.281,1.243-3.321,1.373-3.702c0.044-0.142,0.111-0.327,0.013-0.483c-0.042-0.058-0.099-0.127-0.099-0.186
			c0-0.041,0.029-0.098,0.13-0.127c0.392-0.083,1.015-0.507,1.168-0.705c0.073-0.072,0.116-0.127,0.184-0.127
			c0.087,0,0.115,0.084,0.156,0.242c0.271,0.888,1.368,4.056,1.643,4.96c0.322,1.102,1.241,3.733,1.44,4.144
			c0.238,0.462,0.609,0.633,0.96,0.633h0.469c0.085,0,0.114,0.046,0.114,0.101v0.354c0,0.067-0.045,0.098-0.146,0.098
			c-0.255,0-0.549-0.041-1.692-0.041c-1.174,0-1.67,0.041-1.996,0.041c-0.068,0-0.113-0.041-0.113-0.127v-0.325
			c0-0.086,0.045-0.101,0.132-0.101h0.349c0.396,0,0.526-0.14,0.426-0.537c-0.113-0.507-0.692-2.319-0.891-2.886H303.777z
			 M307.086,43.784c-0.129-0.42-1.274-3.956-1.344-4.167c-0.047-0.099-0.069-0.2-0.113-0.2c-0.059,0-0.113,0.101-0.159,0.211
			c-0.067,0.185-1.411,3.805-1.51,4.156H307.086z"/>
	</g>
	<g>
		<path fill="#CDCCCC" d="M354.49,81.596c0,1.302-1.047,2.333-2.374,2.333c-1.328,0-2.392-1.031-2.392-2.333
			c0-1.299,1.063-2.319,2.405-2.319C353.443,79.276,354.49,80.297,354.49,81.596z M350.321,81.596c0,1.034,0.774,1.853,1.809,1.853
			c1.003,0.014,1.766-0.818,1.766-1.838c0-1.031-0.763-1.864-1.794-1.864C351.096,79.746,350.321,80.579,350.321,81.596z
			 M351.748,82.798h-0.536v-2.32c0.212-0.026,0.507-0.07,0.89-0.07c0.438,0,0.635,0.07,0.789,0.186
			c0.144,0.099,0.242,0.268,0.242,0.496c0,0.281-0.211,0.463-0.48,0.551v0.028c0.228,0.069,0.339,0.253,0.411,0.565
			c0.069,0.352,0.127,0.48,0.169,0.564h-0.568c-0.067-0.084-0.11-0.283-0.182-0.564c-0.042-0.24-0.184-0.354-0.482-0.354h-0.252
			V82.798z M351.766,81.497h0.252c0.295,0,0.536-0.099,0.536-0.34c0-0.211-0.154-0.354-0.495-0.354
			c-0.141,0-0.239,0.016-0.293,0.029V81.497z"/>
	</g>
	<g>
		<path fill="#CDCCCC" d="M9.071,80.181c0-3.136-0.173-13.48-0.255-15.002c-0.254-4.923-1.611-5.09-5.512-5.09H0.676
			C0.168,60.088,0,59.916,0,59.492v-2.119c0-0.423,0.168-0.594,0.676-0.594c1.359,0,5.174,0.257,11.277,0.257
			c2.713,0,7.803-0.257,10.771-0.257c6.614,0,12.04,0.594,15.006,2.29c4.837,2.628,6.532,6.532,6.532,11.533
			c0,8.394-3.73,10.515-10.345,13.991l0.255,0.171c8.221,2.713,13.734,7.8,13.734,16.788c0,4.324-2.627,10.26-6.528,12.721
			c-3.562,2.203-8.394,3.049-16.196,3.049c-5.85,0-9.158-0.252-12.719-0.252c-4.238,0-9.242,0.252-10.854,0.252
			c-1.017,0-1.186-0.168-1.186-0.51v-2.203c0-0.422,0.169-0.594,0.76-0.594h4.075c2.625,0,3.049-1.015,3.389-3.73
			c0.252-1.947,0.425-13.145,0.425-20.095V80.181z M16.533,83.491c1.611,0.168,3.049,0.168,4.497,0.168
			c4.832,0,8.647-0.76,10.679-2.203c3.479-2.629,4.748-6.445,4.748-10.176c0-3.221-1.015-6.612-4.154-8.904
			c-3.052-2.121-7.292-2.884-11.614-2.884c-1.188,0-2.119-0.084-2.797,0.086c-0.681,0.168-1.188,0.762-1.188,1.527
			c-0.084,1.695-0.17,9.07-0.17,16.112V83.491z M16.533,91.63v11.703c0,7.801,1.865,11.275,8.903,11.275
			c7.119,0,13.651-3.391,13.651-13.48c0-6.869-3.477-11.361-8.48-13.312c-3.478-1.357-7.461-1.443-11.357-1.443h-2.717V91.63z"/>
		<path fill="#CDCCCC" d="M61.561,94.515c0-4.325-0.677-5.172-3.053-6.444l-1.611-0.849c-0.508-0.172-0.679-0.253-0.679-0.595V86.12
			c0-0.34,0.171-0.508,0.679-0.763l8.394-4.325c0.51-0.254,0.849-0.338,1.188-0.338c0.51,0,0.592,0.507,0.592,1.014l0.428,5.853
			h0.337c2.544-3.901,6.527-7.38,10.174-7.38c2.886,0,4.327,1.783,4.327,3.733c0,2.458-2.037,4.156-3.562,4.156
			c-0.934,0-1.779-0.341-2.458-0.679c-0.679-0.423-1.698-0.678-2.797-0.678c-1.359,0-3.564,0.847-5.006,3.56
			c-0.51,0.933-0.847,2.46-0.847,2.716v17.808c0,2.626,0.592,3.476,2.374,3.476h3.985c0.51,0,0.592,0.255,0.592,0.762v1.525
			c0,0.51-0.082,0.762-0.424,0.762c-0.51,0-4.406-0.252-8.984-0.252c-5.259,0-8.82,0.252-9.328,0.252
			c-0.342,0-0.51-0.168-0.51-0.846v-1.441c0-0.594,0.168-0.762,0.934-0.762h3.305c1.274,0,1.865-0.51,1.865-1.611
			c0.086-2.803,0.086-5.768,0.086-10.177V94.515z"/>
		<path fill="#CDCCCC" d="M91.747,92.396c0-2.885-0.511-4.41-4.748-5.09c-0.592-0.084-0.765-0.256-0.765-0.592v-0.765
			c0-0.255,0.173-0.424,0.594-0.592c2.713-1.021,5.934-2.374,9.156-4.156c0.682-0.339,1.102-0.507,1.614-0.507
			c0.426,0,0.505,0.422,0.426,1.014c-0.173,1.443-0.173,6.785-0.173,13.823v9.245c0,3.305,0,6.357,0.086,7.293
			c0.166,1.606,0.424,2.203,1.352,2.203h3.906c0.679,0,0.848,0.255,0.848,0.762v1.441c0,0.594-0.169,0.846-0.766,0.846
			c-0.678,0-4.576-0.252-8.139-0.252c-4.919,0-8.227,0.252-9.159,0.252c-0.423,0-0.677-0.168-0.677-0.675v-1.698
			c0-0.508,0.254-0.676,0.848-0.676h4.156c0.93,0,1.271-0.342,1.358-1.696c0.082-2.546,0.082-5.175,0.082-7.72V92.396z
			 M87.932,66.532c0-2.121,1.78-4.411,5.172-4.411c2.969,0,4.408,2.29,4.408,4.156c0,2.206-1.527,4.664-4.918,4.664
			C90.729,70.94,87.932,69.245,87.932,66.532z"/>
		<path fill="#CDCCCC" d="M120.07,106.47c0,6.359,2.881,7.461,4.406,7.461c1.951,0,4.411-0.339,5.6-1.102
			c0.422-0.253,0.764-0.168,1.018,0.171l0.423,0.763c0.253,0.336,0.084,0.678-0.171,0.934c-0.848,0.846-4.324,3.391-9.408,3.391
			c-4.156,0-8.231-3.988-8.231-7.209c0-3.477,0.26-10.936,0.26-12.123v-1.867c0-1.527,0.082-7.209,0.169-10.768h-5.174
			c-0.762,0-1.272-0.34-1.272-1.018c0-0.681,0.511-0.934,1.524-1.527c2.04-1.188,8.568-7.803,9.67-10.686
			c0.254-0.679,0.678-0.848,1.188-0.848c0.676,0,0.847,0.597,0.847,1.272l-0.423,8.394h11.785c0.51,0,0.765,0.424,0.592,0.768
			l-0.848,2.966c-0.082,0.423-0.254,0.679-0.76,0.679h-10.938c-0.173,3.898-0.255,7.971-0.255,11.871V106.47z"/>
		<path fill="#CDCCCC" d="M161.28,106.978c0,4.834,1.015,6.361,2.54,6.361c1.358,0,2.545-0.678,2.971-1.27
			c0.339-0.429,0.507-0.596,0.849-0.344l0.847,0.68c0.255,0.256,0.424,0.679-0.084,1.525c-0.678,1.272-2.29,4.156-6.617,4.156
			c-3.05,0-5.255-2.205-6.018-5.682H155.6c-1.782,2.122-4.58,3.899-8.395,5.172c-1.611,0.51-3.139,0.51-5.005,0.51
			c-2.034,0-5.089-1.698-5.089-7.037c0-3.904,1.781-7.293,8.482-10.261c3.814-1.696,8.224-3.73,9.582-4.919v-5.426
			c-0.173-1.443-0.254-3.648-1.189-4.75c-0.934-1.102-2.629-1.864-5.088-1.864c-1.693,0-4.324,0.676-5.51,1.782
			c-1.188,1.102-0.426,2.373-0.426,3.898c0,2.969-1.016,4.835-4.493,4.835c-1.358,0-2.04-0.765-2.04-2.716
			c0-2.713,2.381-5.936,5.854-7.971c3.562-2.119,6.532-2.965,10.348-2.965c3.982,0,5.595,1.186,6.782,2.289
			c1.779,1.78,1.866,3.73,1.866,6.018v12.974V106.978z M155.09,98.415c-3.055,2.289-11.367,3.982-11.367,11.025
			c0,3.136,1.871,4.658,4.414,4.658c2.457,0,6.953-2.965,6.953-5.252V98.415z"/>
		<path fill="#CDCCCC" d="M206.983,112.492c0,1.354,0.763,1.78,1.866,1.78h2.713c0.766,0,0.931,0.255,0.931,0.762v1.354
			c0,0.597-0.165,0.933-0.676,0.933c-0.597,0-3.223-0.252-8.057-0.252c-4.325,0-7.038,0.252-7.629,0.252
			c-0.511,0-0.682-0.252-0.682-0.933v-1.354c0-0.594,0.253-0.762,1.104-0.762h2.458c0.932,0,1.612-0.426,1.696-1.951
			c0.087-2.207,0.171-4.92,0.171-7.121V94.004c0-3.39,0-5.85-2.463-7.632c-2.03-1.524-4.066-1.524-6.186-1.524
			c-1.359,0-4.324,0.594-6.87,3.307c-1.694,1.864-1.947,4.153-1.947,5.765v17.555c0,2.289,0.253,2.799,2.034,2.799h2.121
			c0.675,0,0.847,0.255,0.847,0.847v1.44c0,0.51-0.172,0.762-0.594,0.762c-0.594,0-2.885-0.252-7.379-0.252
			c-4.324,0-7.038,0.252-7.545,0.252c-0.423,0-0.595-0.252-0.595-0.762v-1.525c0-0.507,0.172-0.762,0.85-0.762h2.455
			c1.104,0,1.701-0.258,1.701-1.696V92.733c0-2.544-1.359-3.984-3.479-5.004l-0.678-0.338c-0.594-0.254-0.678-0.51-0.678-0.765
			v-0.423c0-0.424,0.336-0.679,0.76-0.847l7.292-4.072c0.684-0.339,1.188-0.591,1.525-0.591c0.425,0,0.596,0.338,0.683,1.014
			l0.592,5.174h0.168c2.458-3.052,7.377-6.188,11.619-6.188c2.543,0,5.172,0.507,7.209,1.861c2.539,1.7,4.661,5.938,4.661,8.059
			V112.492z"/>
		<path fill="#CDCCCC" d="M252.095,112.492c0,1.354,0.765,1.78,1.866,1.78h2.714c0.764,0,0.933,0.255,0.933,0.762v1.354
			c0,0.597-0.169,0.933-0.678,0.933c-0.595,0-3.224-0.252-8.059-0.252c-4.324,0-7.037,0.252-7.629,0.252
			c-0.51,0-0.679-0.252-0.679-0.933v-1.354c0-0.594,0.256-0.762,1.103-0.762h2.458c0.934,0,1.61-0.426,1.695-1.951
			c0.085-2.207,0.172-4.92,0.172-7.121V94.004c0-3.39,0-5.85-2.459-7.632c-2.035-1.524-4.069-1.524-6.19-1.524
			c-1.357,0-4.325,0.594-6.87,3.307c-1.692,1.864-1.947,4.153-1.947,5.765v17.555c0,2.289,0.255,2.799,2.034,2.799h2.121
			c0.679,0,0.847,0.255,0.847,0.847v1.44c0,0.51-0.168,0.762-0.594,0.762c-0.595,0-2.884-0.252-7.376-0.252
			c-4.325,0-7.038,0.252-7.548,0.252c-0.423,0-0.592-0.252-0.592-0.762v-1.525c0-0.507,0.169-0.762,0.844-0.762h2.461
			c1.102,0,1.698-0.258,1.698-1.696V92.733c0-2.544-1.359-3.984-3.479-5.004l-0.681-0.338c-0.592-0.254-0.675-0.51-0.675-0.765
			v-0.423c0-0.424,0.336-0.679,0.762-0.847l7.292-4.072c0.677-0.339,1.186-0.591,1.525-0.591c0.424,0,0.594,0.338,0.681,1.014
			l0.592,5.174h0.168c2.464-3.052,7.379-6.188,11.617-6.188c2.545,0,5.177,0.507,7.211,1.861c2.545,1.7,4.661,5.938,4.661,8.059
			V112.492z"/>
		<path fill="#CDCCCC" d="M267.868,92.396c0-2.885-0.505-4.41-4.748-5.09c-0.595-0.084-0.765-0.256-0.765-0.592v-0.765
			c0-0.255,0.17-0.424,0.596-0.592c2.713-1.021,5.937-2.374,9.159-4.156c0.679-0.339,1.099-0.507,1.611-0.507
			c0.423,0,0.505,0.422,0.423,1.014c-0.17,1.443-0.17,6.785-0.17,13.823v9.245c0,3.305,0,6.357,0.084,7.293
			c0.168,1.606,0.425,2.203,1.356,2.203h3.901c0.678,0,0.847,0.255,0.847,0.762v1.441c0,0.594-0.169,0.846-0.761,0.846
			c-0.677,0-4.582-0.252-8.144-0.252c-4.916,0-8.226,0.252-9.153,0.252c-0.429,0-0.682-0.168-0.682-0.675v-1.698
			c0-0.508,0.253-0.676,0.849-0.676h4.155c0.936,0,1.272-0.342,1.354-1.696c0.087-2.546,0.087-5.175,0.087-7.72V92.396z
			 M264.053,66.532c0-2.121,1.785-4.411,5.172-4.411c2.973,0,4.41,2.29,4.41,4.156c0,2.206-1.524,4.664-4.916,4.664
			C266.853,70.94,264.053,69.245,264.053,66.532z"/>
		<path fill="#CDCCCC" d="M291.188,96.548c0,4.58,2.034,9.754,4.325,12.893c2.796,3.644,6.358,4.322,9.239,4.322
			c4.242,0,6.446-0.934,9.33-3.648c0.168-0.166,0.425-0.256,0.678,0l0.85,0.849c0.34,0.339,0.423,0.597,0,1.106
			c-2.458,2.795-7.884,6.018-13.652,6.018c-4.497,0-9.244-1.018-13.145-5.934c-3.138-4.156-3.816-7.721-3.816-11.533
			c0-9.921,6.951-19.926,18.145-19.926c8.823,0,11.536,5.086,11.536,6.866c-0.087,1.95-1.357,2.968-3.137,2.968
			c-1.954,0-3.396-1.104-4.667-3.391c-1.864-3.479-3.646-3.73-5.681-3.73C296.359,83.407,291.188,87.815,291.188,96.548z"/>
		<path fill="#CDCCCC" d="M346.05,106.978c0,4.834,1.018,6.361,2.545,6.361c1.356,0,2.544-0.678,2.968-1.27
			c0.337-0.429,0.508-0.596,0.847-0.344l0.847,0.68c0.256,0.256,0.426,0.679-0.081,1.525c-0.679,1.272-2.291,4.156-6.62,4.156
			c-3.05,0-5.252-2.205-6.018-5.682h-0.168c-1.779,2.122-4.579,3.899-8.395,5.172c-1.611,0.51-3.139,0.51-5.002,0.51
			c-2.035,0-5.09-1.698-5.09-7.037c0-3.904,1.784-7.293,8.48-10.261c3.817-1.696,8.227-3.73,9.582-4.919v-5.426
			c-0.168-1.443-0.254-3.648-1.188-4.75s-2.626-1.864-5.084-1.864c-1.699,0-4.325,0.676-5.518,1.782
			c-1.184,1.102-0.422,2.373-0.422,3.898c0,2.969-1.018,4.835-4.492,4.835c-1.359,0-2.038-0.765-2.038-2.716
			c0-2.713,2.377-5.936,5.854-7.971c3.561-2.119,6.525-2.965,10.342-2.965c3.985,0,5.6,1.186,6.783,2.289
			c1.779,1.78,1.866,3.73,1.866,6.018v12.974V106.978z M339.858,98.415c-3.05,2.289-11.362,3.982-11.362,11.025
			c0,3.136,1.867,4.658,4.412,4.658c2.46,0,6.95-2.965,6.95-5.252V98.415z"/>
	</g>
</g>
</svg>
