<?xml version="1.0" encoding="utf-8"?>
<!-- Generator: Adobe Illustrator 15.1.0, SVG Export Plug-In . SVG Version: 6.00 Build 0)  -->
<!DOCTYPE svg PUBLIC "-//W3C//DTD SVG 1.1//EN" "http://www.w3.org/Graphics/SVG/1.1/DTD/svg11.dtd">
<svg version="1.1" id="Layer_1" xmlns="http://www.w3.org/2000/svg" xmlns:xlink="http://www.w3.org/1999/xlink" x="0px" y="0px"
	 width="149.013px" height="99.559px" viewBox="0 0 149.013 99.559" enable-background="new 0 0 149.013 99.559"
	 xml:space="preserve">
<g>
	<defs>
		<path id="SVGID_1_" d="M0,24.018c0,13.565,9.915,23.889,24.992,23.889c8.537,0,15.355-3.311,20.104-7.214V21.239H24.578v7.078
			h12.328v8.672c-2.965,2.112-7.097,3.503-11.634,3.503c-9.851,0-16.392-7.011-16.392-16.609c0-8.999,6.747-16.409,15.628-16.409
			c6.131,0,9.778,1.921,13.499,4.966l5.366-6.154C38.418,2.251,33.256,0,24.857,0C10.324,0,0,10.981,0,24.018"/>
	</defs>
	<use xlink:href="#SVGID_1_"  overflow="visible" fill="#D2D2D2"/>
	<clipPath id="SVGID_2_">
		<use xlink:href="#SVGID_1_"  overflow="visible"/>
	</clipPath>
	<rect clip-path="url(#SVGID_2_)" fill="#D2D2D2" width="45.097" height="47.906"/>
</g>
<g>
	<defs>
		<polygon id="SVGID_3_" points="82.909,0.79 82.909,32.818 57.082,0.79 49.236,0.79 49.236,47.11 57.565,47.11 57.565,14.162 
			84.146,47.11 91.238,47.11 91.238,0.79 		"/>
	</defs>
	<use xlink:href="#SVGID_3_"  overflow="visible" fill="#D2D2D2"/>
	<clipPath id="SVGID_4_">
		<use xlink:href="#SVGID_3_"  overflow="visible"/>
	</clipPath>
	<rect x="49.236" y="0.79" clip-path="url(#SVGID_4_)" fill="#D2D2D2" width="42.002" height="46.32"/>
</g>
<g>
	<defs>
		<rect id="SVGID_5_" x="97.232" y="0.79" width="8.471" height="46.32"/>
	</defs>
	<use xlink:href="#SVGID_5_"  overflow="visible" fill="#D2D2D2"/>
	<clipPath id="SVGID_6_">
		<use xlink:href="#SVGID_5_"  overflow="visible"/>
	</clipPath>
	<rect x="97.231" y="0.79" clip-path="url(#SVGID_6_)" fill="#D2D2D2" width="8.472" height="46.32"/>
</g>
<g>
	<defs>
		<path id="SVGID_7_" d="M120.161,8.202h9.846c6.335,0,10.402,2.848,10.402,8.34c0,4.963-3.997,8.335-10.402,8.335h-9.846V8.202z
			 M111.69,0.79v46.32h8.471V32.225h9.574c10.598,0,19.277-5.428,19.277-15.889c0-9.455-7.086-15.546-18.315-15.546H111.69z"/>
	</defs>
	<use xlink:href="#SVGID_7_"  overflow="visible" fill="#D2D2D2"/>
	<clipPath id="SVGID_8_">
		<use xlink:href="#SVGID_7_"  overflow="visible"/>
	</clipPath>
	<rect x="111.69" y="0.79" clip-path="url(#SVGID_8_)" fill="#D2D2D2" width="37.322" height="46.32"/>
</g>
<g>
	<defs>
		<path id="SVGID_9_" d="M11.441,76.054c0-10.365,8.44-18.811,18.813-18.811c10.378,0,18.816,8.445,18.816,18.811
			c0,10.383-8.438,18.822-18.816,18.822C19.882,94.876,11.441,86.437,11.441,76.054 M55.038,76.054
			c0-10.365,8.444-18.811,18.818-18.811c10.373,0,18.811,8.445,18.811,18.811c0,10.383-8.438,18.822-18.811,18.822
			C63.482,94.876,55.038,86.437,55.038,76.054 M98.637,76.054c0-10.365,8.445-18.811,18.821-18.811
			c10.373,0,18.812,8.445,18.812,18.811c0,10.383-8.439,18.822-18.812,18.822C107.082,94.876,98.637,86.437,98.637,76.054
			 M97.119,64.341c-0.004-0.008-0.008-0.01-0.01-0.01c-0.271,0.534-0.812,0.908-1.454,0.908c-0.62,0-1.151-0.363-1.435-0.873
			c-0.003,0.002-0.003,0.002-0.007,0.006c-4.058-7.05-11.659-11.809-20.357-11.809c-8.643,0-16.193,4.695-20.272,11.666
			c-0.002,0.003-0.006,0.006-0.008,0.012c-0.012,0.026-0.032,0.052-0.05,0.08v-0.003c-0.274,0.542-0.821,0.921-1.468,0.921
			c-0.607,0-1.116-0.341-1.404-0.828c0,0.004-0.005,0.004-0.012,0.012c-4.048-7.079-11.661-11.859-20.388-11.859
			c-12.953,0-23.494,10.541-23.494,23.49c0,12.964,10.541,23.505,23.494,23.505c8.727,0,16.34-4.782,20.388-11.86
			c0.007,0.004,0.012,0.008,0.012,0.015c0.288-0.489,0.797-0.835,1.404-0.835c0.646,0,1.193,0.385,1.468,0.926V87.8
			c0.018,0.027,0.038,0.05,0.05,0.079c0.002,0.007,0.006,0.015,0.008,0.016c4.079,6.962,11.63,11.664,20.272,11.664
			c8.698,0,16.3-4.763,20.357-11.81c0.004,0,0.004,0.002,0.007,0.01c0.283-0.517,0.814-0.881,1.435-0.881
			c0.642,0,1.183,0.377,1.454,0.908c0.002-0.002,0.006-0.006,0.01-0.006c4.055,7.034,11.647,11.778,20.339,11.778
			c12.953,0,23.495-10.541,23.495-23.505c0-12.949-10.542-23.49-23.495-23.49C108.767,52.563,101.174,57.308,97.119,64.341"/>
	</defs>
	<use xlink:href="#SVGID_9_"  overflow="visible" fill="#D2D2D2"/>
	<clipPath id="SVGID_10_">
		<use xlink:href="#SVGID_9_"  overflow="visible"/>
	</clipPath>
	<rect x="6.761" y="52.563" clip-path="url(#SVGID_10_)" fill="#D2D2D2" width="134.192" height="46.995"/>
</g>
</svg>
