<?xml version="1.0" encoding="utf-8"?>
<!-- Generator: Adobe Illustrator 15.1.0, SVG Export Plug-In . SVG Version: 6.00 Build 0)  -->
<!DOCTYPE svg PUBLIC "-//W3C//DTD SVG 1.1//EN" "http://www.w3.org/Graphics/SVG/1.1/DTD/svg11.dtd">
<svg version="1.1" id="Layer_1" xmlns="http://www.w3.org/2000/svg" xmlns:xlink="http://www.w3.org/1999/xlink" x="0px" y="0px"
	 width="312px" height="127.681px" viewBox="0 0 312 127.681" enable-background="new 0 0 312 127.681" xml:space="preserve">
<g>
	<polygon fill="#D1D2D3" points="2.12,126.997 4.858,126.997 4.858,100.051 2.12,100.051 2.12,126.997 	"/>
	<polygon fill="#D1D2D3" points="40.54,122.886 40.463,122.886 24.396,100.051 20.972,100.051 20.972,126.997 23.716,126.997 
		23.716,103.933 23.792,103.933 39.852,126.997 43.281,126.997 43.281,100.051 40.54,100.051 40.54,122.886 	"/>
	<path fill="#D1D2D3" d="M77.829,117.359c-0.236,1.096-1.146,2.748-1.958,3.696c-0.862,1.002-1.967,1.975-3.479,2.595
		c-1.508,0.623-2.755,0.833-4.812,0.833h-4.93v-21.919h4.865c2.056,0,3.967,0.162,5.492,0.926c0.967,0.486,1.703,0.753,2.724,1.991
		c0.464,0.562,1.276,1.305,1.974,3.672c0.479,1.634,0.555,3.086,0.555,4.483C78.26,115.027,78.15,115.859,77.829,117.359
		L77.829,117.359z M77.503,103.545c-0.972-1.091-2.405-2.043-4.07-2.658c-1.391-0.517-3.367-0.836-5.044-0.836h-8.482v26.945h8.549
		c1.396-0.031,3.37-0.293,4.474-0.712c1.543-0.572,2.725-1.16,3.932-2.314c1.182-1.128,2.311-2.487,3.011-4.404
		c0.671-1.824,1.055-3.783,1.055-6.044c0-2.23-0.248-3.936-0.731-5.353C79.496,106.125,78.417,104.566,77.503,103.545
		L77.503,103.545z"/>
	<path fill="#D1D2D3" d="M112.339,116.645c0,1.294-0.126,2.402-0.381,3.333c-0.257,0.925-0.59,1.703-1.01,2.336
		c-0.419,0.64-0.888,1.142-1.41,1.508c-0.52,0.368-1.038,0.652-1.56,0.853c-0.517,0.2-1.029,0.338-1.524,0.399
		c-0.49,0.063-0.979,0.098-1.307,0.098c-0.357,0-0.876-0.034-1.362-0.098c-0.481-0.062-0.983-0.199-1.502-0.399
		c-0.517-0.2-1.041-0.484-1.557-0.853c-0.522-0.366-0.991-0.868-1.41-1.508c-0.419-0.633-0.754-1.411-1.009-2.336
		c-0.252-0.931-0.381-2.039-0.381-3.333v-16.594h-2.741v16.898c0,1.119,0.133,2.305,0.4,3.558c0.266,1.259,0.767,2.416,1.502,3.483
		c0.738,1.064,1.741,1.951,3.005,2.646c1.274,0.694,3.027,1.044,5.056,1.044c2.005,0,3.719-0.35,5-1.044
		c1.284-0.695,2.289-1.582,3.025-2.646c0.738-1.067,1.238-2.225,1.509-3.483c0.262-1.253,0.396-2.438,0.396-3.558v-16.898h-2.739
		V116.645L112.339,116.645z"/>
	<path fill="#D1D2D3" d="M144.129,113.772c-1.014-0.573-2.125-1.029-3.329-1.37c-1.206-0.343-2.317-0.729-3.326-1.165
		c-1.018-0.427-1.868-0.979-2.558-1.65c-0.681-0.674-1.024-1.62-1.024-2.839c0-0.833,0.164-1.564,0.495-2.188
		c0.331-0.619,0.765-1.128,1.315-1.521c0.545-0.396,1.157-0.681,1.842-0.872c0.686-0.196,1.389-0.288,2.096-0.288
		c2.284,0,4.02,0.874,5.213,2.629l2.399-1.87c-1.066-1.216-2.221-2.069-3.462-2.548c-1.242-0.485-2.629-0.722-4.15-0.722
		c-1.093,0-2.156,0.15-3.196,0.456c-1.041,0.302-1.974,0.776-2.801,1.409c-0.827,0.631-1.483,1.432-1.979,2.396
		c-0.495,0.964-0.738,2.096-0.738,3.386c0,1.248,0.195,2.279,0.586,3.104c0.392,0.825,0.914,1.512,1.562,2.052
		c0.645,0.551,1.38,0.998,2.207,1.353c0.827,0.36,1.677,0.674,2.548,0.952c0.876,0.279,1.731,0.561,2.55,0.837
		c0.827,0.284,1.562,0.632,2.209,1.05c0.648,0.417,1.165,0.939,1.559,1.563c0.395,0.615,0.59,1.401,0.59,2.334
		c0,0.79-0.177,1.487-0.533,2.097c-0.355,0.609-0.806,1.124-1.349,1.538c-0.545,0.42-1.166,0.743-1.847,0.953
		c-0.684,0.22-1.37,0.325-2.056,0.325c-1.421,0-2.65-0.297-3.691-0.898c-1.041-0.592-1.852-1.387-2.438-2.376l-2.469,1.789
		c1.035,1.419,2.3,2.445,3.783,3.064c1.487,0.622,3.051,0.931,4.706,0.931c1.062,0,2.117-0.175,3.175-0.533
		c1.05-0.353,2.002-0.861,2.853-1.521s1.536-1.474,2.058-2.452c0.522-0.979,0.776-2.077,0.776-3.296
		c0-1.624-0.343-2.903-1.029-3.842C145.997,115.101,145.146,114.343,144.129,113.772L144.129,113.772z"/>
	<polygon fill="#D1D2D3" points="160.848,102.564 169.863,102.564 169.863,126.997 172.604,126.997 172.604,102.564 
		181.628,102.564 181.628,100.051 160.848,100.051 160.848,102.564 	"/>
	<path fill="#D1D2D3" d="M204.821,112.377h-5.164v-9.813h4.876c1.219,0,2.25,0.119,3.097,0.364c0.854,0.238,1.532,0.575,2.041,1.005
		c0.508,0.432,0.878,0.932,1.11,1.505c0.222,0.569,0.335,1.591,0.335,2.222c0,0.66-0.105,1.322-0.335,1.898
		c-0.228,0.566-0.484,1.093-0.995,1.511c-0.503,0.422-1.009,0.674-1.862,0.928C207.074,112.251,206.041,112.377,204.821,112.377
		L204.821,112.377z M212.258,112.753c1.165-1.3,1.831-3.215,1.831-5.094c0-2.407-0.794-4.627-2.384-5.822
		c-1.584-1.193-3.748-1.786-6.487-1.786h-8.299v26.945h2.737v-12.105h6.292l6.579,12.105h3.351l-6.964-12.372
		C209.155,114.495,210.909,114.24,212.258,112.753L212.258,112.753z"/>
	<polygon fill="#D1D2D3" points="230.753,126.997 233.49,126.997 233.49,100.051 230.753,100.051 230.753,126.997 	"/>
	<polygon fill="#D1D2D3" points="253.519,114.46 266.574,114.46 266.574,111.948 253.519,111.948 253.519,102.564 267.486,102.564 
		267.486,100.051 250.776,100.051 250.776,126.997 267.945,126.997 267.945,124.483 253.519,124.483 253.519,114.46 	"/>
	<path fill="#D1D2D3" d="M296.096,113.772c-1.017-0.573-2.128-1.029-3.334-1.37c-1.204-0.343-2.319-0.729-3.329-1.165
		c-1.014-0.427-1.863-0.979-2.552-1.65c-0.684-0.674-1.021-1.62-1.021-2.839c0-0.833,0.163-1.564,0.494-2.188
		c0.328-0.619,0.762-1.128,1.31-1.521c0.546-0.396,1.16-0.681,1.846-0.872c0.687-0.196,1.382-0.288,2.096-0.288
		c2.277,0,4.02,0.874,5.211,2.629l2.398-1.87c-1.065-1.216-2.223-2.069-3.467-2.548c-1.238-0.485-2.623-0.722-4.143-0.722
		c-1.096,0-2.162,0.15-3.198,0.456c-1.041,0.302-1.975,0.776-2.796,1.409c-0.826,0.631-1.49,1.432-1.981,2.396
		c-0.493,0.964-0.743,2.096-0.743,3.386c0,1.248,0.198,2.279,0.588,3.104c0.397,0.825,0.918,1.512,1.562,2.052
		c0.646,0.551,1.382,0.998,2.206,1.353c0.829,0.36,1.678,0.674,2.555,0.952c0.876,0.279,1.722,0.561,2.551,0.837
		c0.822,0.284,1.555,0.632,2.206,1.05c0.646,0.417,1.167,0.939,1.562,1.563c0.388,0.615,0.585,1.401,0.585,2.334
		c0,0.79-0.173,1.487-0.533,2.097c-0.354,0.609-0.802,1.124-1.348,1.538c-0.545,0.42-1.162,0.743-1.848,0.953
		c-0.687,0.22-1.367,0.325-2.054,0.325c-1.426,0-2.652-0.297-3.693-0.898c-1.042-0.592-1.849-1.387-2.434-2.376l-2.473,1.789
		c1.031,1.419,2.303,2.445,3.783,3.064c1.483,0.622,3.048,0.931,4.698,0.931c1.071,0,2.127-0.175,3.176-0.533
		c1.059-0.353,2.014-0.861,2.857-1.521c0.852-0.66,1.537-1.474,2.056-2.452c0.528-0.979,0.784-2.077,0.784-3.296
		c0-1.624-0.343-2.903-1.028-3.842C297.958,115.101,297.105,114.343,296.096,113.772L296.096,113.772z"/>
	<polygon fill="#D1D2D3" points="31.078,35.153 12.273,35.153 12.273,0.036 0,0.036 0,88.571 12.273,88.571 12.292,49.21 
		31.064,49.21 31.078,88.571 43.352,88.571 43.352,0.036 31.078,0.036 31.078,35.153 	"/>
	<path fill="#D1D2D3" d="M95.003,50.908l6.506-33.024l6.506,33.024H95.003L95.003,50.908z M94.641,0.024l-16.014,76.3H60.086V49.21
		h18.238V35.153H60.086V12.273h19.965V0.036H47.817v88.536h28.238h3.996h7.766l5.048-25.45h17.274l5.003,25.45h11.761L108.212,0.024
		H94.641L94.641,0.024z"/>
	<path fill="#D1D2D3" d="M240.94,65.817c-0.097,1.255-0.294,2.429-0.609,3.532c-0.294,1.1-0.738,2.117-1.304,3.062
		c-0.584,0.94-1.332,1.645-2.277,2.126c-1.283,0.619-2.662,0.938-4.153,0.938h-4.345h-5.306V47.862h7.727
		c2.221,0,4.012,0.257,5.364,0.765c1.345,0.516,2.406,1.314,3.144,2.415c0.743,1.097,1.246,2.514,1.511,4.244
		c0.273,1.733,0.406,4.632,0.406,6.991C241.097,63.367,241.048,64.56,240.94,65.817L240.94,65.817z M222.946,10.75h8.849
		c3.232,0.155,5.325,1.062,6.266,2.717c0.955,1.648,1.419,4.117,1.419,7.418c0,2.126-0.089,6.027-0.257,7.599
		c-0.168,1.567-0.587,2.905-1.261,4.006c-1.143,1.655-2.688,2.572-4.609,2.764c-1.92,0.205-3.761,0.293-5.513,0.293h-4.894V10.75
		L222.946,10.75z M254.336,67.113c0.146-1.814,0.205-3.619,0.205-5.429c0-5.739-0.839-10.235-2.522-13.886
		c-1.695-3.65-4.528-5.793-8.511-6.425v-0.235c1.883-0.786,3.438-1.848,4.656-3.182c1.22-1.331,2.147-2.808,2.786-4.422
		c0.645-1.603,1.081-3.553,1.322-5.438c0.228-1.886,0.355-3.77,0.355-5.653c0-2.984-0.227-5.775-0.666-8.373
		c-0.432-2.589-1.473-5.104-3.092-7.549c-1.01-1.483-2.13-2.66-3.381-3.529c-1.253-0.864-2.557-1.507-3.903-1.941
		c-1.35-0.433-2.317-0.707-3.837-0.826c-1.523-0.114-2.345-0.179-3.843-0.179h-21.695h-1.169h-13.395l-13.354,43.579
		c0,0.02-13.126-43.579-13.126-43.579l-5.683,0.013l-3.205,16.078l15.171,45.348v27.104h13.848V61.75l19.744-58.247v84.935h24.994
		c5.061,0,7.911-1.25,10.808-3.772c2.902-2.51,5.131-6.553,6.688-12.132C253.937,70.723,254.201,68.918,254.336,67.113
		L254.336,67.113z"/>
	<polygon fill="#D1D2D3" points="149.936,0.036 137.946,62.014 125.999,0 112.968,0.036 131.246,88.571 144.549,88.571 
		159.728,14.833 162.755,0.036 149.936,0.036 	"/>
	<polygon fill="#D1D2D3" points="258.21,88.571 270.479,88.571 270.479,0.038 258.21,0.038 258.21,88.571 	"/>
	<polygon fill="#D1D2D3" points="273.307,0.038 273.307,12.333 286.5,12.333 286.5,88.571 298.768,88.571 298.768,12.333 
		312,12.333 312,0.038 273.307,0.038 	"/>
</g>
</svg>
