<?xml version="1.0" encoding="utf-8"?>
<!-- Generator: Adobe Illustrator 15.1.0, SVG Export Plug-In . SVG Version: 6.00 Build 0)  -->
<!DOCTYPE svg PUBLIC "-//W3C//DTD SVG 1.1//EN" "http://www.w3.org/Graphics/SVG/1.1/DTD/svg11.dtd">
<svg version="1.1" id="Layer_1" xmlns="http://www.w3.org/2000/svg" xmlns:xlink="http://www.w3.org/1999/xlink" x="0px" y="0px"
	 width="184.149px" height="62.37px" viewBox="0 0 184.149 62.37" enable-background="new 0 0 184.149 62.37" xml:space="preserve">
<g>
	<path fill="#D1D2D3" d="M68.348,57.891c0-1.221-0.917-2.199-2.708-2.199c-0.534,0-1.077,0.035-1.655,0.106v6.465h1.111v-2.128
		c0.215,0.009,0.438,0.026,0.65,0.026C67.413,60.161,68.348,59.218,68.348,57.891L68.348,57.891z M67.19,57.927
		c0,0.739-0.464,1.265-1.47,1.265c-0.197,0-0.402-0.018-0.625-0.035v-2.389c0.232-0.035,0.482-0.053,0.731-0.053
		C66.736,56.715,67.19,57.285,67.19,57.927L67.19,57.927z M78.555,62.263v-1.014h-2.869v-1.81h2.592v-0.979h-2.592V56.75h2.869
		v-1.015h-3.98v6.527H78.555L78.555,62.263z M90.845,62.263l-1.709-2.627c0.81-0.355,1.272-1.041,1.272-1.888
		c0-1.158-0.818-2.057-2.672-2.057c-0.658,0-1.201,0.044-1.718,0.106v6.465h1.112v-2.359c0.214,0.009,0.437,0.018,0.65,0.018
		c0.125,0,0.231,0,0.348-0.009l1.426,2.351H90.845L90.845,62.263z M89.233,57.802c0,0.748-0.489,1.203-1.461,1.203
		c-0.214,0-0.437-0.01-0.642-0.036v-2.228c0.223-0.045,0.48-0.054,0.748-0.054C88.734,56.688,89.233,57.143,89.233,57.802
		L89.233,57.802z M103.491,57.891c0-1.221-0.916-2.199-2.707-2.199c-0.533,0-1.076,0.035-1.655,0.106v6.465h1.112v-2.128
		c0.213,0.009,0.437,0.026,0.65,0.026C102.558,60.161,103.491,59.218,103.491,57.891L103.491,57.891z M102.336,57.927
		c0,0.739-0.464,1.265-1.472,1.265c-0.195,0-0.4-0.018-0.623-0.035v-2.389c0.231-0.035,0.481-0.053,0.73-0.053
		C101.881,56.715,102.336,57.285,102.336,57.927L102.336,57.927z M116.816,62.263v-1.014h-2.868v-1.81h2.592v-0.979h-2.592V56.75
		h2.868v-1.015h-3.98v6.527H116.816L116.816,62.263z M132.153,56.75v-1.015h-5.254v1.015h2.075v5.513h1.112V56.75H132.153
		L132.153,56.75z M148.39,59.762v-4.026h-1.112v3.946c0,1.113-0.561,1.674-1.497,1.674c-0.943,0-1.497-0.552-1.497-1.674v-3.946
		h-1.111v4.026c0,1.692,0.961,2.608,2.591,2.608C147.366,62.37,148.39,61.427,148.39,59.762L148.39,59.762z M166.212,62.263
		l-3.001-6.616h-0.16l-3.01,6.616h1.148l0.632-1.496h2.582l0.632,1.496H166.212L166.212,62.263z M164.038,59.887h-1.852l0.926-2.183
		L164.038,59.887L164.038,59.887z M184.149,62.263v-1.014h-2.868v-5.514h-1.112v6.527H184.149L184.149,62.263z"/>
	<path fill="#D1D2D3" d="M4.363,57.891c0-1.221-0.916-2.199-2.707-2.199c-0.535,0-1.078,0.035-1.656,0.106v6.465h1.112v-2.128
		c0.214,0.009,0.437,0.026,0.65,0.026C3.429,60.161,4.363,59.218,4.363,57.891L4.363,57.891z M3.207,57.927
		c0,0.739-0.464,1.265-1.471,1.265c-0.196,0-0.401-0.018-0.624-0.035v-2.389c0.231-0.035,0.481-0.053,0.73-0.053
		C2.752,56.715,3.207,57.285,3.207,57.927L3.207,57.927z M11.862,62.263l-1.709-2.627c0.81-0.355,1.272-1.041,1.272-1.888
		c0-1.158-0.818-2.057-2.672-2.057c-0.658,0-1.201,0.044-1.718,0.106v6.465h1.112v-2.359c0.214,0.009,0.437,0.018,0.65,0.018
		c0.125,0,0.232,0,0.348-0.009l1.426,2.351H11.862L11.862,62.263z M10.252,57.802c0,0.748-0.49,1.203-1.462,1.203
		c-0.214,0-0.437-0.01-0.642-0.036v-2.228c0.223-0.045,0.48-0.054,0.748-0.054C9.752,56.688,10.252,57.143,10.252,57.802
		L10.252,57.802z M20.822,59.004c0-1.942-1.379-3.375-3.268-3.375s-3.331,1.433-3.331,3.375c0,1.934,1.38,3.366,3.269,3.366
		S20.822,60.938,20.822,59.004L20.822,59.004z M19.63,59.004c0,1.354-0.864,2.379-2.103,2.379c-1.247,0-2.111-1.024-2.111-2.379
		c0-1.363,0.864-2.379,2.111-2.379C18.766,56.625,19.63,57.641,19.63,59.004L19.63,59.004z M26.816,55.735h-1.112v4.355
		c0,0.847-0.303,1.265-0.997,1.265c-0.41,0-0.847-0.143-1.158-0.355l-0.418,0.907c0.463,0.303,0.961,0.463,1.594,0.463
		c1.469,0,2.092-0.898,2.092-2.208V55.735L26.816,55.735z M35.206,62.263v-1.014h-2.868v-1.81h2.592v-0.979h-2.592V56.75h2.868
		v-1.015h-3.979v6.527H35.206L35.206,62.263z M45.413,61.756l-0.339-0.943c-0.525,0.312-1.202,0.517-1.781,0.517
		c-1.434,0-2.334-0.953-2.334-2.325c0-1.381,0.873-2.334,2.308-2.334c0.579,0,1.22,0.205,1.737,0.499l0.383-0.944
		c-0.553-0.338-1.292-0.596-2.103-0.596c-2.048,0-3.517,1.441-3.517,3.375c0,1.942,1.45,3.366,3.517,3.366
		C44.095,62.37,44.869,62.104,45.413,61.756L45.413,61.756z M55.076,56.75v-1.015h-5.254v1.015h2.076v5.513h1.111V56.75H55.076
		L55.076,56.75z"/>
	<path fill="#D1D2D3" d="M97.855,18.141c0,0,8.526-2.697,8.638-2.735c-0.299-0.134-0.615-0.259-0.963-0.368l-3.633-1.146
		l-4.042,1.275V18.141L97.855,18.141z"/>
	<path fill="#D1D2D3" d="M105.937,3.982c3.243-1.023,5.137,0.123,5.137,2.881c0,1.522-0.521,2.79-1.501,3.786
		c0.832,0.484,1.601,1.027,2.286,1.631c1.979-1.918,3.051-4.383,3.051-7.214c0-4.187-2.61-5.066-4.802-5.066
		c-1.036,0-2.186,0.197-3.417,0.584L93.153,4.853v0.208l4.68,1.476L105.937,3.982L105.937,3.982z"/>
	<path fill="#D1D2D3" d="M78.617,15.038c-0.347,0.109-0.664,0.234-0.963,0.368c0.113,0.039,8.637,2.735,8.637,2.735v-2.975
		l-4.04-1.274L78.617,15.038L78.617,15.038z"/>
	<path fill="#D1D2D3" d="M73.074,6.864c0-2.759,1.895-3.905,5.139-2.881l8.104,2.555l4.679-1.476V4.853L77.459,0.584
		C76.228,0.197,75.078,0,74.04,0c-2.188,0-4.801,0.879-4.801,5.066c0,2.831,1.073,5.296,3.052,7.214
		c0.686-0.604,1.453-1.147,2.286-1.63C73.598,9.654,73.074,8.387,73.074,6.864L73.074,6.864z"/>
	<path fill="#D1D2D3" d="M111.781,14.167c-0.159-0.169-0.327-0.333-0.496-0.493c-0.168-0.159-0.34-0.313-0.516-0.46
		c-0.748-0.63-1.559-1.168-2.391-1.614c-0.253-0.135-0.507-0.262-0.764-0.38c-0.283-0.132-0.568-0.255-0.852-0.366
		c-0.302-0.118-0.603-0.227-0.899-0.32l-7.627-2.406l-5.449-1.718v26.31l3.673,1.158V22.295l1.776,0.56l7.938,2.503
		c1.336,0.421,2.555,0.635,3.623,0.635c1.482,0,2.629-0.41,3.408-1.219c0.844-0.876,1.272-2.233,1.272-4.034
		C114.479,18.045,113.371,15.855,111.781,14.167L111.781,14.167z M107.689,22.589c-0.598,0-1.286-0.121-2.047-0.362l-9.182-2.894
		v-8.619l5.437,1.714l1.161,0.366l1.159,0.366l1.733,0.546c0.854,0.269,1.585,0.625,2.217,1.045c0.221,0.148,0.437,0.297,0.63,0.461
		c0.19,0.163,0.358,0.339,0.521,0.518c0.871,0.961,1.339,2.145,1.339,3.512C110.657,21.37,109.575,22.589,107.689,22.589
		L107.689,22.589z"/>
	<path fill="#D1D2D3" d="M85.912,8.127l-7.629,2.406c-0.309,0.097-0.609,0.204-0.904,0.317c-0.294,0.113-0.58,0.234-0.859,0.361
		c-0.262,0.12-0.516,0.248-0.766,0.38c-0.878,0.465-1.679,1.005-2.389,1.609c-0.177,0.151-0.344,0.308-0.51,0.466
		c-0.17,0.162-0.333,0.329-0.49,0.498c-1.713,1.85-2.694,4.132-2.694,6.576c0,3.485,1.574,5.252,4.681,5.252
		c1.068,0,2.287-0.214,3.623-0.635l7.938-2.503l1.776-0.56v11.582l3.672-1.158V6.409L85.912,8.127L85.912,8.127z M87.688,19.333
		l-9.183,2.894c-0.76,0.241-1.449,0.362-2.045,0.362c0,0,0,0-0.001,0c-1.886,0-2.968-1.22-2.968-3.347
		c0-1.367,0.467-2.551,1.338-3.512c0.162-0.179,0.332-0.355,0.521-0.518c0.191-0.164,0.409-0.313,0.631-0.461
		c0.629-0.42,1.361-0.776,2.215-1.045l1.734-0.547l1.16-0.365l1.159-0.366l5.438-1.714V19.333L87.688,19.333z"/>
</g>
</svg>
