<?xml version="1.0" encoding="utf-8"?>
<!-- Generator: Adobe Illustrator 15.1.0, SVG Export Plug-In . SVG Version: 6.00 Build 0)  -->
<!DOCTYPE svg PUBLIC "-//W3C//DTD SVG 1.1//EN" "http://www.w3.org/Graphics/SVG/1.1/DTD/svg11.dtd">
<svg version="1.1" id="Layer_1" xmlns="http://www.w3.org/2000/svg" xmlns:xlink="http://www.w3.org/1999/xlink" x="0px" y="0px"
	 width="278.375px" height="165.167px" viewBox="0 0 278.375 165.167" enable-background="new 0 0 278.375 165.167"
	 xml:space="preserve">
<g>
	<path fill="#D1D2D3" d="M15.19,36.474v0.589c0,4.314,1.631,6.394,4.828,6.394c3.12,0,4.973-1.633,4.973-4.385
		c0-4.832-3.638-5.2-9.433-7.798C7.685,27.703,3.675,22.583,3.675,16.192C3.675,6.762,10.959,0,21.645,0
		c9.516,0,16.052,6.089,16.052,15.524v0.818h-11.89c0-3.27-1.775-5.125-4.82-5.125c-2.38,0-4.088,1.633-4.088,3.938
		c0,3.93,3.863,4.749,10.621,8.24c7.205,3.713,10.7,8.395,10.7,14.71c0,9.209-7.576,16.785-17.391,16.785
		c-11.732,0-17.968-5.943-17.968-17.236v-1.182H15.19z"/>
	<polygon fill="#D1D2D3" points="45.782,53.856 45.782,13.294 35.969,13.294 35.969,1.036 68.734,1.036 68.734,13.294 
		58.704,13.294 58.704,53.856 	"/>
	<path fill="#D1D2D3" d="M84.697,18.344l-5.271,16.936h10.471L84.697,18.344z M73.257,53.856h-14.11l20.279-52.82h10.55
		l20.273,52.82H95.992l-2.604-7.656H75.935L73.257,53.856z"/>
	<polygon fill="#D1D2D3" points="108.758,53.856 108.758,1.036 120.419,1.036 139.811,30.38 139.811,1.036 152.734,1.036 
		152.734,53.856 141.37,53.856 121.688,24.445 121.688,53.856 	"/>
	<path fill="#D1D2D3" d="M187.907,27.26c0-9.51-5.125-14.856-14.631-14.856h-5.129v29.866h5.2
		C183.225,42.271,187.907,37.656,187.907,27.26 M155.217,53.856V1.036h18.059c8.387,0,14.255,1.115,19.759,6.315
		c5.05,4.753,7.715,11.665,7.715,20.352c0,8.023-2.598,14.635-7.644,19.613c-5.65,5.497-10.621,6.541-18.051,6.541H155.217z"/>
	<path fill="#D1D2D3" d="M18.601,55.968v32.535c0,5.947,1.856,8.992,6.234,8.992c4.535,0,6.687-2.974,6.687-8.992V55.968h12.922
		v33.057c0,12.926-7.869,20.582-19.68,20.582c-11.969,0-19.17-7.359-19.17-20.582V55.968H18.601z"/>
	<path fill="#D1D2D3" d="M61.466,80.337c6.394,0,9.512-1.633,9.512-6.39c0-4.385-2.747-6.165-8.47-6.165h-3.417v12.555H61.466z
		 M46.021,108.784V55.968h17.533c5.568,0,9.803,0.375,13.369,2.898c4.678,3.27,7.129,8.249,7.129,14.856
		c0,6.837-3.112,12.483-8.395,15.67c-3.343,2.009-7.501,2.38-13.001,2.38h-3.709v17.011H46.021z"/>
	<polygon fill="#D1D2D3" points="95.488,108.784 95.488,68.23 85.689,68.23 85.689,55.968 118.444,55.968 118.444,68.23 
		108.418,68.23 108.418,108.784 	"/>
	<path fill="#D1D2D3" d="M139.882,96.68c7.581,0,13.746-6.089,13.746-14.709c0-7.727-6.165-13.887-13.596-13.887
		c-7.873,0-14.037,6.161-14.037,13.887C125.995,90.282,132.602,96.68,139.882,96.68 M120.716,62.726
		c5.202-5.117,11.736-7.719,19.245-7.719c7.059,0,13.734,2.748,18.867,7.794c5.354,5.283,8.169,12.037,8.169,19.241
		c0,7.58-2.669,14.338-7.647,19.466c-5.129,5.35-12.111,8.241-19.467,8.241c-7.798,0-14.484-2.819-19.68-8.312
		c-4.979-5.279-7.509-11.815-7.509-19.617C112.693,74.541,115.52,67.858,120.716,62.726"/>
	<path fill="#D1D2D3" d="M27.112,165.167c-7.797,0-14.409-2.89-19.607-8.398C2.523,151.501,0,144.961,0,137.164
		c0-7.28,2.75-13.966,8.025-19.087c5.198-5.125,11.736-7.801,19.235-7.801c12.335,0,22.887,8.094,26.303,21.096H39.595
		c-2.823-5.2-7.054-7.952-12.258-7.952c-7.875,0-14.043,6.09-14.043,13.824c0,8.391,6.542,14.852,13.818,14.852
		c4.979,0,9.368-2.673,12.185-7.576h14.037C49.845,157.37,39.821,165.167,27.112,165.167"/>
	<path fill="#D1D2D3" d="M71.506,128.619l-5.279,16.936h10.477L71.506,128.619z M60.062,164.131H45.946l20.281-52.816h10.546
		l20.285,52.816H82.791l-2.602-7.66H62.735L60.062,164.131z"/>
	<polygon fill="#D1D2D3" points="95.54,164.131 95.54,111.315 107.2,111.315 126.592,140.659 126.592,111.315 139.512,111.315 
		139.512,164.131 128.147,164.131 108.461,134.715 108.461,164.131 	"/>
	<path fill="#D1D2D3" d="M166.304,165.167c-7.801,0-14.408-2.89-19.612-8.398c-4.979-5.267-7.504-11.807-7.504-19.604
		c0-7.28,2.743-13.966,8.025-19.087c5.196-5.125,11.736-7.801,19.237-7.801c12.329,0,22.883,8.094,26.3,21.096H178.78
		c-2.827-5.2-7.058-7.952-12.258-7.952c-7.864,0-14.033,6.09-14.033,13.824c0,8.391,6.536,14.852,13.815,14.852
		c4.967,0,9.356-2.673,12.18-7.576h14.045C189.034,157.37,179.005,165.167,166.304,165.167"/>
	<polygon fill="#D1D2D3" points="193.252,164.131 193.252,111.315 221.932,111.315 221.932,122.979 206.179,122.979 
		206.179,131.521 221.932,131.521 221.932,143.256 206.179,143.256 206.179,152.466 221.932,152.466 221.932,164.131 	"/>
	<path fill="#D1D2D3" d="M239.287,135.676c6.387,0,9.506-1.625,9.506-6.39c0-4.377-2.744-6.161-8.465-6.161h-3.572v12.55H239.287z
		 M223.831,164.131v-52.816h17.541c5.564,0,9.799,0.375,13.365,2.898c4.682,3.266,7.129,8.248,7.129,14.78
		c0,8.541-4.447,14.928-11.957,17.007l12.93,18.131h-15.979l-10.104-17.012v17.012H223.831z"/>
	<path fill="#D1D2D3" d="M272.154,109.895c1.578,0,2.971,0.538,4.18,1.609c1.361,1.202,2.041,2.756,2.041,4.662
		c0,1.53-0.523,2.902-1.559,4.112c-1.189,1.38-2.744,2.072-4.662,2.072c-1.984,0-3.57-0.732-4.744-2.195
		c-0.973-1.206-1.455-2.55-1.455-4.021c0-1.613,0.564-3.037,1.695-4.271C268.861,110.552,270.359,109.895,272.154,109.895
		 M272.189,110.939c-1.281,0-2.428,0.435-3.447,1.305c-1.186,1.012-1.779,2.341-1.779,3.974c0,1.21,0.432,2.321,1.285,3.322
		c1.008,1.178,2.309,1.768,3.906,1.768c1.42,0,2.643-0.49,3.674-1.463c1.035-0.977,1.551-2.19,1.551-3.646
		c0-1.424-0.508-2.657-1.523-3.697S273.617,110.939,272.189,110.939 M271.25,119.472h-1.662v-6.888h2.705
		c0.787,0,1.389,0.083,1.799,0.241c0.648,0.253,1.033,0.728,1.146,1.423v0.257c0,0.49-0.143,0.901-0.418,1.226
		c-0.281,0.324-0.648,0.542-1.104,0.657l1.521,3.084l-1.865,0.008l-1.273-2.807l-0.85,0.008V119.472z M271.25,113.612v2.021h0.51
		c0.629,0,1.059-0.051,1.285-0.154c0.301-0.134,0.445-0.419,0.445-0.846c0-0.427-0.162-0.7-0.486-0.827
		C272.676,113.679,272.092,113.612,271.25,113.612"/>
</g>
</svg>
