<?xml version="1.0" encoding="utf-8"?>
<!-- Generator: Adobe Illustrator 15.1.0, SVG Export Plug-In . SVG Version: 6.00 Build 0)  -->
<!DOCTYPE svg PUBLIC "-//W3C//DTD SVG 1.1//EN" "http://www.w3.org/Graphics/SVG/1.1/DTD/svg11.dtd">
<svg version="1.1" id="Layer_1" xmlns="http://www.w3.org/2000/svg" xmlns:xlink="http://www.w3.org/1999/xlink" x="0px" y="0px"
	 width="169.559px" height="137.794px" viewBox="0 0 169.559 137.794" enable-background="new 0 0 169.559 137.794"
	 xml:space="preserve">
<g>
	<path fill="#D1D2D3" d="M169.559,16.307c-6.238,2.77-12.939,4.638-19.98,5.48c7.182-4.305,12.7-11.12,15.299-19.244
		c-6.724,3.984-14.167,6.882-22.092,8.439C136.437,4.222,127.4,0,117.396,0C98.183,0,82.608,15.57,82.608,34.78
		c0,2.726,0.305,5.385,0.9,7.935C54.599,41.262,28.965,27.41,11.811,6.366c-2.998,5.136-4.713,11.109-4.713,17.487
		c0,12.068,6.145,22.717,15.476,28.957c-5.701-0.183-11.065-1.746-15.755-4.355c-0.002,0.149-0.002,0.293-0.002,0.443
		c0,16.849,11.99,30.913,27.903,34.109c-2.917,0.792-5.995,1.22-9.165,1.22c-2.241,0-4.421-0.222-6.546-0.626
		c4.43,13.818,17.273,23.875,32.5,24.157c-11.91,9.33-26.906,14.893-43.204,14.893c-2.81,0-5.58-0.165-8.303-0.486
		c15.401,9.867,33.68,15.631,53.325,15.631c63.991,0,98.978-53.009,98.978-98.981c0-1.507-0.036-3.003-0.097-4.499
		C158.999,29.411,164.895,23.282,169.559,16.307L169.559,16.307z"/>
</g>
</svg>
