<?xml version="1.0" encoding="utf-8"?>
<!-- Generator: Adobe Illustrator 15.1.0, SVG Export Plug-In . SVG Version: 6.00 Build 0)  -->
<!DOCTYPE svg PUBLIC "-//W3C//DTD SVG 1.1//EN" "http://www.w3.org/Graphics/SVG/1.1/DTD/svg11.dtd">
<svg version="1.1" id="passports" xmlns="http://www.w3.org/2000/svg" xmlns:xlink="http://www.w3.org/1999/xlink" x="0px" y="0px"
	 width="650px" height="900px" viewBox="0 0 650 900" enable-background="new 0 0 650 900" xml:space="preserve">
<g>
	<g>
		<defs>
			<path id="SVGID_1_" d="M0.001,888c0,6.6,5.4,12,12,12h626c6.6,0,12-5.4,12-12V12c0-6.6-5.4-12-12-12h-626c-6.6,0-12,5.4-12,12
				V888z"/>
		</defs>
		<clipPath id="SVGID_2_">
			<use xlink:href="#SVGID_1_"  overflow="visible"/>
		</clipPath>
		<rect x="0.001" clip-path="url(#SVGID_2_)" fill="#27293F" width="650" height="900"/>
		<rect x="0.001" display="none" clip-path="url(#SVGID_2_)" fill="#213628" width="651.543" height="900"/>
	</g>
	<g>
		<linearGradient id="SVGID_3_" gradientUnits="userSpaceOnUse" x1="198.9717" y1="254.6055" x2="215.1465" y2="282.6211">
			<stop  offset="0" style="stop-color:#EDEDED"/>
			<stop  offset="0.5014" style="stop-color:#B0B0B0"/>
			<stop  offset="1" style="stop-color:#EDEDED"/>
		</linearGradient>
		<path fill="url(#SVGID_3_)" d="M200.124,253.94h7.97c9.631,0,14.547,5.332,14.547,13.252c0,7.765-4.916,13.199-14.547,13.199
			h-4.242v8.75h-3.728V253.94z M207.886,277.13c7.922,0,10.874-4.14,10.874-9.938c0-5.797-2.952-9.939-10.874-9.939h-4.035v19.877
			H207.886z"/>
		<linearGradient id="SVGID_4_" gradientUnits="userSpaceOnUse" x1="227.3057" y1="261.0503" x2="246.5869" y2="294.4464">
			<stop  offset="0" style="stop-color:#EDEDED"/>
			<stop  offset="0.5014" style="stop-color:#B0B0B0"/>
			<stop  offset="1" style="stop-color:#EDEDED"/>
		</linearGradient>
		<path fill="url(#SVGID_4_)" d="M240.246,253.579h0.621l14.908,35.563h-3.933l-2.379-5.9h-17.808l-2.331,5.9h-3.673
			L240.246,253.579z M248.114,280.031l-6.212-15.633c-0.672-1.657-1.343-4.195-1.343-4.195s-0.727,2.538-1.399,4.195l-6.212,15.633
			H248.114z"/>
		<linearGradient id="SVGID_5_" gradientUnits="userSpaceOnUse" x1="263.1348" y1="256.9648" x2="280.5991" y2="287.214">
			<stop  offset="0" style="stop-color:#EDEDED"/>
			<stop  offset="0.5014" style="stop-color:#B0B0B0"/>
			<stop  offset="1" style="stop-color:#EDEDED"/>
		</linearGradient>
		<path fill="url(#SVGID_5_)" d="M260.494,282.411l3.106-1.656c1.657,2.949,4.089,5.487,9.058,5.487
			c4.088,0,7.301-2.277,7.301-6.004c0-3.574-2.228-5.384-6.626-7.349l-2.798-1.3c-5.019-2.277-7.762-4.706-7.762-9.626
			c0-5.074,3.985-8.436,9.265-8.436c4.709,0,7.661,2.174,9.525,5.282l-3.003,1.863c-1.346-2.176-3.208-3.833-6.522-3.833
			c-3.468,0-5.591,2.019-5.591,5.021c0,3.106,1.656,4.505,5.591,6.315l2.793,1.295c5.85,2.591,8.855,5.49,8.855,10.768
			c0,5.797-4.609,9.317-10.924,9.317C266.032,289.555,262.357,286.14,260.494,282.411"/>
		<linearGradient id="SVGID_6_" gradientUnits="userSpaceOnUse" x1="292.1777" y1="256.9658" x2="309.6421" y2="287.215">
			<stop  offset="0" style="stop-color:#EDEDED"/>
			<stop  offset="0.5014" style="stop-color:#B0B0B0"/>
			<stop  offset="1" style="stop-color:#EDEDED"/>
		</linearGradient>
		<path fill="url(#SVGID_6_)" d="M289.536,282.411l3.104-1.656c1.657,2.949,4.091,5.487,9.061,5.487c4.09,0,7.297-2.277,7.297-6.004
			c0-3.574-2.224-5.384-6.625-7.349l-2.793-1.3c-5.022-2.277-7.767-4.706-7.767-9.626c0-5.074,3.987-8.436,9.267-8.436
			c4.711,0,7.662,2.174,9.525,5.282l-3.002,1.863c-1.346-2.176-3.21-3.833-6.522-3.833c-3.469,0-5.59,2.019-5.59,5.021
			c0,3.106,1.656,4.505,5.59,6.315l2.795,1.295c5.851,2.591,8.851,5.49,8.851,10.768c0,5.797-4.606,9.317-10.921,9.317
			C295.075,289.555,291.399,286.14,289.536,282.411"/>
		<linearGradient id="SVGID_7_" gradientUnits="userSpaceOnUse" x1="320.4834" y1="254.6055" x2="336.6582" y2="282.6211">
			<stop  offset="0" style="stop-color:#EDEDED"/>
			<stop  offset="0.5014" style="stop-color:#B0B0B0"/>
			<stop  offset="1" style="stop-color:#EDEDED"/>
		</linearGradient>
		<path fill="url(#SVGID_7_)" d="M321.635,253.94h7.974c9.625,0,14.543,5.332,14.543,13.252c0,7.765-4.917,13.199-14.543,13.199
			h-4.246v8.75h-3.728V253.94z M329.402,277.13c7.917,0,10.868-4.14,10.868-9.938c0-5.797-2.952-9.939-10.868-9.939h-4.039v19.877
			H329.402z"/>
		<linearGradient id="SVGID_8_" gradientUnits="userSpaceOnUse" x1="360.1514" y1="255.8022" x2="378.3228" y2="287.276">
			<stop  offset="0" style="stop-color:#EDEDED"/>
			<stop  offset="0.5014" style="stop-color:#B0B0B0"/>
			<stop  offset="1" style="stop-color:#EDEDED"/>
		</linearGradient>
		<path fill="url(#SVGID_8_)" d="M351.148,271.541c0-10.613,8.076-18.014,18.066-18.014c10.039,0,18.114,7.401,18.114,18.014
			c0,10.613-8.075,18.014-18.114,18.014C359.225,289.555,351.148,282.153,351.148,271.541 M383.449,271.541
			c0-8.384-6.005-14.648-14.234-14.648c-8.182,0-14.187,6.265-14.187,14.648s6.005,14.648,14.187,14.648
			C377.444,286.188,383.449,279.924,383.449,271.541"/>
		<linearGradient id="SVGID_9_" gradientUnits="userSpaceOnUse" x1="395.0977" y1="254.6016" x2="416.0469" y2="290.8867">
			<stop  offset="0" style="stop-color:#EDEDED"/>
			<stop  offset="0.5014" style="stop-color:#B0B0B0"/>
			<stop  offset="1" style="stop-color:#EDEDED"/>
		</linearGradient>
		<path fill="url(#SVGID_9_)" d="M419.068,289.142h-4.396l-6.785-9.631c-1.189,0.206-2.484,0.313-3.729,0.313h-4.189v9.318h-3.726
			V253.94h7.915c9.632,0,14.604,5.385,14.604,12.992c0,5.278-2.487,9.421-7.354,11.389L419.068,289.142z M403.953,276.561
			c7.976,0,10.926-4.088,10.926-9.628c0-5.537-3.004-9.679-10.926-9.679h-3.984v19.307H403.953z"/>
		<linearGradient id="SVGID_10_" gradientUnits="userSpaceOnUse" x1="430.459" y1="250.5059" x2="449.3384" y2="283.2059">
			<stop  offset="0" style="stop-color:#EDEDED"/>
			<stop  offset="0.5014" style="stop-color:#B0B0B0"/>
			<stop  offset="1" style="stop-color:#EDEDED"/>
		</linearGradient>
		<polygon fill="url(#SVGID_10_)" points="435.331,257.253 424.511,257.253 424.511,253.94 449.877,253.94 449.877,257.253 
			439.057,257.253 439.057,289.142 435.331,289.142 		"/>
		<linearGradient id="SVGID_11_" gradientUnits="userSpaceOnUse" x1="115.8979" y1="119.0723" x2="139.8252" y2="160.5155">
			<stop  offset="0" style="stop-color:#EDEDED"/>
			<stop  offset="0.5014" style="stop-color:#B0B0B0"/>
			<stop  offset="1" style="stop-color:#EDEDED"/>
		</linearGradient>
		<path fill="url(#SVGID_11_)" d="M102.089,127.044h3.985l7.404,23.452c0.464,1.552,0.982,3.829,0.982,3.829
			s0.567-2.331,1.137-3.829l9.163-23.811h0.622l9.164,23.811c0.568,1.498,1.139,3.829,1.139,3.829s0.517-2.331,0.984-3.829
			l7.349-23.452h3.78l-11.596,35.563h-0.621l-9.472-25.055c-0.571-1.45-1.036-3.471-1.036-3.471s-0.52,2.021-1.088,3.471
			l-9.628,25.055h-0.622L102.089,127.044z"/>
		<linearGradient id="SVGID_12_" gradientUnits="userSpaceOnUse" x1="157.9697" y1="125.751" x2="179.7847" y2="163.5356">
			<stop  offset="0" style="stop-color:#EDEDED"/>
			<stop  offset="0.5014" style="stop-color:#B0B0B0"/>
			<stop  offset="1" style="stop-color:#EDEDED"/>
		</linearGradient>
		<polygon fill="url(#SVGID_12_)" points="155.728,127.044 159.455,127.044 159.455,146.871 178.298,146.871 178.298,127.044 
			182.025,127.044 182.025,162.24 178.298,162.24 178.298,150.289 159.455,150.289 159.455,162.24 155.728,162.24 		"/>
		<linearGradient id="SVGID_13_" gradientUnits="userSpaceOnUse" x1="186.9033" y1="130.623" x2="203.0898" y2="158.6589">
			<stop  offset="0" style="stop-color:#EDEDED"/>
			<stop  offset="0.5014" style="stop-color:#B0B0B0"/>
			<stop  offset="1" style="stop-color:#EDEDED"/>
		</linearGradient>
		<rect x="193.107" y="127.041" fill="url(#SVGID_13_)" width="3.777" height="35.2"/>
		<linearGradient id="SVGID_14_" gradientUnits="userSpaceOnUse" x1="210.8086" y1="123.6089" x2="229.6885" y2="156.3098">
			<stop  offset="0" style="stop-color:#EDEDED"/>
			<stop  offset="0.5014" style="stop-color:#B0B0B0"/>
			<stop  offset="1" style="stop-color:#EDEDED"/>
		</linearGradient>
		<polygon fill="url(#SVGID_14_)" points="215.679,130.356 204.859,130.356 204.859,127.044 230.227,127.044 230.227,130.356 
			219.407,130.356 219.407,162.245 215.679,162.245 		"/>
		<linearGradient id="SVGID_15_" gradientUnits="userSpaceOnUse" x1="238.4639" y1="126.8032" x2="259.2432" y2="162.794">
			<stop  offset="0" style="stop-color:#EDEDED"/>
			<stop  offset="0.5014" style="stop-color:#B0B0B0"/>
			<stop  offset="1" style="stop-color:#EDEDED"/>
		</linearGradient>
		<polygon fill="url(#SVGID_15_)" points="238.047,127.044 259.479,127.044 259.479,130.358 241.774,130.358 241.774,146.871 
			257.564,146.871 257.564,150.131 241.774,150.131 241.774,158.934 260.203,158.934 260.203,162.24 238.047,162.24 		"/>
		<linearGradient id="SVGID_16_" gradientUnits="userSpaceOnUse" x1="287.8633" y1="123.7856" x2="311.7075" y2="165.0851">
			<stop  offset="0" style="stop-color:#EDEDED"/>
			<stop  offset="0.5014" style="stop-color:#B0B0B0"/>
			<stop  offset="1" style="stop-color:#EDEDED"/>
		</linearGradient>
		<path fill="url(#SVGID_16_)" d="M282.936,126.629h0.515l16.358,20.448l16.258-20.448h0.566v35.611h-3.624v-23.238
			c0-1.606,0.157-4.038,0.157-4.038s-1.348,2.28-2.485,3.675l-10.666,13.458h-0.621l-10.507-13.458
			c-1.138-1.395-2.538-3.675-2.538-3.675s0.207,2.431,0.207,4.038v23.238h-3.621V126.629z"/>
		<linearGradient id="SVGID_17_" gradientUnits="userSpaceOnUse" x1="334.5474" y1="128.9038" x2="352.7212" y2="160.3818">
			<stop  offset="0" style="stop-color:#EDEDED"/>
			<stop  offset="0.5014" style="stop-color:#B0B0B0"/>
			<stop  offset="1" style="stop-color:#EDEDED"/>
		</linearGradient>
		<path fill="url(#SVGID_17_)" d="M325.544,144.643c0-10.61,8.077-18.016,18.07-18.016c10.04,0,18.114,7.406,18.114,18.016
			c0,10.616-8.074,18.017-18.114,18.017C333.622,162.66,325.544,155.259,325.544,144.643 M357.849,144.643
			c0-8.386-6.007-14.646-14.234-14.646c-8.181,0-14.187,6.259-14.187,14.646c0,8.385,6.006,14.651,14.187,14.651
			C351.842,159.294,357.849,153.028,357.849,144.643"/>
		<linearGradient id="SVGID_18_" gradientUnits="userSpaceOnUse" x1="373.9219" y1="124.9741" x2="393.521" y2="158.9208">
			<stop  offset="0" style="stop-color:#EDEDED"/>
			<stop  offset="0.5014" style="stop-color:#B0B0B0"/>
			<stop  offset="1" style="stop-color:#EDEDED"/>
		</linearGradient>
		<path fill="url(#SVGID_18_)" d="M370.331,150.234v-23.188h3.726v22.929c0,6.266,3.418,9.367,8.903,9.367
			c5.438,0,8.903-3.101,8.903-9.367v-22.929h3.728v23.188c0,8.231-5.486,12.423-12.631,12.423
			C375.766,162.657,370.331,158.466,370.331,150.234"/>
		<linearGradient id="SVGID_19_" gradientUnits="userSpaceOnUse" x1="408.6611" y1="125.2666" x2="431.0366" y2="164.0221">
			<stop  offset="0" style="stop-color:#EDEDED"/>
			<stop  offset="0.5014" style="stop-color:#B0B0B0"/>
			<stop  offset="1" style="stop-color:#EDEDED"/>
		</linearGradient>
		<path fill="url(#SVGID_19_)" d="M411.854,137.759c-0.981-1.189-2.433-3.26-2.433-3.26s0.31,2.486,0.31,3.986v23.76h-3.521v-35.563
			h0.622l21.017,24.847c0.983,1.187,2.433,3.26,2.433,3.26s-0.258-2.487-0.258-3.985v-23.764h3.464v35.566h-0.622L411.854,137.759z"
			/>
		<linearGradient id="SVGID_20_" gradientUnits="userSpaceOnUse" x1="447.2627" y1="123.6089" x2="466.1426" y2="156.3098">
			<stop  offset="0" style="stop-color:#EDEDED"/>
			<stop  offset="0.5014" style="stop-color:#B0B0B0"/>
			<stop  offset="1" style="stop-color:#EDEDED"/>
		</linearGradient>
		<polygon fill="url(#SVGID_20_)" points="452.135,130.356 441.313,130.356 441.313,127.044 466.681,127.044 466.681,130.356 
			455.86,130.356 455.86,162.245 452.135,162.245 		"/>
		<linearGradient id="SVGID_21_" gradientUnits="userSpaceOnUse" x1="469.1172" y1="134.1504" x2="488.3975" y2="167.5448">
			<stop  offset="0" style="stop-color:#EDEDED"/>
			<stop  offset="0.5014" style="stop-color:#B0B0B0"/>
			<stop  offset="1" style="stop-color:#EDEDED"/>
		</linearGradient>
		<path fill="url(#SVGID_21_)" d="M482.057,126.68h0.621l14.908,35.561h-3.934l-2.379-5.898h-17.806l-2.333,5.898h-3.675
			L482.057,126.68z M489.922,153.133l-6.21-15.633c-0.672-1.657-1.341-4.192-1.341-4.192s-0.729,2.535-1.404,4.192l-6.211,15.633
			H489.922z"/>
		<linearGradient id="SVGID_22_" gradientUnits="userSpaceOnUse" x1="499.5684" y1="130.6226" x2="515.7549" y2="158.6584">
			<stop  offset="0" style="stop-color:#EDEDED"/>
			<stop  offset="0.5014" style="stop-color:#B0B0B0"/>
			<stop  offset="1" style="stop-color:#EDEDED"/>
		</linearGradient>
		<rect x="505.772" y="127.041" fill="url(#SVGID_22_)" width="3.778" height="35.2"/>
		<linearGradient id="SVGID_23_" gradientUnits="userSpaceOnUse" x1="523.084" y1="125.2666" x2="545.4595" y2="164.0221">
			<stop  offset="0" style="stop-color:#EDEDED"/>
			<stop  offset="0.5014" style="stop-color:#B0B0B0"/>
			<stop  offset="1" style="stop-color:#EDEDED"/>
		</linearGradient>
		<path fill="url(#SVGID_23_)" d="M526.276,137.759c-0.984-1.189-2.434-3.26-2.434-3.26s0.311,2.486,0.311,3.986v23.76h-3.521
			v-35.563h0.619l21.02,24.847c0.983,1.187,2.433,3.26,2.433,3.26s-0.26-2.487-0.26-3.985v-23.764h3.466v35.566h-0.622
			L526.276,137.759z"/>
		<linearGradient id="SVGID_24_" gradientUnits="userSpaceOnUse" x1="134.5742" y1="198.4302" x2="150.2544" y2="225.589">
			<stop  offset="0" style="stop-color:#EDEDED"/>
			<stop  offset="0.5014" style="stop-color:#B0B0B0"/>
			<stop  offset="1" style="stop-color:#EDEDED"/>
		</linearGradient>
		<path fill="url(#SVGID_24_)" d="M145.938,219.375h-19.36v-1.914l22.826-27.594h0.313v26.352h3.935v3.157h-3.935v6.523h-3.779
			V219.375z M135.068,216.219h10.87v-14.494c0-1.554,0.26-3.677,0.26-3.677s-1.142,1.813-2.278,3.212l-9.991,12.682
			c-1.088,1.242-2.692,2.534-2.692,2.534S133.515,216.219,135.068,216.219"/>
		<linearGradient id="SVGID_25_" gradientUnits="userSpaceOnUse" x1="167.0518" y1="192.8564" x2="184.8833" y2="223.7416">
			<stop  offset="0" style="stop-color:#EDEDED"/>
			<stop  offset="0.5014" style="stop-color:#B0B0B0"/>
			<stop  offset="1" style="stop-color:#EDEDED"/>
		</linearGradient>
		<path fill="url(#SVGID_25_)" d="M159.402,208.298c0-10.664,7.248-18.017,16.565-18.017s16.564,7.353,16.564,18.017
			c0,10.665-7.247,18.017-16.564,18.017S159.402,218.962,159.402,208.298 M188.598,208.298c0-8.487-4.917-14.646-12.631-14.646
			c-7.712,0-12.63,6.158-12.63,14.646c0,8.487,4.918,14.651,12.63,14.651C183.681,222.949,188.598,216.785,188.598,208.298"/>
		<linearGradient id="SVGID_26_" gradientUnits="userSpaceOnUse" x1="206.3496" y1="192.8564" x2="224.1807" y2="223.7407">
			<stop  offset="0" style="stop-color:#EDEDED"/>
			<stop  offset="0.5014" style="stop-color:#B0B0B0"/>
			<stop  offset="1" style="stop-color:#EDEDED"/>
		</linearGradient>
		<path fill="url(#SVGID_26_)" d="M198.701,208.298c0-10.664,7.248-18.017,16.565-18.017c9.317,0,16.564,7.353,16.564,18.017
			c0,10.665-7.247,18.017-16.564,18.017C205.948,226.315,198.701,218.962,198.701,208.298 M227.897,208.298
			c0-8.487-4.919-14.646-12.631-14.646c-7.713,0-12.631,6.158-12.631,14.646c0,8.487,4.917,14.651,12.631,14.651
			C222.978,222.949,227.897,216.785,227.897,208.298"/>
		<linearGradient id="SVGID_27_" gradientUnits="userSpaceOnUse" x1="245.6484" y1="192.856" x2="263.4795" y2="223.7402">
			<stop  offset="0" style="stop-color:#EDEDED"/>
			<stop  offset="0.5014" style="stop-color:#B0B0B0"/>
			<stop  offset="1" style="stop-color:#EDEDED"/>
		</linearGradient>
		<path fill="url(#SVGID_27_)" d="M237.999,208.298c0-10.664,7.247-18.017,16.564-18.017c9.319,0,16.566,7.353,16.566,18.017
			c0,10.665-7.247,18.017-16.566,18.017C245.246,226.315,237.999,218.962,237.999,208.298 M267.194,208.298
			c0-8.487-4.919-14.646-12.631-14.646c-7.714,0-12.63,6.158-12.63,14.646c0,8.487,4.916,14.651,12.63,14.651
			C262.275,222.949,267.194,216.785,267.194,208.298"/>
		<linearGradient id="SVGID_28_" gradientUnits="userSpaceOnUse" x1="280.2832" y1="210.5327" x2="284.1904" y2="217.3002">
			<stop  offset="0" style="stop-color:#EDEDED"/>
			<stop  offset="0.5014" style="stop-color:#B0B0B0"/>
			<stop  offset="1" style="stop-color:#EDEDED"/>
		</linearGradient>
		<rect x="277.242" y="212.288" fill="url(#SVGID_28_)" width="9.989" height="3.256"/>
		<linearGradient id="SVGID_29_" gradientUnits="userSpaceOnUse" x1="296.0972" y1="190.5146" x2="312.27" y2="218.5269">
			<stop  offset="0" style="stop-color:#EDEDED"/>
			<stop  offset="0.5014" style="stop-color:#B0B0B0"/>
			<stop  offset="1" style="stop-color:#EDEDED"/>
		</linearGradient>
		<polygon fill="url(#SVGID_29_)" points="295.778,190.698 316.95,190.698 316.95,194.013 299.505,194.013 299.505,210.524 
			315.344,210.524 315.344,213.944 299.505,213.944 299.505,225.896 295.778,225.896 		"/>
		<linearGradient id="SVGID_30_" gradientUnits="userSpaceOnUse" x1="332.585" y1="192.5576" x2="350.7588" y2="224.0356">
			<stop  offset="0" style="stop-color:#EDEDED"/>
			<stop  offset="0.5014" style="stop-color:#B0B0B0"/>
			<stop  offset="1" style="stop-color:#EDEDED"/>
		</linearGradient>
		<path fill="url(#SVGID_30_)" d="M323.58,208.298c0-10.61,8.076-18.017,18.067-18.017c10.045,0,18.121,7.406,18.121,18.017
			c0,10.616-8.076,18.017-18.121,18.017C331.656,226.315,323.58,218.914,323.58,208.298 M355.882,208.298
			c0-8.386-6.005-14.646-14.234-14.646c-8.176,0-14.184,6.259-14.184,14.646s6.007,14.651,14.184,14.651
			C349.877,222.949,355.882,216.684,355.882,208.298"/>
		<linearGradient id="SVGID_31_" gradientUnits="userSpaceOnUse" x1="375.6592" y1="192.5571" x2="393.833" y2="224.0351">
			<stop  offset="0" style="stop-color:#EDEDED"/>
			<stop  offset="0.5014" style="stop-color:#B0B0B0"/>
			<stop  offset="1" style="stop-color:#EDEDED"/>
		</linearGradient>
		<path fill="url(#SVGID_31_)" d="M366.654,208.298c0-10.61,8.078-18.017,18.071-18.017c10.04,0,18.116,7.406,18.116,18.017
			c0,10.616-8.076,18.017-18.116,18.017C374.732,226.315,366.654,218.914,366.654,208.298 M398.96,208.298
			c0-8.386-6.007-14.646-14.234-14.646c-8.18,0-14.185,6.259-14.185,14.646s6.005,14.651,14.185,14.651
			C392.953,222.949,398.96,216.684,398.96,208.298"/>
		<linearGradient id="SVGID_32_" gradientUnits="userSpaceOnUse" x1="412.5264" y1="187.2642" x2="431.4067" y2="219.9659">
			<stop  offset="0" style="stop-color:#EDEDED"/>
			<stop  offset="0.5014" style="stop-color:#B0B0B0"/>
			<stop  offset="1" style="stop-color:#EDEDED"/>
		</linearGradient>
		<polygon fill="url(#SVGID_32_)" points="417.396,194.01 406.578,194.01 406.578,190.698 431.945,190.698 431.945,194.01 
			421.125,194.01 421.125,225.901 417.396,225.901 		"/>
		<linearGradient id="SVGID_33_" gradientUnits="userSpaceOnUse" x1="440.1797" y1="190.4575" x2="460.96" y2="226.45">
			<stop  offset="0" style="stop-color:#EDEDED"/>
			<stop  offset="0.5014" style="stop-color:#B0B0B0"/>
			<stop  offset="1" style="stop-color:#EDEDED"/>
		</linearGradient>
		<polygon fill="url(#SVGID_33_)" points="439.765,190.698 461.193,190.698 461.193,194.013 443.491,194.013 443.491,210.524 
			459.276,210.524 459.276,213.785 443.491,213.785 443.491,222.587 461.919,222.587 461.919,225.896 439.765,225.896 		"/>
		<linearGradient id="SVGID_34_" gradientUnits="userSpaceOnUse" x1="469.9443" y1="191.3604" x2="490.8926" y2="227.6438">
			<stop  offset="0" style="stop-color:#EDEDED"/>
			<stop  offset="0.5014" style="stop-color:#B0B0B0"/>
			<stop  offset="1" style="stop-color:#EDEDED"/>
		</linearGradient>
		<path fill="url(#SVGID_34_)" d="M493.912,225.901h-4.396l-6.784-9.632c-1.189,0.207-2.484,0.309-3.726,0.309h-4.192v9.323h-3.724
			v-35.203h7.916c9.631,0,14.6,5.384,14.6,12.994c0,5.277-2.484,9.421-7.354,11.389L493.912,225.901z M478.801,213.32
			c7.972,0,10.924-4.09,10.924-9.628c0-5.538-3.004-9.682-10.924-9.682h-3.986v19.31H478.801z"/>
		<linearGradient id="SVGID_35_" gradientUnits="userSpaceOnUse" x1="502.873" y1="193.7222" x2="520.3374" y2="223.9713">
			<stop  offset="0" style="stop-color:#EDEDED"/>
			<stop  offset="0.5014" style="stop-color:#B0B0B0"/>
			<stop  offset="1" style="stop-color:#EDEDED"/>
		</linearGradient>
		<path fill="url(#SVGID_35_)" d="M500.231,219.167l3.106-1.656c1.657,2.953,4.092,5.49,9.059,5.49c4.093,0,7.301-2.281,7.301-6.007
			c0-3.571-2.228-5.382-6.629-7.352l-2.792-1.294c-5.021-2.278-7.767-4.708-7.767-9.626c0-5.075,3.986-8.439,9.268-8.439
			c4.712,0,7.66,2.174,9.522,5.28l-3.002,1.863c-1.346-2.173-3.211-3.83-6.521-3.83c-3.471,0-5.591,2.02-5.591,5.023
			c0,3.106,1.657,4.502,5.591,6.315l2.797,1.293c5.849,2.588,8.849,5.487,8.849,10.767c0,5.797-4.605,9.314-10.922,9.314
			C505.772,226.309,502.097,222.895,500.231,219.167"/>
		<linearGradient id="SVGID_36_" gradientUnits="userSpaceOnUse" x1="258.4097" y1="543.5986" x2="391.5908" y2="774.2751">
			<stop  offset="0" style="stop-color:#EDEDED"/>
			<stop  offset="0.5014" style="stop-color:#B0B0B0"/>
			<stop  offset="1" style="stop-color:#EDEDED"/>
		</linearGradient>
		<path fill="url(#SVGID_36_)" d="M325.001,792.144c-73.454,0-133.208-59.756-133.208-133.205
			c0-73.45,59.754-133.208,133.208-133.208s133.207,59.758,133.207,133.208C458.208,732.388,398.455,792.144,325.001,792.144
			 M325.001,528.753c-71.782,0-130.184,58.403-130.184,130.186c0,71.781,58.401,130.178,130.184,130.178
			c71.777,0,130.184-58.396,130.184-130.178C455.185,587.156,396.778,528.753,325.001,528.753"/>
		<linearGradient id="SVGID_37_" gradientUnits="userSpaceOnUse" x1="271.6484" y1="629.3213" x2="275.729" y2="636.389">
			<stop  offset="0" style="stop-color:#EDEDED"/>
			<stop  offset="0.5014" style="stop-color:#B0B0B0"/>
			<stop  offset="1" style="stop-color:#EDEDED"/>
		</linearGradient>
		<path fill="url(#SVGID_37_)" d="M273.678,628.148c-0.787,3.266-1.437,3.91-4.708,4.71c3.271,0.799,3.92,1.449,4.708,4.714
			c0.812-3.265,1.461-3.915,4.732-4.714C275.14,632.059,274.49,631.414,273.678,628.148"/>
		<linearGradient id="SVGID_38_" gradientUnits="userSpaceOnUse" x1="224.7578" y1="654.0371" x2="232.2764" y2="667.0596">
			<stop  offset="0" style="stop-color:#EDEDED"/>
			<stop  offset="0.5014" style="stop-color:#B0B0B0"/>
			<stop  offset="1" style="stop-color:#EDEDED"/>
		</linearGradient>
		<polygon fill="url(#SVGID_38_)" points="224.571,665.149 224.509,663.206 227.087,662.004 224.441,661.013 224.389,659.177 
			229.127,661.032 232.868,659.28 224.297,656.24 224.243,654.334 236.917,659.088 236.917,659.23 231.351,661.908 237.072,664.147 
			237.072,664.291 224.716,669.976 224.653,667.961 233.022,664.221 229.363,662.862 		"/>
		<linearGradient id="SVGID_39_" gradientUnits="userSpaceOnUse" x1="228.3418" y1="634.7949" x2="236.0684" y2="648.1777">
			<stop  offset="0" style="stop-color:#EDEDED"/>
			<stop  offset="0.5014" style="stop-color:#B0B0B0"/>
			<stop  offset="1" style="stop-color:#EDEDED"/>
		</linearGradient>
		<polygon fill="url(#SVGID_39_)" points="226.685,637.453 227.041,635.545 239.162,637.808 238.806,639.709 235.104,639.022 
			234.014,644.827 237.727,645.518 237.37,647.425 225.25,645.167 225.604,643.259 232.324,644.512 233.408,638.703 		"/>
		<linearGradient id="SVGID_40_" gradientUnits="userSpaceOnUse" x1="233.2974" y1="622.8838" x2="238.6206" y2="632.1039">
			<stop  offset="0" style="stop-color:#EDEDED"/>
			<stop  offset="0.5014" style="stop-color:#B0B0B0"/>
			<stop  offset="1" style="stop-color:#EDEDED"/>
		</linearGradient>
		<polygon fill="url(#SVGID_40_)" points="229.811,626.352 230.46,624.521 242.104,628.632 241.459,630.465 		"/>
		<linearGradient id="SVGID_41_" gradientUnits="userSpaceOnUse" x1="236.1123" y1="609.4102" x2="242.8169" y2="621.0228">
			<stop  offset="0" style="stop-color:#EDEDED"/>
			<stop  offset="0.5014" style="stop-color:#B0B0B0"/>
			<stop  offset="1" style="stop-color:#EDEDED"/>
		</linearGradient>
		<polygon fill="url(#SVGID_41_)" points="236.908,614.092 235.21,617.337 233.682,616.535 237.982,608.329 239.504,609.129 
			237.809,612.372 247.204,617.287 246.308,619.006 		"/>
		<linearGradient id="SVGID_42_" gradientUnits="userSpaceOnUse" x1="246.6265" y1="595.168" x2="253.8379" y2="607.6585">
			<stop  offset="0" style="stop-color:#EDEDED"/>
			<stop  offset="0.5014" style="stop-color:#B0B0B0"/>
			<stop  offset="1" style="stop-color:#EDEDED"/>
		</linearGradient>
		<polygon fill="url(#SVGID_42_)" points="242.832,600.82 247.632,594.586 249,595.639 245.388,600.331 249.447,603.459 
			252.655,599.298 253.993,600.324 250.786,604.485 252.447,605.764 256.208,600.863 257.581,601.914 252.63,608.354 		"/>
		<linearGradient id="SVGID_43_" gradientUnits="userSpaceOnUse" x1="266.4111" y1="576.3154" x2="273.2739" y2="588.2021">
			<stop  offset="0" style="stop-color:#EDEDED"/>
			<stop  offset="0.5014" style="stop-color:#B0B0B0"/>
			<stop  offset="1" style="stop-color:#EDEDED"/>
		</linearGradient>
		<polygon fill="url(#SVGID_43_)" points="261.241,580.691 261.313,580.639 270.25,582.767 271.029,573.659 271.107,573.604 
			278.445,583.827 276.958,584.896 272.296,578.401 271.805,584.937 271.733,584.987 265.406,583.345 270.067,589.843 
			268.579,590.912 		"/>
		<linearGradient id="SVGID_44_" gradientUnits="userSpaceOnUse" x1="284.7129" y1="566.7432" x2="291.0552" y2="577.7283">
			<stop  offset="0" style="stop-color:#EDEDED"/>
			<stop  offset="0.5014" style="stop-color:#B0B0B0"/>
			<stop  offset="1" style="stop-color:#EDEDED"/>
		</linearGradient>
		<path fill="url(#SVGID_44_)" d="M282.019,574.731c-1.431-3.358,0.12-6.942,3.385-8.327c3.254-1.387,6.918-0.023,8.345,3.34
			c1.431,3.355-0.125,6.939-3.385,8.324C287.104,579.455,283.449,578.088,282.019,574.731 M291.89,570.526
			c-1.021-2.402-3.443-3.506-5.798-2.503c-2.359,1.008-3.246,3.513-2.22,5.92c1.021,2.405,3.443,3.508,5.802,2.503
			C292.03,575.444,292.916,572.936,291.89,570.526"/>
		<linearGradient id="SVGID_45_" gradientUnits="userSpaceOnUse" x1="302.9951" y1="559.9014" x2="309.8472" y2="571.7695">
			<stop  offset="0" style="stop-color:#EDEDED"/>
			<stop  offset="0.5014" style="stop-color:#B0B0B0"/>
			<stop  offset="1" style="stop-color:#EDEDED"/>
		</linearGradient>
		<path fill="url(#SVGID_45_)" d="M301.93,569.256l-1.56-7.839l1.907-0.38l1.541,7.732c0.39,1.945,1.527,2.624,3.294,2.273
			c1.743-0.346,2.528-1.415,2.143-3.356l-1.542-7.734l1.907-0.38l1.56,7.842c0.593,2.96-1.112,4.833-3.727,5.358
			C304.814,573.296,302.522,572.218,301.93,569.256"/>
		<linearGradient id="SVGID_46_" gradientUnits="userSpaceOnUse" x1="320.3252" y1="557.8408" x2="328.2749" y2="571.6101">
			<stop  offset="0" style="stop-color:#EDEDED"/>
			<stop  offset="0.5014" style="stop-color:#B0B0B0"/>
			<stop  offset="1" style="stop-color:#EDEDED"/>
		</linearGradient>
		<polygon fill="url(#SVGID_46_)" points="321.148,562.829 321.274,570.94 319.458,570.971 319.266,558.451 319.415,558.445 
			327.452,566.617 327.326,558.509 329.142,558.48 329.33,571 329.19,571 		"/>
		<linearGradient id="SVGID_47_" gradientUnits="userSpaceOnUse" x1="338.9946" y1="558.8389" x2="345.519" y2="570.1395">
			<stop  offset="0" style="stop-color:#EDEDED"/>
			<stop  offset="0.5014" style="stop-color:#B0B0B0"/>
			<stop  offset="1" style="stop-color:#EDEDED"/>
		</linearGradient>
		<polygon fill="url(#SVGID_47_)" points="341.47,561.666 337.862,561.012 338.17,559.314 347.3,560.966 346.993,562.664 
			343.38,562.009 341.494,572.463 339.581,572.114 		"/>
		<linearGradient id="SVGID_48_" gradientUnits="userSpaceOnUse" x1="352.8545" y1="567.3369" x2="359.0415" y2="578.0532">
			<stop  offset="0" style="stop-color:#EDEDED"/>
			<stop  offset="0.5014" style="stop-color:#B0B0B0"/>
			<stop  offset="1" style="stop-color:#EDEDED"/>
		</linearGradient>
		<path fill="url(#SVGID_48_)" d="M351.024,574.779l-1.852-0.66l9.323-10.04l0.1,0.041l0.885,13.679l-1.933-0.69l-0.089-1.861
			l-5.192-1.856L351.024,574.779z M357.1,568.108l-3.573,3.907l3.824,1.362L357.1,568.108z"/>
		<linearGradient id="SVGID_49_" gradientUnits="userSpaceOnUse" x1="367.2578" y1="572.3105" x2="371.3418" y2="579.3842">
			<stop  offset="0" style="stop-color:#EDEDED"/>
			<stop  offset="0.5014" style="stop-color:#B0B0B0"/>
			<stop  offset="1" style="stop-color:#EDEDED"/>
		</linearGradient>
		<polygon fill="url(#SVGID_49_)" points="371.364,569.939 373.077,570.859 367.235,581.754 365.521,580.833 		"/>
		<linearGradient id="SVGID_50_" gradientUnits="userSpaceOnUse" x1="378.0303" y1="577.6113" x2="385.0581" y2="589.7839">
			<stop  offset="0" style="stop-color:#EDEDED"/>
			<stop  offset="0.5014" style="stop-color:#B0B0B0"/>
			<stop  offset="1" style="stop-color:#EDEDED"/>
		</linearGradient>
		<polygon fill="url(#SVGID_50_)" points="380.222,580.259 375.335,586.743 373.881,585.647 381.433,575.646 381.548,575.734 
			382.864,587.129 387.765,580.649 389.207,581.748 381.658,591.746 381.543,591.657 		"/>
		<linearGradient id="SVGID_51_" gradientUnits="userSpaceOnUse" x1="398.458" y1="598.3438" x2="403.6484" y2="607.3339">
			<stop  offset="0" style="stop-color:#EDEDED"/>
			<stop  offset="0.5014" style="stop-color:#B0B0B0"/>
			<stop  offset="1" style="stop-color:#EDEDED"/>
		</linearGradient>
		<path fill="url(#SVGID_51_)" d="M401.59,608.305l-1.283,0.958l-0.847-1.141l-1.732,1.29l-1.14-1.531l1.737-1.292l-4.25-5.706
			l0.093-0.062l13.635,0.969l0.066,0.081l-7.122,5.298L401.59,608.305z M403.091,603.04l-5.706-0.394l2.221,2.988L403.091,603.04z"
			/>
		<linearGradient id="SVGID_52_" gradientUnits="userSpaceOnUse" x1="406.9102" y1="613.2949" x2="413.2925" y2="624.3494">
			<stop  offset="0" style="stop-color:#EDEDED"/>
			<stop  offset="0.5014" style="stop-color:#B0B0B0"/>
			<stop  offset="1" style="stop-color:#EDEDED"/>
		</linearGradient>
		<path fill="url(#SVGID_52_)" d="M407.378,613.051c3.301-1.562,6.949-0.143,8.459,3.064c1.512,3.207,0.295,6.916-3.014,8.478
			c-3.303,1.557-6.942,0.141-8.461-3.067C402.854,618.325,404.076,614.611,407.378,613.051 M411.961,622.764
			c2.37-1.115,3.375-3.58,2.281-5.897c-1.094-2.318-3.635-3.106-6.005-1.99c-2.363,1.118-3.368,3.582-2.276,5.899
			C407.055,623.092,409.598,623.882,411.961,622.764"/>
		<linearGradient id="SVGID_53_" gradientUnits="userSpaceOnUse" x1="413.4814" y1="632.3594" x2="419.8667" y2="643.4189">
			<stop  offset="0" style="stop-color:#EDEDED"/>
			<stop  offset="0.5014" style="stop-color:#B0B0B0"/>
			<stop  offset="1" style="stop-color:#EDEDED"/>
		</linearGradient>
		<path fill="url(#SVGID_53_)" d="M415.245,631.682c3.56-0.813,6.809,1.344,7.6,4.791c0.795,3.447-1.191,6.807-4.744,7.622
			c-3.553,0.82-6.804-1.343-7.6-4.789C409.713,635.862,411.697,632.495,415.245,631.682 M417.652,642.135
			c2.543-0.585,4.055-2.775,3.477-5.271c-0.567-2.496-2.886-3.806-5.427-3.217c-2.547,0.582-4.053,2.774-3.48,5.263
			C412.793,641.407,415.104,642.718,417.652,642.135"/>
		<linearGradient id="SVGID_54_" gradientUnits="userSpaceOnUse" x1="415.8262" y1="652.3252" x2="422.2236" y2="663.4059">
			<stop  offset="0" style="stop-color:#EDEDED"/>
			<stop  offset="0.5014" style="stop-color:#B0B0B0"/>
			<stop  offset="1" style="stop-color:#EDEDED"/>
		</linearGradient>
		<path fill="url(#SVGID_54_)" d="M418.931,651.498c3.644-0.06,6.373,2.732,6.427,6.271c0.057,3.539-2.587,6.409-6.236,6.466
			c-3.644,0.057-6.375-2.733-6.432-6.275C412.64,654.426,415.28,651.554,418.931,651.498 M419.093,662.222
			c2.61-0.044,4.54-1.864,4.504-4.425c-0.039-2.56-2.03-4.325-4.639-4.286c-2.61,0.039-4.547,1.867-4.508,4.424
			C414.489,660.496,416.479,662.26,419.093,662.222"/>
		<linearGradient id="SVGID_55_" gradientUnits="userSpaceOnUse" x1="267.373" y1="559.126" x2="382.6274" y2="758.7524">
			<stop  offset="0" style="stop-color:#EDEDED"/>
			<stop  offset="0.5014" style="stop-color:#B0B0B0"/>
			<stop  offset="1" style="stop-color:#EDEDED"/>
		</linearGradient>
		<path fill="url(#SVGID_55_)" d="M325.001,774.216c-63.567,0-115.281-51.716-115.281-115.277
			c0-63.563,51.714-115.275,115.281-115.275c63.562,0,115.279,51.712,115.279,115.275C440.28,722.5,388.563,774.216,325.001,774.216
			 M325.001,546.687c-61.898,0-112.255,50.354-112.255,112.252c0,61.896,50.357,112.25,112.255,112.25
			c61.891,0,112.251-50.354,112.251-112.25C437.252,597.041,386.892,546.687,325.001,546.687"/>
		<linearGradient id="SVGID_56_" gradientUnits="userSpaceOnUse" x1="263.0508" y1="551.71" x2="386.8633" y2="766.1595">
			<stop  offset="0" style="stop-color:#EDEDED"/>
			<stop  offset="0.5014" style="stop-color:#B0B0B0"/>
			<stop  offset="1" style="stop-color:#EDEDED"/>
		</linearGradient>
		<path fill="url(#SVGID_56_)" d="M322.425,782.719L322.425,782.719c-0.612,0-1.127-0.518-1.098-1.153
			c0-0.634,0.52-1.119,1.15-1.119c0.637,0.033,1.117,0.547,1.117,1.184c-0.028,0.606-0.515,1.089-1.146,1.089H322.425z
			 M330.375,781.508c-0.028-0.637,0.458-1.149,1.094-1.185c0.635-0.059,1.145,0.46,1.174,1.066c0.034,0.635-0.419,1.146-1.06,1.177
			c-0.029,0-0.057,0.03-0.057,0.03C330.918,782.597,330.408,782.111,330.375,781.508 M313.286,782.201L313.286,782.201
			c-0.613-0.06-1.098-0.601-1.036-1.237c0.063-0.605,0.635-1.059,1.242-1.029c0.642,0.062,1.089,0.635,1.026,1.241
			c-0.059,0.604-0.54,1.025-1.113,1.025H313.286z M339.422,780.783c-0.063-0.638,0.367-1.184,0.998-1.273
			c0.606-0.06,1.179,0.366,1.271,1.001c0.064,0.603-0.365,1.175-0.997,1.27h-0.154C340,781.78,339.515,781.359,339.422,780.783
			 M304.204,781.027c-0.602-0.125-1.031-0.704-0.907-1.303c0.087-0.638,0.666-1.062,1.302-0.941c0.602,0.091,1.03,0.699,0.938,1.305
			c-0.091,0.543-0.579,0.939-1.123,0.939H304.204z M348.408,779.389c-0.149-0.605,0.274-1.212,0.877-1.333
			c0.606-0.12,1.212,0.276,1.333,0.878c0.121,0.604-0.275,1.212-0.877,1.361h-0.212C348.982,780.295,348.5,779.935,348.408,779.389
			 M295.251,779.149c-0.606-0.156-0.973-0.757-0.818-1.362c0.149-0.607,0.757-0.969,1.358-0.819c0.606,0.124,0.973,0.76,0.848,1.364
			c-0.149,0.516-0.603,0.845-1.118,0.845C295.429,779.177,295.338,779.177,295.251,779.149 M357.244,777.362
			c-0.184-0.605,0.18-1.242,0.791-1.421c0.6-0.155,1.202,0.179,1.387,0.786c0.146,0.605-0.185,1.241-0.787,1.39v0.029
			c-0.119,0.03-0.21,0.03-0.303,0.03C357.818,778.177,357.366,777.849,357.244,777.362 M286.444,776.633
			c-0.606-0.211-0.905-0.847-0.728-1.418c0.212-0.605,0.848-0.938,1.454-0.728c0.574,0.183,0.907,0.818,0.699,1.421
			c-0.154,0.485-0.582,0.79-1.064,0.79C286.684,776.698,286.565,776.666,286.444,776.633 M365.896,774.642
			c-0.212-0.578,0.093-1.243,0.665-1.455c0.606-0.212,1.241,0.091,1.481,0.666c0.213,0.605-0.119,1.271-0.69,1.482
			c-0.126,0.034-0.275,0.062-0.396,0.062C366.505,775.396,366.048,775.123,365.896,774.642 M277.854,773.459
			c-0.579-0.238-0.848-0.908-0.636-1.479c0.237-0.576,0.904-0.852,1.478-0.606c0.607,0.21,0.881,0.909,0.636,1.482
			c-0.183,0.422-0.602,0.694-1.06,0.694C278.122,773.55,278.002,773.52,277.854,773.459 M374.338,771.312
			c-0.274-0.575-0.027-1.239,0.544-1.512c0.578-0.245,1.239,0,1.512,0.571c0.243,0.577,0,1.242-0.578,1.515
			c-0.147,0.061-0.297,0.094-0.45,0.094C374.91,771.979,374.522,771.734,374.338,771.312 M269.503,769.648
			c-0.549-0.273-0.789-0.969-0.486-1.512c0.27-0.578,0.935-0.791,1.511-0.516c0.545,0.269,0.787,0.968,0.515,1.512
			c-0.211,0.422-0.606,0.635-1.025,0.635C269.832,769.768,269.682,769.736,269.503,769.648 M382.477,767.346
			c-0.303-0.544-0.091-1.237,0.457-1.54c0.54-0.304,1.237-0.091,1.543,0.453c0.303,0.572,0.091,1.241-0.455,1.541
			c-0.182,0.09-0.364,0.152-0.548,0.152C383.083,767.952,382.689,767.742,382.477,767.346 M261.481,765.232L261.481,765.232
			c-0.544-0.309-0.723-1.002-0.396-1.547c0.337-0.544,1.031-0.726,1.545-0.393c0.55,0.33,0.728,1.029,0.396,1.574
			c-0.217,0.332-0.573,0.544-0.973,0.544C261.876,765.411,261.664,765.352,261.481,765.232 M390.31,762.805
			c-0.331-0.51-0.182-1.235,0.368-1.569c0.514-0.333,1.209-0.178,1.538,0.366c0.368,0.511,0.185,1.203-0.329,1.54
			c-0.178,0.12-0.392,0.184-0.606,0.184C390.921,763.325,390.557,763.142,390.31,762.805 M253.795,760.267
			c-0.515-0.363-0.635-1.087-0.269-1.603c0.361-0.513,1.059-0.637,1.575-0.274c0.515,0.361,0.63,1.064,0.274,1.574
			c-0.217,0.333-0.577,0.488-0.915,0.488C254.219,760.452,254.008,760.389,253.795,760.267 M397.82,757.698
			c-0.396-0.518-0.275-1.215,0.21-1.606c0.514-0.365,1.213-0.275,1.604,0.24c0.365,0.488,0.271,1.213-0.241,1.576
			c-0.184,0.151-0.424,0.243-0.662,0.243C398.361,758.151,398.03,757.999,397.82,757.698 M246.505,754.701L246.505,754.701
			c-0.482-0.393-0.544-1.122-0.15-1.605c0.39-0.48,1.118-0.542,1.599-0.152c0.486,0.396,0.549,1.122,0.155,1.604
			c-0.241,0.272-0.543,0.422-0.876,0.422C246.991,754.97,246.718,754.885,246.505,754.701 M404.897,752.039
			c-0.396-0.487-0.362-1.182,0.119-1.604c0.452-0.425,1.185-0.364,1.603,0.12c0.396,0.453,0.368,1.186-0.119,1.604
			c-0.212,0.181-0.487,0.271-0.756,0.271C405.441,752.43,405.138,752.308,404.897,752.039 M239.634,748.648
			c-0.454-0.453-0.454-1.147-0.03-1.604c0.429-0.451,1.151-0.479,1.604-0.058c0.458,0.454,0.486,1.146,0.062,1.604
			c-0.24,0.241-0.539,0.363-0.847,0.363C240.154,748.953,239.875,748.86,239.634,748.648 M411.552,745.864
			c-0.425-0.424-0.425-1.149,0-1.601c0.453-0.427,1.152-0.455,1.607,0c0.453,0.451,0.453,1.144,0.028,1.601
			c-0.245,0.212-0.514,0.338-0.816,0.338C412.067,746.202,411.792,746.105,411.552,745.864 M233.253,742.085
			c-0.429-0.459-0.395-1.18,0.091-1.604c0.453-0.422,1.18-0.394,1.604,0.092c0.424,0.452,0.361,1.175-0.091,1.603
			c-0.212,0.18-0.481,0.271-0.756,0.271C233.797,742.445,233.466,742.326,233.253,742.085 M417.761,739.238
			c-0.487-0.395-0.553-1.115-0.128-1.604c0.396-0.481,1.12-0.543,1.609-0.118c0.453,0.394,0.509,1.119,0.115,1.602
			c-0.241,0.242-0.542,0.394-0.878,0.394C418.239,739.512,417.966,739.423,417.761,739.238 M227.354,735.097
			c-0.394-0.514-0.303-1.212,0.208-1.607c0.492-0.39,1.208-0.299,1.579,0.214c0.386,0.485,0.299,1.183-0.182,1.572
			c-0.216,0.15-0.458,0.241-0.699,0.241C227.928,735.517,227.562,735.367,227.354,735.097 M423.444,732.155
			c-0.513-0.362-0.606-1.054-0.244-1.569c0.366-0.511,1.065-0.636,1.574-0.239c0.516,0.359,0.635,1.055,0.245,1.572
			c-0.217,0.299-0.548,0.454-0.91,0.454C423.869,732.373,423.652,732.312,423.444,732.155 M221.999,727.681
			c-0.365-0.543-0.216-1.241,0.299-1.603c0.521-0.332,1.242-0.183,1.575,0.332c0.361,0.515,0.211,1.209-0.299,1.57
			c-0.216,0.125-0.429,0.187-0.64,0.187C222.573,728.167,222.207,727.98,221.999,727.681 M428.59,724.686
			c-0.516-0.333-0.7-1.026-0.369-1.542c0.339-0.547,1.036-0.695,1.577-0.364c0.514,0.333,0.698,1.03,0.366,1.542
			c-0.212,0.364-0.58,0.549-0.973,0.549C428.983,724.87,428.771,724.806,428.59,724.686 M217.184,719.876
			c-0.298-0.543-0.123-1.242,0.429-1.543c0.539-0.306,1.237-0.121,1.536,0.422c0.337,0.544,0.125,1.241-0.419,1.546
			c-0.178,0.092-0.366,0.15-0.549,0.15C217.796,720.451,217.396,720.237,217.184,719.876 M433.188,716.848
			c-0.578-0.27-0.786-0.969-0.487-1.513c0.31-0.573,0.975-0.785,1.542-0.479c0.548,0.3,0.759,0.966,0.455,1.51
			c-0.176,0.39-0.576,0.636-0.996,0.636C433.52,717.001,433.336,716.939,433.188,716.848 M212.98,711.767
			c-0.269-0.577-0.029-1.271,0.55-1.513c0.539-0.272,1.237-0.033,1.507,0.545c0.275,0.545,0.033,1.209-0.54,1.484
			c-0.153,0.086-0.337,0.119-0.486,0.119C213.587,712.402,213.159,712.161,212.98,711.767 M437.186,708.711
			c-0.579-0.244-0.856-0.936-0.609-1.512c0.243-0.576,0.936-0.818,1.515-0.576c0.541,0.241,0.816,0.906,0.569,1.484
			c-0.18,0.417-0.6,0.693-1.029,0.693C437.484,708.801,437.305,708.771,437.186,708.711 M209.379,703.353
			c-0.241-0.6,0.062-1.24,0.669-1.481c0.573-0.212,1.238,0.063,1.454,0.665c0.208,0.576-0.062,1.241-0.668,1.454
			c-0.12,0.062-0.246,0.091-0.395,0.091C209.991,704.081,209.562,703.808,209.379,703.353 M440.541,700.268
			c-0.574-0.206-0.912-0.848-0.693-1.449c0.208-0.58,0.843-0.909,1.451-0.697c0.569,0.211,0.903,0.848,0.695,1.453
			c-0.154,0.454-0.606,0.757-1.063,0.757C440.81,700.331,440.662,700.301,440.541,700.268 M206.412,694.673
			c-0.178-0.606,0.154-1.243,0.756-1.424c0.606-0.151,1.243,0.181,1.426,0.788c0.182,0.578-0.15,1.213-0.756,1.391
			c-0.121,0.03-0.245,0.059-0.333,0.059C207.019,695.486,206.566,695.154,206.412,694.673 M443.296,691.614
			c-0.608-0.148-0.968-0.784-0.821-1.393c0.154-0.601,0.791-0.967,1.394-0.786c0.6,0.156,0.964,0.759,0.812,1.395
			c-0.149,0.48-0.601,0.818-1.116,0.818C443.476,691.648,443.385,691.648,443.296,691.614 M204.115,685.809
			c-0.149-0.607,0.242-1.211,0.848-1.335c0.636-0.15,1.242,0.243,1.359,0.85c0.125,0.605-0.242,1.206-0.872,1.361
			c-0.063,0.032-0.154,0.032-0.245,0.032C204.694,686.717,204.235,686.352,204.115,685.809 M445.378,682.783
			c-0.631-0.094-1.024-0.698-0.91-1.307c0.094-0.634,0.7-1.024,1.307-0.91c0.635,0.099,1.026,0.704,0.938,1.304
			c-0.123,0.547-0.604,0.941-1.12,0.941C445.501,682.812,445.437,682.812,445.378,682.783 M202.454,676.819
			c-0.097-0.637,0.356-1.205,0.968-1.298c0.602-0.096,1.208,0.362,1.3,0.966c0.058,0.604-0.366,1.182-0.969,1.304H203.6
			C203.027,677.791,202.541,677.366,202.454,676.819 M446.801,673.827c-0.637-0.062-1.087-0.637-0.998-1.242
			c0.062-0.636,0.606-1.09,1.243-0.997c0.608,0.059,1.055,0.604,0.999,1.239c-0.065,0.573-0.547,1-1.125,1H446.801z
			 M201.485,667.712c-0.032-0.637,0.424-1.178,1.056-1.208c0.635-0.062,1.185,0.422,1.213,1.058c0.029,0.607-0.428,1.151-1.059,1.21
			h-0.063C202.025,668.771,201.544,668.317,201.485,667.712 M447.557,664.779c-0.637,0-1.117-0.545-1.089-1.151
			c0-0.637,0.55-1.117,1.152-1.088c0.63,0,1.115,0.544,1.115,1.175h-0.028c0,0.61-0.516,1.094-1.117,1.094
			C447.59,664.809,447.557,664.809,447.557,664.779 M201.183,658.938c0-0.634,0.511-1.118,1.118-1.118
			c0.635,0,1.15,0.484,1.15,1.118c0,0.635-0.515,1.149-1.15,1.149C201.693,660.088,201.183,659.573,201.183,658.938
			 M446.468,654.644c-0.028-0.637,0.487-1.182,1.089-1.182c0.635-0.028,1.15,0.455,1.179,1.089c0.035,0.636-0.446,1.151-1.081,1.181
			h-0.034C447.018,655.731,446.502,655.247,446.468,654.644 M202.57,651.011c-0.631-0.062-1.085-0.605-1.055-1.21
			c0.029-0.633,0.574-1.09,1.209-1.057c0.634,0.028,1.085,0.572,1.058,1.208c-0.057,0.606-0.543,1.059-1.151,1.059H202.57z
			 M445.833,645.653L445.833,645.653c-0.059-0.604,0.394-1.176,1.001-1.239c0.602-0.06,1.18,0.396,1.236,1.002h0.03
			c0.063,0.63-0.392,1.18-1.026,1.237c-0.028,0.029-0.091,0.029-0.119,0.029C446.383,646.683,445.896,646.23,445.833,645.653
			 M203.479,641.966c-0.635-0.065-1.059-0.667-0.967-1.27c0.092-0.637,0.665-1.062,1.298-0.973c0.608,0.091,1.033,0.665,0.94,1.301
			c-0.056,0.577-0.543,0.971-1.122,0.971C203.572,641.995,203.538,641.995,203.479,641.966 M444.531,636.763L444.531,636.763
			c-0.119-0.606,0.301-1.212,0.905-1.301c0.612-0.125,1.213,0.267,1.336,0.906c0.089,0.602-0.305,1.208-0.907,1.328h-0.212
			C445.111,637.696,444.624,637.308,444.531,636.763 M205.054,633.038c-0.635-0.124-1-0.728-0.875-1.36
			c0.149-0.602,0.755-0.968,1.362-0.849c0.603,0.153,0.997,0.759,0.872,1.359c-0.12,0.515-0.602,0.882-1.117,0.882
			C205.204,633.07,205.141,633.07,205.054,633.038 M442.568,627.985L442.568,627.985c-0.156-0.603,0.212-1.214,0.816-1.359
			c0.604-0.183,1.209,0.181,1.393,0.785c0.149,0.636-0.216,1.239-0.818,1.393c-0.091,0.028-0.182,0.028-0.304,0.028
			C443.17,628.832,442.718,628.5,442.568,627.985 M207.293,624.268c-0.602-0.188-0.943-0.819-0.756-1.428
			c0.183-0.605,0.814-0.938,1.387-0.755c0.607,0.185,0.94,0.82,0.756,1.427c-0.12,0.479-0.573,0.784-1.055,0.784
			C207.505,624.296,207.385,624.296,207.293,624.268 M439.967,619.395c-0.21-0.606,0.117-1.242,0.695-1.423
			c0.602-0.211,1.236,0.09,1.449,0.695c0.217,0.576-0.117,1.241-0.695,1.42c-0.117,0.062-0.24,0.062-0.364,0.062
			C440.573,620.149,440.146,619.879,439.967,619.395 M210.169,615.641c-0.579-0.242-0.877-0.877-0.636-1.452
			c0.212-0.603,0.876-0.875,1.449-0.665c0.577,0.213,0.876,0.876,0.664,1.483c-0.178,0.425-0.602,0.728-1.06,0.728
			C210.438,615.734,210.318,615.705,210.169,615.641 M436.726,611.011c-0.24-0.574,0.028-1.238,0.606-1.479
			c0.574-0.246,1.241,0.028,1.484,0.601c0.24,0.574,0,1.245-0.578,1.484c-0.147,0.062-0.297,0.091-0.453,0.091
			C437.332,611.708,436.905,611.433,436.726,611.011 M213.679,607.261c-0.549-0.271-0.79-0.937-0.52-1.511
			c0.275-0.547,0.943-0.794,1.517-0.513c0.544,0.269,0.785,0.935,0.515,1.478c-0.178,0.427-0.578,0.669-0.997,0.669
			C214.011,607.384,213.857,607.352,213.679,607.261 M432.89,602.901c-0.279-0.54-0.063-1.237,0.479-1.514
			c0.546-0.297,1.239-0.089,1.545,0.487c0.272,0.542,0.061,1.213-0.483,1.512c-0.187,0.091-0.366,0.12-0.516,0.12
			C433.485,603.507,433.096,603.297,432.89,602.901 M217.82,599.184c-0.539-0.304-0.722-1.003-0.424-1.545
			c0.303-0.544,0.997-0.725,1.541-0.421c0.548,0.3,0.732,0.994,0.428,1.54c-0.217,0.364-0.606,0.575-1.001,0.575
			C218.181,599.333,218.002,599.271,217.82,599.184 M428.468,595.096h-0.034c-0.332-0.542-0.147-1.237,0.396-1.57
			c0.509-0.331,1.209-0.154,1.544,0.391c0.334,0.514,0.178,1.211-0.365,1.545c-0.183,0.121-0.391,0.178-0.603,0.178
			C429.04,595.639,428.681,595.433,428.468,595.096 M222.539,591.436c-0.511-0.361-0.665-1.06-0.303-1.574
			c0.337-0.511,1.064-0.665,1.579-0.303c0.515,0.335,0.636,1.029,0.303,1.576c-0.216,0.301-0.577,0.484-0.943,0.484
			C222.935,591.619,222.722,591.557,222.539,591.436 M423.444,587.626c-0.363-0.485-0.244-1.212,0.243-1.574
			c0.513-0.363,1.236-0.272,1.603,0.239c0.359,0.515,0.24,1.21-0.271,1.605c-0.182,0.12-0.423,0.213-0.669,0.213
			C424.021,588.109,423.652,587.925,423.444,587.626 M227.807,584.054c-0.486-0.394-0.576-1.116-0.183-1.604
			c0.395-0.483,1.088-0.574,1.604-0.183c0.486,0.366,0.574,1.093,0.183,1.576c-0.212,0.3-0.573,0.452-0.91,0.452
			C228.26,584.295,228.019,584.208,227.807,584.054 M417.908,580.542c-0.395-0.45-0.332-1.179,0.121-1.573
			c0.485-0.419,1.213-0.364,1.603,0.12c0.425,0.485,0.362,1.213-0.121,1.609c-0.212,0.178-0.479,0.269-0.726,0.269
			C418.451,580.967,418.115,580.817,417.908,580.542 M233.615,577.063c-0.454-0.422-0.482-1.147-0.058-1.604
			c0.423-0.45,1.123-0.481,1.604-0.059c0.453,0.425,0.487,1.118,0.057,1.604c-0.207,0.241-0.51,0.365-0.841,0.365
			C234.101,577.369,233.826,577.277,233.615,577.063 M411.855,573.918L411.855,573.918c-0.423-0.454-0.423-1.181,0.034-1.604
			c0.418-0.452,1.15-0.423,1.602,0c0.424,0.452,0.424,1.18-0.033,1.604c-0.212,0.211-0.516,0.331-0.784,0.331
			C412.371,574.249,412.067,574.129,411.855,573.918 M239.913,570.526c-0.428-0.452-0.395-1.146,0.059-1.599
			c0.452-0.428,1.179-0.398,1.599,0.058c0.428,0.454,0.428,1.18-0.059,1.605c-0.212,0.209-0.481,0.302-0.755,0.302
			C240.452,570.893,240.154,570.769,239.913,570.526 M405.319,567.715c-0.45-0.396-0.516-1.12-0.091-1.603
			c0.423-0.453,1.15-0.516,1.605-0.093c0.485,0.425,0.514,1.122,0.089,1.604c-0.21,0.241-0.514,0.361-0.847,0.361
			C405.808,567.984,405.566,567.896,405.319,567.715 M246.683,564.508c-0.39-0.516-0.328-1.208,0.155-1.603
			c0.486-0.395,1.213-0.336,1.603,0.153c0.396,0.482,0.333,1.209-0.149,1.601c-0.212,0.183-0.487,0.244-0.726,0.244
			C247.233,564.903,246.9,564.783,246.683,564.508 M398.396,562.028c-0.52-0.362-0.611-1.091-0.247-1.606
			c0.395-0.484,1.094-0.57,1.605-0.212c0.485,0.397,0.606,1.091,0.206,1.606c-0.206,0.27-0.568,0.453-0.903,0.453
			C398.816,562.27,398.574,562.177,398.396,562.028 M253.859,558.971c-0.367-0.512-0.212-1.24,0.303-1.604
			c0.516-0.362,1.213-0.213,1.569,0.303c0.366,0.484,0.241,1.212-0.269,1.575c-0.218,0.12-0.424,0.207-0.665,0.207
			C254.46,559.452,254.099,559.273,253.859,558.971 M391.01,556.856L391.01,556.856c-0.516-0.337-0.665-1.03-0.332-1.578
			c0.332-0.515,1.06-0.665,1.568-0.331c0.516,0.331,0.67,1.056,0.338,1.572c-0.212,0.337-0.578,0.514-0.968,0.514
			C391.404,557.033,391.191,556.977,391.01,556.856 M261.452,553.976c-0.332-0.542-0.154-1.238,0.395-1.57
			c0.544-0.303,1.237-0.151,1.542,0.397c0.331,0.541,0.149,1.234-0.396,1.569c-0.183,0.092-0.361,0.148-0.573,0.148
			C262.024,554.521,261.664,554.312,261.452,553.976 M383.289,552.254L383.289,552.254c-0.539-0.304-0.754-0.998-0.446-1.541
			c0.297-0.547,0.997-0.758,1.54-0.456c0.544,0.302,0.756,0.999,0.453,1.543c-0.213,0.359-0.603,0.605-0.996,0.605
			C383.657,552.405,383.474,552.346,383.289,552.254 M269.378,549.561c-0.304-0.576-0.057-1.239,0.481-1.512
			c0.578-0.303,1.243-0.064,1.546,0.516c0.269,0.541,0.029,1.21-0.515,1.512c-0.184,0.062-0.333,0.12-0.515,0.12
			C269.952,550.196,269.561,549.955,269.378,549.561 M375.244,548.231c-0.574-0.275-0.812-0.938-0.574-1.516
			c0.274-0.574,0.942-0.814,1.512-0.544c0.574,0.241,0.819,0.908,0.574,1.482c-0.206,0.424-0.603,0.667-1.053,0.667
			C375.547,548.321,375.397,548.29,375.244,548.231 M277.579,545.748c-0.211-0.574,0.058-1.238,0.631-1.479
			c0.583-0.247,1.242,0.03,1.487,0.602c0.241,0.607-0.057,1.271-0.635,1.483c-0.121,0.06-0.27,0.094-0.424,0.094
			C278.181,546.447,277.757,546.172,277.579,545.748 M366.923,544.811c-0.573-0.208-0.875-0.879-0.662-1.451
			c0.216-0.609,0.847-0.877,1.451-0.666c0.578,0.213,0.877,0.843,0.667,1.449c-0.185,0.46-0.608,0.728-1.062,0.728
			C367.196,544.87,367.042,544.87,366.923,544.811 M286.078,542.54c-0.179-0.573,0.12-1.239,0.728-1.42
			c0.607-0.179,1.243,0.119,1.425,0.727c0.211,0.606-0.125,1.239-0.727,1.421c-0.121,0.062-0.216,0.062-0.333,0.062
			C286.684,543.33,286.232,543.026,286.078,542.54 M358.391,542.027h-0.028c-0.608-0.181-0.938-0.788-0.756-1.395
			c0.147-0.602,0.784-0.967,1.391-0.784s0.94,0.784,0.791,1.391c-0.152,0.517-0.609,0.816-1.095,0.816
			C358.572,542.056,358.483,542.056,358.391,542.027 M294.793,540c-0.148-0.604,0.212-1.24,0.813-1.393
			c0.612-0.12,1.244,0.242,1.396,0.852c0.122,0.602-0.24,1.204-0.847,1.36c-0.092,0.03-0.178,0.06-0.27,0.06
			C295.371,540.879,294.914,540.514,294.793,540 M349.651,539.877c-0.607-0.12-1.002-0.729-0.876-1.329
			c0.119-0.606,0.721-0.997,1.33-0.875c0.605,0.119,1.029,0.724,0.875,1.329c-0.092,0.549-0.572,0.908-1.118,0.908
			C349.8,539.91,349.708,539.91,349.651,539.877 M303.659,538.097c-0.091-0.607,0.304-1.214,0.94-1.302
			c0.602-0.093,1.213,0.299,1.299,0.937c0.092,0.605-0.303,1.213-0.939,1.298h-0.178
			C304.232,539.029,303.751,538.669,303.659,538.097 M340.785,538.396L340.785,538.396c-0.606-0.06-1.059-0.638-0.973-1.273
			c0.063-0.602,0.636-1.056,1.272-0.963c0.605,0.086,1.059,0.635,0.973,1.271c-0.097,0.569-0.545,0.996-1.122,0.996
			C340.876,538.428,340.843,538.396,340.785,538.396 M313.887,537.877c-0.635,0.064-1.18-0.388-1.237-1.024
			c-0.063-0.606,0.389-1.18,1.025-1.208c0.636-0.063,1.18,0.395,1.242,1.028C314.946,537.276,314.488,537.821,313.887,537.877
			 M331.829,537.579L331.829,537.579c-0.607-0.028-1.094-0.576-1.059-1.177c0.028-0.636,0.577-1.119,1.208-1.09
			c0.605,0.029,1.092,0.569,1.058,1.209c-0.028,0.602-0.543,1.058-1.15,1.058H331.829z M321.691,536.279
			c0-0.606,0.488-1.117,1.119-1.152c0.64,0,1.151,0.484,1.151,1.119c0.032,0.637-0.483,1.151-1.118,1.151
			C322.208,537.397,321.727,536.914,321.691,536.279"/>
		<linearGradient id="SVGID_57_" gradientUnits="userSpaceOnUse" x1="344.2051" y1="709.9033" x2="347.4629" y2="715.546">
			<stop  offset="0" style="stop-color:#EDEDED"/>
			<stop  offset="0.5014" style="stop-color:#B0B0B0"/>
			<stop  offset="1" style="stop-color:#EDEDED"/>
		</linearGradient>
		<path fill="url(#SVGID_57_)" d="M345.851,715.879c2.157,0,3.391-1.56,3.391-3.172c0-1.613-1.234-3.126-3.391-3.126
			c-2.2,0-3.443,1.513-3.443,3.126C342.408,714.319,343.651,715.879,345.851,715.879"/>
		<linearGradient id="SVGID_58_" gradientUnits="userSpaceOnUse" x1="343.1328" y1="722.7627" x2="348.5171" y2="732.0886">
			<stop  offset="0" style="stop-color:#EDEDED"/>
			<stop  offset="0.5014" style="stop-color:#B0B0B0"/>
			<stop  offset="1" style="stop-color:#EDEDED"/>
		</linearGradient>
		<path fill="url(#SVGID_58_)" d="M345.851,722.286c-3.603,0-5.705,2.256-5.705,5.11c0,3.015,2.102,5.161,5.705,5.161
			c3.606,0,5.653-2.313,5.653-5.161C351.504,724.542,349.457,722.286,345.851,722.286"/>
		<linearGradient id="SVGID_59_" gradientUnits="userSpaceOnUse" x1="303.1484" y1="717.7002" x2="307.9468" y2="726.0112">
			<stop  offset="0" style="stop-color:#EDEDED"/>
			<stop  offset="0.5014" style="stop-color:#B0B0B0"/>
			<stop  offset="1" style="stop-color:#EDEDED"/>
		</linearGradient>
		<polygon fill="url(#SVGID_59_)" points="308.816,725.509 308.816,714.427 300.1,725.509 		"/>
		<linearGradient id="SVGID_60_" gradientUnits="userSpaceOnUse" x1="287.9189" y1="648.9131" x2="359.1245" y2="772.2448">
			<stop  offset="0" style="stop-color:#EDEDED"/>
			<stop  offset="0.5014" style="stop-color:#B0B0B0"/>
			<stop  offset="1" style="stop-color:#EDEDED"/>
		</linearGradient>
		<path fill="url(#SVGID_60_)" d="M383.339,659.255c-2.157-2.615-5.929-2.351-7.705,0.526l-10.985,17.785
			c-0.715,1.173-1.766,1.216-2.584,0.119l-31.272-41.743c-1.997-2.66-5.854-2.752-7.968-0.182l-30.943,37.503
			c-0.925,1.121-2.335,1.093-3.208-0.078l-10.309-13.747c-2.004-2.667-5.876-2.625-7.811-0.04
			c-45.635,56.81-44.456,58.783-43.839,59.804c0.304,0.549,31.401,55.011,100.318,55.011c67.067,0,99.006-59.706,99.327-60.313
			C426.922,712.812,427.98,710.784,383.339,659.255 M322.377,733.259h-4.195v6.351h-9.366v-6.351H290.2v-7.426l17.923-22.813h10.059
			v22.489h4.195V733.259z M345.851,740.148c-9.688,0-15.01-5.49-15.01-12.003c0-4.734,2.632-8.121,6.78-9.896
			c-1.991-1.567-3.333-3.771-3.333-6.623c0-5.055,4.464-9.039,11.562-9.039c7.103,0,11.515,3.984,11.515,9.039
			c0,2.853-1.342,5.056-3.334,6.564c4.087,1.833,6.778,5.22,6.778,9.954C360.811,734.658,355.537,740.148,345.851,740.148"/>
		<linearGradient id="SVGID_61_" gradientUnits="userSpaceOnUse" x1="302.1816" y1="602.3975" x2="306.2617" y2="609.4644">
			<stop  offset="0" style="stop-color:#EDEDED"/>
			<stop  offset="0.5014" style="stop-color:#B0B0B0"/>
			<stop  offset="1" style="stop-color:#EDEDED"/>
		</linearGradient>
		<path fill="url(#SVGID_61_)" d="M304.21,601.226c-0.787,3.265-1.437,3.909-4.707,4.708c3.27,0.801,3.92,1.45,4.707,4.715
			c0.812-3.265,1.462-3.914,4.732-4.715C305.672,605.135,305.022,604.49,304.21,601.226"/>
		<linearGradient id="SVGID_62_" gradientUnits="userSpaceOnUse" x1="376.3701" y1="632.3994" x2="380.4512" y2="639.468">
			<stop  offset="0" style="stop-color:#EDEDED"/>
			<stop  offset="0.5014" style="stop-color:#B0B0B0"/>
			<stop  offset="1" style="stop-color:#EDEDED"/>
		</linearGradient>
		<path fill="url(#SVGID_62_)" d="M378.4,631.228c-0.787,3.265-1.438,3.909-4.708,4.709c3.27,0.8,3.921,1.45,4.708,4.716
			c0.812-3.266,1.462-3.916,4.73-4.716C379.862,635.137,379.212,634.492,378.4,631.228"/>
		<linearGradient id="SVGID_63_" gradientUnits="userSpaceOnUse" x1="345.9653" y1="609.9004" x2="350.0464" y2="616.969">
			<stop  offset="0" style="stop-color:#EDEDED"/>
			<stop  offset="0.5014" style="stop-color:#B0B0B0"/>
			<stop  offset="1" style="stop-color:#EDEDED"/>
		</linearGradient>
		<path fill="url(#SVGID_63_)" d="M347.995,608.729c-0.788,3.264-1.438,3.908-4.707,4.708c3.27,0.801,3.919,1.45,4.707,4.716
			c0.811-3.266,1.46-3.915,4.731-4.716C349.455,612.637,348.806,611.992,347.995,608.729"/>
	</g>
	<g display="none">
		<g display="inline">
			<g>
				<g>
					<path fill="#DBD322" d="M325,792.144c-73.744,0-133.736-59.995-133.736-133.733c0-73.746,59.992-133.738,133.736-133.738
						s133.736,59.992,133.736,133.738C458.736,732.148,398.744,792.144,325,792.144z M325,527.708
						c-72.067,0-130.699,58.636-130.699,130.702S252.933,789.104,325,789.104c72.066,0,130.699-58.628,130.699-130.694
						S397.066,527.708,325,527.708z"/>
				</g>
			</g>
			<g>
				<g>
					<path fill="#DBD322" d="M322.411,782.68L322.411,782.68L322.411,782.68c-0.611,0-1.128-0.518-1.097-1.157l0,0
						c0-0.636,0.517-1.121,1.155-1.121l0,0c0.637,0.028,1.121,0.546,1.121,1.184l0,0c-0.029,0.606-0.515,1.095-1.15,1.095l0,0
						C322.439,782.68,322.439,782.68,322.411,782.68z M330.395,781.465c-0.029-0.641,0.457-1.154,1.095-1.188l0,0
						c0.637-0.059,1.154,0.457,1.183,1.065l0,0c0.034,0.638-0.423,1.152-1.061,1.182l0,0c-0.029,0-0.06,0.031-0.06,0.031l0,0
						C330.946,782.555,330.428,782.071,330.395,781.465z M313.236,782.162L313.236,782.162L313.236,782.162
						c-0.608-0.062-1.095-0.605-1.038-1.245l0,0c0.063-0.606,0.643-1.062,1.247-1.03l0,0c0.641,0.058,1.095,0.636,1.033,1.246l0,0
						c-0.058,0.604-0.546,1.029-1.121,1.029l0,0C313.327,782.162,313.298,782.162,313.236,782.162z M339.478,780.733
						c-0.058-0.639,0.365-1.184,1.003-1.275l0,0c0.609-0.058,1.185,0.366,1.276,1.002l0,0c0.062,0.609-0.364,1.188-1.001,1.276l0,0
						c-0.031,0-0.092,0-0.152,0l0,0C340.058,781.736,339.572,781.311,339.478,780.733z M304.121,780.977
						c-0.607-0.123-1.035-0.7-0.91-1.307l0,0c0.089-0.635,0.667-1.06,1.304-0.943l0,0c0.609,0.094,1.032,0.703,0.943,1.309l0,0
						c-0.093,0.547-0.577,0.941-1.125,0.941l0,0C304.273,780.977,304.184,780.977,304.121,780.977z M348.5,779.338
						c-0.149-0.611,0.276-1.216,0.881-1.338l0,0c0.608-0.12,1.217,0.274,1.337,0.883l0,0c0.123,0.604-0.271,1.212-0.88,1.365l0,0
						c-0.092,0-0.149,0-0.212,0l0,0C349.079,780.248,348.593,779.887,348.5,779.338z M295.132,779.097
						c-0.609-0.154-0.975-0.76-0.821-1.371l0,0c0.149-0.606,0.761-0.97,1.366-0.818l0,0c0.607,0.121,0.972,0.761,0.851,1.367l0,0
						c-0.15,0.515-0.607,0.851-1.124,0.851l0,0C295.314,779.125,295.221,779.125,295.132,779.097z M357.373,777.302
						c-0.184-0.608,0.18-1.243,0.789-1.429l0,0c0.607-0.154,1.213,0.186,1.396,0.788l0,0c0.15,0.612-0.184,1.247-0.789,1.401l0,0
						c0,0,0,0,0,0.031l0,0c-0.121,0.028-0.213,0.028-0.307,0.028l0,0C357.947,778.122,357.494,777.788,357.373,777.302z
						 M286.291,776.575c-0.609-0.214-0.912-0.856-0.729-1.429l0,0c0.212-0.606,0.852-0.943,1.458-0.731l0,0
						c0.575,0.183,0.913,0.822,0.701,1.429l0,0c-0.154,0.486-0.58,0.79-1.064,0.79l0,0
						C286.534,776.634,286.414,776.604,286.291,776.575z M366.057,774.568c-0.209-0.577,0.094-1.246,0.67-1.457l0,0
						c0.609-0.216,1.246,0.091,1.49,0.668l0,0c0.211,0.606-0.123,1.275-0.699,1.487l0,0c-0.121,0.033-0.273,0.062-0.395,0.062l0,0
						C366.666,775.329,366.209,775.055,366.057,774.568z M277.665,773.383c-0.575-0.243-0.852-0.912-0.638-1.49l0,0
						c0.241-0.574,0.909-0.847,1.487-0.604l0,0c0.609,0.214,0.883,0.911,0.64,1.489l0,0c-0.185,0.424-0.608,0.697-1.066,0.697l0,0
						C277.936,773.476,277.816,773.442,277.665,773.383z M374.535,771.227c-0.275-0.58-0.031-1.245,0.543-1.519l0,0
						c0.58-0.246,1.246,0,1.521,0.578l0,0c0.242,0.576,0,1.245-0.578,1.521l0,0l0,0l0,0c-0.148,0.057-0.301,0.086-0.455,0.086l0,0
						C375.111,771.893,374.717,771.65,374.535,771.227z M269.281,769.557c-0.546-0.271-0.789-0.975-0.486-1.52l0,0
						c0.272-0.577,0.941-0.788,1.519-0.517l0,0c0.546,0.272,0.789,0.974,0.517,1.519l0,0c-0.214,0.423-0.609,0.641-1.032,0.641l0,0
						C269.613,769.68,269.461,769.646,269.281,769.557z M382.707,767.249c-0.305-0.546-0.092-1.247,0.453-1.55l0,0
						c0.551-0.305,1.244-0.092,1.551,0.454l0,0c0.303,0.578,0.088,1.244-0.455,1.553l0,0c-0.184,0.087-0.367,0.146-0.545,0.146l0,0
						C383.316,767.853,382.918,767.644,382.707,767.249z M261.23,765.121L261.23,765.121L261.23,765.121
						c-0.546-0.305-0.729-1.003-0.395-1.552l0,0c0.337-0.546,1.032-0.727,1.549-0.393l0,0c0.549,0.333,0.729,1.035,0.395,1.579l0,0
						c-0.214,0.332-0.576,0.546-0.975,0.546l0,0C261.625,765.302,261.415,765.242,261.23,765.121z M390.572,762.691
						c-0.336-0.515-0.184-1.246,0.365-1.581l0,0c0.518-0.335,1.213-0.18,1.551,0.363l0,0c0.363,0.518,0.18,1.218-0.338,1.55l0,0l0,0
						l0,0c-0.18,0.125-0.395,0.183-0.604,0.183l0,0C391.182,763.206,390.814,763.023,390.572,762.691z M253.515,760.141
						c-0.517-0.368-0.637-1.094-0.274-1.611l0,0c0.366-0.516,1.066-0.636,1.581-0.275l0,0c0.518,0.366,0.635,1.063,0.274,1.581l0,0
						c-0.214,0.335-0.58,0.485-0.914,0.485l0,0C253.939,760.32,253.725,760.258,253.515,760.141z M398.105,757.557
						c-0.393-0.515-0.273-1.213,0.213-1.612l0,0c0.518-0.361,1.217-0.27,1.611,0.246l0,0c0.363,0.485,0.271,1.214-0.242,1.58l0,0
						c-0.186,0.151-0.426,0.243-0.67,0.243l0,0C398.654,758.014,398.318,757.861,398.105,757.557z M246.193,754.553L246.193,754.553
						L246.193,754.553c-0.483-0.398-0.546-1.128-0.151-1.617l0,0c0.395-0.48,1.123-0.543,1.607-0.146l0,0
						c0.488,0.392,0.549,1.12,0.154,1.606l0,0c-0.243,0.272-0.544,0.428-0.881,0.428l0,0
						C246.679,754.824,246.407,754.731,246.193,754.553z M405.217,751.878c-0.4-0.488-0.365-1.184,0.119-1.61l0,0
						c0.455-0.425,1.184-0.367,1.607,0.118l0,0c0.395,0.457,0.367,1.188-0.119,1.612l0,0c-0.211,0.181-0.486,0.274-0.762,0.274l0,0
						C405.76,752.272,405.455,752.146,405.217,751.878z M239.297,748.476c-0.455-0.457-0.455-1.155-0.031-1.612l0,0
						c0.428-0.455,1.157-0.484,1.611-0.061l0,0c0.458,0.457,0.486,1.158,0.063,1.61l0,0c-0.243,0.244-0.546,0.365-0.852,0.365l0,0
						C239.815,748.778,239.54,748.687,239.297,748.476z M411.896,745.682c-0.424-0.426-0.424-1.157,0-1.614l0,0
						c0.457-0.424,1.152-0.452,1.609,0l0,0c0.457,0.457,0.457,1.159,0.031,1.614l0,0c-0.242,0.21-0.518,0.333-0.82,0.333l0,0
						C412.412,746.015,412.139,745.922,411.896,745.682z M232.889,741.885c-0.428-0.455-0.395-1.186,0.092-1.614l0,0
						c0.455-0.424,1.184-0.391,1.612,0.096l0,0c0.423,0.452,0.361,1.18-0.093,1.607l0,0c-0.215,0.183-0.486,0.275-0.758,0.275l0,0
						C233.436,742.249,233.104,742.126,232.889,741.885z M418.125,739.028c-0.484-0.395-0.547-1.126-0.123-1.612l0,0
						c0.396-0.485,1.123-0.543,1.609-0.12l0,0c0.457,0.395,0.516,1.124,0.121,1.612l0,0l0,0l0,0
						c-0.242,0.241-0.545,0.395-0.879,0.395l0,0C418.609,739.303,418.336,739.209,418.125,739.028z M226.967,734.866
						c-0.397-0.515-0.305-1.216,0.212-1.61l0,0c0.486-0.395,1.213-0.303,1.581,0.214l0,0c0.39,0.482,0.303,1.185-0.186,1.579l0,0
						c-0.212,0.149-0.455,0.24-0.7,0.24l0,0C227.542,735.289,227.179,735.14,226.967,734.866z M423.836,731.918
						c-0.518-0.362-0.609-1.061-0.242-1.578l0,0c0.365-0.518,1.061-0.639,1.578-0.243l0,0c0.514,0.366,0.637,1.063,0.242,1.578l0,0
						l0,0l0,0c-0.215,0.306-0.547,0.457-0.91,0.457l0,0C424.26,732.132,424.047,732.073,423.836,731.918z M221.59,727.423
						c-0.366-0.546-0.214-1.243,0.303-1.61l0,0c0.519-0.331,1.246-0.183,1.581,0.335l0,0c0.361,0.518,0.214,1.216-0.303,1.581l0,0
						c-0.214,0.121-0.426,0.184-0.64,0.184l0,0C222.167,727.912,221.801,727.729,221.59,727.423z M428.996,724.418
						c-0.514-0.338-0.697-1.035-0.359-1.55l0,0c0.332-0.549,1.031-0.697,1.578-0.366l0,0c0.516,0.335,0.699,1.032,0.363,1.55l0,0
						c-0.213,0.366-0.578,0.55-0.973,0.55l0,0C429.395,724.602,429.18,724.537,428.996,724.418z M216.758,719.586
						c-0.304-0.546-0.121-1.241,0.426-1.55l0,0c0.546-0.303,1.246-0.12,1.549,0.427l0,0c0.334,0.545,0.12,1.243-0.424,1.547l0,0
						c-0.183,0.091-0.365,0.153-0.551,0.153l0,0C217.369,720.163,216.972,719.952,216.758,719.586z M433.617,716.55
						c-0.58-0.274-0.789-0.973-0.488-1.521l0,0c0.305-0.578,0.975-0.79,1.551-0.482l0,0c0.547,0.304,0.756,0.968,0.457,1.517l0,0
						c-0.182,0.395-0.58,0.636-1.004,0.636l0,0C433.951,716.699,433.768,716.641,433.617,716.55z M212.54,711.446
						c-0.277-0.578-0.034-1.275,0.546-1.52l0,0c0.544-0.273,1.244-0.033,1.519,0.547l0,0c0.271,0.549,0.029,1.215-0.546,1.49l0,0
						c-0.154,0.091-0.339,0.119-0.486,0.119l0,0C213.144,712.083,212.718,711.841,212.54,711.446z M437.627,708.377
						c-0.578-0.244-0.854-0.942-0.607-1.52l0,0c0.242-0.575,0.939-0.819,1.52-0.575l0,0c0.547,0.243,0.816,0.912,0.574,1.489l0,0
						c-0.182,0.424-0.605,0.698-1.031,0.698l0,0C437.93,708.47,437.748,708.438,437.627,708.377z M208.921,703.002
						c-0.241-0.605,0.062-1.246,0.668-1.491l0,0c0.575-0.212,1.247,0.062,1.46,0.671l0,0c0.21,0.575-0.062,1.247-0.671,1.455l0,0
						c-0.118,0.063-0.243,0.093-0.395,0.093l0,0C209.532,703.729,209.103,703.459,208.921,703.002z M440.998,699.903
						c-0.576-0.213-0.914-0.853-0.699-1.458l0,0c0.213-0.578,0.85-0.91,1.457-0.701l0,0c0.58,0.215,0.912,0.855,0.701,1.461l0,0
						c-0.154,0.457-0.607,0.759-1.064,0.759l0,0C441.27,699.964,441.117,699.932,440.998,699.903z M205.944,694.282
						c-0.18-0.605,0.152-1.241,0.76-1.428l0,0c0.609-0.15,1.247,0.187,1.427,0.79l0,0c0.184,0.58-0.148,1.215-0.76,1.398l0,0
						c-0.118,0.033-0.244,0.062-0.332,0.062l0,0C206.553,695.105,206.096,694.768,205.944,694.282z M443.762,691.217
						c-0.609-0.154-0.975-0.789-0.818-1.398l0,0c0.148-0.608,0.787-0.975,1.396-0.789l0,0c0.605,0.151,0.971,0.759,0.818,1.398l0,0
						c-0.15,0.48-0.607,0.817-1.125,0.817l0,0C443.945,691.245,443.854,691.245,443.762,691.217z M203.637,685.384
						c-0.151-0.609,0.243-1.213,0.852-1.338l0,0c0.636-0.151,1.247,0.243,1.364,0.852l0,0c0.125,0.607-0.243,1.213-0.878,1.367l0,0
						c-0.062,0.029-0.154,0.029-0.243,0.029l0,0C204.214,686.294,203.759,685.928,203.637,685.384z M445.857,682.348
						c-0.637-0.095-1.031-0.698-0.912-1.309l0,0c0.092-0.636,0.701-1.035,1.307-0.91l0,0c0.639,0.091,1.033,0.697,0.941,1.307l0,0
						c-0.121,0.546-0.609,0.94-1.125,0.94l0,0C445.98,682.376,445.918,682.376,445.857,682.348z M201.967,676.36
						c-0.091-0.64,0.36-1.213,0.972-1.304l0,0c0.606-0.095,1.215,0.36,1.307,0.971l0,0c0.057,0.607-0.366,1.186-0.975,1.309l0,0
						c-0.058,0-0.12,0-0.149,0l0,0C202.542,677.336,202.056,676.909,201.967,676.36z M447.285,673.353
						c-0.639-0.058-1.096-0.636-1-1.244l0,0c0.062-0.638,0.605-1.093,1.242-1.003l0,0c0.609,0.061,1.064,0.608,1.004,1.247l0,0
						c-0.062,0.574-0.549,1-1.125,1l0,0C447.344,673.353,447.316,673.353,447.285,673.353z M200.995,667.22
						c-0.032-0.64,0.426-1.187,1.061-1.216l0,0c0.64-0.06,1.186,0.423,1.215,1.062l0,0c0.031,0.608-0.426,1.157-1.061,1.215l0,0
						c-0.029,0-0.063,0-0.063,0l0,0C201.539,668.28,201.052,667.823,200.995,667.22z M448.045,664.271
						c-0.639,0-1.125-0.546-1.096-1.155l0,0c0-0.637,0.549-1.123,1.156-1.093l0,0c0.639,0,1.123,0.545,1.123,1.186l0,0
						c0,0,0,0-0.027,0l0,0c0,0.605-0.518,1.092-1.127,1.092l0,0C448.074,664.301,448.045,664.301,448.045,664.271z M200.691,658.41
						c0-0.64,0.515-1.127,1.121-1.127l0,0c0.64,0,1.158,0.487,1.158,1.127l0,0c0,0.638-0.518,1.155-1.158,1.155l0,0
						C201.207,659.565,200.691,659.048,200.691,658.41z M446.949,654.095c-0.029-0.64,0.486-1.186,1.096-1.186l0,0
						c0.639-0.028,1.156,0.457,1.184,1.096l0,0c0.031,0.637-0.453,1.152-1.092,1.183l0,0c-0.031,0-0.031,0-0.031,0l0,0
						C447.498,655.188,446.982,654.7,446.949,654.095z M202.084,650.45c-0.635-0.062-1.09-0.606-1.061-1.214l0,0
						c0.029-0.639,0.577-1.097,1.215-1.062l0,0c0.637,0.029,1.092,0.577,1.063,1.213l0,0c-0.061,0.611-0.546,1.063-1.155,1.063l0,0
						C202.147,650.45,202.118,650.45,202.084,650.45z M446.312,645.072L446.312,645.072c-0.061-0.604,0.395-1.185,1.004-1.246l0,0
						c0.605-0.061,1.186,0.396,1.244,1.003l0,0c0,0,0,0,0.031,0l0,0c0.062,0.64-0.395,1.187-1.033,1.247l0,0
						c-0.031,0.028-0.092,0.028-0.123,0.028l0,0C446.859,646.104,446.375,645.652,446.312,645.072z M202.999,641.367
						c-0.638-0.061-1.062-0.667-0.972-1.276l0,0c0.091-0.638,0.669-1.065,1.304-0.97l0,0c0.612,0.09,1.033,0.665,0.943,1.305l0,0
						c-0.06,0.577-0.546,0.972-1.123,0.972l0,0C203.088,641.397,203.059,641.397,202.999,641.367z M445.008,636.143L445.008,636.143
						c-0.121-0.606,0.303-1.217,0.91-1.305l0,0c0.607-0.125,1.215,0.273,1.338,0.909l0,0l0,0l0,0
						c0.088,0.61-0.307,1.214-0.908,1.339l0,0c-0.096,0-0.158,0-0.215,0l0,0C445.586,637.086,445.1,636.688,445.008,636.143z
						 M204.578,632.406c-0.635-0.119-1.003-0.729-0.878-1.364l0,0c0.149-0.609,0.76-0.973,1.364-0.852l0,0
						c0.609,0.15,1.003,0.759,0.88,1.366l0,0c-0.12,0.518-0.608,0.878-1.124,0.878l0,0
						C204.731,632.435,204.669,632.435,204.578,632.406z M443.029,627.332L443.029,627.332c-0.148-0.603,0.215-1.214,0.824-1.362
						l0,0c0.607-0.186,1.213,0.18,1.398,0.789l0,0l0,0l0,0c0.152,0.636-0.215,1.246-0.822,1.396l0,0
						c-0.09,0.029-0.182,0.029-0.305,0.029l0,0C443.639,628.184,443.188,627.852,443.029,627.332z M206.825,623.597
						c-0.604-0.178-0.943-0.821-0.758-1.425l0,0c0.183-0.61,0.818-0.943,1.396-0.761l0,0c0.609,0.184,0.941,0.818,0.76,1.427l0,0
						c-0.123,0.484-0.578,0.789-1.061,0.789l0,0C207.039,623.627,206.918,623.627,206.825,623.597z M440.422,618.707
						c-0.215-0.606,0.121-1.247,0.695-1.43l0,0c0.609-0.212,1.246,0.094,1.461,0.698l0,0c0.209,0.58-0.121,1.247-0.699,1.429l0,0
						c-0.123,0.062-0.244,0.062-0.367,0.062l0,0C441.029,619.467,440.602,619.192,440.422,618.707z M209.712,614.938
						c-0.58-0.242-0.88-0.878-0.638-1.458l0,0c0.214-0.605,0.881-0.881,1.458-0.663l0,0c0.578,0.209,0.879,0.875,0.667,1.486l0,0
						c-0.178,0.424-0.607,0.727-1.064,0.727l0,0C209.984,615.03,209.864,615.001,209.712,614.938z M437.168,610.295
						c-0.242-0.58,0.033-1.246,0.609-1.491l0,0c0.574-0.241,1.248,0.03,1.49,0.605l0,0c0.242,0.577,0,1.246-0.578,1.489l0,0
						c-0.15,0.062-0.303,0.092-0.457,0.092l0,0C437.777,610.99,437.352,610.718,437.168,610.295z M213.235,606.527
						c-0.548-0.275-0.792-0.944-0.517-1.521l0,0c0.274-0.544,0.943-0.789,1.519-0.515l0,0c0.548,0.274,0.792,0.941,0.52,1.489l0,0
						c-0.183,0.426-0.58,0.667-1.003,0.667l0,0C213.572,606.647,213.417,606.615,213.235,606.527z M433.314,602.152
						c-0.277-0.548-0.062-1.244,0.482-1.516l0,0c0.549-0.309,1.244-0.097,1.553,0.48l0,0l0,0l0,0
						c0.271,0.55,0.059,1.218-0.488,1.521l0,0c-0.182,0.091-0.363,0.12-0.516,0.12l0,0
						C433.918,602.759,433.523,602.547,433.314,602.152z M217.398,598.418c-0.546-0.304-0.729-1.007-0.426-1.55l0,0
						c0.301-0.549,1.001-0.731,1.547-0.429l0,0c0.548,0.304,0.729,1.004,0.428,1.55l0,0c-0.214,0.366-0.609,0.577-1.003,0.577l0,0
						C217.759,598.566,217.578,598.504,217.398,598.418z M428.879,594.318h-0.033c-0.332-0.55-0.152-1.248,0.395-1.584l0,0
						c0.518-0.334,1.219-0.149,1.553,0.395l0,0c0.332,0.517,0.18,1.218-0.367,1.55l0,0c-0.182,0.12-0.395,0.183-0.605,0.183l0,0
						C429.453,594.861,429.088,594.65,428.879,594.318z M222.136,590.639c-0.518-0.364-0.667-1.062-0.306-1.579l0,0
						c0.336-0.518,1.064-0.671,1.581-0.303l0,0c0.52,0.334,0.638,1.032,0.306,1.578l0,0c-0.214,0.304-0.578,0.489-0.943,0.489l0,0
						C222.531,590.824,222.316,590.762,222.136,590.639z M423.836,586.811c-0.365-0.487-0.242-1.216,0.244-1.58l0,0
						c0.514-0.362,1.242-0.271,1.605,0.246l0,0c0.367,0.516,0.244,1.214-0.271,1.608l0,0c-0.18,0.119-0.426,0.211-0.67,0.211l0,0
						C424.41,587.296,424.047,587.113,423.836,586.811z M227.422,583.23c-0.486-0.4-0.58-1.127-0.18-1.612l0,0
						c0.39-0.487,1.089-0.578,1.607-0.184l0,0c0.486,0.363,0.575,1.093,0.183,1.578l0,0c-0.214,0.304-0.578,0.457-0.912,0.457l0,0
						C227.875,583.47,227.632,583.379,227.422,583.23z M418.277,579.702c-0.395-0.455-0.336-1.184,0.121-1.576l0,0
						c0.484-0.426,1.213-0.368,1.605,0.118l0,0l0,0l0,0c0.43,0.485,0.367,1.217-0.119,1.611l0,0
						c-0.211,0.178-0.484,0.275-0.727,0.275l0,0C418.824,580.131,418.486,579.976,418.277,579.702z M233.255,576.208
						c-0.455-0.423-0.488-1.153-0.062-1.608l0,0l0,0l0,0c0.426-0.457,1.126-0.484,1.61-0.061l0,0
						c0.457,0.423,0.486,1.125,0.062,1.611l0,0c-0.214,0.243-0.518,0.365-0.852,0.365l0,0
						C233.741,576.516,233.464,576.422,233.255,576.208z M412.201,573.052L412.201,573.052c-0.428-0.454-0.428-1.185,0.029-1.612
						l0,0c0.424-0.452,1.154-0.422,1.613,0l0,0c0.424,0.457,0.424,1.187-0.033,1.612l0,0c-0.213,0.211-0.516,0.334-0.791,0.334l0,0
						C412.717,573.386,412.412,573.263,412.201,573.052z M239.571,569.649c-0.424-0.455-0.395-1.153,0.062-1.608l0,0
						c0.455-0.428,1.182-0.399,1.608,0.059l0,0c0.428,0.457,0.428,1.186-0.058,1.611l0,0c-0.214,0.209-0.486,0.304-0.761,0.304l0,0
						C240.117,570.015,239.815,569.89,239.571,569.649z M405.641,566.824c-0.457-0.396-0.518-1.122-0.092-1.607l0,0
						c0.426-0.457,1.152-0.518,1.609-0.092l0,0c0.486,0.424,0.518,1.122,0.092,1.61l0,0c-0.213,0.242-0.516,0.36-0.852,0.36l0,0
						C406.127,567.096,405.883,567.007,405.641,566.824z M246.374,563.604c-0.39-0.52-0.332-1.218,0.154-1.609l0,0
						c0.489-0.396,1.217-0.335,1.609,0.15l0,0c0.398,0.486,0.335,1.216-0.148,1.61l0,0c-0.214,0.185-0.486,0.243-0.729,0.243l0,0
						C246.922,563.999,246.588,563.879,246.374,563.604z M398.684,561.111c-0.518-0.363-0.609-1.092-0.242-1.609l0,0
						c0.395-0.486,1.094-0.575,1.609-0.215l0,0c0.484,0.399,0.607,1.098,0.211,1.615l0,0c-0.211,0.271-0.574,0.454-0.912,0.454l0,0
						C399.107,561.356,398.863,561.266,398.684,561.111z M253.578,558.046c-0.368-0.515-0.214-1.246,0.301-1.612l0,0l0,0l0,0
						c0.517-0.362,1.217-0.212,1.578,0.303l0,0c0.369,0.486,0.244,1.219-0.271,1.583l0,0c-0.214,0.121-0.426,0.211-0.669,0.211l0,0
						C254.182,558.53,253.821,558.35,253.578,558.046z M391.27,555.918L391.27,555.918c-0.516-0.331-0.666-1.032-0.332-1.578l0,0
						c0.332-0.515,1.061-0.668,1.578-0.334l0,0l0,0l0,0c0.516,0.334,0.672,1.065,0.336,1.581l0,0
						c-0.215,0.331-0.578,0.515-0.973,0.515l0,0C391.666,556.102,391.455,556.039,391.27,555.918z M261.201,553.031
						c-0.334-0.544-0.154-1.241,0.395-1.578l0,0l0,0l0,0c0.546-0.303,1.242-0.15,1.547,0.395l0,0
						c0.337,0.548,0.152,1.247-0.395,1.578l0,0c-0.183,0.091-0.363,0.154-0.575,0.154l0,0
						C261.776,553.58,261.415,553.368,261.201,553.031z M383.523,551.303L383.523,551.303c-0.547-0.308-0.758-1.002-0.451-1.549l0,0
						c0.301-0.548,1-0.76,1.547-0.457l0,0c0.547,0.304,0.76,1.004,0.455,1.55l0,0c-0.213,0.366-0.607,0.606-1.002,0.606l0,0
						C383.889,551.453,383.711,551.391,383.523,551.303z M269.156,548.6c-0.303-0.578-0.057-1.247,0.486-1.521l0,0
						c0.58-0.304,1.247-0.058,1.55,0.515l0,0c0.277,0.549,0.034,1.219-0.518,1.521l0,0c-0.18,0.062-0.332,0.121-0.515,0.121l0,0
						C269.736,549.234,269.341,548.994,269.156,548.6z M375.443,547.262c-0.574-0.272-0.816-0.944-0.574-1.516l0,0
						c0.271-0.58,0.941-0.823,1.518-0.55l0,0c0.576,0.241,0.818,0.91,0.576,1.487l0,0c-0.211,0.423-0.605,0.669-1.062,0.669l0,0
						C375.75,547.353,375.6,547.324,375.443,547.262z M277.392,544.771c-0.214-0.574,0.058-1.244,0.633-1.49l0,0
						c0.583-0.241,1.246,0.03,1.49,0.61l0,0c0.243,0.608-0.058,1.275-0.636,1.489l0,0c-0.122,0.058-0.271,0.091-0.426,0.091l0,0
						C277.997,545.471,277.573,545.196,277.392,544.771z M367.09,543.827c-0.574-0.209-0.881-0.878-0.666-1.456l0,0
						c0.213-0.608,0.852-0.88,1.461-0.669l0,0l0,0l0,0c0.574,0.215,0.879,0.851,0.666,1.459l0,0
						c-0.186,0.457-0.609,0.729-1.066,0.729l0,0C367.367,543.891,367.213,543.891,367.09,543.827z M285.925,541.549
						c-0.181-0.575,0.123-1.246,0.731-1.427l0,0l0,0l0,0c0.607-0.181,1.242,0.123,1.427,0.729l0,0
						c0.212,0.609-0.123,1.247-0.731,1.43l0,0c-0.118,0.062-0.212,0.062-0.333,0.062l0,0
						C286.534,542.343,286.077,542.035,285.925,541.549z M358.525,541.034h-0.031c-0.605-0.184-0.941-0.789-0.76-1.396l0,0
						c0.154-0.611,0.791-0.973,1.398-0.792l0,0l0,0l0,0c0.607,0.181,0.943,0.792,0.791,1.398l0,0
						c-0.15,0.515-0.609,0.817-1.096,0.817l0,0C358.705,541.062,358.615,541.062,358.525,541.034z M294.674,538.998
						c-0.152-0.606,0.214-1.247,0.818-1.396l0,0c0.612-0.123,1.246,0.241,1.4,0.85l0,0c0.118,0.608-0.244,1.215-0.852,1.368l0,0
						c-0.091,0.03-0.181,0.063-0.272,0.063l0,0C295.251,539.884,294.796,539.513,294.674,538.998z M349.746,538.878
						c-0.604-0.123-1.004-0.727-0.881-1.338l0,0c0.123-0.606,0.729-1.001,1.338-0.881l0,0l0,0l0,0
						c0.609,0.123,1.032,0.731,0.881,1.338l0,0c-0.092,0.549-0.579,0.912-1.124,0.912l0,0
						C349.9,538.909,349.808,538.909,349.746,538.878z M303.572,537.085c-0.089-0.608,0.306-1.216,0.943-1.307l0,0
						c0.609-0.091,1.218,0.308,1.307,0.941l0,0c0.091,0.608-0.303,1.215-0.941,1.306l0,0c-0.062,0-0.122,0-0.18,0l0,0
						C304.152,538.025,303.668,537.663,303.572,537.085z M340.847,537.391L340.847,537.391c-0.608-0.062-1.063-0.64-0.975-1.275l0,0
						c0.062-0.608,0.638-1.065,1.276-0.972l0,0l0,0l0,0c0.609,0.086,1.065,0.635,0.975,1.275l0,0
						c-0.092,0.573-0.546,1.001-1.124,1.001l0,0C340.938,537.42,340.905,537.391,340.847,537.391z M313.842,536.876
						c-0.641,0.058-1.186-0.399-1.244-1.035l0,0c-0.06-0.611,0.395-1.187,1.032-1.215l0,0c0.638-0.061,1.187,0.395,1.245,1.032l0,0
						C314.906,536.265,314.449,536.813,313.842,536.876L313.842,536.876z M331.855,536.568L331.855,536.568
						c-0.609-0.029-1.095-0.578-1.062-1.185l0,0c0.029-0.635,0.575-1.124,1.213-1.092l0,0c0.608,0.03,1.094,0.577,1.063,1.215l0,0
						c-0.031,0.608-0.549,1.062-1.155,1.062l0,0C331.916,536.568,331.884,536.568,331.855,536.568z M321.679,535.264
						c0-0.609,0.488-1.127,1.121-1.155l0,0l0,0l0,0c0.643,0,1.158,0.487,1.158,1.121l0,0c0.031,0.64-0.486,1.157-1.125,1.157l0,0
						l0,0l0,0C322.197,536.387,321.71,535.901,321.679,535.264z"/>
				</g>
			</g>
			<path fill="#DBD322" d="M240.996,597.889l-0.145,0.202l2.664,4.783c0.433,0.794,1.335,1.884,1.335,1.884
				s-1.292-0.518-2.146-0.757l-4.962-1.408l-1.538,2.134l12.496,3.504l0.144-0.2l-3.078-5.7c-0.361-0.654-1.051-1.609-1.051-1.609
				s1.117,0.366,1.851,0.498l6.316,1.202l0.144-0.201l-7.322-10.683l-1.412,1.958l2.919,4.249c0.5,0.734,1.397,1.795,1.397,1.795
				s-1.318-0.511-2.208-0.669L240.996,597.889z"/>
			
				<rect x="258.274" y="580.256" transform="matrix(-0.7406 0.672 -0.672 -0.7406 845.6833 846.132)" fill="#DBD322" width="2.49" height="12.093"/>
			<polygon fill="#DBD322" points="273.933,568.335 266.006,573.33 267.168,575.173 270.083,573.34 275.347,581.707 277.45,580.384 
				272.183,572.017 275.1,570.183 			"/>
			<polygon fill="#DBD322" points="296.624,571.517 298.965,570.679 294.9,559.303 292.557,560.139 294.636,565.96 289.768,567.7 
				287.689,561.877 285.345,562.714 289.409,574.097 291.753,573.258 290.514,569.793 295.384,568.057 			"/>
			<path fill="#DBD322" d="M326.593,554.884l-0.215-0.005l-5.495,12.094l2.396,0.038l0.586-1.359l4.902,0.078l0.544,1.376
				l2.611,0.041L326.593,554.884z M324.736,563.588l0.902-2.082c0.368-0.842,0.743-2.156,0.743-2.156s0.351,1.324,0.696,2.178
				l0.837,2.112L324.736,563.588z"/>
			<path fill="#DBD322" d="M360.072,566.036l-0.248-5.088l-2.482-0.968l0.711,13.35l0.23,0.092l9.354-9.433l-2.25-0.876
				l-3.576,3.601c-0.811,0.808-1.852,2.213-1.852,2.213S360.129,567.166,360.072,566.036z"/>
			
				<rect x="370.224" y="574.336" transform="matrix(-0.5266 0.8501 -0.8501 -0.5266 1063.7192 558.8482)" fill="#DBD322" width="12.086" height="2.488"/>
			<polygon fill="#DBD322" points="395.535,585.675 396.99,584.048 391.049,578.711 382.977,587.69 389.107,593.196 
				390.566,591.571 386.289,587.729 387.451,586.435 391.057,589.673 392.48,588.09 388.875,584.852 391.439,581.998 			"/>
			<path fill="#DBD322" d="M407.135,595.293l-1.49-2.169l-7.521,10.575l0.139,0.207l6.404-0.973
				c0.738-0.117,1.871-0.445,1.871-0.445s-0.719,0.93-1.096,1.575l-3.266,5.538l0.141,0.207l12.535-3.281l-1.373-1.993l-4.982,1.309
				c-0.861,0.223-2.162,0.711-2.162,0.711s0.926-1.068,1.381-1.851l2.744-4.756l-0.139-0.206l-5.404,0.891
				c-0.895,0.138-2.227,0.62-2.227,0.62s0.926-1.042,1.445-1.766L407.135,595.293z"/>
			<path fill="#DBD322" d="M430.768,655.968l-12.904-1.065c-0.051-0.256-0.133-0.496-0.217-0.732l10.662-7.387l-11.729,5.534
				c-0.168-0.188-0.34-0.366-0.531-0.531l5.537-11.727l-7.387,10.657c-0.242-0.083-0.479-0.165-0.73-0.214l-1.07-12.907
				l-1.064,12.907c-0.254,0.049-0.492,0.131-0.732,0.214l-7.385-10.657l5.537,11.727c-0.189,0.165-0.369,0.343-0.535,0.531
				l-11.725-5.534l10.658,7.387c-0.08,0.241-0.162,0.477-0.213,0.732l-12.904,1.065l12.904,1.066
				c0.051,0.249,0.133,0.487,0.217,0.727l-10.662,7.388l11.73-5.538c0.166,0.192,0.34,0.368,0.529,0.535l-5.537,11.729l7.385-10.664
				c0.24,0.087,0.479,0.169,0.732,0.216l1.064,12.907l1.07-12.907c0.252-0.047,0.488-0.129,0.73-0.216l7.387,10.664l-5.537-11.729
				c0.191-0.167,0.363-0.343,0.531-0.533l11.729,5.536l-10.662-7.386c0.084-0.241,0.166-0.479,0.217-0.729L430.768,655.968z"/>
			<path fill="#DBD322" d="M325,542.675c-63.818,0-115.735,51.917-115.735,115.735c0,8.812,1.023,17.383,2.897,25.636l-0.012,0.01
				c0.073,0.308,0.154,0.611,0.226,0.919c0.248,1.059,0.499,2.117,0.777,3.166c0.448,1.717,0.926,3.418,1.454,5.098l0.034,0.028
				c0.105,0.332,0.224,0.656,0.334,0.987l-0.024-0.006c0.094,0.289,0.214,0.565,0.308,0.853c0.635,1.887,1.314,3.753,2.04,5.597
				c0.251,0.636,0.491,1.268,0.751,1.896c0.84,2.031,1.726,4.043,2.681,6.012c0.466,0.979,0.986,1.93,1.482,2.897
				c0.51,0.981,1.022,1.963,1.559,2.931c0.667,1.197,1.347,2.39,2.055,3.566c0.315,0.523,0.647,1.034,0.972,1.554
				c0.741,1.19,1.446,2.406,2.233,3.571l0.07,0.009c20.824,30.754,56.042,51.01,95.898,51.01
				c63.816,0,115.734-51.919,115.734-115.732C440.734,594.592,388.816,542.675,325,542.675z M325,545.712
				c62.141,0,112.699,50.556,112.699,112.698c0,21.111-5.848,40.877-15.992,57.788c-17.949-2.825-31.389-56.682-87.708-61.748
				c0.038-8.675,0.615-14.838-3.182-23.077h-0.004c0.116-0.477,0.252-1.118,0.39-1.908c0.002,0.008,0.004,0.013,0.009,0.018
				c0.448,0.506,1.076,0.766,1.704,0.766c0.539,0,1.078-0.188,1.512-0.568l8.354-7.39c0.542-0.479,0.824-1.192,0.759-1.911
				c-0.065-0.719-0.47-1.368-1.086-1.744l-10.472-6.357c0.113-3.109-0.091-5.354-3.622-5.354h-6.93
				c-4.689,0-6.092,3.838-6.092,8.529v0.818l-3.451,1.56l-3.27-3.505l1.21-9.187l-1.504-0.196l-1.043,7.946l-0.097-0.106
				c-0.861-0.919-2.303-0.968-3.222-0.113c-0.919,0.859-0.97,2.303-0.113,3.222l2.661,2.854l-5.065,38.476
				c-17.662,5.002-30.138,15.251-39.609,26.108l-16.194-9.071c3.039,1.702,14.753,3.154,17.585,2.916
				c-6.201-3.597-19.104-7.561-20.718-15.353c3.513,1.712,11.23,2.97,13.759,2.672c-3.39-2.733-14.865-8.046-15.706-14.772
				c0.996,0.711,8.104,2.408,9.161,2.23c-8.542-8.496-10.917-13.575-11.29-22.893c-0.575,9.317-3.261,14.32-11.873,23.842
				c1.054,0.178,7.833-2.276,9.635-3.037c-1.816,6.833-12.207,11.896-15.597,14.63c2.529,0.298,9.666-0.96,12.609-2.575
				c-2.25,8.643-13.263,11.55-19.339,15.116c-1.01-6.063-1.566-12.281-1.566-18.624C212.301,596.268,262.858,545.712,325,545.712z
				 M304.994,719.389c-3.994,0-7.276,1.533-9.136,2.738c-0.6,0.38-0.818,0.218-0.818-0.278v-21.768h23.407v8.368h-15.26v3.942
				c0.712-0.279,2.023-0.551,4.213-0.551c9.57,0,14.657,5.306,14.657,12.634c0,8.095-6.179,13.346-15.588,13.346
				c-7.384,0-12.524-3.39-14.878-7.984l7.987-4.43c0.931,1.694,3.116,3.938,6.563,3.938c3.335,0,5.744-1.642,5.744-4.813
				C311.886,720.866,309.204,719.389,304.994,719.389z M315.402,632.283c-0.02,0-0.046,0.004-0.063,0.004
				c0,3.141-0.147,18.446-0.181,22.292c-4.292,0.462-8.325,1.21-12.125,2.202l4.818-36.598l1.819,1.952
				c0.44,0.472,1.048,0.728,1.667,0.728c0.318,0,0.638-0.07,0.938-0.205l3.063-1.387v2.486
				C315.339,628.438,315.402,632.274,315.402,632.283z M343.21,708.122c-2.789,0-5.084,2.188-5.633,5.742l-8.915-2.626
				c1.694-7.326,7.055-11.593,14.825-11.593c7.929,0,13.835,4.541,13.835,11.812c0,4.706-2.461,8.315-6.07,12.142l-5.197,5.527
				h11.049v8.15h-29.151c-0.493,0-0.604-0.333-0.164-0.767l16.081-17.175c2.023-2.243,3.772-4.377,3.772-7.055
				C347.642,709.874,345.946,708.122,343.21,708.122z M325.373,654.025c-1.648,0-3.243,0.058-4.83,0.135
				c1.05-6.093,3.49-12.064,4.041-12.165c0.669-0.018,3.526,6.833,3.526,6.833l0.523,5.294
				C327.55,654.088,326.49,654.025,325.373,654.025z M331.607,626.087c0.043-0.661,0.077-1.345,0.077-2.067l0.145-6.501l5.616,3.407
				L331.607,626.087z M213.897,677.188c2.098,0.173,12.445-0.728,17.695-3.215l-16.803,7.954
				C214.455,680.364,214.165,678.781,213.897,677.188z"/>
			<path fill="#DBD322" d="M334.721,596.497l-5.046,0.629c-0.902-1.625-2.509-2.717-4.358-2.717c-2.836,0-5.132,2.55-5.132,5.693
				c0,3.14,2.295,5.692,5.132,5.692c2.835,0,5.133-2.553,5.133-5.692c0-0.53-0.087-1.03-0.21-1.517l4.671-0.583
				c0.414-0.052,0.712-0.432,0.657-0.847C335.52,596.738,335.157,596.43,334.721,596.497z"/>
		</g>
		<g display="inline">
			<path fill="#DBD322" d="M127.809,220.46l2.846-1.499c1.759,3.053,4.863,5.07,9.469,5.07c5.638,0,8.898-4.035,8.898-9.259
				c0-5.173-3.518-9.158-9.469-9.158c-3.517,0-6.311,1.138-8.277,2.897l-0.257-0.104V191.49h18.882v3.003H134.07v9.569
				c1.655-0.931,3.571-1.448,5.898-1.448c7.45,0,12.52,5.276,12.52,12.159c0,7.189-4.759,12.31-12.363,12.31
				C134.587,227.083,130.085,224.6,127.809,220.46z M158.132,226.412l14.586-15.521c3.104-3.311,4.966-6.208,4.966-9.933
				c0-3.881-2.584-6.829-7.189-6.829c-4.192,0-6.983,2.897-8.07,6.519l-3.001-0.982c1.242-4.759,5.174-8.59,11.124-8.59
				c6.415,0,10.554,4.088,10.554,9.778c0,4.605-2.64,8.331-6.054,11.95l-10.193,10.866h16.504v2.999h-23.228V226.412z
				 M199.787,191.49h3.518l8.587,27.369l10.607-28.196h0.257l10.657,28.196l8.538-27.369h3.311l-11.589,35.853h-0.26l-10.761-28.61
				l-10.967,28.61h-0.207L199.787,191.49z M254.064,191.49h3.417v35.179h-3.417V191.49z M276.986,194.493h-10.915v-3.003h25.141
				v3.003H280.35v32.176h-3.364V194.493z M322.156,191.49h3.362v35.179h-3.362v-11.588h-19.195v11.588h-3.362V191.49h3.362v20.593
				h19.195V191.49z M349.534,226.669h-3.364l14.797-36.007h0.256l14.85,36.007h-3.467l-2.432-6.103h-18.156L349.534,226.669z
				 M361.123,198.061l-7.918,19.502h15.729L361.123,198.061z M393.773,191.49h3.621l11.381,28.299l11.436-28.299h3.463
				l-14.846,35.906h-0.207L393.773,191.49z M432.523,191.49h3.418v35.179h-3.418V191.49z M447.736,191.49h21.215v3.003h-17.85v17.59
				h15.934v2.948h-15.934v8.64h18.57v2.999h-21.936V191.49z M476.096,191.49h3.52l8.588,27.369l10.604-28.196h0.262l10.656,28.196
				l8.533-27.369h3.312l-11.588,35.853h-0.258l-10.762-28.61l-10.967,28.61h-0.207L476.096,191.49z M203.04,288.586h-3.361v-35.179
				h7.551c9.519,0,14.485,5.64,14.485,13.245c0,7.553-4.966,13.14-14.485,13.14h-4.19V288.586z M207.022,276.791
				c8.021,0,11.228-4.292,11.228-10.139c0-5.898-3.207-10.244-11.228-10.244h-3.982v20.383H207.022z M228.293,288.586h-3.363
				l14.796-36.006h0.257l14.849,36.006h-3.468l-2.43-6.104h-18.157L228.293,288.586z M239.882,259.976l-7.917,19.505h15.727
				L239.882,259.976z M263.321,280.412c1.862,3.518,5.07,5.537,9.208,5.537c4.812,0,7.657-2.382,7.657-6.054
				c0-3.879-2.38-5.64-6.623-7.604l-2.844-1.348c-5.073-2.377-8.124-4.654-8.124-9.569c0-5.018,3.879-8.382,9.052-8.382
				c4.399,0,7.45,1.656,9.625,5.174l-2.589,1.655c-1.603-2.637-3.775-3.879-6.983-3.879c-3.465,0-5.794,2.224-5.794,5.328
				c0,3.364,1.916,4.606,6.208,6.622l2.844,1.345c5.64,2.69,8.59,5.277,8.59,10.554c0,5.794-4.398,9.209-10.968,9.209
				c-5.743,0-9.832-2.794-12.108-7.089L263.321,280.412z M293.074,280.412c1.863,3.518,5.069,5.537,9.209,5.537
				c4.81,0,7.656-2.382,7.656-6.054c0-3.879-2.379-5.64-6.622-7.604l-2.847-1.348c-5.067-2.377-8.121-4.654-8.121-9.569
				c0-5.018,3.881-8.382,9.055-8.382c4.396,0,7.449,1.656,9.62,5.174l-2.585,1.655c-1.605-2.637-3.777-3.879-6.984-3.879
				c-3.468,0-5.794,2.224-5.794,5.328c0,3.364,1.913,4.606,6.208,6.622l2.847,1.345c5.638,2.69,8.585,5.277,8.585,10.554
				c0,5.794-4.396,9.209-10.967,9.209c-5.741,0-9.827-2.794-12.104-7.089L293.074,280.412z M326.345,288.586h-3.361v-35.179h7.551
				c9.519,0,14.486,5.64,14.486,13.245c0,7.553-4.967,13.14-14.486,13.14h-4.189V288.586z M330.327,276.791
				c8.021,0,11.228-4.292,11.228-10.139c0-5.898-3.207-10.244-11.228-10.244h-3.982v20.383H330.327z M352.217,270.997
				c0-10.399,8.07-18.004,18.055-18.004s18.055,7.604,18.055,18.004S380.256,289,370.271,289S352.217,281.396,352.217,270.997z
				 M384.811,270.997c0-8.538-6.156-14.953-14.539-14.953c-8.379,0-14.537,6.415-14.537,14.953s6.158,14.952,14.537,14.952
				C378.654,285.949,384.811,279.534,384.811,270.997z M419.219,288.586h-4.086l-6.982-9.002c-0.936,0.157-1.863,0.208-2.898,0.208
				h-4.295v8.794h-3.361v-35.179h7.656c9.57,0,14.537,5.64,14.537,13.245c0,5.64-2.795,10.243-8.229,12.156L419.219,288.586z
				 M405.047,276.844c8.016,0,11.225-4.295,11.225-10.192c0-5.898-3.262-10.244-11.225-10.244h-4.09v20.436H405.047z
				 M436.09,256.408h-10.914v-3.001h25.141v3.001h-10.861v32.178h-3.365V256.408z"/>
			<g>
				<path fill="#DBD322" d="M117.436,134.14v27.678h-3.157v-35.903h0.312l23.692,28.403V126.64h3.157v35.903h-0.311L117.436,134.14z
					"/>
				<path fill="#DBD322" d="M153.034,126.64h21.213v3h-17.849v17.59h15.934v2.95h-15.934v8.638h18.571v3h-21.935V126.64z"/>
				<path fill="#DBD322" d="M181.391,126.64h3.518l8.588,27.366l10.607-28.194h0.257l10.657,28.194l8.538-27.366h3.311
					l-11.588,35.85h-0.26l-10.761-28.607L193.29,162.49h-0.208L181.391,126.64z"/>
				<path fill="#DBD322" d="M272.094,126.64h3.364v35.178h-3.364V150.23h-19.192v11.588h-3.364V126.64h3.364v20.59h19.192V126.64z"
					/>
				<path fill="#DBD322" d="M287.465,161.818h-3.361l14.796-36.006h0.26l14.847,36.006h-3.465l-2.433-6.104h-18.16L287.465,161.818z
					 M299.054,133.21l-7.915,19.503h15.727L299.054,133.21z"/>
				<path fill="#DBD322" d="M322.649,125.915h0.208l16.554,20.487l16.453-20.487h0.258v35.903h-3.207v-27.626l-13.503,16.969h-0.207
					l-13.346-16.969v27.626h-3.209V125.915z"/>
				<path fill="#DBD322" d="M371.082,161.818h-3.365V126.64h7.557c9.52,0,14.484,5.637,14.484,13.244
					c0,7.553-4.965,13.14-14.484,13.14h-4.191V161.818z M375.066,150.023c8.018,0,11.225-4.295,11.225-10.14
					c0-5.898-3.207-10.244-11.225-10.244h-3.984v20.383H375.066z"/>
				<path fill="#DBD322" d="M398.869,153.644c1.861,3.519,5.07,5.535,9.209,5.535c4.811,0,7.656-2.377,7.656-6.052
					c0-3.881-2.379-5.637-6.623-7.606l-2.846-1.343c-5.068-2.382-8.121-4.658-8.121-9.572c0-5.02,3.881-8.381,9.055-8.381
					c4.396,0,7.449,1.655,9.621,5.173l-2.586,1.656c-1.604-2.64-3.777-3.881-6.984-3.881c-3.469,0-5.795,2.225-5.795,5.33
					c0,3.361,1.914,4.603,6.209,6.622l2.846,1.345c5.639,2.69,8.586,5.276,8.586,10.554c0,5.794-4.396,9.209-10.967,9.209
					c-5.742,0-9.828-2.794-12.104-7.086L398.869,153.644z"/>
				<path fill="#DBD322" d="M451.328,126.64h3.365v35.178h-3.365V150.23h-19.191v11.588h-3.363V126.64h3.363v20.59h19.191V126.64z"
					/>
				<path fill="#DBD322" d="M466.494,126.64h3.416v35.178h-3.416V126.64z"/>
				<path fill="#DBD322" d="M503.332,161.818h-4.088l-6.984-9.001c-0.93,0.154-1.861,0.207-2.896,0.207h-4.293v8.794h-3.363V126.64
					h7.656c9.57,0,14.537,5.637,14.537,13.244c0,5.638-2.793,10.244-8.225,12.159L503.332,161.818z M489.156,150.074
					c8.02,0,11.227-4.292,11.227-10.19s-3.258-10.244-11.227-10.244h-4.086v20.434H489.156z"/>
				<path fill="#DBD322" d="M513.785,126.64H535v3h-17.852v17.59h15.936v2.95h-15.936v8.638h18.572v3h-21.936V126.64z"/>
			</g>
		</g>
	</g>
</g>
</svg>
