<?xml version="1.0" encoding="utf-8"?>
<!-- Generator: Adobe Illustrator 15.1.0, SVG Export Plug-In . SVG Version: 6.00 Build 0)  -->
<!DOCTYPE svg PUBLIC "-//W3C//DTD SVG 1.1//EN" "http://www.w3.org/Graphics/SVG/1.1/DTD/svg11.dtd">
<svg version="1.1" xmlns="http://www.w3.org/2000/svg" xmlns:xlink="http://www.w3.org/1999/xlink" x="0px" y="0px" width="1548px"
	 height="643.572px" viewBox="0 0 1548 643.572" enable-background="new 0 0 1548 643.572" xml:space="preserve">
<g id="Layer_3" display="none">
	<g display="inline">
		<linearGradient id="SVGID_1_" gradientUnits="userSpaceOnUse" x1="774.0005" y1="662.4404" x2="774.0005" y2="-16.0097">
			<stop  offset="0" style="stop-color:#EFDBEB"/>
			<stop  offset="0.5" style="stop-color:#E3B9D7"/>
			<stop  offset="1" style="stop-color:#DFAED1"/>
		</linearGradient>
		<path fill="url(#SVGID_1_)" d="M0,644c235.574,0,1497,0,1548,0V-3H0V644z"/>
	</g>
</g>
<g id="Layer_1">
	<g display="none">
		<defs>
			<path id="SVGID_2_" d="M1548,616c-777,89-775.407-72.333-1548,0C0,497,0-3,0-3h1548C1548-3,1548,464.436,1548,616z"/>
		</defs>
		<clipPath id="SVGID_3_" display="inline">
			<use xlink:href="#SVGID_2_"  overflow="visible"/>
		</clipPath>
		<linearGradient id="SVGID_4_" gradientUnits="userSpaceOnUse" x1="774.0005" y1="662" x2="774.0005" y2="-15.9995">
			<stop  offset="0" style="stop-color:#64C8D3"/>
			<stop  offset="0.2157" style="stop-color:#37BFCB"/>
			<stop  offset="0.5" style="stop-color:#00B3C1"/>
			<stop  offset="0.6818" style="stop-color:#00AFB1"/>
			<stop  offset="1" style="stop-color:#00A99A"/>
		</linearGradient>
		<rect y="-16" display="inline" clip-path="url(#SVGID_3_)" fill="url(#SVGID_4_)" width="1548" height="678"/>
		<linearGradient id="SVGID_5_" gradientUnits="userSpaceOnUse" x1="774.0005" y1="662" x2="774.0005" y2="-15.9995">
			<stop  offset="0" style="stop-color:#CCDDF2"/>
			<stop  offset="0.5" style="stop-color:#ACCAEA"/>
			<stop  offset="0.5724" style="stop-color:#A7C8E9"/>
			<stop  offset="1" style="stop-color:#90BBE4"/>
		</linearGradient>
		<rect y="-16" clip-path="url(#SVGID_3_)" fill="url(#SVGID_5_)" width="1548" height="678"/>
		<linearGradient id="SVGID_6_" gradientUnits="userSpaceOnUse" x1="774.0005" y1="662" x2="774.0005" y2="-15.9995">
			<stop  offset="0" style="stop-color:#AD6766"/>
			<stop  offset="0.0138" style="stop-color:#AC6565"/>
			<stop  offset="0.5" style="stop-color:#942E40"/>
			<stop  offset="0.7404" style="stop-color:#7A3142"/>
			<stop  offset="1" style="stop-color:#633343"/>
		</linearGradient>
		<rect y="-16" clip-path="url(#SVGID_3_)" fill="url(#SVGID_6_)" width="1548" height="678"/>
		<linearGradient id="SVGID_7_" gradientUnits="userSpaceOnUse" x1="774.0005" y1="662" x2="774.0005" y2="-15.9995">
			<stop  offset="0" style="stop-color:#EFDBEB"/>
			<stop  offset="0.5" style="stop-color:#E3B9D7"/>
			<stop  offset="1" style="stop-color:#DFAED1"/>
		</linearGradient>
		<rect y="-16" display="inline" clip-path="url(#SVGID_3_)" fill="url(#SVGID_7_)" width="1548" height="678"/>
	</g>
	<path fill="#FFFFFF" d="M0,643.572C0,657.25,0,703,0,703h1548c0,0,0-44.833,0-59.428c-101.267,0-232.66-39.004-388-39.004
		c-119.944,0-245.999,38.879-387,38.879c-123.237,0-245-36.756-385-36.756C260.402,606.691,131.87,643.572,0,643.572z"/>
	<g>
		<linearGradient id="SVGID_8_" gradientUnits="userSpaceOnUse" x1="1218.9658" y1="519" x2="1218.9658" y2="345.3301">
			<stop  offset="0" style="stop-color:#A4ACC3;stop-opacity:0"/>
			<stop  offset="1" style="stop-color:#231F20"/>
		</linearGradient>
		<polygon opacity="0.25" fill="url(#SVGID_8_)" points="1218.967,345.33 1182.748,519 1255.184,519 		"/>
		<g opacity="0.25">
			<polygon points="1218.754,513 1219.754,394.821 1220.754,513 			"/>
		</g>
	</g>
	<g>
		<linearGradient id="SVGID_9_" gradientUnits="userSpaceOnUse" x1="1255.0967" y1="504" x2="1255.0967" y2="317.8911">
			<stop  offset="0" style="stop-color:#A4ACC3;stop-opacity:0"/>
			<stop  offset="1" style="stop-color:#231F20"/>
		</linearGradient>
		<polygon opacity="0.25" fill="url(#SVGID_9_)" points="1255.098,317.891 1216.285,504 1293.908,504 		"/>
		<g opacity="0.25">
			<polygon points="1254.734,485 1255.734,358.356 1256.734,485 			"/>
		</g>
	</g>
	<g>
		<linearGradient id="SVGID_10_" gradientUnits="userSpaceOnUse" x1="1360.4443" y1="560" x2="1360.4443" y2="363.9844">
			<stop  offset="0" style="stop-color:#A4ACC3;stop-opacity:0"/>
			<stop  offset="1" style="stop-color:#231F20"/>
		</linearGradient>
		<polygon opacity="0.25" fill="url(#SVGID_10_)" points="1360.445,363.984 1319.567,560 1401.321,560 		"/>
		<g opacity="0.25">
			<polygon points="1359.536,542 1360.536,408.615 1361.536,542 			"/>
		</g>
	</g>
	<g>
		<linearGradient id="SVGID_11_" gradientUnits="userSpaceOnUse" x1="1420.6299" y1="588" x2="1420.6299" y2="442.8789">
			<stop  offset="0" style="stop-color:#A4ACC3;stop-opacity:0"/>
			<stop  offset="1" style="stop-color:#231F20"/>
		</linearGradient>
		<polygon opacity="0.25" fill="url(#SVGID_11_)" points="1420.629,442.879 1390.366,588 1450.894,588 		"/>
		<g opacity="0.25">
			<polygon points="1419.469,587 1420.469,488.248 1421.469,587 			"/>
		</g>
	</g>
	<g>
		<linearGradient id="SVGID_12_" gradientUnits="userSpaceOnUse" x1="1469.6299" y1="622" x2="1469.6299" y2="441.1113">
			<stop  offset="0" style="stop-color:#A4ACC3;stop-opacity:0"/>
			<stop  offset="1" style="stop-color:#231F20"/>
		</linearGradient>
		<polygon opacity="0.25" fill="url(#SVGID_12_)" points="1469.629,441.111 1431.907,622 1507.353,622 		"/>
		<g opacity="0.25">
			<polygon points="1468.43,603 1469.43,479.91 1470.43,603 			"/>
		</g>
	</g>
	<g>
		<linearGradient id="SVGID_13_" gradientUnits="userSpaceOnUse" x1="1306.6299" y1="529" x2="1306.6299" y2="308.3608">
			<stop  offset="0" style="stop-color:#A4ACC3;stop-opacity:0"/>
			<stop  offset="1" style="stop-color:#231F20"/>
		</linearGradient>
		<polygon opacity="0.25" fill="url(#SVGID_13_)" points="1306.629,308.36 1260.617,529 1352.643,529 		"/>
		<g opacity="0.25">
			<polygon points="1305.385,506 1306.385,355.86 1307.385,506 			"/>
		</g>
	</g>
	<g>
		<linearGradient id="SVGID_14_" gradientUnits="userSpaceOnUse" x1="119.9663" y1="601" x2="119.9663" y2="444.0938">
			<stop  offset="0" style="stop-color:#A4ACC3;stop-opacity:0"/>
			<stop  offset="1" style="stop-color:#231F20"/>
		</linearGradient>
		<polygon opacity="0.25" fill="url(#SVGID_14_)" points="119.967,444.094 87.245,601 152.688,601 		"/>
		<g opacity="0.25">
			<polygon points="119.679,595 120.679,488.229 121.679,595 			"/>
		</g>
	</g>
	<g>
		<linearGradient id="SVGID_15_" gradientUnits="userSpaceOnUse" x1="223.0972" y1="580" x2="223.0972" y2="397.4082">
			<stop  offset="0" style="stop-color:#A4ACC3;stop-opacity:0"/>
			<stop  offset="1" style="stop-color:#231F20"/>
		</linearGradient>
		<polygon opacity="0.25" fill="url(#SVGID_15_)" points="223.098,397.408 185.019,580 261.175,580 		"/>
		<g opacity="0.25">
			<polygon points="222.723,561 223.723,436.751 224.723,561 			"/>
		</g>
	</g>
	<g>
		<linearGradient id="SVGID_16_" gradientUnits="userSpaceOnUse" x1="159.4448" y1="594" x2="159.4448" y2="472.3242">
			<stop  offset="0" style="stop-color:#A4ACC3;stop-opacity:0"/>
			<stop  offset="1" style="stop-color:#231F20"/>
		</linearGradient>
		<polygon opacity="0.25" fill="url(#SVGID_16_)" points="159.445,472.324 134.07,594 184.819,594 		"/>
		<g opacity="0.25">
			<polygon points="158.502,583 159.502,500.202 160.502,583 			"/>
		</g>
	</g>
	<g>
		<linearGradient id="SVGID_17_" gradientUnits="userSpaceOnUse" x1="60.6304" y1="615" x2="60.6304" y2="383.1973">
			<stop  offset="0" style="stop-color:#A4ACC3;stop-opacity:0"/>
			<stop  offset="1" style="stop-color:#231F20"/>
		</linearGradient>
		<polygon opacity="0.25" fill="url(#SVGID_17_)" points="60.629,383.197 12.29,615 108.971,615 		"/>
		<g opacity="0.25">
			<polygon points="59.374,613 60.374,455.263 61.374,613 			"/>
		</g>
	</g>
	<g>
		<linearGradient id="SVGID_18_" gradientUnits="userSpaceOnUse" x1="270.6304" y1="570" x2="270.6304" y2="441.1406">
			<stop  offset="0" style="stop-color:#A4ACC3;stop-opacity:0"/>
			<stop  offset="1" style="stop-color:#231F20"/>
		</linearGradient>
		<polygon opacity="0.25" fill="url(#SVGID_18_)" points="270.63,441.141 243.758,570 297.503,570 		"/>
		<g opacity="0.25">
			<polygon points="269.487,556 270.487,468.314 271.487,556 			"/>
		</g>
	</g>
	<g>
		<linearGradient id="SVGID_19_" gradientUnits="userSpaceOnUse" x1="243.6304" y1="614" x2="243.6304" y2="444.3789">
			<stop  offset="0" style="stop-color:#A4ACC3;stop-opacity:0"/>
			<stop  offset="1" style="stop-color:#231F20"/>
		</linearGradient>
		<polygon opacity="0.25" fill="url(#SVGID_19_)" points="243.63,444.379 208.257,614 279.003,614 		"/>
		<g opacity="0.25">
			<polygon points="242.442,597 243.442,481.576 244.442,597 			"/>
		</g>
	</g>
	<g>
		<linearGradient id="SVGID_20_" gradientUnits="userSpaceOnUse" x1="316.6304" y1="545" x2="316.6304" y2="414.4082">
			<stop  offset="0" style="stop-color:#A4ACC3;stop-opacity:0"/>
			<stop  offset="1" style="stop-color:#231F20"/>
		</linearGradient>
		<polygon opacity="0.25" fill="url(#SVGID_20_)" points="316.63,414.408 289.396,545 343.864,545 		"/>
		<g opacity="0.25">
			<polygon points="315.485,531 316.485,442.135 317.485,531 			"/>
		</g>
	</g>
	<g>
		<linearGradient id="SVGID_21_" gradientUnits="userSpaceOnUse" x1="184.6304" y1="608" x2="184.6304" y2="444.2598">
			<stop  offset="0" style="stop-color:#A4ACC3;stop-opacity:0"/>
			<stop  offset="1" style="stop-color:#231F20"/>
		</linearGradient>
		<polygon opacity="0.25" fill="url(#SVGID_21_)" points="184.63,444.26 150.483,608 218.777,608 		"/>
		<g opacity="0.25">
			<polygon points="183.449,591 184.449,479.578 185.449,591 			"/>
		</g>
	</g>
	<linearGradient id="SVGID_22_" gradientUnits="userSpaceOnUse" x1="773.9995" y1="294.1675" x2="773.9995" y2="596.0005">
		<stop  offset="0" style="stop-color:#231F20"/>
		<stop  offset="1" style="stop-color:#231F20;stop-opacity:0"/>
	</linearGradient>
	<path opacity="0.25" fill="url(#SVGID_22_)" d="M427.267,441.314c0,0,71.097,23.629,94.841,19.015
		C596.154,445.941,774,294.167,774,294.167s69.913,171.535,269.295,171.535c279.184,0,404.159,130.298,404.159,130.298l0,0
		c0,0-1278.109,0-1346.908,0C197.971,579,427.267,441.314,427.267,441.314z"/>
	<g>
		<linearGradient id="SVGID_23_" gradientUnits="userSpaceOnUse" x1="1233.584" y1="570.5" x2="1385.084" y2="570.5">
			<stop  offset="0" style="stop-color:#FFFFFF;stop-opacity:0.25"/>
			<stop  offset="0.5" style="stop-color:#FFFFFF;stop-opacity:0.64"/>
			<stop  offset="1" style="stop-color:#FFFFFF;stop-opacity:0.25"/>
		</linearGradient>
		<ellipse opacity="0.61" fill="url(#SVGID_23_)" cx="1309.334" cy="570.501" rx="75.75" ry="6.833"/>
		<path fill="#FF723C" d="M1366.479,569c-0.012-32.911-26.693-59.588-59.607-59.588c-9.327,0-26.015,5.961-26.015,5.961
			S1255.336,569,1247.264,569H1366.479z"/>
		<path fill="#FFAA8A" d="M1247.264,569l33.593-53.627c0,0,17.144,20.627,12.644,53.627C1266,569,1247.264,569,1247.264,569z"/>
		<path fill="#B34318" d="M1281.819,522.492c0,0-10.866,29.508-22.385,43.508c5.438,0,17.19,0,21.69,0
			C1292.003,566,1281.819,522.492,1281.819,522.492z"/>
	</g>
	<g>
		<linearGradient id="SVGID_24_" gradientUnits="userSpaceOnUse" x1="1239.667" y1="184.833" x2="1338.667" y2="184.833">
			<stop  offset="0" style="stop-color:#FFFFFF"/>
			<stop  offset="1" style="stop-color:#FFFFFF;stop-opacity:0"/>
		</linearGradient>
		<path fill="url(#SVGID_24_)" d="M1240.667,234.333c-0.256,0-0.512-0.098-0.707-0.293c-0.391-0.391-0.391-1.023,0-1.414l97-97
			c0.391-0.391,1.023-0.391,1.414,0s0.391,1.023,0,1.414l-97,97C1241.179,234.235,1240.923,234.333,1240.667,234.333z"/>
	</g>
	<path fill="#FFFFFF" d="M235.574,261c5.067,0,8.426-3.359,8.426-8.426c0,5.067,3.358,8.426,8.426,8.426
		c-5.067,0-8.426,3.358-8.426,8.426C244,264.359,240.641,261,235.574,261z"/>
	<path fill="#FFFFFF" d="M563.232,161c2.867,0,4.768-1.901,4.768-4.768c0,2.867,1.9,4.768,4.768,4.768
		c-2.867,0-4.768,1.9-4.768,4.767C568,162.9,566.099,161,563.232,161z"/>
	<path fill="#FFFFFF" d="M1469.232,191c2.867,0,4.768-1.901,4.768-4.768c0,2.867,1.9,4.768,4.768,4.768
		c-2.867,0-4.768,1.9-4.768,4.767C1474,192.9,1472.1,191,1469.232,191z"/>
	<path fill="#FFFFFF" d="M904.466,211.001c5.734-0.001,9.535-3.802,9.535-9.537c0,5.734,3.801,9.536,9.535,9.537
		c-5.734-0.001-9.535,3.799-9.535,9.534C914.001,214.801,910.2,211,904.466,211.001z"/>
	<g>
		<linearGradient id="SVGID_25_" gradientUnits="userSpaceOnUse" x1="1187.6299" y1="577" x2="1187.6299" y2="370.376">
			<stop  offset="0" style="stop-color:#A4ACC3;stop-opacity:0"/>
			<stop  offset="1" style="stop-color:#231F20"/>
		</linearGradient>
		<polygon opacity="0.25" fill="url(#SVGID_25_)" points="1187.629,370.376 1144.54,577 1230.72,577 		"/>
		<g opacity="0.25">
			<polygon points="1186.4,555 1187.4,414.397 1188.4,555 			"/>
		</g>
	</g>
	<path fill="#FFFFFF" d="M683.478,368.862c0,0,88.488-102.135,112.761-89.776c-27.046,21.374,3.468,64.601,7.629,67.953
		c1.34,1.08-31.818,21.823-31.818,21.823l-37.449-21.605L683.478,368.862z"/>
</g>
<g id="Layer_2">
</g>
</svg>
