<?xml version="1.0" encoding="utf-8"?>
<!-- Generator: Adobe Illustrator 15.1.0, SVG Export Plug-In . SVG Version: 6.00 Build 0)  -->
<!DOCTYPE svg PUBLIC "-//W3C//DTD SVG 1.1//EN" "http://www.w3.org/Graphics/SVG/1.1/DTD/svg11.dtd">
<svg version="1.1" id="Layer_1" xmlns="http://www.w3.org/2000/svg" xmlns:xlink="http://www.w3.org/1999/xlink" x="0px" y="0px"
	 width="401px" height="549px" viewBox="0 0 401 549" enable-background="new 0 0 401 549" xml:space="preserve">
<path fill="#00A4B5" d="M0,47.669V484h401V47.669L361,0H40L0,47.669z M200.289,77.059c-14.467,0-26.196-11.729-26.196-26.196
	c0-14.467,11.729-26.196,26.196-26.196c14.468,0,26.196,11.729,26.196,26.196C226.485,65.33,214.757,77.059,200.289,77.059z"/>
<rect x="4" y="138" fill="#FFFFFF" width="393" height="348"/>
<g>
	<path fill="#FFFFFF" d="M93.992,94.14l1.302-5.293h2.857l12.728-22.138c0.966-1.639,1.68-2.101,3.318-2.101h4.747
		c1.638,0,2.101,0.462,2.227,2.101l1.722,22.138h2.814l-1.302,5.293h-13.274l1.26-5.209h3.361l-0.126-3.865h-8.864l-2.101,3.865
		h3.361l-1.26,5.209H93.992z M109.367,80.067h6.091l-0.378-9.578h-0.546L109.367,80.067z"/>
	<path fill="#FFFFFF" d="M126.92,94.14l1.218-4.999h3.235l3.276-13.064h-3.234l1.26-5.041h9.536l-4.537,18.147h3.109l-1.218,4.957
		H126.92z M137.548,62.634h6.595l-1.344,5.545h-6.595L137.548,62.634z"/>
	<path fill="#FFFFFF" d="M155.902,89.141l-1.218,4.999h-12.518l1.218-4.999h3.108l3.277-13.064h-3.109l1.26-5.041h9.368
		l-0.882,3.528c2.982-2.478,4.495-3.57,6.343-3.57h2.059l-1.554,6.259h-2.562c-1.764,0-3.15,0.168-5.209,0.924l-2.73,10.964H155.902
		z"/>
</g>
<path fill="#00A4B5" d="M0.167,546.501c1.886,0,3.501,1.022,4.298,2.499h4.339c0.796-1.477,2.413-2.499,4.298-2.499
	s3.501,1.022,4.298,2.499h4.339c0.796-1.477,2.413-2.499,4.298-2.499c1.885,0,3.501,1.022,4.297,2.499h4.339
	c0.796-1.477,2.413-2.499,4.298-2.499s3.501,1.022,4.298,2.499h4.339c0.797-1.477,2.413-2.499,4.298-2.499s3.501,1.022,4.298,2.499
	h4.34c0.796-1.477,2.413-2.499,4.298-2.499s3.501,1.022,4.298,2.499h4.339c0.796-1.477,2.413-2.499,4.298-2.499
	c1.885,0,3.501,1.022,4.297,2.499h4.34c0.796-1.477,2.412-2.499,4.298-2.499s3.501,1.022,4.298,2.499h4.34
	c0.796-1.477,2.412-2.499,4.298-2.499s3.501,1.022,4.298,2.499h4.34c0.796-1.477,2.412-2.499,4.298-2.499
	c1.886,0,3.502,1.022,4.299,2.499h4.339c0.796-1.477,2.412-2.499,4.298-2.499s3.502,1.022,4.298,2.499h4.338
	c0.796-1.477,2.413-2.499,4.299-2.499c1.886,0,3.502,1.022,4.298,2.499h4.339c0.796-1.477,2.413-2.499,4.298-2.499
	s3.501,1.022,4.298,2.499h4.34c0.796-1.477,2.413-2.499,4.298-2.499c1.885,0,3.501,1.022,4.297,2.499h4.339
	c0.796-1.477,2.413-2.499,4.298-2.499s3.501,1.022,4.298,2.499h4.339c0.797-1.477,2.413-2.499,4.299-2.499
	c1.886,0,3.501,1.022,4.298,2.499h4.339c0.796-1.477,2.413-2.499,4.298-2.499s3.501,1.022,4.297,2.499h4.341
	c0.796-1.477,2.411-2.499,4.298-2.499c1.886,0,3.502,1.022,4.298,2.499h4.339c0.797-1.477,2.413-2.499,4.299-2.499
	c1.885,0,3.501,1.022,4.298,2.499h4.339c0.797-1.477,2.412-2.499,4.299-2.499c1.885,0,3.501,1.022,4.298,2.499h4.339
	c0.797-1.477,2.413-2.499,4.299-2.499c1.885,0,3.501,1.022,4.298,2.499h4.339c0.797-1.477,2.412-2.499,4.299-2.499
	c1.886,0,3.501,1.022,4.297,2.499h4.34c0.797-1.477,2.412-2.499,4.299-2.499c1.885,0,3.501,1.022,4.297,2.499h4.34
	c0.796-1.477,2.412-2.499,4.298-2.499s3.502,1.022,4.298,2.499h4.34c0.796-1.477,2.412-2.499,4.298-2.499s3.502,1.022,4.298,2.499
	h4.34c0.796-1.477,2.412-2.499,4.298-2.499s3.502,1.022,4.298,2.499h4.34c0.796-1.477,2.412-2.499,4.298-2.499
	s3.502,1.022,4.298,2.499h4.34c0.796-1.477,2.412-2.499,4.298-2.499s3.502,1.022,4.298,2.499h4.34
	c0.796-1.477,2.412-2.499,4.298-2.499s3.502,1.022,4.298,2.499h4.34c0.796-1.477,2.412-2.499,4.298-2.499s3.502,1.022,4.298,2.499
	h4.34c0.796-1.477,2.412-2.499,4.298-2.499s3.502,1.022,4.298,2.499h4.34c0.772-1.432,2.317-2.424,4.131-2.483V484H0v62.517
	C0.057,546.516,0.11,546.501,0.167,546.501z"/>
<g>
	<path fill="#FFFFFF" d="M81.229,100.559h-3.402v-5.251h12.854v5.251h-3.444v24.154h-6.259c-1.596,0-2.058-0.378-2.73-1.764
		l-8.863-18.609h-0.42v15.081h3.529v5.293H59.428v-5.293h3.529v-18.861h-3.529v-5.251H69.93c1.554,0,2.016,0.378,2.73,1.764
		l8.149,17.223h0.42V100.559z"/>
	<path fill="#FFFFFF" d="M100.21,114.758c0.042,3.78,0.252,4.495,0.546,4.789c0.294,0.336,0.714,0.42,2.016,0.42h3.234
		c1.302,0,1.639-0.126,1.891-0.42c0.21-0.252,0.294-0.882,0.336-2.521h5.839c-0.042,3.445-0.42,5.209-1.554,6.343
		c-0.714,0.714-1.68,1.344-4.117,1.344h-7.687c-2.353,0-3.571-0.378-4.579-1.428c-1.512-1.512-2.1-3.319-2.1-10.124
		s0.588-8.611,2.1-10.166c0.966-1.008,2.227-1.386,4.579-1.386h6.889c2.352,0,3.654,0.378,4.621,1.386
		c1.512,1.512,1.848,3.486,1.848,10.124v0.714c0,0.672-0.168,0.924-0.924,0.924H100.21z M100.21,111.187h7.813
		c0-3.108-0.21-4.117-0.504-4.453c-0.252-0.252-0.63-0.378-1.933-0.378h-2.814c-1.302,0-1.722,0.084-2.058,0.42
		C100.42,107.07,100.252,107.826,100.21,111.187z"/>
	<path fill="#FFFFFF" d="M139.903,103.08l3.823,15.249h0.378l2.227-11.678h-2.395v-5.041h10.586v5.041h-2.353l-4.117,16.593
		c-0.294,1.302-0.882,1.554-2.142,1.554h-4.201c-1.26,0-1.89-0.378-2.142-1.554l-3.277-13.316h-0.336l-3.276,13.316
		c-0.252,1.218-0.882,1.554-2.143,1.554h-4.201c-1.26,0-1.848-0.252-2.143-1.554l-4.117-16.593h-2.352v-5.041h10.964v5.041h-2.395
		l2.185,11.678h0.42l3.781-15.249c0.294-1.26,0.924-1.554,2.184-1.554h2.856C138.979,101.525,139.609,101.819,139.903,103.08z"/>
	<path fill="#FFFFFF" d="M158.043,100.559v-5.251h24.616v9.788h-5.881v-4.579h-8.653v6.637h7.015v4.957h-7.015v7.351h8.863v-5.125
		h5.881v10.376h-24.827v-5.293h3.529v-18.861H158.043z"/>
	<path fill="#FFFFFF" d="M196.937,104.676c2.982-2.688,3.907-3.108,6.049-3.108h2.1c2.017,0,3.234,0.42,4.117,1.302
		c0.967,0.924,1.344,2.142,1.344,5.545v11.3h2.982v4.999h-11.72v-4.957h2.479v-10.67c0-0.966-0.168-1.512-0.505-1.89
		c-0.377-0.378-0.797-0.504-1.932-0.504h-1.26c-1.092,0-2.101,0.252-3.655,0.966v12.098h2.479v4.957h-11.846v-4.999h3.109V106.65
		h-3.109v-5.041h9.368V104.676z"/>
	<path fill="#FFFFFF" d="M219.447,130.258c-0.84-0.84-1.219-2.1-1.219-5.209h5.713c0.043,0.84,0.127,1.218,0.379,1.47
		c0.252,0.252,0.588,0.294,1.512,0.294h4.033c0.967,0,1.428-0.084,1.68-0.336c0.336-0.336,0.42-0.714,0.42-2.688v-3.486
		c-2.898,2.521-3.863,2.856-5.797,2.856h-2.059c-2.436,0-3.738-0.42-4.746-1.428c-1.387-1.386-1.932-3.487-1.932-9.368
		c0-5.923,0.672-7.939,2.1-9.368c1.008-1.008,2.352-1.428,4.662-1.428h2.186c1.932,0,2.982,0.378,5.586,2.604v-2.562h9.41v5.041
		h-3.107v17.433c0,3.864-0.295,5.083-1.346,6.091c-0.84,0.84-2.1,1.26-4.369,1.26h-9.408
		C221.211,131.435,220.203,131.015,219.447,130.258z M224.445,117.74c0.379,0.378,0.926,0.504,2.102,0.504h1.975
		c1.049,0,2.059-0.252,3.443-0.882v-9.788c-1.344-0.63-2.352-0.966-3.443-0.966h-1.975c-1.176,0-1.723,0.168-2.102,0.546
		c-0.545,0.546-0.713,1.512-0.713,5.293S223.9,117.152,224.445,117.74z"/>
	<path fill="#FFFFFF" d="M244.479,124.713v-4.999h3.236V98.753h-3.236v-5.041h9.537v26.044h3.15v4.957H244.479z"/>
	<path fill="#FFFFFF" d="M274.469,106.776c-0.293-0.252-0.715-0.336-1.68-0.336h-2.814c-0.883,0-1.344,0.084-1.598,0.336
		c-0.336,0.336-0.377,0.882-0.461,2.268h-5.965c0.084-3.907,0.461-5.209,1.387-6.133c0.924-0.924,2.016-1.302,4.115-1.302h7.982
		c2.268,0,3.527,0.42,4.369,1.26c1.049,1.008,1.344,2.226,1.344,6.049v10.796h2.982v4.999h-9.242v-2.562
		c-2.771,2.269-3.738,2.604-5.713,2.604h-2.771c-2.059,0-3.15-0.252-4.076-1.176c-0.797-0.798-1.344-2.184-1.344-5.209
		c0-2.856,0.463-4.705,1.428-5.671c1.094-1.092,2.73-1.554,6.512-1.554c2.059,0,4.117,0.252,5.965,0.672v-1.974
		C274.889,107.574,274.764,107.112,274.469,106.776z M274.889,119v-4.033h-3.781c-2.436,0-3.066,0.168-3.443,0.546
		c-0.42,0.42-0.504,1.008-0.504,2.101c0,1.218,0.084,1.89,0.42,2.226c0.293,0.294,0.797,0.378,1.639,0.378h1.301
		C271.781,120.219,272.789,120.051,274.889,119z"/>
	<path fill="#FFFFFF" d="M296.855,104.676c2.982-2.688,3.906-3.108,6.049-3.108h2.1c2.018,0,3.234,0.42,4.117,1.302
		c0.967,0.924,1.344,2.142,1.344,5.545v11.3h2.982v4.999h-11.719v-4.957h2.479v-10.67c0-0.966-0.168-1.512-0.504-1.89
		c-0.379-0.378-0.799-0.504-1.934-0.504h-1.26c-1.092,0-2.1,0.252-3.654,0.966v12.098h2.479v4.957h-11.846v-4.999h3.107V106.65
		h-3.107v-5.041h9.367V104.676z"/>
	<path fill="#FFFFFF" d="M331.883,121.731c-2.898,2.562-3.863,3.024-5.797,3.024h-2.059c-2.436,0-3.738-0.42-4.746-1.428
		c-1.387-1.386-1.932-3.403-1.932-10.166c0-6.805,0.672-8.737,2.1-10.166c1.008-1.008,2.352-1.428,4.662-1.428h2.186
		c1.932,0,2.982,0.378,5.586,2.604v-5.461h-3.107v-4.999h9.41v26.002h3.107v4.999h-9.41V121.731z M331.883,118.791v-11.216
		c-1.344-0.63-2.352-0.966-3.443-0.966h-1.975c-1.176,0-1.723,0.168-2.102,0.546c-0.545,0.546-0.713,1.596-0.713,6.007
		c0,4.411,0.168,5.419,0.713,6.007c0.379,0.378,0.926,0.504,2.102,0.504h1.975C329.488,119.672,330.498,119.42,331.883,118.791z"/>
</g>
<path fill="#0A6069" d="M200.5,88.143c-20.785,0-37.694-16.91-37.694-37.694s16.91-37.694,37.694-37.694
	c20.785,0,37.694,16.91,37.694,37.694S221.285,88.143,200.5,88.143z M200.5,26.88c-12.996,0-23.568,10.572-23.568,23.568
	s10.572,23.568,23.568,23.568s23.567-10.573,23.567-23.568S213.496,26.88,200.5,26.88z"/>
<g>
	<path fill="#00A4B5" d="M44.226,308.064h2.358l3.835,5.96l3.835-5.96h2.359v12.604h-2.215v-9.039l-3.979,5.942h-0.072l-3.943-5.906
		v9.003h-2.179V308.064z"/>
	<path fill="#00A4B5" d="M66.492,314.402v-0.036c0-3.547,2.737-6.519,6.608-6.519s6.572,2.936,6.572,6.482v0.036
		c0,3.547-2.737,6.518-6.608,6.518S66.492,317.949,66.492,314.402z M77.349,314.402v-0.036c0-2.449-1.782-4.466-4.285-4.466
		s-4.249,1.98-4.249,4.43v0.036c0,2.448,1.782,4.465,4.285,4.465C75.602,318.831,77.349,316.851,77.349,314.402z"/>
	<path fill="#00A4B5" d="M89.351,315.32v-7.256h2.215v7.166c0,2.341,1.206,3.583,3.187,3.583c1.962,0,3.169-1.171,3.169-3.493
		v-7.256h2.214v7.147c0,3.764-2.125,5.654-5.419,5.654C91.44,320.866,89.351,318.976,89.351,315.32z"/>
	<path fill="#00A4B5" d="M110.375,308.064h2.052l6.752,8.715v-8.715h2.178v12.604h-1.854l-6.95-8.967v8.967h-2.179V308.064z"/>
	<path fill="#00A4B5" d="M134.874,310.117h-4.015v-2.053h10.245v2.053h-4.015v10.551h-2.215V310.117z"/>
	<path fill="#00A4B5" d="M162.232,308.064h2.395l3.007,9.345l3.097-9.381h1.872l3.097,9.381l3.007-9.345h2.323l-4.375,12.693h-1.926
		l-3.097-9.057l-3.097,9.057h-1.927L162.232,308.064z"/>
	<path fill="#00A4B5" d="M193.338,307.975h2.053l5.545,12.693h-2.341l-1.278-3.043h-5.959l-1.297,3.043h-2.269L193.338,307.975z
		 M196.507,315.662l-2.179-5.041l-2.161,5.041H196.507z"/>
	<path fill="#00A4B5" d="M209.248,318.831l1.332-1.584c1.207,1.044,2.432,1.639,3.979,1.639c1.369,0,2.233-0.648,2.233-1.585v-0.036
		c0-0.9-0.505-1.386-2.845-1.927c-2.683-0.647-4.196-1.439-4.196-3.763v-0.036c0-2.16,1.801-3.655,4.304-3.655
		c1.837,0,3.295,0.559,4.573,1.585l-1.188,1.675c-1.134-0.847-2.269-1.297-3.421-1.297c-1.296,0-2.053,0.666-2.053,1.494v0.036
		c0,0.973,0.576,1.404,3.007,1.98c2.665,0.648,4.033,1.603,4.033,3.691v0.036c0,2.358-1.854,3.763-4.501,3.763
		C212.579,320.848,210.761,320.182,209.248,318.831z"/>
	<path fill="#00A4B5" d="M228.814,308.064h2.215v5.239h6.014v-5.239h2.215v12.604h-2.215v-5.312h-6.014v5.312h-2.215V308.064z"/>
	<path fill="#00A4B5" d="M249.819,308.064h2.215v12.604h-2.215V308.064z"/>
	<path fill="#00A4B5" d="M262.6,308.064h2.053l6.752,8.715v-8.715h2.179v12.604h-1.854l-6.95-8.967v8.967H262.6V308.064z"/>
	<path fill="#00A4B5" d="M283.462,314.402v-0.036c0-3.529,2.7-6.519,6.5-6.519c2.196,0,3.547,0.612,4.843,1.711l-1.404,1.675
		c-0.972-0.811-1.927-1.333-3.528-1.333c-2.323,0-4.088,2.017-4.088,4.43v0.036c0,2.593,1.711,4.501,4.285,4.501
		c1.188,0,2.27-0.378,3.043-0.954v-2.341h-3.223v-1.944h5.365v5.294c-1.242,1.062-3.024,1.962-5.257,1.962
		C286.055,320.884,283.462,318.075,283.462,314.402z"/>
	<path fill="#00A4B5" d="M308.212,310.117h-4.015v-2.053h10.245v2.053h-4.016v10.551h-2.215V310.117z"/>
	<path fill="#00A4B5" d="M322.737,314.402v-0.036c0-3.547,2.736-6.519,6.607-6.519s6.572,2.936,6.572,6.482v0.036
		c0,3.547-2.736,6.518-6.607,6.518C325.438,320.884,322.737,317.949,322.737,314.402z M333.595,314.402v-0.036
		c0-2.449-1.783-4.466-4.285-4.466c-2.503,0-4.25,1.98-4.25,4.43v0.036c0,2.448,1.783,4.465,4.285,4.465
		C331.848,318.831,333.595,316.851,333.595,314.402z"/>
	<path fill="#00A4B5" d="M345.795,308.064h2.053l6.752,8.715v-8.715h2.179v12.604h-1.854l-6.95-8.967v8.967h-2.179V308.064z"/>
</g>
<g>
	<path fill="#00A4B5" d="M91.116,334.085h2.052l6.752,8.715v-8.715h2.178v12.604h-1.854l-6.95-8.967v8.967h-2.179V334.085z"/>
	<path fill="#00A4B5" d="M106.361,341.971v-0.036c0-2.719,1.927-4.951,4.646-4.951c3.025,0,4.555,2.377,4.555,5.113
		c0,0.198-0.018,0.396-0.036,0.612h-6.986c0.234,1.549,1.333,2.413,2.737,2.413c1.062,0,1.818-0.396,2.575-1.135l1.278,1.135
		c-0.9,1.08-2.143,1.782-3.889,1.782C108.485,346.904,106.361,344.906,106.361,341.971z M113.401,341.269
		c-0.144-1.404-0.972-2.502-2.413-2.502c-1.333,0-2.269,1.025-2.467,2.502H113.401z"/>
	<path fill="#00A4B5" d="M118.295,337.182h2.251l1.908,6.518l2.107-6.554h1.873l2.106,6.554l1.944-6.518h2.197l-3.115,9.579h-1.963
		l-2.125-6.5l-2.143,6.5h-1.944L118.295,337.182z"/>
	<path fill="#00A4B5" d="M143.855,334.085h2.214v5.239h6.014v-5.239h2.214v12.604h-2.214v-5.312h-6.014v5.312h-2.214V334.085z"/>
	<path fill="#00A4B5" d="M158.435,343.952v-0.036c0-2.053,1.621-3.062,3.943-3.062c1.062,0,1.818,0.162,2.557,0.396v-0.234
		c0-1.351-0.828-2.07-2.359-2.07c-1.062,0-1.854,0.234-2.719,0.594l-0.594-1.71c1.062-0.469,2.089-0.774,3.601-0.774
		c1.422,0,2.485,0.378,3.151,1.062c0.702,0.684,1.026,1.692,1.026,2.935v5.636h-2.125V345.5c-0.648,0.774-1.639,1.387-3.097,1.387
		C160.037,346.887,158.435,345.86,158.435,343.952z M164.971,343.268v-0.648c-0.559-0.216-1.296-0.378-2.161-0.378
		c-1.405,0-2.233,0.594-2.233,1.584v0.036c0,0.919,0.811,1.44,1.854,1.44C163.872,345.302,164.971,344.474,164.971,343.268z"/>
	<path fill="#00A4B5" d="M171.431,337.182h2.196v1.44c0.612-0.847,1.44-1.639,2.899-1.639c1.369,0,2.341,0.666,2.845,1.675
		c0.756-1.009,1.764-1.675,3.205-1.675c2.071,0,3.331,1.314,3.331,3.638v6.067h-2.179v-5.401c0-1.513-0.702-2.323-1.926-2.323
		c-1.188,0-2.035,0.828-2.035,2.359v5.365h-2.179v-5.42c0-1.477-0.72-2.305-1.927-2.305c-1.206,0-2.035,0.9-2.035,2.359v5.365
		h-2.196V337.182z"/>
	<path fill="#00A4B5" d="M190.313,337.182h2.196v1.585c0.703-0.991,1.693-1.783,3.241-1.783c2.232,0,4.411,1.765,4.411,4.934v0.036
		c0,3.151-2.161,4.934-4.411,4.934c-1.584,0-2.575-0.792-3.241-1.675v4.357h-2.196V337.182z M197.947,341.953v-0.036
		c0-1.837-1.261-3.043-2.719-3.043c-1.477,0-2.773,1.225-2.773,3.043v0.036c0,1.818,1.296,3.043,2.773,3.043
		C196.723,344.996,197.947,343.825,197.947,341.953z"/>
	<path fill="#00A4B5" d="M203.434,345.446l0.973-1.477c1.045,0.774,2.143,1.17,3.115,1.17c0.936,0,1.477-0.396,1.477-1.026v-0.035
		c0-0.738-1.009-0.991-2.125-1.333c-1.404-0.396-2.971-0.972-2.971-2.772v-0.036c0-1.818,1.494-2.917,3.385-2.917
		c1.188,0,2.484,0.414,3.493,1.08l-0.864,1.549c-0.918-0.559-1.891-0.9-2.683-0.9c-0.847,0-1.333,0.414-1.333,0.937v0.036
		c0,0.702,1.027,0.99,2.143,1.351c1.387,0.432,2.953,1.062,2.953,2.772v0.036c0,1.998-1.549,2.988-3.529,2.988
		C206.117,346.868,204.623,346.4,203.434,345.446z"/>
	<path fill="#00A4B5" d="M215.009,333.545h2.196v5.095c0.612-0.882,1.495-1.656,2.971-1.656c2.143,0,3.386,1.44,3.386,3.638v6.067
		h-2.179v-5.401c0-1.477-0.738-2.323-2.035-2.323c-1.26,0-2.143,0.883-2.143,2.359v5.365h-2.196V333.545z"/>
	<path fill="#00A4B5" d="M228.022,333.652h2.341v2.071h-2.341V333.652z M228.095,337.182h2.196v9.507h-2.196V337.182z"/>
	<path fill="#00A4B5" d="M234.915,337.182h2.196v2.143c0.595-1.423,1.692-2.395,3.367-2.322v2.305h-0.126
		c-1.908,0-3.241,1.242-3.241,3.763v3.619h-2.196V337.182z"/>
	<path fill="#00A4B5" d="M243.321,341.971v-0.036c0-2.719,1.926-4.951,4.645-4.951c3.025,0,4.556,2.377,4.556,5.113
		c0,0.198-0.018,0.396-0.036,0.612h-6.986c0.234,1.549,1.333,2.413,2.737,2.413c1.062,0,1.818-0.396,2.575-1.135l1.278,1.135
		c-0.9,1.08-2.143,1.782-3.89,1.782C245.445,346.904,243.321,344.906,243.321,341.971z M250.361,341.269
		c-0.145-1.404-0.973-2.502-2.413-2.502c-1.332,0-2.269,1.025-2.467,2.502H250.361z"/>
	<path fill="#00A4B5" d="M255.58,348.381c1.099-0.216,1.62-0.774,1.548-1.692h-0.936v-2.484h2.395v2.106
		c0,1.998-0.954,2.845-2.772,3.007L255.58,348.381z"/>
	<path fill="#00A4B5" d="M270.23,341.341v-7.256h2.214v7.166c0,2.341,1.207,3.583,3.188,3.583c1.963,0,3.169-1.171,3.169-3.493
		v-7.256h2.215v7.147c0,3.764-2.125,5.654-5.42,5.654C272.318,346.887,270.23,344.996,270.23,341.341z"/>
	<path fill="#00A4B5" d="M285.009,344.852l1.332-1.584c1.207,1.044,2.431,1.639,3.979,1.639c1.368,0,2.232-0.648,2.232-1.585v-0.036
		c0-0.9-0.504-1.386-2.845-1.927c-2.683-0.647-4.195-1.439-4.195-3.763v-0.036c0-2.16,1.801-3.655,4.304-3.655
		c1.836,0,3.295,0.559,4.573,1.585l-1.188,1.675c-1.135-0.847-2.269-1.297-3.421-1.297c-1.297,0-2.053,0.666-2.053,1.494v0.036
		c0,0.973,0.576,1.404,3.007,1.98c2.665,0.648,4.033,1.603,4.033,3.691v0.036c0,2.358-1.854,3.763-4.501,3.763
		C288.34,346.868,286.521,346.202,285.009,344.852z"/>
	<path fill="#00A4B5" d="M303.369,333.995h2.053l5.546,12.693h-2.341l-1.278-3.043h-5.96l-1.297,3.043h-2.269L303.369,333.995z
		 M306.538,341.683l-2.179-5.041l-2.161,5.041H306.538z"/>
</g>
<g>
	<path fill="#FFFFFF" d="M94.293,507.707V506.1h12.697v4.92h-1.776v-3.312h-6.769v5.904h4.968v1.561h-4.968v6.121h2.52v1.607h-6.672
		v-1.607h2.352v-13.586H94.293z"/>
	<path fill="#FFFFFF" d="M118.269,506.795c0.456-0.455,1.2-0.695,2.52-0.695h4.729c1.224,0,1.92,0.217,2.4,0.695
		c0.648,0.648,1.008,1.537,1.008,3.602c0,2.496-0.816,3.359-2.208,3.768v0.023c1.704,0.361,2.352,1.32,2.352,3.938
		c0,2.592-0.432,3.48-1.008,4.057c-0.504,0.504-1.2,0.719-2.448,0.719h-4.92c-1.224,0-2.016-0.191-2.544-0.695
		c-0.72-0.744-0.96-1.68-1.032-4.537h1.848c0.072,2.16,0.24,2.832,0.576,3.168c0.264,0.266,0.6,0.385,1.464,0.385h4.128
		c0.744,0,1.2-0.072,1.488-0.359c0.288-0.289,0.504-0.865,0.504-2.736c0-1.873-0.24-2.424-0.552-2.762
		c-0.288-0.287-0.72-0.406-1.536-0.406h-3.769v-1.561h3.625c0.864,0,1.272-0.145,1.536-0.408c0.288-0.289,0.552-0.912,0.552-2.449
		c0-1.559-0.264-2.111-0.528-2.4c-0.264-0.238-0.696-0.359-1.44-0.359h-3.864c-0.912,0-1.224,0.121-1.488,0.359
		c-0.336,0.361-0.504,1.08-0.576,2.881h-1.848C117.309,508.787,117.501,507.564,118.269,506.795z"/>
	<path fill="#FFFFFF" d="M140.997,506.795c0.456-0.455,1.2-0.695,2.52-0.695h4.729c1.224,0,1.92,0.217,2.4,0.695
		c0.648,0.648,1.008,1.537,1.008,3.602c0,2.496-0.816,3.359-2.208,3.768v0.023c1.704,0.361,2.352,1.32,2.352,3.938
		c0,2.592-0.432,3.48-1.008,4.057c-0.504,0.504-1.2,0.719-2.448,0.719h-4.92c-1.224,0-2.016-0.191-2.544-0.695
		c-0.72-0.744-0.96-1.68-1.032-4.537h1.848c0.072,2.16,0.24,2.832,0.576,3.168c0.264,0.266,0.6,0.385,1.464,0.385h4.128
		c0.744,0,1.2-0.072,1.488-0.359c0.288-0.289,0.504-0.865,0.504-2.736c0-1.873-0.24-2.424-0.552-2.762
		c-0.288-0.287-0.72-0.406-1.536-0.406h-3.769v-1.561h3.625c0.864,0,1.272-0.145,1.536-0.408c0.288-0.289,0.552-0.912,0.552-2.449
		c0-1.559-0.264-2.111-0.528-2.4c-0.264-0.238-0.696-0.359-1.44-0.359h-3.864c-0.912,0-1.224,0.121-1.488,0.359
		c-0.336,0.361-0.504,1.08-0.576,2.881h-1.848C140.037,508.787,140.229,507.564,140.997,506.795z"/>
	<path fill="#FFFFFF" d="M172.533,516.443h2.952v1.465h-2.952v3.457h2.952v1.535h-7.92v-1.535h3.216v-3.457h-8.833v-0.695
		c0-0.48,0.096-0.793,0.408-1.225l6.528-9.072c0.408-0.576,0.696-0.816,1.272-0.816h2.376V516.443z M170.781,507.564h-0.408
		l-6.409,8.879h6.817V507.564z"/>
	<path fill="#FFFFFF" d="M196.845,506.916c0.672,0.672,1.008,1.535,1.008,3.553c0,2.424-0.84,3.264-2.16,3.695v0.023
		c1.608,0.361,2.352,1.416,2.352,4.08c0,2.186-0.384,3.121-1.056,3.793c-0.6,0.6-1.44,0.84-2.664,0.84h-4.8
		c-1.224,0-2.064-0.24-2.665-0.84c-0.672-0.672-1.056-1.607-1.056-3.793c0-2.664,0.744-3.719,2.352-4.08v-0.023
		c-1.32-0.432-2.16-1.271-2.16-3.695c0-2.018,0.336-2.881,1.008-3.553c0.6-0.6,1.417-0.816,2.641-0.816h4.56
		C195.429,506.1,196.245,506.316,196.845,506.916z M187.748,518.197c0,1.871,0.264,2.375,0.552,2.664
		c0.288,0.287,0.648,0.432,1.512,0.432h4.224c0.864,0,1.224-0.145,1.512-0.432c0.288-0.289,0.552-0.793,0.552-2.664
		c0-1.777-0.24-2.449-0.6-2.785c-0.312-0.312-0.672-0.48-1.608-0.48h-3.96c-0.912,0-1.272,0.168-1.584,0.48
		C187.988,515.748,187.748,516.42,187.748,518.197z M187.916,510.516c0,1.584,0.264,2.137,0.576,2.424
		c0.288,0.312,0.696,0.48,1.608,0.48h3.648c0.912,0,1.32-0.168,1.608-0.48c0.288-0.287,0.576-0.84,0.576-2.424
		c0-1.607-0.264-2.064-0.576-2.377c-0.24-0.264-0.624-0.432-1.488-0.432h-3.888c-0.864,0-1.248,0.168-1.488,0.432
		C188.18,508.451,187.916,508.908,187.916,510.516z"/>
	<path fill="#FFFFFF" d="M218.276,520.812c0.36-0.359,0.552-1.08,0.552-3.119c0-2.041-0.216-2.736-0.552-3.072
		c-0.288-0.312-0.744-0.457-1.536-0.457h-2.64c-1.2,0-2.064,0.264-3.409,1.152l-1.607-0.576l0.576-8.641h10.681v1.68h-9.025
		l-0.407,5.881h0.168c1.032-0.84,1.704-1.129,3.264-1.129h2.736c1.368,0,2.112,0.217,2.664,0.77
		c0.769,0.768,1.009,1.727,1.009,4.393c0,2.664-0.288,3.672-1.009,4.391c-0.552,0.553-1.271,0.816-2.592,0.816h-4.921
		c-1.199,0-2.04-0.215-2.544-0.695c-0.647-0.648-0.888-1.344-0.912-4.152h1.872c0.024,2.111,0.192,2.543,0.456,2.832
		c0.265,0.264,0.672,0.359,1.393,0.359h4.344C217.58,521.244,218.013,521.076,218.276,520.812z"/>
	<path fill="#FFFFFF" d="M233.443,522.9l7.393-15.24h-8.16v3.504h-1.752V506.1H242.9v1.225l-7.488,15.576H233.443z"/>
	<path fill="#FFFFFF" d="M263.853,506.916c0.672,0.672,1.008,1.535,1.008,3.553c0,2.424-0.84,3.264-2.16,3.695v0.023
		c1.608,0.361,2.353,1.416,2.353,4.08c0,2.186-0.385,3.121-1.057,3.793c-0.6,0.6-1.439,0.84-2.664,0.84h-4.801
		c-1.224,0-2.063-0.24-2.664-0.84c-0.672-0.672-1.056-1.607-1.056-3.793c0-2.664,0.744-3.719,2.352-4.08v-0.023
		c-1.319-0.432-2.16-1.271-2.16-3.695c0-2.018,0.337-2.881,1.009-3.553c0.6-0.6,1.416-0.816,2.64-0.816h4.561
		C262.437,506.1,263.252,506.316,263.853,506.916z M254.756,518.197c0,1.871,0.264,2.375,0.552,2.664
		c0.288,0.287,0.648,0.432,1.512,0.432h4.225c0.864,0,1.225-0.145,1.513-0.432c0.287-0.289,0.552-0.793,0.552-2.664
		c0-1.777-0.24-2.449-0.601-2.785c-0.312-0.312-0.672-0.48-1.607-0.48h-3.961c-0.912,0-1.271,0.168-1.584,0.48
		C254.995,515.748,254.756,516.42,254.756,518.197z M254.924,510.516c0,1.584,0.264,2.137,0.576,2.424
		c0.287,0.312,0.695,0.48,1.607,0.48h3.648c0.912,0,1.32-0.168,1.608-0.48c0.288-0.287,0.576-0.84,0.576-2.424
		c0-1.607-0.265-2.064-0.576-2.377c-0.24-0.264-0.624-0.432-1.488-0.432h-3.889c-0.863,0-1.248,0.168-1.487,0.432
		C255.188,508.451,254.924,508.908,254.924,510.516z"/>
	<path fill="#FFFFFF" d="M277.818,518.365c0.072,1.703,0.168,2.16,0.504,2.471c0.312,0.312,0.696,0.408,1.44,0.408h4.032
		c1.032,0,1.345-0.215,1.633-0.479c0.432-0.434,0.744-1.369,0.768-5.977c-1.44,1.055-1.968,1.295-3.072,1.295h-3.36
		c-1.464,0-2.376-0.215-2.977-0.816c-0.672-0.672-0.96-1.512-0.96-4.104c0-2.496,0.36-3.48,1.08-4.201
		c0.576-0.6,1.44-0.863,2.736-0.863h4.488c1.44,0,2.16,0.287,2.713,0.84c0.888,0.912,1.271,2.111,1.271,7.561
		c0,5.209-0.456,6.602-1.344,7.514c-0.624,0.623-1.416,0.887-3.048,0.887h-4.297c-1.296,0-2.016-0.24-2.544-0.744
		c-0.672-0.648-0.889-1.463-0.912-3.791H277.818z M286.195,513.709c-0.023-4.25-0.264-5.018-0.72-5.473
		c-0.312-0.312-0.696-0.48-1.656-0.48h-3.984c-0.792,0-1.225,0.119-1.561,0.455c-0.312,0.312-0.552,0.984-0.552,2.93
		c0,2.016,0.168,2.496,0.528,2.879c0.288,0.289,0.72,0.457,1.752,0.457h3.648C284.491,514.477,285.188,514.236,286.195,513.709z"/>
	<path fill="#FFFFFF" d="M310.292,513.396c-0.384,0.504-1.057,0.912-2.305,1.416l-5.16,2.039c-0.672,0.289-1.08,0.553-1.344,0.816
		c-0.36,0.361-0.553,0.889-0.553,2.305v1.32h8.593v-3.625h1.752v5.232h-12.12v-2.711c0-2.186,0.264-2.93,0.96-3.625
		c0.407-0.408,0.912-0.768,2.088-1.248l5.208-2.064c0.889-0.359,1.129-0.623,1.345-0.889c0.288-0.336,0.432-0.719,0.432-2.064
		c0-1.248-0.12-1.822-0.504-2.16c-0.24-0.264-0.648-0.383-1.393-0.383h-4.032c-0.792,0-1.128,0.145-1.392,0.408
		c-0.288,0.287-0.456,0.744-0.48,2.879h-1.848c0.023-2.76,0.312-3.551,0.983-4.199c0.48-0.504,1.249-0.744,2.545-0.744h4.44
		c1.368,0,2.088,0.24,2.616,0.768c0.672,0.672,0.912,1.512,0.912,3.361C311.036,512.076,310.868,512.699,310.292,513.396z"/>
</g>
<g>
	<rect x="34" y="391" fill="#00A4B5" width="333" height="1"/>
</g>
<g>
	<path fill="#00A4B5" d="M40.514,399.266c0.994,0,1.457,0.112,1.807,0.448c0.519,0.477,0.771,1.064,0.799,2.773H40.92
		c-0.028-0.98-0.182-1.176-0.309-1.288c-0.084-0.084-0.21-0.141-0.658-0.141h-1.835c-0.462,0-0.574,0.042-0.672,0.141
		c-0.14,0.126-0.336,0.561-0.336,2.97c0,2.395,0.196,2.843,0.336,2.983c0.098,0.084,0.21,0.126,0.672,0.126h1.877
		c0.435,0.014,0.561-0.042,0.659-0.126c0.126-0.126,0.322-0.504,0.322-1.442v-0.28h-2.199v-1.682h4.427v1.219
		c0,2.256-0.364,3.096-0.911,3.614c-0.364,0.351-0.869,0.49-1.779,0.49h-3.012c-0.967,0-1.415-0.14-1.765-0.477
		c-0.56-0.532-0.966-1.429-0.966-4.426c0-3.012,0.406-3.908,0.966-4.427c0.35-0.336,0.798-0.477,1.765-0.477H40.514z"/>
	<path fill="#00A4B5" d="M51.125,406.634H47.75l-0.729,2.438h-2.283l3.04-9.203c0.182-0.532,0.28-0.645,0.798-0.645h1.891
		c0.504,0,0.616,0.126,0.798,0.645l3.04,9.203h-2.438L51.125,406.634z M48.254,404.925h2.368l-1.093-3.642h-0.182L48.254,404.925z"
		/>
	<path fill="#00A4B5" d="M59.987,401.087v7.984h-2.283v-7.984H54.72v-1.821h8.279v1.821H59.987z"/>
	<path fill="#00A4B5" d="M72.351,409.071h-7.354v-9.806h7.354v1.808h-5.07v2.101h3.95v1.724h-3.95v2.367h5.07V409.071z"/>
	<path fill="#00A4B5" d="M87.387,409.071h-1.849c-0.519,0-0.756-0.14-1.009-0.588l-3.375-6.052h-0.14v6.64h-2.185v-9.806h2.143
		c0.532,0,0.756,0.126,1.008,0.589l3.082,5.589h0.14v-6.178h2.186V409.071z"/>
	<path fill="#00A4B5" d="M95.226,399.266c1.079,0,1.597,0.126,2.017,0.519c0.574,0.519,1.05,1.541,1.05,4.385
		c0,2.829-0.476,3.852-1.05,4.384c-0.42,0.379-0.938,0.519-2.017,0.519h-2.283c-1.079,0-1.583-0.14-2.003-0.519
		c-0.588-0.532-1.05-1.555-1.05-4.384c0-2.844,0.462-3.866,1.05-4.385c0.42-0.393,0.925-0.519,2.003-0.519H95.226z M93.446,401.073
		c-0.518,0-0.686,0.056-0.798,0.154c-0.154,0.14-0.378,0.518-0.378,2.941c0,2.423,0.224,2.801,0.378,2.928
		c0.112,0.111,0.28,0.153,0.798,0.153h1.275c0.532,0,0.687-0.042,0.812-0.153c0.154-0.127,0.378-0.505,0.378-2.928
		c0-2.424-0.224-2.802-0.378-2.941c-0.126-0.099-0.28-0.154-0.812-0.154H93.446z"/>
	<path fill="#00A4B5" d="M102.685,406.83v2.241h-2.199v-2.241H102.685z"/>
</g>
<g>
	<path fill="#00A4B5" d="M39.958,171.44h30.561L86.839,206l16.48-34.561h30.561v112.002h-30.4v-53.121l-16.48,33.44h-0.32
		l-16.48-33.44v53.121h-30.24V171.44z"/>
	<path fill="#00A4B5" d="M145.557,171.44h32.801l8.8,58.241l10.561-58.401h26.08l10.561,58.401l8.801-58.241h32.32l-23.521,112.323
		h-30.561l-10.879-49.122l-10.881,49.122h-30.561L145.557,171.44z"/>
	<g>
		<path fill="#00A4B5" d="M296.49,171.317h35.239l29.313,112.446h-32.196l-3.523-17.139h-23.065l-3.524,17.139h-31.556
			L296.49,171.317z M320.197,242.276l-6.407-31.555l-6.407,31.555H320.197z"/>
	</g>
</g>
<g>
	<path fill="#808080" d="M189.022,445.456c-1.888,0.645-4.611,1.262-8.171,1.852c-3.56,0.589-6.085,0.398-7.576-0.575
		c-1.49-0.972-2.563-3.439-3.221-7.404c-0.656-3.964-1.081-8.368-1.272-13.213c-0.193-4.843-0.11-8.444,0.247-10.804
		c0.358-2.358,1.615-3.718,3.772-4.074c1.456-0.241,2.395,0.241,2.815,1.445c0.054,0.323,0.139,0.837,0.255,1.537
		c0.116,0.702,0.119,1.726,0.01,3.074c0.277,9.706,0.751,16.581,1.421,20.627c0.16,0.97,0.321,1.774,0.482,2.413
		c1.007,0.055,2.331-0.054,3.978-0.325c1.645-0.272,3.707-0.78,6.189-1.524c-0.081-1.15-0.278-2.683-0.595-4.597
		c-0.317-1.915-0.557-3.524-0.717-4.827c-0.161-1.304-0.124-2.251,0.11-2.844c0.235-0.593,1.12-1.018,2.658-1.272
		c1.536-0.254,2.552-0.144,3.046,0.327c0.493,0.473,0.818,1.182,0.975,2.125s0.401,2.926,0.735,5.945s1.648,11.46,3.943,25.321
		c0.401,2.426-0.584,3.837-2.957,4.229c-0.109,0.019-0.217,0.036-0.323,0.054c-1.997,0.33-3.266-1.149-3.812-4.439l-0.736-4.449
		L189.022,445.456z"/>
	<path fill="#808080" d="M210.743,404.955c3.937-0.651,7.383-0.251,10.339,1.197c2.954,1.452,4.718,3.902,5.29,7.354
		c0.812,4.908-1.13,9.579-5.826,14.014c3.62,2.781,6.272,5.252,7.959,7.41c1.832,2.356,3.042,5.313,3.632,8.873
		c0.589,3.561-0.246,6.719-2.505,9.474c-2.448,2.956-5.829,4.79-10.143,5.503c-4.316,0.715-7.865,0.194-10.648-1.562
		c-2.911-1.846-4.691-4.735-5.344-8.673c-1.062-6.418,1.102-12.594,6.491-18.529c-2.524-0.855-4.838-2.44-6.937-4.753
		c-2.165-2.355-3.489-5.004-3.976-7.944c-0.486-2.938,0.305-5.521,2.374-7.749C203.708,407.146,206.805,405.607,210.743,404.955z
		 M209.322,446.583c0.045,0.271,0.086,0.513,0.121,0.729c0.402,2.094,1.574,3.562,3.516,4.404c1.938,0.844,4.204,1.049,6.792,0.62
		c2.428-0.401,4.067-1.365,4.925-2.893c0.854-1.525,1.108-3.259,0.76-5.196c-0.349-1.937-1.318-3.771-2.906-5.502
		c-1.59-1.733-3.991-3.772-7.205-6.122c-2.438,2.344-4.135,4.729-5.09,7.16C209.278,442.213,208.975,444.479,209.322,446.583z
		 M205,417.46c0.179,1.079,0.673,2.05,1.48,2.914c0.808,0.862,1.575,1.483,2.304,1.862c0.728,0.378,1.72,0.852,2.977,1.418
		c1.259,0.569,2.098,0.956,2.521,1.161c1.509-1.579,2.524-2.646,3.042-3.204c0.518-0.556,1.098-1.316,1.741-2.283
		c0.643-0.964,1.009-1.773,1.095-2.425c0.086-0.65,0.013-1.594-0.22-2.831c-0.232-1.236-1.168-2.203-2.807-2.902
		c-1.641-0.697-3.27-0.913-4.886-0.646c-0.162,0.027-0.324,0.055-0.486,0.08C206.709,411.886,204.456,414.17,205,417.46z"/>
</g>
</svg>
