<?xml version="1.0" encoding="utf-8"?>
<!-- Generator: Adobe Illustrator 15.1.0, SVG Export Plug-In . SVG Version: 6.00 Build 0)  -->
<!DOCTYPE svg PUBLIC "-//W3C//DTD SVG 1.1//EN" "http://www.w3.org/Graphics/SVG/1.1/DTD/svg11.dtd">
<svg version="1.1" id="Layer_1" xmlns="http://www.w3.org/2000/svg" xmlns:xlink="http://www.w3.org/1999/xlink" x="0px" y="0px"
	 width="125px" height="124px" viewBox="0 0 125 124" enable-background="new 0 0 125 124" xml:space="preserve">
<path fill="#010101" d="M75.164,39.426c-9.23,0-16.713,7.482-16.713,16.713s7.482,16.713,16.713,16.713s16.713-7.482,16.713-16.713
	S84.395,39.426,75.164,39.426z M76.831,66.852c-5.549,0-10.046-4.498-10.046-10.046c0-5.549,4.497-10.046,10.046-10.046
	c5.548,0,10.046,4.498,10.046,10.046C86.877,62.354,82.379,66.852,76.831,66.852z"/>
<g>
	
		<rect x="3.307" y="27.732" transform="matrix(0.8428 0.5382 -0.5382 0.8428 20.7492 -14.5736)" fill="#010101" width="64.031" height="1"/>
</g>
<g>
	
		<rect x="99.75" y="4.887" transform="matrix(0.7381 0.6747 -0.6747 0.7381 45.3002 -60.2416)" fill="#010101" width="1" height="46.691"/>
</g>
<g>
	
		<rect x="60.039" y="90.25" transform="matrix(0.1398 0.9902 -0.9902 0.1398 159.966 -2.6357)" fill="#010101" width="42.921" height="1"/>
</g>
<g>
	
		<rect x="51" y="54.365" transform="matrix(0.4866 0.8736 -0.8736 0.4866 86.9352 -9.4403)" fill="#010101" width="0.999" height="29.77"/>
</g>
<circle fill="#ED1A3E" cx="118.5" cy="6.5" r="6.5"/>
<circle fill="#F37342" cx="85.5" cy="117.5" r="6.5"/>
<circle fill="#4CB25C" cx="6.5" cy="9.5" r="6.5"/>
<circle fill="#05A5B6" cx="36.5" cy="78.5" r="6.5"/>
</svg>
