<svg xmlns="http://www.w3.org/2000/svg" viewBox="0 0 276.643 57">
  <path d="M117.857 42.033c0 5.68-1.577 9.253-4.21 11.888-2.39 2.39-5.444 3.08-10.137 3.08H64.254V45h6V13h-6V0h39.34c5.104 0 7.735.81 9.962 3.03 2.632 2.718 3.73 6.62 3.73 11.066 0 8.726-3.03 12.215-9.03 13.862v.163c5.998 1.57 9.6 4.53 9.6 13.916zM96.267 23c1.397 0 1.975-.278 2.47-.77.575-.66.986-1.91.986-4.79 0-2.8-.328-4.037-.905-4.613-.412-.413-.987-.827-2.55-.827H87.25v11h9.018zm-9.013 22h9.263c1.48 0 2.142-.166 2.716-.742.577-.576.99-1.152.99-4.94 0-3.7-.33-4.683-.99-5.34-.577-.578-1.237-.978-2.72-.978H87.25l.005 12zm88.916 0h5.942v12h-15.736c-3.455 0-4.688-.363-5.68-1.352-1.23-1.233-1.89-3.188-2.22-12.814-.164-4.28-.413-5.146-1.237-5.97-.74-.74-1.73-.864-4.526-.864h-5.604v9h6v12h-29V45h6V13h-6V0h38.975c4.938 0 8.147.727 10.37 2.95 2.554 2.55 3.207 5.713 3.207 12.874 0 10.207-2.55 12.63-9.55 13.943v.166c6 1.315 8.645 3.418 8.727 11.73 0 .99.25 2.337.33 3.337zm-21.81-21c2.388 0 3.293-.243 3.784-.736.744-.824.908-2.097.908-5.06 0-2.964-.164-4.46-.908-5.283-.49-.49-1.396-.92-3.783-.92h-7.245v12h7.25zm64.006 21v12h-30V45h7V13h-7V0h30v13h-7v32h7zm42.307-45c6.008 0 8.478.81 10.7 3.03 3.373 3.294 5.27 9.75 5.27 25.633 0 15.886-1.897 22.15-5.27 25.444-2.225 2.224-4.693 2.893-10.7 2.893H240.59c-6.01 0-8.48-.69-10.7-2.915-3.374-3.293-5.27-9.688-5.27-25.575 0-15.885 1.895-22.238 5.27-25.53C232.11.756 234.582 0 240.59 0h20.083zm-17.285 43.47c.494.492 1.313.53 3.788.53h6.91c2.472 0 3.295-.038 3.785-.53.578-.575.99-2.325.99-14.917 0-12.593-.412-14.36-.99-14.938-.49-.493-1.31-.615-3.78-.615h-6.91c-2.477 0-3.295.154-3.79.647-.573.576-.987 2.317-.987 14.91 0 12.677.414 14.338.99 14.914zM0 0v57h57V0H0zm47.5 35H35v12.5H22V35H9.5V22H22V9.5h13V22h12.5v13z" fill="#231F20"/>
</svg>
