<?xml version="1.0" encoding="utf-8"?>
<!-- Generator: Adobe Illustrator 15.1.0, SVG Export Plug-In . SVG Version: 6.00 Build 0)  -->
<!DOCTYPE svg PUBLIC "-//W3C//DTD SVG 1.1//EN" "http://www.w3.org/Graphics/SVG/1.1/DTD/svg11.dtd">
<svg version="1.1" id="Layer_1" xmlns="http://www.w3.org/2000/svg" xmlns:xlink="http://www.w3.org/1999/xlink" x="0px" y="0px"
	 width="824.562px" height="168.588px" viewBox="0 510.984 824.562 168.588" enable-background="new 0 510.984 824.562 168.588"
	 xml:space="preserve">
<g>
	<path fill="#FFFFFF" d="M354.496,635.312c0-27.765-10.652-36.521-28.396-41.156v-0.48c17.746-4.871,26.701-15.188,26.701-40.998
		c0-13.146-3.244-24.688-11.032-32.729c-6.578-6.564-14.363-8.961-29.458-8.961h-116.35v38.442h17.746v94.646h-17.746v35.494
		h116.104c13.88,0,22.916-2.041,29.982-9.107c7.785-7.793,12.452-18.354,12.452-35.16L354.496,635.312z M263.983,546.474h26.666
		c4.622,0,6.323,1.229,7.542,2.445c1.706,1.701,2.679,5.359,2.679,13.644c0,8.521-1.218,12.223-2.922,14.174
		c-1.461,1.448-3.167,2.271-7.299,2.271h-26.666V546.474L263.983,546.474z M299.415,641.882c-1.698,1.703-3.656,2.191-8.033,2.191
		h-27.396l-0.006-35.488h27.396c4.383,0,6.335,1.182,8.039,2.894c1.951,1.942,2.928,4.854,2.928,15.799
		C302.343,638.474,301.121,640.177,299.415,641.882z"/>
	<path fill="#FFFFFF" d="M527.122,644.076h-0.013c-0.229-2.957-0.979-6.941-0.979-9.863c-0.24-24.584-8.063-30.807-25.812-34.688
		v-0.49c20.704-3.892,28.246-11.06,28.246-41.24c0-21.18-1.937-30.535-9.479-38.078c-6.575-6.572-16.063-8.725-30.671-8.725H373.144
		v38.442h17.746v94.646h-17.746v35.492h85.772V644.08H441.17v-26.62h16.567c8.271,0,11.198,0.365,13.385,2.557
		c2.438,2.439,3.174,4.998,3.651,17.656c0.979,28.478,2.936,34.254,6.564,37.898c2.936,2.926,6.58,3.998,16.801,3.998h46.542
		v-35.492L527.122,644.076L527.122,644.076z M473.799,579.789c-1.456,1.459-4.129,2.18-11.188,2.18l-0.003,0.002H441.17v-35.485
		h21.438c7.062,0,9.739,1.27,11.188,2.723c2.2,2.436,2.688,6.854,2.688,15.625C476.486,573.587,476.002,577.351,473.799,579.789z"/>
	<polygon fill="#FFFFFF" points="652.056,644.076 652.056,679.57 563.325,679.57 563.325,644.076 584.029,644.076 584.029,549.431 
		563.325,549.431 563.325,510.984 652.056,510.984 652.056,549.431 631.35,549.431 631.35,644.076 	"/>
	<path fill="#FFFFFF" d="M808.976,519.945c-6.565-6.564-13.878-8.961-31.646-8.961h-59.396c-17.771,0-25.067,2.229-31.646,8.811
		c-9.979,9.736-15.587,28.525-15.587,75.51c0,46.986,5.604,65.9,15.587,75.646c6.564,6.58,13.871,8.621,31.646,8.621h59.396
		c17.771,0,25.069-1.98,31.646-8.562c9.979-9.742,15.586-28.27,15.586-75.254C824.562,548.783,818.952,529.685,808.976,519.945z
		 M769.047,639.552c-1.452,1.455-3.889,1.564-11.197,1.564h-20.438c-7.315,0-9.741-0.109-11.203-1.564v0.002
		c-1.699-1.703-2.923-6.608-2.923-44.104c0-37.246,1.227-42.396,2.919-44.104c1.466-1.457,3.889-1.914,11.211-1.914h20.438
		c7.308,0,9.738,0.361,11.188,1.82c1.696,1.709,2.922,6.936,2.922,44.182C771.969,632.675,770.743,637.849,769.047,639.552z"/>
</g>
<polygon display="none" fill="#FFFFFF" points="103.518,539.078 65.069,539.078 65.069,576.05 28.098,576.05 28.098,614.5 
	65.069,614.5 65.069,651.47 103.518,651.47 103.518,614.5 140.489,614.5 140.489,576.05 103.518,576.05 "/>
<path fill="#FFFFFF" d="M0,510.984V679.57h168.586V510.984H0z M140.489,614.5h-36.971v36.971H65.069V614.5H28.098v-38.45h36.971
	v-36.973h38.449v36.973h36.971V614.5L140.489,614.5z"/>
</svg>
