<?xml version="1.0" encoding="utf-8"?>
<!-- Generator: Adobe Illustrator 15.1.0, SVG Export Plug-In . SVG Version: 6.00 Build 0)  -->
<!DOCTYPE svg PUBLIC "-//W3C//DTD SVG 1.1//EN" "http://www.w3.org/Graphics/SVG/1.1/DTD/svg11.dtd">
<svg version="1.1" id="Layer_1" xmlns="http://www.w3.org/2000/svg" xmlns:xlink="http://www.w3.org/1999/xlink" x="0px" y="0px"
	 width="785.039px" height="168.588px" viewBox="12.149 510.984 785.039 168.588"
	 enable-background="new 12.149 510.984 785.039 168.588" xml:space="preserve">
<g>
	<path fill="#13161B" d="M327.121,635.312c0-27.766-10.652-36.521-28.396-41.156v-0.48c17.746-4.871,26.701-15.188,26.701-40.998
		c0-13.146-3.244-24.688-11.032-32.729c-6.578-6.564-14.363-8.961-29.458-8.961h-116.35v38.441h17.746v94.646h-17.746v35.494H284.69
		c13.88,0,22.916-2.041,29.982-9.107c7.785-7.793,12.452-18.354,12.452-35.16L327.121,635.312z M236.608,546.474h26.666
		c4.622,0,6.323,1.229,7.542,2.445c1.706,1.701,2.679,5.359,2.679,13.644c0,8.521-1.218,12.224-2.922,14.175
		c-1.461,1.447-3.167,2.271-7.299,2.271h-26.666V546.474L236.608,546.474z M272.04,641.882c-1.698,1.703-3.656,2.191-8.033,2.191
		h-27.396l-0.006-35.488h27.396c4.383,0,6.335,1.182,8.039,2.894c1.951,1.942,2.928,4.854,2.928,15.8
		C274.968,638.474,273.746,640.177,272.04,641.882z"/>
	<path fill="#13161B" d="M499.747,644.076h-0.013c-0.229-2.957-0.979-6.941-0.979-9.863c-0.24-24.584-8.062-30.807-25.812-34.688
		v-0.49c20.703-3.893,28.246-11.061,28.246-41.24c0-21.18-1.938-30.535-9.479-38.078c-6.575-6.572-16.063-8.725-30.671-8.725
		h-115.27v38.441h17.746v94.646h-17.746v35.492h85.772V644.08h-17.746v-26.62h16.567c8.271,0,11.197,0.365,13.385,2.557
		c2.438,2.439,3.174,4.998,3.651,17.656c0.979,28.479,2.936,34.254,6.563,37.898c2.937,2.926,6.58,3.998,16.801,3.998h46.542
		v-35.492L499.747,644.076L499.747,644.076z M446.424,579.789c-1.456,1.459-4.129,2.18-11.188,2.18l-0.003,0.002h-21.438v-35.484
		h21.438c7.062,0,9.738,1.27,11.188,2.723c2.2,2.436,2.688,6.854,2.688,15.625C449.111,573.587,448.627,577.351,446.424,579.789z"/>
	<polygon fill="#13161B" points="624.681,644.076 624.681,679.57 535.95,679.57 535.95,644.076 556.654,644.076 556.654,549.431 
		535.95,549.431 535.95,510.984 624.681,510.984 624.681,549.431 603.975,549.431 603.975,644.076 	"/>
	<path fill="#13161B" d="M781.602,519.945c-6.565-6.564-13.879-8.961-31.646-8.961h-59.396c-17.771,0-25.066,2.229-31.646,8.811
		c-9.979,9.736-15.587,28.525-15.587,75.51c0,46.986,5.604,65.9,15.587,75.646c6.563,6.58,13.871,8.621,31.646,8.621h59.396
		c17.771,0,25.069-1.98,31.646-8.562c9.979-9.742,15.586-28.27,15.586-75.254C797.188,548.783,791.577,529.685,781.602,519.945z
		 M741.672,639.552c-1.452,1.455-3.889,1.564-11.197,1.564h-20.438c-7.315,0-9.741-0.109-11.203-1.564v0.002
		c-1.699-1.703-2.923-6.607-2.923-44.104c0-37.246,1.227-42.396,2.919-44.104c1.466-1.457,3.889-1.914,11.211-1.914h20.438
		c7.309,0,9.738,0.361,11.188,1.82c1.696,1.709,2.922,6.936,2.922,44.182C744.594,632.675,743.368,637.849,741.672,639.552z"/>
</g>
<polygon display="none" fill="#FFFFFF" points="103.518,539.078 65.069,539.078 65.069,576.05 28.098,576.05 28.098,614.5 
	65.069,614.5 65.069,651.47 103.518,651.47 103.518,614.5 140.489,614.5 140.489,576.05 103.518,576.05 "/>
<path fill="#231F20" d="M0,281.984V450.57h168.586V281.984H0z M140.489,385.5h-36.971v36.971H65.069V385.5H28.098v-38.45h36.971
	v-36.973h38.449v36.973h36.971V385.5L140.489,385.5z"/>
<g>
	<path fill="#13161B" d="M106.031,574.641h42.415l-10.18,41.284H95.851L85.105,658.34H43.821l10.744-42.415H12.15l10.18-41.284
		h42.416l10.746-42.415h41.286L106.031,574.641z"/>
</g>
</svg>
