<?xml version="1.0" encoding="utf-8"?>
<!-- Generator: Adobe Illustrator 15.1.0, SVG Export Plug-In . SVG Version: 6.00 Build 0)  -->
<!DOCTYPE svg PUBLIC "-//W3C//DTD SVG 1.1//EN" "http://www.w3.org/Graphics/SVG/1.1/DTD/svg11.dtd">
<svg version="1.1" id="Layer_1" xmlns="http://www.w3.org/2000/svg" xmlns:xlink="http://www.w3.org/1999/xlink" x="0px" y="0px"
	 width="841.918px" height="173.562px" viewBox="0 1527.958 841.918 173.562" enable-background="new 0 1527.958 841.918 173.562"
	 xml:space="preserve">
<path fill="#2E3C40" d="M364.927,1655.967v-0.008v0.01 M573.225,1567.558h21.311v97.431h-21.311v36.53h91.341v-36.54h-21.31v-97.431
	h21.31v-39.581h-91.341 M536.173,1664.969h-0.003c-0.247-3.051-1.011-7.15-1.011-10.15c-0.25-25.311-8.3-31.71-26.567-35.71v-0.511
	c21.312-4,29.078-11.38,29.078-42.46c0-21.801-1.997-31.431-9.761-39.2c-6.767-6.771-16.544-8.98-31.573-8.98H377.677v39.57h18.271
	v97.431h-18.261v36.542h88.291v-36.533h-18.262v-27.4h17.058c8.514,0,11.53,0.375,13.773,2.63c2.5,2.51,3.263,5.145,3.768,18.175
	c1.011,29.312,3.011,35.261,6.771,39.021c3.021,3.002,6.78,4.11,17.3,4.11h47.911v-36.54h-18.092l-0.02-0.011v0.003
	L536.173,1664.969z M481.295,1598.799c-1.49,1.5-4.24,2.24-11.5,2.24l-0.01-0.011h-22.082v-36.529h22.07
	c7.268,0,10.025,1.311,11.521,2.801c2.264,2.513,2.765,7.062,2.765,16.09c0,9.021-0.496,12.9-2.76,15.41L481.295,1598.799z
	 M329.514,1613.598v-0.5c18.271-5.02,27.49-15.64,27.49-42.2c0-13.54-3.34-25.42-11.351-33.7c-6.76-6.76-14.779-9.229-30.32-9.229
	H195.541v39.58h18.271v97.431h-18.271v36.54h119.521c14.286,0,23.588-2.109,30.864-9.38c8.012-8.021,12.815-18.9,12.815-36.19
	l-0.011,0.01c0-28.58-10.97-37.59-29.229-42.37v-0.01L329.514,1613.598z M265.573,1564.528h27.45c4.76,0,6.51,1.25,7.76,2.511
	c1.761,1.75,2.761,5.52,2.761,14.04c0,8.77-1.25,12.56-3,14.569c-1.5,1.5-3.24,2.34-7.5,2.34l-0.011,0.03h-27.45v-33.5
	L265.573,1564.528z M302.033,1662.719c-1.75,1.75-3.76,2.25-8.26,2.25h-28.21v-36.53h28.18c4.521,0,6.53,1.209,8.28,2.97
	c2.01,2,3.021,4.99,3.021,16.26c0,11.53-1.25,13.28-3,15.04L302.033,1662.719z M825.878,1537.188c-6.77-6.761-14.29-9.23-32.58-9.23
	h-61.16c-18.28,0-25.801,2.3-32.581,9.07c-10.27,10.02-16.03,29.36-16.03,77.721c0,48.37,5.771,67.841,16.04,77.87
	c6.771,6.761,14.291,8.87,32.581,8.87h61.15c18.3,0,25.811-2.04,32.58-8.81c10.271-10.03,16.04-29.11,16.04-77.471
	s-5.75-68.021-16.02-78.041L825.878,1537.188z M784.778,1660.309c-1.5,1.489-4,1.609-11.529,1.609h-21.042
	c-7.525,0-10.026-0.12-11.53-1.62l-0.01-0.02c-1.75-1.75-3.006-6.811-3.006-45.4c0-38.351,1.26-43.65,3.005-45.4
	c1.5-1.5,4-1.967,11.54-1.967h21.04c7.521,0,10.021,0.369,11.53,1.877c1.74,1.748,3,7.138,3,45.48c0,38.338-1.26,43.66-3.01,45.42
	L784.778,1660.309z M0,1527.979v173.541h173.543v-173.541H0z M140.454,1630.05h-38.384v38.381H71.474v-38.381H33.09v-30.601h38.384
	v-38.38h30.6v38.386h38.383l-0.002,30.6V1630.05z"/>
</svg>
