<?xml version="1.0" encoding="utf-8"?>
<!-- Generator: Adobe Illustrator 15.1.0, SVG Export Plug-In . SVG Version: 6.00 Build 0)  -->
<!DOCTYPE svg PUBLIC "-//W3C//DTD SVG 1.1//EN" "http://www.w3.org/Graphics/SVG/1.1/DTD/svg11.dtd">
<svg version="1.1" id="Layer_1" xmlns="http://www.w3.org/2000/svg" xmlns:xlink="http://www.w3.org/1999/xlink" x="0px" y="0px"
	 width="841.895px" height="168.591px" viewBox="0 510.982 841.895 168.591" enable-background="new 0 510.982 841.895 168.591"
	 xml:space="preserve">
<rect y="510.982" fill="#FFFFFF" width="168.586" height="168.586"/>
<g>
	<path fill="#231F20" d="M354.496,635.312c0-27.761-10.652-36.517-28.395-41.158v-0.48c17.746-4.871,26.701-15.19,26.701-40.998
		c0-13.149-3.244-24.69-11.032-32.729c-6.579-6.564-14.364-8.961-29.458-8.961H195.962v38.448h17.746v94.646h-17.746v35.494h116.104
		c13.88,0,22.916-2.041,29.983-9.107c7.785-7.793,12.452-18.36,12.452-35.16L354.496,635.312z M263.983,546.475h26.666
		c4.622,0,6.323,1.224,7.542,2.445c1.706,1.701,2.679,5.359,2.679,13.643c0,8.521-1.218,12.218-2.922,14.169
		c-1.461,1.454-3.167,2.276-7.299,2.276h-26.666V546.475L263.983,546.475z M299.415,641.883c-1.698,1.703-3.656,2.191-8.033,2.191
		h-27.396l-0.006-35.488h27.396c4.383,0,6.335,1.182,8.039,2.893c1.951,1.943,2.928,4.851,2.928,15.794
		C302.343,638.475,301.121,640.178,299.415,641.883z"/>
	<path fill="#231F20" d="M532.898,644.074h-0.007c-0.235-2.957-0.979-6.941-0.979-9.863c-0.24-24.584-8.063-30.807-25.812-34.693
		v-0.491c20.704-3.886,28.246-11.054,28.246-41.24c0-21.18-1.937-30.535-9.484-38.078c-6.575-6.572-16.063-8.725-30.671-8.725
		H378.921v38.448h17.746v94.646h-17.746v35.492h85.771v-35.492h-17.746V617.46h16.573c8.271,0,11.198,0.365,13.379,2.557
		c2.438,2.438,3.174,4.998,3.657,17.656c0.978,28.472,2.93,34.254,6.564,37.898c2.936,2.926,6.58,3.998,16.801,3.998h46.542v-35.492
		L532.898,644.074L532.898,644.074z M479.575,579.787c-1.456,1.459-4.129,2.18-11.188,2.18l-0.003,0.002h-21.441v-35.49h21.441
		c7.062,0,9.739,1.271,11.188,2.722c2.2,2.436,2.688,6.856,2.688,15.625C482.263,573.588,481.778,577.352,479.575,579.787z"/>
	<polygon fill="#231F20" points="663.614,644.074 663.614,679.568 574.884,679.568 574.884,644.074 595.588,644.074 
		595.588,549.432 574.884,549.432 574.884,510.982 663.614,510.982 663.614,549.432 642.908,549.432 642.908,644.074 	"/>
	<path fill="#231F20" d="M826.309,519.943c-6.571-6.564-13.878-8.961-31.646-8.961h-59.396c-17.769,0-25.071,2.235-31.646,8.812
		c-9.979,9.736-15.587,28.525-15.587,75.51c0,46.986,5.606,65.9,15.587,75.644c6.565,6.58,13.871,8.621,31.646,8.621h59.396
		c17.771,0,25.069-1.979,31.646-8.558c9.979-9.742,15.586-28.271,15.586-75.254C841.895,548.781,836.285,529.686,826.309,519.943z
		 M786.38,639.553c-1.452,1.455-3.889,1.564-11.197,1.564h-20.438c-7.315,0-9.741-0.109-11.203-1.564v0.002
		c-1.699-1.703-2.923-6.614-2.923-44.108c0-37.246,1.227-42.396,2.919-44.101c1.466-1.457,3.889-1.914,11.211-1.914h20.438
		c7.308,0,9.744,0.361,11.193,1.82c1.696,1.709,2.922,6.936,2.922,44.182C789.302,632.676,788.076,637.85,786.38,639.553z"/>
</g>
<g>
	<path fill="#FF723C" d="M0,510.982v168.586h168.586V510.982H0z M140.489,614.5h-36.971v36.971H65.069V614.5H28.098v-38.449h36.971
		v-36.973h38.449v36.973h36.971L140.489,614.5L140.489,614.5z"/>
</g>
</svg>
