<?xml version="1.0" encoding="utf-8"?>
<!-- Generator: Adobe Illustrator 15.1.0, SVG Export Plug-In . SVG Version: 6.00 Build 0)  -->
<!DOCTYPE svg PUBLIC "-//W3C//DTD SVG 1.1//EN" "http://www.w3.org/Graphics/SVG/1.1/DTD/svg11.dtd">
<svg version="1.1" id="Layer_1" xmlns="http://www.w3.org/2000/svg" xmlns:xlink="http://www.w3.org/1999/xlink" x="0px" y="0px"
	 width="284.648px" height="57px" viewBox="0 0 284.648 57" enable-background="new 0 0 284.648 57" xml:space="preserve">
<rect fill="#F37342" width="57" height="57"/>
<path fill="#010101" d="M119.859,42.033c0,5.68-1.577,9.253-4.21,11.888C113.26,56.308,110.205,57,105.512,57H66.256V45h6V13h-6V0
	h39.338c5.103,0,7.737,0.81,9.961,3.031c2.632,2.717,3.729,6.62,3.729,11.065c0,8.726-3.028,12.215-9.028,13.862v0.163
	C116.256,29.688,119.859,32.65,119.859,42.033z M98.27,23c1.399,0,1.974-0.278,2.468-0.771c0.576-0.658,0.987-1.909,0.987-4.79
	c0-2.799-0.328-4.036-0.905-4.612C100.408,12.414,99.833,12,98.27,12h-9.014v11H98.27z M89.256,45h9.26
	c1.481,0,2.142-0.166,2.716-0.742c0.577-0.576,0.989-1.153,0.989-4.94c0-3.703-0.33-4.683-0.989-5.339
	C100.658,33.4,99.998,33,98.516,33h-9.26V45z"/>
<path fill="#010101" d="M180.175,45h5.941v12H170.38c-3.455,0-4.69-0.364-5.68-1.351c-1.232-1.234-1.891-3.187-2.219-12.815
	c-0.165-4.281-0.414-5.146-1.238-5.969c-0.737-0.742-1.727-0.865-4.523-0.865h-5.604v9h6v12h-29V45h6V13h-6V0h38.974
	c4.936,0,8.147,0.727,10.371,2.95c2.55,2.551,3.206,5.713,3.206,12.874c0,10.207-2.551,12.629-9.551,13.944v0.166
	c6,1.316,8.645,3.417,8.727,11.731C179.843,42.653,180.093,44,180.175,45z M158.365,24c2.387,0,3.292-0.243,3.783-0.736
	c0.744-0.824,0.908-2.097,0.908-5.06c0-2.964-0.164-4.46-0.908-5.283c-0.491-0.494-1.396-0.921-3.783-0.921h-7.249v12H158.365z"/>
<path fill="#010101" d="M224.372,45v12h-30V45h7V13h-7V0h30v13h-7v32H224.372z"/>
<path fill="#010101" d="M268.68,0c6.008,0,8.478,0.81,10.702,3.031c3.374,3.293,5.267,9.748,5.267,25.632
	c0,15.886-1.893,22.152-5.267,25.445C277.157,56.331,274.688,57,268.68,57h-20.083c-6.007,0-8.478-0.692-10.7-2.915
	c-3.374-3.293-5.268-9.688-5.268-25.575c0-15.885,1.894-22.238,5.268-25.531C240.119,0.757,242.59,0,248.597,0H268.68z
	 M251.396,43.47c0.494,0.492,1.315,0.53,3.788,0.53h6.911c2.471,0,3.294-0.038,3.787-0.53c0.574-0.576,0.988-2.325,0.988-14.918
	s-0.414-14.36-0.988-14.937c-0.493-0.493-1.316-0.615-3.787-0.615h-6.911c-2.473,0-3.294,0.154-3.788,0.647
	c-0.574,0.576-0.988,2.317-0.988,14.91C250.407,41.234,250.821,42.894,251.396,43.47z"/>
<path fill="#F37342" d="M-105.667,25.333v57h58v-57H-105.667z M-56.667,60.334h-13v13h-13v-13h-13v-12h13v-13h13v13h13V60.334z"/>
<polygon fill="#FFFFFF" points="47.5,22 35,22 35,9.5 22,9.5 22,22 9.5,22 9.5,35 22,35 22,47.5 35,47.5 35,35 47.5,35 "/>
</svg>
