<?xml version="1.0" encoding="utf-8"?>
<!-- Generator: Adobe Illustrator 15.1.0, SVG Export Plug-In . SVG Version: 6.00 Build 0)  -->
<!DOCTYPE svg PUBLIC "-//W3C//DTD SVG 1.1//EN" "http://www.w3.org/Graphics/SVG/1.1/DTD/svg11.dtd">
<svg version="1.1" id="Layer_1" xmlns="http://www.w3.org/2000/svg" xmlns:xlink="http://www.w3.org/1999/xlink" x="0px" y="0px"
	 width="401px" height="549px" viewBox="0 0 401 549" enable-background="new 0 0 401 549" xml:space="preserve">
<path fill="#4BB25C" d="M0,47.669V484h401V47.669L361,0H40L0,47.669z M200.289,77.059c-14.467,0-26.196-11.729-26.196-26.196
	c0-14.467,11.729-26.196,26.196-26.196c14.468,0,26.196,11.729,26.196,26.196C226.485,65.33,214.757,77.059,200.289,77.059z"/>
<rect x="4" y="138" fill="#FFFFFF" width="393" height="348"/>
<rect x="45.229" y="63.145" fill="none" width="117.347" height="42.347"/>
<text transform="matrix(1 0 0 1 96.0928 94.1396)" fill="#FFFFFF" font-family="'Vitesse-BoldItalic'" font-size="42">Air</text>
<path fill="#4BB25C" d="M0.167,546.501c1.886,0,3.501,1.022,4.298,2.499h4.339c0.796-1.477,2.413-2.499,4.298-2.499
	s3.501,1.022,4.298,2.499h4.339c0.796-1.477,2.413-2.499,4.298-2.499c1.885,0,3.501,1.022,4.297,2.499h4.339
	c0.796-1.477,2.413-2.499,4.298-2.499s3.501,1.022,4.298,2.499h4.339c0.797-1.477,2.413-2.499,4.298-2.499s3.501,1.022,4.298,2.499
	h4.34c0.796-1.477,2.413-2.499,4.298-2.499s3.501,1.022,4.298,2.499h4.339c0.796-1.477,2.413-2.499,4.298-2.499
	c1.885,0,3.501,1.022,4.297,2.499h4.34c0.796-1.477,2.412-2.499,4.298-2.499s3.501,1.022,4.298,2.499h4.34
	c0.796-1.477,2.412-2.499,4.298-2.499s3.501,1.022,4.298,2.499h4.34c0.796-1.477,2.412-2.499,4.298-2.499
	c1.886,0,3.502,1.022,4.299,2.499h4.339c0.796-1.477,2.412-2.499,4.298-2.499s3.502,1.022,4.298,2.499h4.338
	c0.796-1.477,2.413-2.499,4.299-2.499c1.886,0,3.502,1.022,4.298,2.499h4.339c0.796-1.477,2.413-2.499,4.298-2.499
	s3.501,1.022,4.298,2.499h4.34c0.796-1.477,2.413-2.499,4.298-2.499c1.885,0,3.501,1.022,4.297,2.499h4.339
	c0.796-1.477,2.413-2.499,4.298-2.499s3.501,1.022,4.298,2.499h4.339c0.797-1.477,2.413-2.499,4.299-2.499
	c1.886,0,3.501,1.022,4.298,2.499h4.339c0.796-1.477,2.413-2.499,4.298-2.499s3.501,1.022,4.297,2.499h4.341
	c0.796-1.477,2.411-2.499,4.298-2.499c1.886,0,3.502,1.022,4.298,2.499h4.339c0.797-1.477,2.413-2.499,4.299-2.499
	c1.885,0,3.501,1.022,4.298,2.499h4.339c0.797-1.477,2.412-2.499,4.299-2.499c1.885,0,3.501,1.022,4.298,2.499h4.339
	c0.797-1.477,2.413-2.499,4.299-2.499c1.885,0,3.501,1.022,4.298,2.499h4.339c0.797-1.477,2.412-2.499,4.299-2.499
	c1.886,0,3.501,1.022,4.297,2.499h4.34c0.797-1.477,2.412-2.499,4.299-2.499c1.885,0,3.501,1.022,4.297,2.499h4.34
	c0.796-1.477,2.412-2.499,4.298-2.499s3.502,1.022,4.298,2.499h4.34c0.796-1.477,2.412-2.499,4.298-2.499s3.502,1.022,4.298,2.499
	h4.34c0.796-1.477,2.412-2.499,4.298-2.499s3.502,1.022,4.298,2.499h4.34c0.796-1.477,2.412-2.499,4.298-2.499
	s3.502,1.022,4.298,2.499h4.34c0.796-1.477,2.412-2.499,4.298-2.499s3.502,1.022,4.298,2.499h4.34
	c0.796-1.477,2.412-2.499,4.298-2.499s3.502,1.022,4.298,2.499h4.34c0.796-1.477,2.412-2.499,4.298-2.499s3.502,1.022,4.298,2.499
	h4.34c0.796-1.477,2.412-2.499,4.298-2.499s3.502,1.022,4.298,2.499h4.34c0.772-1.432,2.317-2.424,4.131-2.483V484H0v62.517
	C0.057,546.516,0.11,546.501,0.167,546.501z"/>
<rect x="-13.013" y="93.718" fill="none" width="355.18" height="42.347"/>
<text transform="matrix(1 0 0 1 56.4043 124.7134)" fill="#FFFFFF" font-family="'Vitesse-Bold'" font-size="42" letter-spacing="1">NewEngland</text>
<path fill="#21662C" d="M200.5,88.143c-20.785,0-37.694-16.91-37.694-37.694s16.91-37.694,37.694-37.694
	c20.785,0,37.694,16.91,37.694,37.694S221.285,88.143,200.5,88.143z M200.5,26.88c-12.996,0-23.568,10.572-23.568,23.568
	s10.572,23.568,23.568,23.568s23.567-10.573,23.567-23.568S213.496,26.88,200.5,26.88z"/>
<rect x="34.684" y="307.528" fill="none" width="331.632" height="26.021"/>
<text transform="matrix(1 0 0 1 41.2734 320.668)" fill="#4BB25C" font-family="'Gotham-Medium'" font-size="18" letter-spacing="7">MOUNT WASHINGTON</text>
<rect x="34.684" y="333.549" fill="none" width="331.632" height="26.021"/>
<text transform="matrix(1 0 0 1 88.8833 346.6885)" fill="#4BB25C" font-family="'Gotham-Medium'" font-size="18" letter-spacing="1">New Hampshire, USA</text>
<g>
	<path fill="#FFFFFF" d="M94.293,507.707V506.1h12.697v4.92h-1.776v-3.312h-6.769v5.904h4.968v1.561h-4.968v6.121h2.52v1.607h-6.672
		v-1.607h2.352v-13.586H94.293z"/>
	<path fill="#FFFFFF" d="M118.269,506.795c0.456-0.455,1.2-0.695,2.52-0.695h4.729c1.224,0,1.92,0.217,2.4,0.695
		c0.648,0.648,1.008,1.537,1.008,3.602c0,2.496-0.816,3.359-2.208,3.768v0.023c1.704,0.361,2.352,1.32,2.352,3.938
		c0,2.592-0.432,3.48-1.008,4.057c-0.504,0.504-1.2,0.719-2.448,0.719h-4.92c-1.224,0-2.016-0.191-2.544-0.695
		c-0.72-0.744-0.96-1.68-1.032-4.537h1.848c0.072,2.16,0.24,2.832,0.576,3.168c0.264,0.266,0.6,0.385,1.464,0.385h4.128
		c0.744,0,1.2-0.072,1.488-0.359c0.288-0.289,0.504-0.865,0.504-2.736c0-1.873-0.24-2.424-0.552-2.762
		c-0.288-0.287-0.72-0.406-1.536-0.406h-3.769v-1.561h3.625c0.864,0,1.272-0.145,1.536-0.408c0.288-0.289,0.552-0.912,0.552-2.449
		c0-1.559-0.264-2.111-0.528-2.4c-0.264-0.238-0.696-0.359-1.44-0.359h-3.864c-0.912,0-1.224,0.121-1.488,0.359
		c-0.336,0.361-0.504,1.08-0.576,2.881h-1.848C117.309,508.787,117.501,507.564,118.269,506.795z"/>
	<path fill="#FFFFFF" d="M140.997,506.795c0.456-0.455,1.2-0.695,2.52-0.695h4.729c1.224,0,1.92,0.217,2.4,0.695
		c0.648,0.648,1.008,1.537,1.008,3.602c0,2.496-0.816,3.359-2.208,3.768v0.023c1.704,0.361,2.352,1.32,2.352,3.938
		c0,2.592-0.432,3.48-1.008,4.057c-0.504,0.504-1.2,0.719-2.448,0.719h-4.92c-1.224,0-2.016-0.191-2.544-0.695
		c-0.72-0.744-0.96-1.68-1.032-4.537h1.848c0.072,2.16,0.24,2.832,0.576,3.168c0.264,0.266,0.6,0.385,1.464,0.385h4.128
		c0.744,0,1.2-0.072,1.488-0.359c0.288-0.289,0.504-0.865,0.504-2.736c0-1.873-0.24-2.424-0.552-2.762
		c-0.288-0.287-0.72-0.406-1.536-0.406h-3.769v-1.561h3.625c0.864,0,1.272-0.145,1.536-0.408c0.288-0.289,0.552-0.912,0.552-2.449
		c0-1.559-0.264-2.111-0.528-2.4c-0.264-0.238-0.696-0.359-1.44-0.359h-3.864c-0.912,0-1.224,0.121-1.488,0.359
		c-0.336,0.361-0.504,1.08-0.576,2.881h-1.848C140.037,508.787,140.229,507.564,140.997,506.795z"/>
	<path fill="#FFFFFF" d="M172.533,516.443h2.952v1.465h-2.952v3.457h2.952v1.535h-7.92v-1.535h3.216v-3.457h-8.833v-0.695
		c0-0.48,0.096-0.793,0.408-1.225l6.528-9.072c0.408-0.576,0.696-0.816,1.272-0.816h2.376V516.443z M170.781,507.564h-0.408
		l-6.409,8.879h6.817V507.564z"/>
	<path fill="#FFFFFF" d="M196.845,506.916c0.672,0.672,1.008,1.535,1.008,3.553c0,2.424-0.84,3.264-2.16,3.695v0.023
		c1.608,0.361,2.352,1.416,2.352,4.08c0,2.186-0.384,3.121-1.056,3.793c-0.6,0.6-1.44,0.84-2.664,0.84h-4.8
		c-1.224,0-2.064-0.24-2.665-0.84c-0.672-0.672-1.056-1.607-1.056-3.793c0-2.664,0.744-3.719,2.352-4.08v-0.023
		c-1.32-0.432-2.16-1.271-2.16-3.695c0-2.018,0.336-2.881,1.008-3.553c0.6-0.6,1.417-0.816,2.641-0.816h4.56
		C195.429,506.1,196.245,506.316,196.845,506.916z M187.748,518.197c0,1.871,0.264,2.375,0.552,2.664
		c0.288,0.287,0.648,0.432,1.512,0.432h4.224c0.864,0,1.224-0.145,1.512-0.432c0.288-0.289,0.552-0.793,0.552-2.664
		c0-1.777-0.24-2.449-0.6-2.785c-0.312-0.312-0.672-0.48-1.608-0.48h-3.96c-0.912,0-1.272,0.168-1.584,0.48
		C187.988,515.748,187.748,516.42,187.748,518.197z M187.916,510.516c0,1.584,0.264,2.137,0.576,2.424
		c0.288,0.312,0.696,0.48,1.608,0.48h3.648c0.912,0,1.32-0.168,1.608-0.48c0.288-0.287,0.576-0.84,0.576-2.424
		c0-1.607-0.264-2.064-0.576-2.377c-0.24-0.264-0.624-0.432-1.488-0.432h-3.888c-0.864,0-1.248,0.168-1.488,0.432
		C188.18,508.451,187.916,508.908,187.916,510.516z"/>
	<path fill="#FFFFFF" d="M218.276,520.812c0.36-0.359,0.552-1.08,0.552-3.119c0-2.041-0.216-2.736-0.552-3.072
		c-0.288-0.312-0.744-0.457-1.536-0.457h-2.64c-1.2,0-2.064,0.264-3.409,1.152l-1.607-0.576l0.576-8.641h10.681v1.68h-9.025
		l-0.407,5.881h0.168c1.032-0.84,1.704-1.129,3.264-1.129h2.736c1.368,0,2.112,0.217,2.664,0.77
		c0.769,0.768,1.009,1.727,1.009,4.393c0,2.664-0.288,3.672-1.009,4.391c-0.552,0.553-1.271,0.816-2.592,0.816h-4.921
		c-1.199,0-2.04-0.215-2.544-0.695c-0.647-0.648-0.888-1.344-0.912-4.152h1.872c0.024,2.111,0.192,2.543,0.456,2.832
		c0.265,0.264,0.672,0.359,1.393,0.359h4.344C217.58,521.244,218.013,521.076,218.276,520.812z"/>
	<path fill="#FFFFFF" d="M233.443,522.9l7.393-15.24h-8.16v3.504h-1.752V506.1H242.9v1.225l-7.488,15.576H233.443z"/>
	<path fill="#FFFFFF" d="M263.853,506.916c0.672,0.672,1.008,1.535,1.008,3.553c0,2.424-0.84,3.264-2.16,3.695v0.023
		c1.608,0.361,2.353,1.416,2.353,4.08c0,2.186-0.385,3.121-1.057,3.793c-0.6,0.6-1.439,0.84-2.664,0.84h-4.801
		c-1.224,0-2.063-0.24-2.664-0.84c-0.672-0.672-1.056-1.607-1.056-3.793c0-2.664,0.744-3.719,2.352-4.08v-0.023
		c-1.319-0.432-2.16-1.271-2.16-3.695c0-2.018,0.337-2.881,1.009-3.553c0.6-0.6,1.416-0.816,2.64-0.816h4.561
		C262.437,506.1,263.252,506.316,263.853,506.916z M254.756,518.197c0,1.871,0.264,2.375,0.552,2.664
		c0.288,0.287,0.648,0.432,1.512,0.432h4.225c0.864,0,1.225-0.145,1.513-0.432c0.287-0.289,0.552-0.793,0.552-2.664
		c0-1.777-0.24-2.449-0.601-2.785c-0.312-0.312-0.672-0.48-1.607-0.48h-3.961c-0.912,0-1.271,0.168-1.584,0.48
		C254.995,515.748,254.756,516.42,254.756,518.197z M254.924,510.516c0,1.584,0.264,2.137,0.576,2.424
		c0.287,0.312,0.695,0.48,1.607,0.48h3.648c0.912,0,1.32-0.168,1.608-0.48c0.288-0.287,0.576-0.84,0.576-2.424
		c0-1.607-0.265-2.064-0.576-2.377c-0.24-0.264-0.624-0.432-1.488-0.432h-3.889c-0.863,0-1.248,0.168-1.487,0.432
		C255.188,508.451,254.924,508.908,254.924,510.516z"/>
	<path fill="#FFFFFF" d="M277.818,518.365c0.072,1.703,0.168,2.16,0.504,2.471c0.312,0.312,0.696,0.408,1.44,0.408h4.032
		c1.032,0,1.345-0.215,1.633-0.479c0.432-0.434,0.744-1.369,0.768-5.977c-1.44,1.055-1.968,1.295-3.072,1.295h-3.36
		c-1.464,0-2.376-0.215-2.977-0.816c-0.672-0.672-0.96-1.512-0.96-4.104c0-2.496,0.36-3.48,1.08-4.201
		c0.576-0.6,1.44-0.863,2.736-0.863h4.488c1.44,0,2.16,0.287,2.713,0.84c0.888,0.912,1.271,2.111,1.271,7.561
		c0,5.209-0.456,6.602-1.344,7.514c-0.624,0.623-1.416,0.887-3.048,0.887h-4.297c-1.296,0-2.016-0.24-2.544-0.744
		c-0.672-0.648-0.889-1.463-0.912-3.791H277.818z M286.195,513.709c-0.023-4.25-0.264-5.018-0.72-5.473
		c-0.312-0.312-0.696-0.48-1.656-0.48h-3.984c-0.792,0-1.225,0.119-1.561,0.455c-0.312,0.312-0.552,0.984-0.552,2.93
		c0,2.016,0.168,2.496,0.528,2.879c0.288,0.289,0.72,0.457,1.752,0.457h3.648C284.491,514.477,285.188,514.236,286.195,513.709z"/>
	<path fill="#FFFFFF" d="M310.292,513.396c-0.384,0.504-1.057,0.912-2.305,1.416l-5.16,2.039c-0.672,0.289-1.08,0.553-1.344,0.816
		c-0.36,0.361-0.553,0.889-0.553,2.305v1.32h8.593v-3.625h1.752v5.232h-12.12v-2.711c0-2.186,0.264-2.93,0.96-3.625
		c0.407-0.408,0.912-0.768,2.088-1.248l5.208-2.064c0.889-0.359,1.129-0.623,1.345-0.889c0.288-0.336,0.432-0.719,0.432-2.064
		c0-1.248-0.12-1.822-0.504-2.16c-0.24-0.264-0.648-0.383-1.393-0.383h-4.032c-0.792,0-1.128,0.145-1.392,0.408
		c-0.288,0.287-0.456,0.744-0.48,2.879h-1.848c0.023-2.76,0.312-3.551,0.983-4.199c0.48-0.504,1.249-0.744,2.545-0.744h4.44
		c1.368,0,2.088,0.24,2.616,0.768c0.672,0.672,0.912,1.512,0.912,3.361C311.036,512.076,310.868,512.699,310.292,513.396z"/>
</g>
<line fill="none" stroke="#4BB25C" stroke-miterlimit="10" x1="34" y1="391.5" x2="367" y2="391.5"/>
<rect x="34" y="398.739" fill="none" width="115.816" height="17.857"/>
<text transform="matrix(1 0 0 1 34 409.0713)" fill="#4BB25C" font-family="'Forza-Bold'" font-size="14">GATE N0.</text>
<rect x="163.479" y="409.59" fill="none" width="178.667" height="59.333"/>
<text transform="matrix(1 0 0 1 163.4785 456.8223)" fill="#B3B3B3" font-family="'BradleyHandITCTT-Bold'" font-size="72" letter-spacing="3">14</text>
<g>
	<path fill="#4BB25C" d="M39.958,171.44h30.561L86.839,206l16.48-34.561h30.561v112.002h-30.4v-53.121l-16.48,33.44h-0.32
		l-16.48-33.44v53.121h-30.24V171.44z"/>
	<path fill="#4BB25C" d="M145.557,171.44h32.801l8.8,58.241l10.561-58.401h26.08l10.561,58.401l8.801-58.241h32.32l-23.521,112.323
		h-30.561l-10.879-49.122l-10.881,49.122h-30.561L145.557,171.44z"/>
	<g>
		<path fill="#4BB25C" d="M296.49,171.317h35.239l29.313,112.446h-32.196l-3.523-17.139h-23.065l-3.524,17.139h-31.556
			L296.49,171.317z M320.197,242.276l-6.407-31.555l-6.407,31.555H320.197z"/>
	</g>
</g>
</svg>
