<?xml version="1.0" encoding="utf-8"?>
<!-- Generator: Adobe Illustrator 15.1.0, SVG Export Plug-In . SVG Version: 6.00 Build 0)  -->
<!DOCTYPE svg PUBLIC "-//W3C//DTD SVG 1.1//EN" "http://www.w3.org/Graphics/SVG/1.1/DTD/svg11.dtd">
<svg version="1.1" id="Layer_1" xmlns="http://www.w3.org/2000/svg" xmlns:xlink="http://www.w3.org/1999/xlink" x="0px" y="0px"
	 width="599.17px" height="64.79px" viewBox="0 0 599.17 64.79" enable-background="new 0 0 599.17 64.79" xml:space="preserve">
<polygon fill="#F1F1F1" points="17.957,41.797 8.979,26.247 0,41.797 4.285,39.517 8.847,41.797 12.233,38.542 "/>
<polygon fill="#F1F1F1" points="334.368,41.484 325.39,25.933 316.411,41.484 320.694,39.204 325.258,41.484 328.644,38.227 "/>
<polygon fill="#F1F1F1" points="108.695,23.373 104.089,15.393 99.481,23.373 101.68,22.203 104.021,23.373 105.758,21.702 "/>
<polygon fill="#F1F1F1" points="437.562,25.223 432.956,17.243 428.348,25.223 430.546,24.053 432.888,25.223 434.625,23.552 "/>
<polygon fill="#F1F1F1" points="90.949,64.79 61.166,12.799 32.706,62.266 46.12,56.616 61.166,63.229 73.852,56.364 "/>
<polygon fill="#F1F1F1" points="400.263,62.94 370.479,10.949 342.021,60.417 355.435,54.765 370.479,61.379 383.166,54.514 "/>
<polygon fill="#F1F1F1" points="141.171,19.436 150.149,3.884 159.128,19.436 154.843,17.154 150.281,19.436 146.895,16.178 "/>
<polygon fill="#F1F1F1" points="458.679,19.85 467.657,4.298 476.636,19.85 472.351,17.568 467.789,19.85 464.403,16.592 "/>
<polygon fill="#F1F1F1" points="272.536,23.704 277.142,15.724 281.75,23.704 279.551,22.533 277.209,23.704 275.472,22.033 "/>
<polygon fill="#F1F1F1" points="589.956,21.809 594.562,13.829 599.17,21.809 596.971,20.638 594.629,21.809 592.893,20.138 "/>
<polygon fill="#F1F1F1" points="196.668,52.243 226.451,0.251 254.912,49.717 241.498,44.067 226.451,50.682 213.766,43.816 "/>
<polygon fill="#F1F1F1" points="499.487,51.991 529.27,0 557.731,49.467 544.317,43.815 529.27,50.43 516.584,43.564 "/>
</svg>
