<?xml version="1.0" encoding="utf-8"?>
<!-- Generator: Adobe Illustrator 15.1.0, SVG Export Plug-In . SVG Version: 6.00 Build 0)  -->
<!DOCTYPE svg PUBLIC "-//W3C//DTD SVG 1.1//EN" "http://www.w3.org/Graphics/SVG/1.1/DTD/svg11.dtd">
<svg version="1.1" id="Layer_1" xmlns="http://www.w3.org/2000/svg" xmlns:xlink="http://www.w3.org/1999/xlink" x="0px" y="0px"
	 width="600px" height="84px" viewBox="-0.415 -23.158 600 84" enable-background="new -0.415 -23.158 600 84" xml:space="preserve"
	>
<polygon fill="#EEEEEE" points="164.928,44.719 155.95,29.168 146.971,44.719 151.254,42.438 155.818,44.719 159.204,41.461 "/>
<polygon fill="#EEEEEE" points="419.022,33.159 414.416,25.179 409.808,33.159 412.007,31.989 414.349,33.159 416.085,31.488 "/>
<polygon fill="#EEEEEE" points="313.778,0.422 309.173,-7.558 304.565,0.422 306.765,-0.748 309.104,0.422 310.842,-1.249 "/>
<polygon fill="#EEEEEE" points="25.36,37.699 20.754,29.719 16.146,37.699 18.345,36.529 20.686,37.699 22.423,36.028 "/>
<polygon fill="#EEEEEE" points="90.949,64.79 61.166,12.799 32.706,62.266 46.12,56.616 61.166,63.229 73.852,56.364 "/>
<polygon fill="#EEEEEE" points="400.263,62.94 370.479,10.949 342.021,60.417 355.435,54.765 370.479,61.379 383.166,54.514 "/>
<polygon fill="#EEEEEE" points="458.679,19.85 467.657,4.298 476.636,19.85 472.351,17.568 467.789,19.85 464.403,16.592 "/>
<polygon fill="#EEEEEE" points="196.668,52.243 226.451,0.251 254.912,49.717 241.498,44.067 226.451,50.682 213.766,43.816 "/>
<polygon fill="#EEEEEE" points="499.487,51.991 529.27,0 557.731,49.467 544.317,43.815 529.27,50.43 516.584,43.564 "/>
<path fill="#EEEEEE" d="M196.668-20.385c0,0,6.352,0.518,5.575,6.741c0,0,6.74-4.926,9.592-0.259c0,0-2.463-5.704-8.426-2.852
	C203.409-16.756,202.372-21.941,196.668-20.385z"/>
<path fill="#EEEEEE" d="M427.667-3.32c0,0,5.419,0.442,4.756,5.75c0,0,5.75-4.202,8.184-0.221c0,0-2.102-4.866-7.188-2.433
	C433.419-0.224,432.534-4.646,427.667-3.32z"/>
</svg>
