<?xml version="1.0" encoding="utf-8"?>
<!-- Generator: Adobe Illustrator 15.1.0, SVG Export Plug-In . SVG Version: 6.00 Build 0)  -->
<!DOCTYPE svg PUBLIC "-//W3C//DTD SVG 1.1//EN" "http://www.w3.org/Graphics/SVG/1.1/DTD/svg11.dtd">
<svg version="1.1" id="Layer_1" xmlns="http://www.w3.org/2000/svg" xmlns:xlink="http://www.w3.org/1999/xlink" x="0px" y="0px"
	 width="323.631px" height="183.582px" viewBox="0 0 323.631 183.582" enable-background="new 0 0 323.631 183.582"
	 xml:space="preserve">
<line fill="none" stroke="#B4B4B4" x1="24.549" y1="90" x2="24.549" y2="0"/>
<line fill="none" stroke="#B4B4B4" x1="113.549" y1="122" x2="113.549" y2="0"/>
<line fill="none" stroke="#B4B4B4" x1="202.549" y1="105" x2="202.549" y2="0"/>
<line fill="none" stroke="#B4B4B4" x1="291.549" y1="122" x2="291.549" y2="0"/>
<g display="none">
	<circle display="inline" fill="#F37342" cx="25.049" cy="111" r="25.049"/>
	<g display="inline">
		<path fill="#FFFFFF" d="M26.163,102.849l4.199,17.779h0.535l3.719-17.216h-2.846v-1.24h6.706v1.24H35.94l-3.973,17.836
			c-0.113,0.563-0.395,0.733-1.127,0.733h-0.62c-0.732,0-0.986-0.142-1.127-0.762l-4.17-17.751h-0.507l-4.198,17.751
			c-0.112,0.62-0.366,0.762-1.099,0.762h-0.648c-0.733,0-0.986-0.17-1.127-0.733l-3.973-17.836h-2.536v-1.24h6.791v1.24h-2.818
			l3.719,17.216h0.536l4.198-17.779c0.113-0.62,0.395-0.761,1.127-0.761h0.648C25.769,102.088,26.051,102.229,26.163,102.849z"/>
	</g>
</g>
<g display="none">
	<circle display="inline" fill="#05A5B6" cx="113.049" cy="139" r="20.53"/>
	<g display="inline">
		<path fill="#FFFFFF" d="M115.612,130.917c1.386,0,1.939,0.186,2.401,0.646c0.762,0.786,1.108,1.94,1.108,7.437
			s-0.346,6.651-1.108,7.437c-0.462,0.461-1.016,0.646-2.401,0.646h-5.127c-1.386,0-1.939-0.186-2.402-0.646
			c-0.762-0.785-1.108-1.94-1.108-7.437s0.346-6.65,1.108-7.437c0.462-0.461,1.016-0.646,2.402-0.646H115.612z M108.938,145.604
			c0.277,0.277,0.6,0.438,1.708,0.438h4.803c1.109,0,1.432-0.161,1.709-0.438c0.462-0.462,0.739-1.408,0.739-6.604
			c0-5.195-0.277-6.143-0.739-6.604c-0.277-0.277-0.6-0.438-1.709-0.438h-4.803c-1.108,0-1.432,0.161-1.708,0.438
			c-0.462,0.462-0.739,1.409-0.739,6.604C108.199,144.196,108.476,145.143,108.938,145.604z"/>
	</g>
</g>
<g display="none">
	<circle display="inline" fill="#4CB25C" cx="201.049" cy="122" r="21.381"/>
	<g display="inline">
		<path fill="#FFFFFF" d="M206.22,129.359h2.501v1.059h-2.573c-0.481,0-0.721-0.072-0.89-0.241c-0.265-0.264-0.36-0.625-0.457-4.064
			c-0.072-1.924-0.288-2.477-0.649-2.837c-0.385-0.409-0.914-0.578-1.948-0.578h-5.194v6.662h2.573v1.059h-6.205v-1.059h2.429
			v-14.719h-2.429v-1.059h9.283c1.227,0,1.948,0.168,2.478,0.722c0.649,0.649,1.034,1.419,1.034,3.824
			c0,2.886-0.818,3.68-2.309,4.064v0.048c1.563,0.313,2.044,0.962,2.164,3.849C206.123,128.301,206.147,128.782,206.22,129.359z
			 M202.371,121.688c0.987,0,1.468-0.217,1.805-0.554c0.337-0.336,0.745-0.938,0.745-2.981c0-2.068-0.36-2.694-0.722-3.055
			c-0.336-0.336-0.865-0.457-1.779-0.457h-5.411v7.047H202.371z"/>
	</g>
</g>
<g display="none">
	<circle display="inline" fill="#ED1A3E" cx="292.049" cy="152" r="31.582"/>
	<g display="inline">
		<path fill="#FFFFFF" d="M289.65,152.284h-3.623v10.587h3.838v1.563h-9.203v-1.563h3.59v-21.742h-3.59v-1.563h9.203v1.563h-3.838
			v9.628h3.589l8.454-9.663h-3.589v-1.528h8.705v1.563h-3.092L291,151.361l9.237,11.51h3.198v1.563h-8.883v-1.528h3.553
			L289.65,152.284z"/>
	</g>
</g>
</svg>
