<?xml version="1.0" encoding="utf-8"?>
<!-- Generator: Adobe Illustrator 15.1.0, SVG Export Plug-In . SVG Version: 6.00 Build 0)  -->
<!DOCTYPE svg PUBLIC "-//W3C//DTD SVG 1.1//EN" "http://www.w3.org/Graphics/SVG/1.1/DTD/svg11.dtd">
<svg version="1.1" id="Layer_1" xmlns="http://www.w3.org/2000/svg" xmlns:xlink="http://www.w3.org/1999/xlink" x="0px" y="0px"
	 width="314px" height="398px" viewBox="0 0 314 398" enable-background="new 0 0 314 398" xml:space="preserve">
<path fill="#FFFFFF" d="M82.614,208.646c-29.827,0-37.644,68.5-37.644,68.5s51.967,0,175.17,0
	c-7.328-35.893-13.638-68.5-13.638-68.5S112.439,208.646,82.614,208.646z"/>
<path fill="#FFFFFF" d="M227.829,208.646l14.92,68.5h39.868C282.617,277.146,279.701,215.221,227.829,208.646z"/>
<g>
	<path fill="#CCCCCC" d="M242.264,193.5H71.737C33.967,216.939,9.312,255.532,9.312,299.174c0,39.245,19.938,74.403,51.419,98.14
		h192.535c31.482-23.736,51.421-58.895,51.421-98.14C304.688,255.532,280.033,216.939,242.264,193.5z M51.573,284.229
		c0,0,7.356-64.463,35.425-64.463c28.067,0,116.589,0,116.589,0s5.936,30.686,12.832,64.463
		C100.478,284.229,51.573,284.229,51.573,284.229z M237.695,284.229l-14.041-64.463c48.814,6.187,51.559,64.463,51.559,64.463
		H237.695z"/>
	<polygon fill="#CCCCCC" points="164.528,171.811 164.528,49.938 149.471,49.938 149.472,171.811 75.599,171.811 75.599,186.868 
		238.401,186.868 238.401,171.811 	"/>
</g>
<g>
	<circle fill="#ED1A3E" cx="91.717" cy="24.889" r="13.977"/>
	<circle fill="#4CB25C" cx="135.239" cy="24.888" r="13.976"/>
	<circle fill="#05A5B6" cx="178.76" cy="24.888" r="13.977"/>
	<circle fill="#F37342" cx="222.281" cy="24.888" r="13.977"/>
</g>
<g>
	<rect x="135.123" y="322.5" fill="#FFFFFF" width="43.754" height="43"/>
	<path fill="#FF723C" d="M135.123,322.5v43h43.754v-43H135.123z M172.088,348.903h-9.808v9.808h-9.807v-9.808h-9.807v-9.053h9.807
		v-9.807h9.807v9.807h9.808V348.903z"/>
</g>
</svg>
