<?xml version="1.0" encoding="utf-8"?>
<!-- Generator: Adobe Illustrator 15.1.0, SVG Export Plug-In . SVG Version: 6.00 Build 0)  -->
<!DOCTYPE svg PUBLIC "-//W3C//DTD SVG 1.1//EN" "http://www.w3.org/Graphics/SVG/1.1/DTD/svg11.dtd">
<svg version="1.1" id="Layer_1" xmlns="http://www.w3.org/2000/svg" xmlns:xlink="http://www.w3.org/1999/xlink" x="0px" y="0px"
	 width="314px" height="398px" viewBox="0 0 314 398" enable-background="new 0 0 314 398" xml:space="preserve">
<path fill="#262626" d="M183.605,157.687h22.276C194.266,157.571,187.296,157.625,183.605,157.687z"/>
<path fill="#FFFFFF" d="M82.614,208.646c-29.827,0-37.644,68.5-37.644,68.5s51.967,0,175.17,0
	c-7.328-35.892-13.637-68.5-13.637-68.5S112.439,208.646,82.614,208.646z"/>
<path fill="#FFFFFF" d="M227.829,208.646l14.92,68.5h39.868C282.617,277.146,279.701,215.221,227.829,208.646z"/>
<path fill="#231F20" d="M247.604,180.735H66.397C26.261,205.643,0.062,246.652,0.062,293.027c0,41.703,21.186,79.064,54.64,104.286
	h204.594c33.454-25.222,54.642-62.583,54.642-104.286C313.938,246.652,287.739,205.643,247.604,180.735z M44.97,277.146
	c0,0,7.817-68.5,37.644-68.5c29.825,0,123.891,0,123.891,0s6.308,32.608,13.636,68.5C96.937,277.146,44.97,277.146,44.97,277.146z
	 M242.749,277.146l-14.92-68.5c51.872,6.574,54.788,68.5,54.788,68.5H242.749z"/>
<path fill="#231F20" d="M242.421,157.687h-29.618c0.002,0.028,0.006,0.055,0.008,0.083c-2.477-0.034-4.776-0.062-6.928-0.083
	h-22.275c-2.403,0.04-3.424,0.083-3.424,0.083s0.012-0.033,0.027-0.083H69.421v16h173V157.687L242.421,157.687z"/>
<path fill="#231F20" d="M205.883,157.687h6.92c-6.336-72.524-53.884-122.933-53.884-122.933s0,0-14.565,15.097
	c49.07,64.709,36.507,105.845,35.857,107.836h3.396C187.296,157.625,194.266,157.571,205.883,157.687z"/>
<path fill="#262626" d="M212.811,157.77c-0.002-0.028-0.006-0.055-0.008-0.083h-6.92
	C208.033,157.708,210.334,157.736,212.811,157.77z"/>
<path fill="#262626" d="M183.605,157.687h-3.396c-0.017,0.05-0.026,0.083-0.026,0.083S181.203,157.727,183.605,157.687z"/>
<circle fill="#ED1A3E" cx="106.442" cy="8.91" r="8.222"/>
<circle fill="#4CB25C" cx="131.716" cy="8.909" r="8.221"/>
<circle fill="#05A5B6" cx="156.991" cy="8.909" r="8.222"/>
<rect x="127.5" y="306.5" fill="#FFFFFF" width="58" height="57"/>
<circle fill="#F37342" cx="182.266" cy="8.909" r="8.222"/>
<path fill="#FF723C" d="M127.5,306.5v57h58v-57H127.5z M176.5,341.5h-13v13h-13v-13h-13v-12h13v-13h13v13h13V341.5z"/>
</svg>
