<?xml version="1.0" encoding="utf-8"?>
<!-- Generator: Adobe Illustrator 15.1.0, SVG Export Plug-In . SVG Version: 6.00 Build 0)  -->
<!DOCTYPE svg PUBLIC "-//W3C//DTD SVG 1.1//EN" "http://www.w3.org/Graphics/SVG/1.1/DTD/svg11.dtd">
<svg version="1.1" id="Layer_1" xmlns="http://www.w3.org/2000/svg" xmlns:xlink="http://www.w3.org/1999/xlink" x="0px" y="0px"
	 width="314px" height="398px" viewBox="0 0 314 398" enable-background="new 0 0 314 398" xml:space="preserve">
<path fill="#FFFFFF" d="M82.614,208.646c-29.827,0-37.644,68.5-37.644,68.5s51.967,0,175.17,0
	c-7.328-35.893-13.638-68.5-13.638-68.5S112.439,208.646,82.614,208.646z"/>
<path fill="#FFFFFF" d="M227.829,208.646l14.92,68.5h39.868C282.617,277.146,279.701,215.221,227.829,208.646z"/>
<g>
	<path fill="#CCCCCC" d="M242.264,193.5H71.737C33.967,216.939,9.312,255.532,9.312,299.174c0,39.245,19.938,74.403,51.419,98.14
		h192.535c31.482-23.736,51.421-58.895,51.421-98.14C304.688,255.532,280.033,216.939,242.264,193.5z M51.573,284.229
		c0,0,7.356-64.463,35.425-64.463c28.067,0,116.589,0,116.589,0s5.936,30.686,12.832,64.463
		C100.478,284.229,51.573,284.229,51.573,284.229z M237.695,284.229l-14.041-64.463c48.814,6.187,51.559,64.463,51.559,64.463
		H237.695z"/>
	<polygon fill="#CCCCCC" points="164.528,171.811 164.528,49.938 149.471,49.938 149.472,171.811 75.599,171.811 75.599,186.868 
		238.401,186.868 238.401,171.811 	"/>
</g>
<g>
	<circle fill="#ED1A3E" cx="91.717" cy="24.889" r="13.977"/>
	<circle fill="#4CB25C" cx="135.239" cy="24.888" r="13.976"/>
	<circle fill="#05A5B6" cx="178.76" cy="24.888" r="13.977"/>
	<circle fill="#F37342" cx="222.281" cy="24.888" r="13.977"/>
</g>
<g>
	<rect x="-238.877" y="322.5" fill="#FFFFFF" width="43.754" height="43"/>
	<path fill="#FF723C" d="M-238.877,322.5v43h43.754v-43H-238.877z M-201.912,348.903h-9.808v9.808h-9.807v-9.808h-9.807v-9.053
		h9.807v-9.807h9.807v9.807h9.808V348.903z"/>
</g>
<g>
	<path fill="#FFFFFF" d="M102.771,327.493h-4.327v-2.843h11.414v2.843h-4.073v26.858h-3.734c-1.061,0-1.358-0.212-1.825-1.146
		l-11.965-24.864h-0.552v23.167h4.328v2.843H80.539v-2.843h4.158v-24.016h-4.158v-2.843h8.146c1.061,0,1.358,0.254,1.825,1.188
		l11.711,24.229h0.551V327.493z"/>
	<path fill="#FFFFFF" d="M121.91,327.493v-2.843h22.827v8.698h-3.14v-5.855H129.25v10.056h9.335v2.758h-9.335v11.202h12.602v-6.407
		h3.14v9.25H121.91v-2.843h4.158v-24.016H121.91z"/>
	<path fill="#FFFFFF" d="M181.439,325.838l5.856,25.374h0.679l4.837-23.719h-4.073v-2.843h10.607v2.843h-3.564l-5.601,25.713
		c-0.212,1.019-0.637,1.272-1.824,1.272h-1.952c-1.188,0-1.612-0.297-1.824-1.315l-5.812-25.33h-0.638l-5.77,25.33
		c-0.255,1.019-0.679,1.315-1.825,1.315h-2.036c-1.146,0-1.57-0.254-1.825-1.272l-5.558-25.713h-3.563v-2.843h10.903v2.843h-4.073
		l4.795,23.719h0.679l5.855-25.374c0.213-1.018,0.68-1.314,1.824-1.314h2.08C180.762,324.523,181.229,324.82,181.439,325.838z"/>
	<path fill="#FFFFFF" d="M231.722,353.036c-0.849,0.849-2.079,1.315-4.328,1.315h-9.589c-2.164,0-3.437-0.297-4.328-1.23
		c-1.146-1.146-1.569-2.334-1.612-7.723h3.268c0.042,4.159,0.297,4.88,0.806,5.389c0.424,0.467,0.977,0.595,2.376,0.595h8.571
		c1.4,0,1.994-0.128,2.504-0.637c0.551-0.552,0.764-1.697,0.764-4.54c0-2.759-0.127-3.479-0.764-4.073
		c-0.425-0.467-1.019-0.637-2.632-0.807l-8.74-0.849c-2.333-0.212-3.563-0.594-4.37-1.442c-1.061-1.019-1.4-2.504-1.4-6.322
		c0-3.649,0.425-5.473,1.74-6.746c0.848-0.849,2.078-1.315,4.285-1.315h8.655c2.207,0,3.479,0.297,4.37,1.23
		c1.188,1.188,1.528,2.419,1.613,7.51h-3.268c-0.084-3.818-0.254-4.625-0.806-5.177c-0.425-0.467-1.019-0.594-2.377-0.594h-7.68
		c-1.357,0-1.952,0.127-2.461,0.637c-0.594,0.551-0.764,1.867-0.764,4.413c0,2.673,0.17,3.352,0.764,3.945
		c0.425,0.467,1.019,0.595,2.631,0.764l8.74,0.85c2.249,0.212,3.522,0.594,4.328,1.399c1.062,1.061,1.443,2.589,1.443,6.534
		C233.462,350.108,232.995,351.806,231.722,353.036z"/>
</g>
</svg>
