<?xml version="1.0" encoding="utf-8"?>
<!-- Generator: Adobe Illustrator 15.1.0, SVG Export Plug-In . SVG Version: 6.00 Build 0)  -->
<!DOCTYPE svg PUBLIC "-//W3C//DTD SVG 1.1//EN" "http://www.w3.org/Graphics/SVG/1.1/DTD/svg11.dtd">
<svg version="1.1" id="Layer_1" xmlns="http://www.w3.org/2000/svg" xmlns:xlink="http://www.w3.org/1999/xlink" x="0px" y="0px"
	 width="180.461px" height="110.061px" viewBox="0 0 180.461 110.061" enable-background="new 0 0 180.461 110.061"
	 xml:space="preserve">
<g>
	<polygon fill="#ED1A3E" points="0,87.061 16.73,0 33.461,87.061 	"/>
	<polygon fill="#241F20" points="24.25,73.821 17.23,80.793 17.23,68.07 22.711,62.639 22.141,62.093 17.23,66.979 17.23,54.543 
		21.197,50.624 20.628,50.078 17.23,53.451 17.23,41.126 19.869,38.568 19.303,38.018 17.23,40.039 17.23,27.86 18.852,26.288 
		18.28,25.741 17.23,26.768 17.23,24.061 16.23,24.061 16.23,26.768 15.366,25.741 14.738,26.288 16.23,27.86 16.23,40.039 
		14.346,38.018 13.721,38.568 16.23,41.126 16.23,53.451 13.019,50.078 12.392,50.624 16.23,54.543 16.23,66.979 11.507,62.093 
		10.879,62.639 16.23,68.07 16.23,80.793 9.422,73.821 8.793,74.367 16.23,81.885 16.23,110.061 17.23,110.061 17.23,81.885 
		24.772,74.367 	"/>
	<polygon fill="#4CB25C" points="49,87.061 65.73,0 82.461,87.061 	"/>
	<polygon fill="#241F20" points="73.25,73.821 66.23,80.793 66.23,68.07 71.711,62.639 71.141,62.093 66.23,66.979 66.23,54.543 
		70.197,50.624 69.628,50.078 66.23,53.451 66.23,41.126 68.869,38.568 68.303,38.018 66.23,40.039 66.23,27.86 67.852,26.288 
		67.28,25.741 66.23,26.768 66.23,24.061 65.23,24.061 65.23,26.768 64.366,25.741 63.738,26.288 65.23,27.86 65.23,40.039 
		63.346,38.018 62.721,38.568 65.23,41.126 65.23,53.451 62.019,50.078 61.392,50.624 65.23,54.543 65.23,66.979 60.507,62.093 
		59.879,62.639 65.23,68.07 65.23,80.793 58.422,73.821 57.793,74.367 65.23,81.885 65.23,110.061 66.23,110.061 66.23,81.885 
		73.772,74.367 	"/>
	<polygon fill="#05A5B6" points="98,87.061 114.73,0 131.461,87.061 	"/>
	<polygon fill="#241F20" points="122.25,73.821 115.23,80.793 115.23,68.07 120.711,62.639 120.141,62.093 115.23,66.979 
		115.23,54.543 119.197,50.624 118.628,50.078 115.23,53.451 115.23,41.126 117.869,38.568 117.303,38.018 115.23,40.039 
		115.23,27.86 116.852,26.288 116.28,25.741 115.23,26.768 115.23,24.061 114.23,24.061 114.23,26.768 113.365,25.741 
		112.738,26.288 114.23,27.86 114.23,40.039 112.346,38.018 111.721,38.568 114.23,41.126 114.23,53.451 111.018,50.078 
		110.392,50.624 114.23,54.543 114.23,66.979 109.506,62.093 108.879,62.639 114.23,68.07 114.23,80.793 107.422,73.821 
		106.793,74.367 114.23,81.885 114.23,110.061 115.23,110.061 115.23,81.885 122.772,74.367 	"/>
	<polygon fill="#F37342" points="147,87.061 163.731,0 180.461,87.061 	"/>
	<polygon fill="#241F20" points="171.25,73.821 164.23,80.793 164.23,68.07 169.711,62.639 169.141,62.093 164.23,66.979 
		164.23,54.543 168.197,50.624 167.628,50.078 164.23,53.451 164.23,41.126 166.869,38.568 166.303,38.018 164.23,40.039 
		164.23,27.86 165.852,26.288 165.28,25.741 164.23,26.768 164.23,24.061 163.23,24.061 163.23,26.768 162.367,25.741 
		161.738,26.288 163.23,27.86 163.23,40.039 161.346,38.018 160.721,38.568 163.23,41.126 163.23,53.451 160.02,50.078 
		159.392,50.624 163.23,54.543 163.23,66.979 158.508,62.093 157.879,62.639 163.23,68.07 163.23,80.793 156.422,73.821 
		155.793,74.367 163.23,81.885 163.23,110.061 164.23,110.061 164.23,81.885 171.772,74.367 	"/>
</g>
</svg>
