<svg xmlns="http://www.w3.org/2000/svg" width="841.895" height="168.591" viewBox="0 510.982 841.895 168.591"><path fill="#FFF" d="M0 510.982h168.586v168.586H0z"/><g fill="#231F20"><path d="M354.496 635.312c0-27.76-10.652-36.517-28.395-41.158v-.48c17.747-4.87 26.702-15.19 26.702-40.998 0-13.15-3.244-24.69-11.032-32.73-6.58-6.563-14.364-8.96-29.458-8.96h-116.35v38.448h17.746v94.646h-17.746v35.494h116.104c13.88 0 22.916-2.04 29.983-9.107 7.784-7.793 12.45-18.36 12.45-35.16l-.004.005zm-90.513-88.837h26.666c4.62 0 6.322 1.224 7.54 2.445 1.707 1.7 2.68 5.36 2.68 13.643 0 8.52-1.218 12.218-2.922 14.17-1.46 1.453-3.167 2.275-7.3 2.275h-26.665v-32.533zm35.432 95.408c-1.698 1.703-3.656 2.19-8.033 2.19h-27.396l-.006-35.487h27.396c4.383 0 6.335 1.182 8.04 2.893 1.95 1.942 2.927 4.85 2.927 15.793 0 11.202-1.222 12.905-2.928 14.61zM532.898 644.074h-.007c-.234-2.957-.978-6.94-.978-9.863-.24-24.583-8.063-30.806-25.812-34.692v-.49c20.704-3.887 28.246-11.055 28.246-41.24 0-21.18-1.937-30.536-9.484-38.08-6.575-6.57-16.063-8.724-30.67-8.724H378.92v38.448h17.745v94.646H378.92v35.492h85.772v-35.492h-17.746V617.46h16.573c8.27 0 11.197.365 13.378 2.557 2.438 2.438 3.174 4.998 3.657 17.656.978 28.472 2.93 34.254 6.564 37.898 2.935 2.927 6.58 4 16.8 4h46.542v-35.493l-17.564-.003zm-53.323-64.287c-1.456 1.46-4.13 2.18-11.188 2.18l-.003.002h-21.44v-35.49h21.44c7.062 0 9.74 1.27 11.188 2.72 2.2 2.437 2.688 6.857 2.688 15.626.003 8.762-.482 12.526-2.685 14.96zM663.614 644.074v35.494h-88.73v-35.494h20.704v-94.642h-20.704v-38.45h88.73v38.45h-20.706v94.642M826.31 519.943c-6.572-6.564-13.88-8.96-31.647-8.96h-59.396c-17.77 0-25.07 2.234-31.646 8.81-9.978 9.737-15.586 28.526-15.586 75.51 0 46.987 5.606 65.9 15.587 75.645 6.566 6.58 13.872 8.62 31.647 8.62h59.396c17.77 0 25.07-1.978 31.646-8.557 9.978-9.74 15.585-28.27 15.585-75.253 0-46.976-5.61-66.07-15.586-75.814zm-39.93 119.61c-1.452 1.455-3.89 1.564-11.197 1.564h-20.438c-7.315 0-9.74-.11-11.203-1.564v.002c-1.7-1.703-2.923-6.614-2.923-44.108 0-37.246 1.226-42.396 2.918-44.1 1.466-1.458 3.89-1.915 11.21-1.915h20.44c7.307 0 9.743.36 11.192 1.82 1.696 1.71 2.922 6.936 2.922 44.182 0 37.242-1.226 42.416-2.922 44.12z"/></g><path fill="#FBAA26" d="M0 510.982v168.586h168.586V510.982H0zM140.49 614.5h-36.972v36.97h-38.45V614.5H28.1v-38.45h36.97V539.08h38.45v36.973h36.97v38.45z"/></svg>